<?xml version="1.0" encoding="UTF-8"?>
<svg width="351px" height="87px" viewBox="0 0 351 87" version="1.1" xmlns="http://www.w3.org/2000/svg" xmlns:xlink="http://www.w3.org/1999/xlink">
    <title>Fichier 1 Copy</title>
    <g id="Symbols" stroke="none" stroke-width="1" fill="none" fill-rule="evenodd">
        <g id="Footer" transform="translate(-924, -162)">
            <g id="Fichier-1-Copy" transform="translate(925, 163)">
                <path d="M283.092083,24.9845797 L267.907917,24.9845797 C266.304585,24.9845797 265,23.822666 265,22.3946762 C265,20.9666864 266.304585,19.8047726 267.907917,19.8047726 C268.171757,19.8047726 268.432349,19.835863 268.684823,19.8980439 C269.190583,19.0448651 270.168007,18.5184973 271.255837,18.5184973 C271.742926,18.5184973 272.220272,18.6269522 272.645663,18.8337396 C273.390096,17.6935168 274.758002,16.9900059 276.24281,16.9900059 C277.921641,16.9900059 279.417002,17.874275 280.071324,19.2473143 C280.737823,19.3362474 281.346683,19.6276296 281.798863,20.0751869 C282.198276,19.8987669 282.64315,19.8054957 283.092083,19.8054957 C284.695415,19.8054957 286,20.9674094 286,22.3953992 C286,23.823389 284.695415,24.9853028 283.092083,24.9853028 L283.092083,24.9845797 Z M267.907917,19.9978224 C266.424733,19.9978224 265.217566,21.0729722 265.217566,22.3939531 C265.217566,23.7149341 266.424733,24.7900839 267.907917,24.7900839 L283.092083,24.7900839 C284.575267,24.7900839 285.782434,23.7149341 285.782434,22.3939531 C285.782434,21.0729722 284.575267,19.9978224 283.092083,19.9978224 C282.650456,19.9978224 282.212077,20.0954318 281.824842,20.2805282 L281.747719,20.3174029 L281.690892,20.2573912 C281.254948,19.7997114 280.647711,19.5061601 279.982024,19.4302416 L279.918703,19.4230113 L279.894348,19.3702299 C279.287111,18.0405726 277.85426,17.1816096 276.243621,17.1816096 C274.80184,17.1816096 273.476148,17.8822284 272.783671,19.0108826 L272.729279,19.0990926 L272.631862,19.0477573 C272.217025,18.8272323 271.741302,18.710824 271.256649,18.710824 C270.221587,18.710824 269.295307,19.2256233 268.839068,20.054942 L268.797665,20.1294144 L268.708366,20.1048313 C268.450209,20.033251 268.180687,19.9970994 267.907917,19.9970994 L267.907917,19.9978224 Z" id="Shape" fill="#FFFFFF" fill-rule="nonzero"></path>
                <path d="M69.0920829,26.983404 L53.9079171,26.983404 C52.3045848,26.983404 51,25.8214902 51,24.3935004 C51,22.9655106 52.3045848,21.8035969 53.9079171,21.8035969 C54.1717566,21.8035969 54.4323488,21.8346873 54.6848229,21.8968681 C55.190583,21.0436894 56.1680068,20.5173215 57.2558373,20.5173215 C57.7421138,20.5173215 58.2202722,20.6257764 58.6456626,20.8325638 C59.3900959,19.692341 60.7580022,18.9888301 62.2428096,18.9888301 C63.9216406,18.9888301 65.4170017,19.8730992 66.0713236,21.2461386 C66.7378228,21.3350716 67.3466832,21.6264538 67.7988635,22.0740111 C68.1982759,21.8975911 68.6431498,21.8043199 69.0920829,21.8043199 C70.6954152,21.8043199 72,22.9662336 72,24.3942234 C72,25.8222132 70.6954152,26.984127 69.0920829,26.984127 L69.0920829,26.983404 Z M53.9079171,21.9973696 C52.4247333,21.9973696 51.2175661,23.0725194 51.2175661,24.3935004 C51.2175661,25.7144814 52.4247333,26.7896312 53.9079171,26.7896312 L69.0920829,26.7896312 C70.5752667,26.7896312 71.7824339,25.7144814 71.7824339,24.3935004 C71.7824339,23.0725194 70.5752667,21.9973696 69.0920829,21.9973696 C68.6504562,21.9973696 68.2120767,22.0949791 67.8248415,22.2793524 L67.7469074,22.3162271 L67.6900804,22.2562154 C67.2541364,21.7985356 66.6468996,21.5049843 65.9812123,21.4290659 L65.9178908,21.4218355 L65.8935364,21.3690541 C65.2862997,20.0393968 63.8534483,19.1804338 62.2428096,19.1804338 C60.8010283,19.1804338 59.4753363,19.8810526 58.7828591,21.0097068 L58.7284676,21.0979168 L58.6310499,21.0465815 C58.2162131,20.8260565 57.7404902,20.7096482 57.2558373,20.7096482 C56.2207747,20.7096482 55.2944951,21.2244476 54.8382558,22.0537662 L54.7968533,22.1282386 L54.7075537,22.1036555 C54.4493969,22.0320752 54.1798747,21.9959236 53.9071053,21.9959236 L53.9079171,21.9973696 Z" id="Shape" fill="#FFFFFF" fill-rule="nonzero"></path>
                <path d="M81.2165522,28.9823232 L80.8741882,28.5408613 C80.2135832,27.6893358 79.0501021,27.5072249 79,27.4996892 L79.1605122,26.9897787 C79.2161811,26.9979423 80.3796623,27.1718896 81.2267582,27.9436631 C81.6850993,27.5536946 82.5952867,26.984127 84,26.984127 L84,27.5059689 C82.3716831,27.5059689 81.5644832,28.5301858 81.5570607,28.5408613 L81.2165522,28.9829512 L81.2165522,28.9823232 Z" id="Path" fill="#FDFDFD" fill-rule="nonzero"></path>
                <path d="M30.874536,32.5389989 C30.2138085,31.6872058 29.0501114,31.5050377 29,31.4974997 L29.1605419,30.9874289 C29.2162212,30.9955951 30.3799183,31.1695971 31.2271715,31.9416131 C31.6855976,31.551522 32.595954,30.9817754 34,30.9817754 L34,31.5037814 C32.3713808,31.5037814 31.5649592,32.5283201 31.5566073,32.5383708 L31.2160356,32.9805996 L30.874536,32.5389989 Z" id="Path" fill="#FDFDFD" fill-rule="nonzero"></path>
                <path d="M264.216964,30.9817754 L263.874536,30.5401747 C263.213808,29.6883816 262.050111,29.5062135 262,29.4986755 L262.160542,28.9886047 C262.216221,28.9967709 263.379918,29.1707728 264.227171,29.9427889 C264.685598,29.5526978 265.595954,28.9829512 267,28.9829512 L267,29.5049572 C265.371381,29.5049572 264.564959,30.5294959 264.556607,30.5395466 L264.216036,30.9817754 L264.216964,30.9817754 Z" id="Path" fill="#FDFDFD" fill-rule="nonzero"></path>
                <g id="Group" stroke="#FFFFFF" stroke-width="0.5">
                    <path d="M0.240944567,50.1456067 L0.808485091,50.1456067 L1.989994,51.6127213 L3.37642586,52.3097413 L4.92055233,52.3097413 L6.07084251,53.6853118 L12.2161297,53.7583864 L14.1228737,55.5009363 C14.1228737,55.5009363 15.5413248,55.6109498 15.8407044,55.7763716 C16.1400841,55.9417934 18.2989794,55.8679157 18.2989794,55.8679157 C18.2989794,55.8679157 20.710026,55.5378752 20.993396,55.4463311 C21.2767661,55.354787 22.1276766,55.8847791 22.1276766,55.8847791 C22.1276766,55.8847791 23.5461277,55.923324 24.0024014,55.7032969 C24.4594757,55.4832699 25.3255954,55.4463311 25.5625375,55.5017393 C25.7994797,55.5571476 26.0036022,56.0702763 26.0036022,56.0702763 C26.0036022,56.0702763 26.2557535,56.1987593 26.5079047,56.1987593 C26.760056,56.1987593 28.6507905,56.1072152 29.2335401,56.6203439 C29.8162898,57.1334727 30.273364,57.9589756 30.2893736,58.545982 C30.3053832,59.1329884 30.2893736,59.6645866 30.2893736,59.6645866 L31.2035221,59.6645866 C31.2035221,59.6645866 32.5587352,60.4162118 32.9685811,60.4531507 C33.3784271,60.4900895 34.1028617,60.4531507 34.1028617,60.4531507 C34.1028617,60.4531507 34.496698,60.5816336 34.5759456,60.7831912 C34.6543926,60.9847488 35.2379428,62.2687752 35.2379428,62.2687752 L35.7262357,62.2687752 C35.7262357,62.2687752 36.001601,62.4117125 36.1080648,62.6052399 C36.2145287,62.7987674 36.7988793,63.656391 36.7988793,63.656391 C36.7988793,63.656391 37.2047228,64.2064586 37.2791675,64.1743378 C37.3536122,64.1422171 37.5313188,64.3253053 37.5313188,64.3253053 C37.5313188,64.3253053 37.826696,64.7195873 37.8779268,64.8705548 C37.9291575,65.0215222 38.1380828,65.315427 38.3542125,65.3427296 C38.5711427,65.3700322 39.3980388,66.4243953 39.3980388,66.4243953 C39.3980388,66.4243953 39.5085051,66.5480602 39.531719,66.84598 C39.574945,67.0387044 39.6854112,67.2129594 39.6854112,67.2129594 C39.6854112,67.2129594 40.5675405,68.3869723 40.9613768,68.4833345 C41.3552131,68.5796967 42.31659,68.98763 42.31659,68.98763 C42.31659,68.98763 42.9977987,69.4461535 43.4236542,69.7488914 C43.8487092,70.0516294 45.4288573,70.6426509 45.4288573,70.6426509 C45.4288573,70.6426509 45.8539123,70.7526644 46.0396238,71.041751 C46.2245347,71.3308377 46.3470082,71.6014548 46.5239143,71.6656963 C46.7008205,71.7299378 47.6581949,72.1009323 47.6581949,72.1009323 C47.6581949,72.1009323 48.0760456,72.3121261 48.4458675,72.1418862 C48.8164899,71.9724493 49.7418451,71.8760871 49.7418451,71.8760871 C49.7418451,71.8760871 50.8881329,72.3530801 51.5029017,72.3394287 C52.1176706,72.3257774 52.8188913,72.3803827 53.0822493,72.4767449 C53.3464078,72.5731071 53.9331599,72.875845 54.2205323,72.8164217 C54.5079047,72.7569983 55.0082049,72.5875614 55.1226736,72.5915765 C55.2371423,72.5955916 55.6389834,72.8573756 55.6389834,72.8573756 C55.6389834,72.8573756 56.0680408,72.916799 56.2457474,72.8943144 C56.4234541,72.8718299 57.0214128,73.0774026 57.0214128,73.0774026 C57.0214128,73.0774026 57.5809486,73.3664893 57.8843306,73.3616711 C58.1877126,73.356853 58.7232339,73.4259126 58.821693,73.5359261 C58.9201521,73.6459396 59.6605964,74.3244902 59.7470482,74.489912 C59.8335001,74.6553338 59.8655193,74.6778183 60.1921153,74.8657246 C60.5187112,75.0536309 60.8541125,75.2921273 61.0630378,75.6036985 C61.2719632,75.9152696 61.3976386,76.2637796 61.5673404,76.4010957 C61.7370422,76.5384119 62.9697819,77.1808266 62.9697819,77.1808266 C62.9697819,77.1808266 63.4348609,77.3872023 63.4972984,77.6626376 C63.5605363,77.9380729 63.7806684,78.1902207 63.7806684,78.1902207 C63.7806684,78.1902207 64.3634181,78.6896981 64.4658795,79.0518594 C64.568341,79.4140207 64.7180308,79.7536975 64.8677206,79.8677261 C65.0174104,79.9825577 65.2927757,80.1246919 65.6553932,80.1568127 C66.0180108,80.1889334 67.7822694,80.1014044 67.7822694,80.1014044 C67.7822694,80.1014044 68.1208725,80.1841153 68.2353412,80.302962 C68.3498099,80.4218087 68.6964179,80.7341829 69.0230138,80.7936063 C69.3496098,80.8530296 69.9723834,80.7984244 70.1180708,80.6562901 C70.2637583,80.5141559 70.9177507,80.0877531 71.0986592,80.0789199 C71.2795677,80.0700867 71.6301781,80.2074028 71.6301781,80.2074028 C71.6301781,80.2074028 72.4258555,80.5053227 72.7452471,80.5470796 C73.0646388,80.5888366 74.5175105,80.8313481 74.6952171,80.8401813 C74.8721233,80.8490145 75.1242746,80.8859534 75.2627577,80.9871337 C75.4012407,81.088314 76.9293576,82.266342 76.9293576,82.266342 L78.3886332,82.266342 C78.3886332,82.266342 79.3764259,83.0460728 79.5869522,83.40181 C79.7974785,83.7575471 80,84.9500294 80,84.9500294 L0,84.9500294 L0.240944567,50.1464097 L0.240944567,50.1456067 Z" id="Path"></path>
                    <path d="M15.371623,55.6494947 L16.1889133,15.4383493 C16.1889133,15.4383493 16.1648989,15.248837 16.103262,15.1693381 C16.041625,15.0898393 16.0360216,14.245867 16.0360216,14.245867 C16.0360216,14.245867 16.0480288,14.0563547 16.1336802,14.0563547 C16.2193316,14.0563547 16.1889133,13.8242823 16.1889133,13.8242823 L16.1945167,12.5041201 C16.1945167,12.5041201 15.4580748,11.7460708 15.4636782,11.1839579 C15.4692816,10.621845 15.5669402,9.16677574 15.5669402,9.16677574 C15.5669402,9.16677574 15.5973584,8.80541747 16.0304183,8.52436103 C16.4634781,8.2433046 16.9309586,7.92209725 16.9205523,7.79441732 C16.9101461,7.6667374 17.055033,7.48686128 17.055033,7.48686128 L17.0806484,2.89841426 C17.0806484,2.89841426 17.1358815,2.73299247 17.2815689,2.65509969 C17.4272564,2.5772069 18.9681809,1.85288432 18.9681809,1.85288432 C18.9681809,1.85288432 19.1506904,1.80711228 19.1506904,1.62803918 C19.1506904,1.44896608 19.1739043,0.385769742 19.1739043,0.385769742 C19.1739043,0.385769742 19.4660796,0.00995713982 19.6998199,0 C19.9327597,-0.00851228294 20.2209326,0.165742706 20.2209326,0.43154179 L20.2209326,1.57343393 C20.2209326,1.57343393 20.2481489,1.78462776 20.3257955,1.85288432 C20.4034421,1.92114089 21.1462878,2.20701543 21.1462878,2.20701543 L22.071643,2.65509969 C22.071643,2.65509969 22.2405443,2.76029509 22.2405443,2.90242935 L22.2405443,7.39531719 C22.2405443,7.39531719 22.2269362,7.46437677 22.2909746,7.51898202 C22.355013,7.57358727 22.4598759,7.65629816 22.4598759,7.73419095 C22.4598759,7.81208373 22.4462678,7.91326404 22.5007004,7.98633872 C22.5559336,8.05941339 23.2547529,8.522755 23.2547529,8.522755 C23.2547529,8.522755 23.7662598,8.78855408 23.7806684,9.30248584 C23.795077,9.81641761 23.7806684,11.2369571 23.7806684,11.2369571 C23.7806684,11.2369571 23.7438463,11.7043138 23.4148489,12.016688 C23.0858515,12.3282591 23.0994597,12.5619375 23.0994597,12.5619375 L23.0906544,14.0386883 C23.0906544,14.0386883 23.2723634,14.1109599 23.269962,14.2145493 C23.2675605,14.3181387 23.2491495,15.1050967 23.2491495,15.1050967 C23.2491495,15.1050967 23.1691015,15.2480339 23.0930558,15.2544581 C23.0906544,15.3146845 23.1915149,55.8558704 23.1915149,55.8558704" id="Path"></path>
                    <path d="M16.1937162,12.5049231 C16.1937162,12.5049231 19.5605363,13.1216413 23.0986592,12.5643465" id="Path"></path>
                    <path d="M16.8260957,7.97188439 C19.0146088,7.3696206 20.2897739,7.43386207 22.7504503,8.18147218" id="Path"></path>
                    <path d="M17.0870522,2.83176373 C19.2755653,2.22949994 20.1160696,2.22227278 22.2165299,2.81329431" id="Path"></path>
                    <line x1="17.9263258" y1="2.6559027" x2="17.9263258" y2="7.71090341" id="Path"></line>
                    <line x1="19.034991" y1="2.42302737" x2="19.034991" y2="7.5663601" id="Path"></line>
                    <line x1="20.1428557" y1="2.34754365" x2="20.1428557" y2="7.54949672" id="Path"></line>
                    <line x1="21.2507204" y1="2.47682961" x2="21.2507204" y2="7.69404003" id="Path"></line>
                    <path d="M17.0726436,4.2241976 L18.9473684,3.88291479 C19.4156494,3.82911256 19.8887332,3.82911256 20.3570142,3.88291479 L22.2397438,4.2241976" id="Path"></path>
                    <path d="M17.1118671,5.64554014 L18.986592,5.30425732 C19.4548729,5.25045509 19.9279568,5.25045509 20.3962377,5.30425732 L22.2789674,5.64554014" id="Path"></path>
                    <path d="M17.0686412,7.16485091 L18.943366,6.8235681 C19.411647,6.76976587 19.8847308,6.76976587 20.3530118,6.8235681 L22.2357414,7.16485091" id="Path"></path>
                </g>
                <g id="Group" transform="translate(84, 1.9988)" stroke="#FFFFFF" stroke-width="0.5">
                    <polyline id="Path" points="3.91269118 34.8894018 0.0713000645 37.2603537 0.13539001 34.391518 3.97197438 31.4754553 7.45285956 31.5763128"></polyline>
                    <path d="M161.527492,21.5105737 L161.545918,20.4635767 C161.545918,20.4635767 162.097092,20.0769563 161.521083,19.4309879" id="Path"></path>
                    <path d="M159.518273,21.2144048 L159.536698,20.1810156 C159.536698,20.1810156 160.154365,19.8296152 159.578357,19.1916515" id="Path"></path>
                    <path d="M157.581154,20.9702656 L157.59958,19.9384773 C157.59958,19.9384773 158.206832,19.5886778 157.630022,18.9515146" id="Path"></path>
                    <path d="M155.551105,20.7029132 L155.56873,19.6767281 C155.56873,19.6767281 156.122307,19.3277291 155.546298,18.6953685" id="Path"></path>
                    <path d="M151.783417,20.4427648 L151.797837,19.6070883 C151.797837,19.6070883 151.603164,19.1716401 151.648027,18.4696398" id="Path"></path>
                    <path d="M148.50762,20.430758 L148.521239,19.667923 C148.521239,19.667923 148.328969,19.0779867 148.373031,18.4368211" id="Path"></path>
                    <path d="M150.145118,20.5140054 L150.158737,19.7511705 C150.158737,19.7511705 149.966467,19.1612341 150.010529,18.5200686" id="Path"></path>
                    <path d="M145.157318,21.0302998 L145.170136,20.3130909 C145.170136,20.3130909 144.932202,19.5294441 144.974662,18.9267004" id="Path"></path>
                    <path d="M143.289897,21.6586581 L143.303516,20.8878186 C143.303516,20.8878186 143.115252,20.4387625 143.159314,19.7919938" id="Path"></path>
                    <path d="M141.5819,22.2806127 L141.59632,21.4561426 C141.59632,21.4561426 141.408857,20.9758688 141.45372,20.283474" id="Path"></path>
                    <path d="M138.494367,22.5671761 L138.510389,21.6442499 C138.510389,21.6442499 138.736306,21.174382 138.531219,20.4371616" id="Path"></path>
                    <path d="M136.621338,22.3606583 L136.637361,21.4241244 C136.637361,21.4241244 136.863278,20.9478528 136.658991,20.1994261" id="Path"></path>
                    <path d="M134.603306,22.0212648 L134.618527,21.127155 C134.618527,21.127155 134.844445,20.6724958 134.638556,19.9584887" id="Path"></path>
                    <path d="M132.623728,21.8155475 L132.63975,20.9006259 C132.63975,20.9006259 132.865667,20.4355607 132.66058,19.704744" id="Path"></path>
                    <path d="M130.669786,21.52178 L130.685808,20.6260693 C130.685808,20.6260693 130.911725,20.1706096 130.706637,19.4542012" id="Path"></path>
                    <path d="M128.58526,21.2968518 L128.601283,20.3843315 C128.601283,20.3843315 128.8272,19.9200668 128.622112,19.1916515" id="Path"></path>
                    <path d="M126.544797,21.0118893 L126.560819,20.1145777 C126.560819,20.1145777 126.786736,19.6583176 126.581648,18.9411086" id="Path"></path>
                    <path d="M124.440243,20.7645483 L124.456265,19.8592321 C124.456265,19.8592321 124.682183,19.3989697 124.477095,18.6753571" id="Path"></path>
                    <path d="M122.441438,20.5076018 L122.45746,19.6062879 C122.45746,19.6062879 122.683377,19.1476264 122.47829,18.4272156" id="Path"></path>
                    <path d="M120.229534,20.2234398 L120.245556,19.3229263 C120.245556,19.3229263 120.471473,18.8650653 120.266385,18.145455" id="Path"></path>
                    <path d="M118.125781,19.9512846 L118.141804,19.0547734 C118.141804,19.0547734 118.367721,18.5985133 118.162633,17.8821048" id="Path"></path>
                    <path d="M113.858993,19.3613482 L113.874214,18.4872498 C113.874214,18.4872498 114.09933,18.0429966 113.894242,17.3449986" id="Path"></path>
                    <path d="M111.833751,19.1348191 L111.848972,18.2471129 C111.848972,18.2471129 112.074088,17.7956555 111.869,17.0856507" id="Path"></path>
                    <path d="M109.810111,18.8634644 L109.825332,17.9837628 C109.825332,17.9837628 110.050448,17.5363077 109.84536,16.8335069" id="Path"></path>
                    <path d="M107.27295,19.1068031 L107.286569,18.3375645 C107.286569,18.3375645 107.076674,17.8981139 107.305796,17.226531" id="Path"></path>
                    <path d="M105.824517,19.5622628 L105.837335,18.8354484 C105.837335,18.8354484 105.627441,18.4040024 105.856562,17.7444263" id="Path"></path>
                    <path d="M104.098895,19.9440805 L104.106105,19.5438523 C104.106105,19.5438523 103.896211,19.0931953 104.126134,18.4040024" id="Path"></path>
                    <path d="M116.078107,19.6775285 L116.093329,18.787421 C116.093329,18.787421 116.318445,18.3351631 116.113357,17.6235574" id="Path"></path>
                    <line x1="108.813482" y1="16.6990303" x2="108.728482" y2="20.5916497" id="Path"></line>
                    <path d="M37.639224,3.42746323 L37.6536442,2.60459406 C37.6536442,2.60459406 38.2056189,2.16434304 37.6280082,1.60002128" id="Path"></path>
                    <path d="M43.1886121,5.0067637 L43.2030324,4.20310548 C43.2030324,4.20310548 43.7558082,3.71642799 43.1781975,3.15210623" id="Path"></path>
                    <path d="M42.0462089,4.89309889 L42.0606291,4.08944067 C42.0606291,4.08944067 42.6134049,3.57714858 42.0357942,3.01282682" id="Path"></path>
                    <path d="M40.9038056,4.77463134 L40.9182258,3.97097312 C40.9182258,3.97097312 41.4710016,3.45868103 40.893391,2.89435927" id="Path"></path>
                    <path d="M39.8439181,4.69298479 L39.8583383,3.86291151 C39.8583383,3.86291151 40.4111141,3.35061942 39.8335035,2.78629766" id="Path"></path>
                    <path d="M23.3703987,2.76228397 L23.3864212,1.84976368 C23.3864212,1.84976368 23.939197,1.36228573 23.3615863,0.797963974" id="Path"></path>
                    <path d="M25.0896115,2.61980273 L25.035135,1.7080829 C25.035135,1.7080829 24.46153,1.21980449 25.0143058,0.631469044" id="Path"></path>
                    <path d="M22.1534908,2.56937398 L22.1695133,1.65685369 C22.1695133,1.65685369 22.7222891,1.16057072 22.1446785,0.596248962" id="Path"></path>
                    <path d="M20.7419098,2.39247311 L20.7579323,1.47995282 C20.7579323,1.47995282 21.3115092,0.952452058 20.7330974,0.3881303" id="Path"></path>
                    <path d="M19.280659,2.16994624 L19.2966815,1.25742594 C19.2966815,1.25742594 19.8502584,0.724321985 19.2726478,0.160000227" id="Path"></path>
                    <path d="M34.4363289,3.1545076 L34.4523514,2.24198731 C34.4523514,2.24198731 35.0043261,1.77131895 34.4267154,1.20699719" id="Path"></path>
                    <path d="M36.0369753,3.34261485 L36.0529978,2.43009456 C36.0529978,2.43009456 36.6049725,1.96823122 36.0273618,1.40390946" id="Path"></path>
                    <path d="M32.8348814,3.00242089 L32.8509039,2.0899006 C32.8509039,2.0899006 33.4036797,1.5776085 32.826069,1.01328674" id="Path"></path>
                    <path d="M29.6335886,2.60779588 L29.6496111,1.69527559 C29.6496111,1.69527559 30.2023869,1.1829835 29.6247763,0.618661741" id="Path"></path>
                    <path d="M26.4322958,2.24198731 L26.4483183,1.32946702 C26.4483183,1.32946702 27.0010941,0.817174927 26.4234835,0.252853169" id="Path"></path>
                    <path d="M31.2350361,2.77989401 L31.2510586,1.86737372 C31.2510586,1.86737372 31.8038344,1.37829486 31.2262238,0.813973102" id="Path"></path>
                    <path d="M28.0329422,2.41968863 L28.0489647,1.50716834 C28.0489647,1.50716834 28.6017405,0.994876247 28.0241299,0.430554488" id="Path"></path>
                    <path d="M17.0647492,3.2297505 L17.0791694,2.41728726 C17.0791694,2.41728726 16.560842,2.18755628 16.567251,1.84336003 C16.5736599,1.49756286 16.6153184,1.35668254 16.8396332,1.1957908" id="Path"></path>
                    <path d="M17.8658735,2.5157434 L17.8802937,1.70328016 C17.8802937,1.70328016 17.3619663,1.47354917 17.3683753,1.12935292 C17.3747843,0.783555759 17.4164427,0.642675433 17.6407575,0.481783698" id="Path"></path>
                    <path d="M16.0913831,4.08463793 L16.1050022,3.30339249 C16.1050022,3.30339249 15.5866748,3.07366151 15.5930838,2.72946526 C15.5994928,2.38526901 15.6411512,2.24278777 15.865466,2.08189603" id="Path"></path>
                    <path d="M14.9922405,5.06679793 L15.0058597,4.30156162 C15.0058597,4.30156162 14.4875322,4.07183063 14.4939412,3.72763438 C14.5003502,3.38183722 14.5420087,3.24095689 14.7663235,3.08006516" id="Path"></path>
                    <path d="M14.0020509,5.92008445 L14.0148689,5.20207506 C14.0148689,5.20207506 13.4965414,4.97234407 13.5029504,4.62814782 C13.5093594,4.28395157 13.5510179,4.14147034 13.7753327,3.9805786" id="Path"></path>
                    <path d="M13.2025288,6.6220847 L13.2145457,5.92408673 C13.2145457,5.92408673 12.6962182,5.69435574 12.7026272,5.35015949 C12.7090362,5.00436233 12.7506947,4.863482 12.9750095,4.70259027" id="Path"></path>
                    <path d="M12.3092752,7.40733243 L12.3212921,6.74055225 C12.3212921,6.74055225 11.8029646,6.51082127 11.8093736,6.16662502 C11.8157826,5.82082785 11.8574411,5.67994753 12.0817559,5.51905579" id="Path"></path>
                    <path d="M11.599479,8.0300875 L11.6106948,7.38251828 C11.6106948,7.38251828 11.0923673,7.15278729 11.0987763,6.80859104 C11.1051853,6.46279388 11.1468438,6.32191356 11.3711586,6.16102182" id="Path"></path>
                    <path d="M10.7647075,8.76330556 L10.7751221,8.15015596 C10.7751221,8.15015596 10.2567947,7.92042498 10.2632037,7.57622873 C10.2696127,7.23043156 10.3112711,7.08955124 10.5355859,6.9286595" id="Path"></path>
                    <ellipse id="Oval" transform="translate(22.0521, 7.2865) rotate(-89) translate(-22.0521, -7.2865)" cx="22.0521266" cy="7.28647891" rx="1.16706572" ry="1"></ellipse>
                    <path d="M23.5258168,6.98549191 C23.5258168,6.98549191 23.4601246,5.41819829 22.0853953,5.39498505 C20.7106659,5.37177182 20.7595345,6.7213413 20.7595345,6.7213413" id="Path"></path>
                    <ellipse id="Oval" transform="translate(32.9354, 7.7362) rotate(-89) translate(-32.9354, -7.7362)" cx="32.9354048" cy="7.73623719" rx="1.16706572" ry="1"></ellipse>
                    <path d="M34.4090907,7.4353484 C34.4090907,7.4353484 34.3433985,5.86805478 32.9686692,5.84484155 C31.5939398,5.82162831 31.6428084,7.17119779 31.6428084,7.17119779" id="Path"></path>
                    <ellipse id="Oval" transform="translate(41.1759, 9.5477) rotate(-89) translate(-41.1759, -9.5477)" cx="41.1759063" cy="9.54771917" rx="1.16706572" ry="1"></ellipse>
                    <path d="M42.6494555,9.24678122 C42.6494555,9.24678122 42.5837633,7.6794876 41.2090339,7.65627437 C39.8343046,7.63306113 39.8831732,8.98263061 39.8831732,8.98263061" id="Path"></path>
                    <ellipse id="Oval" transform="translate(42.7813, 20.1224) rotate(-89) translate(-42.7813, -20.1224)" cx="42.7813434" cy="20.1224438" rx="1.16706572" ry="1"></ellipse>
                    <path d="M44.2549086,19.8216107 C44.2549086,19.8216107 44.1892164,18.254317 42.8144871,18.2311038 C41.4397577,18.2078906 41.4886263,19.55746 41.4886263,19.55746" id="Path"></path>
                    <ellipse id="Oval" transform="translate(21.2702, 17.79) rotate(-89) translate(-21.2702, -17.79)" cx="21.2702175" cy="17.7899572" rx="1.16706572" ry="1"></ellipse>
                    <path d="M22.7439195,17.4890807 C22.7439195,17.4890807 22.6782273,15.9217871 21.3034979,15.8985739 C19.9287686,15.8753606 19.9776372,17.2249301 19.9776372,17.2249301" id="Path"></path>
                    <ellipse id="Oval" transform="translate(158.7616, 24.1999) rotate(-89) translate(-158.7616, -24.1999)" cx="158.761589" cy="24.1999303" rx="1" ry="1"></ellipse>
                    <path d="M159.764218,23.9143442 C159.764218,23.9143442 159.585567,22.67924 158.857345,22.6664327 C158.089067,22.6528249 157.839917,23.605368 157.839917,23.605368" id="Path"></path>
                    <ellipse id="Oval" transform="translate(150.4116, 23.7514) rotate(-89) translate(-150.4116, -23.7514)" cx="150.411599" cy="23.7513858" rx="1" ry="1"></ellipse>
                    <path d="M151.57192,23.4092562 C151.57192,23.4092562 151.003122,22.2686059 150.437528,22.2590004 C149.871935,22.2493949 149.421703,23.1082846 149.421703,23.1082846" id="Path"></path>
                    <path d="M25.5278265,0.114374212 C25.5278265,0.114374212 25.408459,1.3646871 25.6640176,1.63844319 C25.9195763,1.91219928 25.8610942,2.82471957 25.8610942,2.82471957 L24.9910732,21.5065714 L23.9664352,21.4889613 L23.3607852,22.3286401 L16.8228096,21.7090868 L13.9668014,23.5325265 L14.273632,14.6890843 C14.273632,14.6890843 13.9996475,14.1623839 13.3923953,14.0863406 C12.785143,14.0102972 11.5458037,13.9022356 11.5458037,13.9022356 C11.5458037,13.9022356 10.1462395,14.2928583 10.0565136,15.7032625 C9.99963377,16.4620952 10.3417139,16.8375092 10.3417139,16.8375092 C10.3417139,16.8375092 10.7919457,17.236937 10.7398726,17.714009 C10.6877996,18.191081 10.3537307,18.6321325 10.3513273,18.7674096 C10.348924,18.9026867 10.5532107,19.6671226 10.7014187,19.9200668 C10.8496267,20.173011 10.7590996,20.9862747 10.7590996,20.9862747 L10.413815,26.0083381" id="Path"></path>
                    <path d="M38.81207,2.74547438 L41.4245364,23.1947339 L42.3209945,23.3108001 L42.3089776,23.9847844 L57.2932069,25.7025638 L154.337402,35.0118717 C154.337402,35.0118717 153.843909,19.8864476 153.859931,19.5990838 C153.81587,19.4301875 153.871147,18.4888508 153.871147,18.4888508" id="Path"></path>
                    <path d="M0,38.3681853 C0.839578288,38.4842515 2.49390001,40.6070619 2.49390001,40.6070619 L2.48508764,59.4626127 L1.47486987,59.8004053 C1.47486987,59.8004053 1.37312709,62.7116652 1.36992259,62.8861647 C1.36992259,62.8861647 1.36992259,62.8997725 1.36992259,62.9141807 L1.44683052,62.8877656 L3.19568492,62.2794188 L4.37013317,62.3002306 L5.19048447,62.0897106 L9.75529085,62.1481439 L10.613295,62.0056627 L10.6661692,58.989543 L10.812775,58.0642154 L10.9145177,35.9828253" id="Path"></path>
                    <path d="M174.973563,69.7308674 C174.973563,69.7308674 173.827955,69.2545958 173.023626,69.2185753 C172.219297,69.1825547 165.850359,68.811143 165.850359,68.811143" id="Path"></path>
                    <path d="M175,68.9704338 C175,68.9704338 173.601237,68.5766092 172.92669,68.5429901 C172.252144,68.5093709 165.861575,68.158771 165.861575,68.158771 L151.261885,67.7009099 L150.708308,67.4895894 L54.1824412,63.8595197 L53.4293843,63.9819895 L48.9382814,63.661807 L44.1595748,63.5785595 L44.1683872,63.0782743 L23.3487683,62.4178977" id="Path"></path>
                    <line x1="165.887211" y1="64.9785577" x2="165.410542" y2="82.7671002" id="Path"></line>
                    <polyline id="Path" points="51.0372271 37.7766481 48.4536012 39.9130662 48.9382814 63.6634079 48.6082182 64.294968 48.375091 82.8079235"></polyline>
                    <polyline id="Path" points="21.2978901 35.4505218 23.5971169 36.9914003 23.6932518 61.3821072 23.3872223 61.485366 23.3487683 62.4194986 23.0122961 82.8079235"></polyline>
                    <polyline id="Path" points="10.6124939 62.0040618 14.1462533 62.100917 15.8862953 61.4541482 22.2592393 61.6830788 23.3872223 61.485366 44.618619 62.2393959 44.6090056 62.7684976 48.8149082 62.8421396 53.3901292 63.1230998 54.1968614 63.0494578 150.721126 66.764376 151.252272 67.0125174"></polyline>
                    <polyline id="Path" points="165.700549 67.4023397 151.252272 67.0125174 151.627999 46.9706902 151.755378 45.6859577"></polyline>
                    <polyline id="Path" points="104.098895 19.9440805 108.759837 18.7449968 140.081394 22.7680907 146.67625 20.4691799 153.874352 20.5100032 163.471821 21.7523115"></polyline>
                    <line x1="151.261885" y1="67.7017104" x2="150.822068" y2="82.7671002" id="Path"></line>
                    <polyline id="Path" points="151.255476 45.8052257 151.120887 46.9618852 150.721126 66.764376"></polyline>
                    <line x1="150.21802" y1="82.7662997" x2="150.708308" y2="67.4903899" id="Path"></line>
                    <polyline id="Path" points="3.89426532 35.9540088 0.0528742052 38.292142 0.0713000645 37.2603537"></polyline>
                    <line x1="3.91527657" y1="34.8894018" x2="3.98927657" y2="31.4754553" id="Path"></line>
                    <polyline id="Path" points="7.45285956 31.5763128 8.70581799 31.5627051 9.30185449 31.0816308 12.3685584 31.159275 14.7511021 29.9081617 21.3924227 30.2907799 22.3786068 29.8497284 46.1832148 31.8060438 46.6670939 32.3503542 51.455414 33.1011823 51.7982952 33.4109589 151.15854 41.7277008 151.786622 41.6004283 165.043627 42.6866476"></polyline>
                    <path d="M45.2034398,13.1257929 L45.4766232,15.3998895 L57.8988569,16.7902823 C57.8988569,16.7902823 59.6557225,15.465527 61.2355397,15.5511758 C63.5395733,15.7072648 64.3495099,17.4898812 64.3495099,17.4898812 L79.1606964,19.15403 C79.1606964,19.15403 80.7044629,17.9781596 82.4877657,18.0237856 C84.2710684,18.0694116 85.2636615,19.7895924 85.2636615,19.7895924 L99.5180665,21.5009682 C99.5180665,21.5009682 100.72456,20.3739256 102.696127,20.4867899 C104.666893,20.5996543 105.418347,22.0332717 105.418347,22.0332717 L119.003813,23.6549963 C119.003813,23.6549963 120.192682,22.4286971 121.82297,22.5807839 C123.792935,22.7600861 124.287228,24.3634002 124.287228,24.3634002 L137.230193,25.7369834 C137.230193,25.7369834 138.206763,24.7075965 139.78658,24.8076535 C141.454521,24.8804951 142.335758,26.286897 142.335758,26.286897 L152.934633,27.3699145 C152.934633,27.3699145 153.91601,27.4027332 154.079439,26.9600808 C154.068224,26.5982745 154.053002,26.1123975 154.053002,26.1123975 L100.883983,19.5774715" id="Path"></path>
                    <line x1="137.229392" y1="25.7353825" x2="137.095604" y2="33.3581288" id="Path"></line>
                    <line x1="142.334156" y1="26.2852961" x2="142.20197" y2="33.8480081" id="Path"></line>
                    <line x1="118.995802" y1="23.6694046" x2="118.857208" y2="31.6091315" id="Path"></line>
                    <line x1="124.285626" y1="24.3617993" x2="124.149435" y2="32.1758547" id="Path"></line>
                    <line x1="105.428621" y1="22.0324712" x2="105.328621" y2="30.3107913" id="Path"></line>
                    <line x1="99.5172654" y1="21.5009682" x2="99.2400764" y2="29.7160522" id="Path"></line>
                    <line x1="85.2776822" y1="19.7895924" x2="85.2366822" y2="28.3832923" id="Path"></line>
                    <line x1="79.1781806" y1="19.15403" x2="79.0781806" y2="27.7925554" id="Path"></line>
                    <line x1="64.3495099" y1="17.4898812" x2="64.4495099" y2="26.3893554" id="Path"></line>
                    <line x1="57.9160597" y1="16.7902823" x2="57.8430597" y2="25.7553939" id="Path"></line>
                    <polyline id="Path" points="171.02402 82.8079235 171.231511 70.9395565 165.819115 70.5841539"></polyline>
                    <polyline id="Path" points="171.854786 82.815928 172.243331 71.0724323 173.978566 71.3926148 173.876023 82.7671002"></polyline>
                    <path d="M23.3487683,62.4194986 L22.3721978,62.6900529 L15.8670683,62.5763881 L14.1486566,62.972614 L13.3363166,62.9582058 L10.5964714,62.9101784 L9.70482002,63.2223564 L5.11998553,63.1423108 L4.1898802,63.3576335 L3.29101871,63.3416244 L1.35388218,63.7714695 C1.34909336,64.0308174 2.31284591,64.917723 2.52434273,65.2379056 C2.57080795,65.3091462 2.59644392,65.3907928 2.59804617,65.4756412 L2.29682343,80.4906022 L4.80434255,81.1797952 L9.38997816,81.1990061 L10.2712149,81.4751636 L13.7400832,81.4319389 L15.6972299,82.807123 L174.999296,82.8151276 C174.999296,82.8151276 174.991188,68.5718065 174.999296,68.1083422 C175.00721,67.644878 174.516121,67.5200068 174.407969,67.0837581 C174.072298,65.5268704 165.885609,64.9785577 165.885609,64.9785577 L166.063458,54.8063579 C166.063458,54.8063579 166.069867,53.6032719 166.302193,53.6072742 C166.534519,53.6112765 166.888616,53.2550734 166.891821,53.0525579 C166.895025,52.8500424 166.158792,52.6627356 166.158792,52.6627356 C166.158792,52.6627356 166.137963,51.3723999 166.156389,51.141068 C166.174814,50.9097361 165.788673,50.5983586 165.522699,50.0428419 C165.256726,49.4873251 166.090696,49.0670855 166.902235,48.2842392 C167.713774,47.5013928 167.795489,45.9541106 167.795489,45.9541106 C167.795489,45.9541106 167.798693,45.9156887 167.801097,45.8892736 C167.748223,45.8852713 167.69615,45.8804686 167.69615,45.8804686 L151.775406,44.5997384 L151.273101,44.6725799 L51.6116332,36.5399429 L51.3881196,36.2501777 L46.5124769,35.7082687 L46.1960328,35.1375433 L22.3177213,33.2228516 L21.3259294,33.9656752 L14.6725919,33.6687058 L12.3084741,34.4971782 L9.24177016,34.4155317 L8.64493255,34.9718489 L3.91108893,34.8894018 L3.89266307,35.9548093 L5.80254346,36.5743626 L8.71062474,36.5311379 L9.24177016,35.9532084 L12.3453258,36.0052381 L14.6661829,35.2552104 L21.2962878,35.5025514 L22.3185225,34.6076412 L45.5327019,36.419074 L45.8515494,36.8377127 L50.8032988,37.3804221 L51.0356249,37.7758476 L151.253874,45.8044252 L151.753776,45.6851572 L167.655292,46.8170026" id="Path"></path>
                    <path d="M167.802699,45.8900741 L167.896431,42.8179224 L165.043627,42.6866476 C165.043627,42.6866476 164.937077,40.4813902 164.933072,39.9018598 C165.001968,39.2943134 165.738202,38.6691569 165.738202,38.6691569 L165.617232,37.2755624 L165.098103,37.1074665 L165.041224,36.2077535 L164.537316,36.1989485 L163.968518,32.6161057 L164.338638,32.6225093 L164.64707,29.9321754 L163.94128,29.8545311 L163.541519,25.3143424 L164.01979,25.322347 L163.987745,23.4300681 L163.541519,23.4220635 L163.434168,20.8397912 C163.434168,20.8397912 163.437373,20.6564867 163.444583,20.2218389 C163.451793,19.787191 163.026396,19.6150929 163.026396,19.6150929 L153.871147,18.4888508 L146.711499,18.4888508 L140.119848,20.6364753 L108.796688,16.6982298 L100.883983,19.5750701 L45.205042,13.1249925 C45.205042,13.1249925 44.3726739,4.75141811 44.3214019,4.37360269 C44.3214019,4.37360269 44.8845923,3.68440973 44.2613176,3.27137423 L38.831297,2.66462829 L38.9466589,1.90979791 C38.9586757,1.82895181 38.902597,1.75450937 38.8216835,1.74490389 L25.5903142,0.120777864 C25.5526613,0.115975125 25.5142074,0.128782428 25.4869691,0.155997945 L24.6441864,0.99647716 L18.2808559,0.00311077347 C18.2063513,-0.00889607246 18.1302445,0.014317163 18.0741658,0.0647459159 L9.96198093,7.44415342 C9.92673146,7.47617168 9.90429998,7.51859587 9.89869211,7.56582279 L9.68799641,9.19074928 L10.1206035,9.32842778 L8.28682997,27.4891825" id="Path"></path>
                    <polyline id="Path" points="7.49451802 29.1629368 16.8228096 23.3508229 23.6283607 23.9575689 24.0978196 23.2259517 27.8142353 23.4652882 42.059828 24.7107983 42.279336 25.4384132 165.683725 38.0528055"></polyline>
                    <path d="M13.9668014,23.5317261 L7.65153839,27.9334358 L7.50012589,28.039096 C7.49131352,28.5321772 7.43924044,31.53629 7.43924044,31.53629" id="Path"></path>
                    <path d="M162.365468,56.8771386 C162.365468,56.8771386 161.979326,55.3266545 160.196024,55.2522121 C158.412721,55.1777696 157.93445,56.4056697 157.93445,56.4056697" id="Path"></path>
                    <polyline id="Path" points="158.007352 67.1950215 158.266115 57.3926325 161.459397 57.6960055 161.291962 67.2526544"></polyline>
                    <path d="M150.572918,56.4016675 C150.572918,56.4016675 150.216418,54.8519839 148.562897,54.7791423 C146.909377,54.7071013 146.463952,55.9358018 146.463952,55.9358018" id="Path"></path>
                    <polyline id="Path" points="146.736334 66.6106883 146.901366 57.1949197 150.094647 57.4974923 149.93282 66.7339586"></polyline>
                    <path d="M141.833453,55.9229945 C141.833453,55.9229945 141.476953,54.373311 139.823432,54.3004694 C138.169912,54.2284283 137.724486,55.4571289 137.724486,55.4571289" id="Path"></path>
                    <polyline id="Path" points="141.072385 66.3929642 141.23982 56.8155034 138.046538 56.5057268 137.875899 66.2696939"></polyline>
                    <path d="M133.058738,55.4002965 C133.058738,55.4002965 132.702238,53.8506129 131.048718,53.7777714 C129.395197,53.7057303 128.949772,54.9344309 128.949772,54.9344309" id="Path"></path>
                    <polyline id="Path" points="129.09798 65.9319013 129.271824 55.9838292 132.465105 56.2936058 132.294466 66.0551716"></polyline>
                    <path d="M123.977994,54.8551857 C123.977994,54.8551857 123.621494,53.3055021 121.967973,53.2326606 C120.314453,53.1606195 119.869028,54.3893201 119.869028,54.3893201" id="Path"></path>
                    <polyline id="Path" points="120.107763 65.5861041 120.19108 55.437918 123.384361 55.7476946 123.209716 65.7053721"></polyline>
                    <path d="M114.406161,54.3933224 C114.406161,54.3933224 114.049661,52.8436388 112.39614,52.7707973 C110.742619,52.6987562 110.297194,53.9274567 110.297194,53.9274567" id="Path"></path>
                    <polyline id="Path" points="110.440595 65.2138919 110.619246 54.9768551 113.812528 55.2866317 113.637883 65.2699239"></polyline>
                    <path d="M104.751011,53.6953244 C104.751011,53.6953244 104.39451,52.1456408 102.74099,52.0727993 C101.087469,52.0007582 100.642044,53.2294588 100.642044,53.2294588" id="Path"></path>
                    <polyline id="Path" points="100.779036 64.8424801 100.964096 54.2780566 104.156576 54.610246 104.083674 64.900113"></polyline>
                    <polyline id="Path" points="90.8611171 64.4606624 91.0421712 54.1051581 94.6936958 54.3565014 94.5158462 64.5238985"></polyline>
                    <path d="M95.7007091,53.1566172 C95.7007091,53.1566172 94.7762116,51.2563338 93.1234922,51.1987009 C91.4707727,51.141068 90.396465,52.8612488 90.396465,52.8612488" id="Path"></path>
                    <path d="M85.6770416,52.3041312 C85.6770416,52.3041312 84.5162125,50.6712001 83.0661774,50.6455855 C81.6449829,50.6199709 80.0355241,51.4124227 79.963423,52.2040741" id="Path"></path>
                    <polyline id="Path" points="80.7717574 64.0716406 80.9528115 53.6817166 84.3439707 53.8690234 84.16532 64.1308744"></polyline>
                    <polyline id="Path" points="70.1023837 63.6610065 70.291449 52.830031 73.9702119 53.1582181 73.7819477 63.9499713"></polyline>
                    <path d="M75.4731211,51.8470706 C75.4731211,51.8470706 74.4613011,49.9740026 72.6347377,49.9131679 C70.8081742,49.8523332 69.4863191,50.7752595 69.3917864,51.2139096" id="Path"></path>
                    <polyline id="Path" points="59.5195314 63.2543747 59.5932348 52.3817754 63.6493273 52.7139648 63.6076688 63.4112641"></polyline>
                    <path d="M64.6883855,51.3691981 C64.6883855,51.3691981 63.8840567,49.2680001 61.7522649,49.2311791 C59.6204731,49.1943581 58.640698,50.4526755 58.6358913,50.7712572" id="Path"></path>
                    <path d="M53.9925747,50.8056768 C53.9925747,50.8056768 52.5681757,48.6356395 50.8473606,48.6636555 C49.1265456,48.6916715 48.6466721,49.3512475 48.6466721,49.3512475" id="Path"></path>
                    <polyline id="Path" points="52.4423992 63.0654669 52.6386746 51.8254582 48.6875295 51.379604"></polyline>
                    <path d="M37.3163709,48.7757194 C37.3163709,48.7757194 36.1899901,46.8138008 34.0149375,46.7761793 C31.839885,46.7385579 30.3329702,48.305051 30.3329702,48.305051" id="Path"></path>
                    <polyline id="Path" points="35.9544595 61.9320207 36.1587462 50.2333505 31.3199553 49.8883538 31.1132652 61.7599226"></polyline>
                    <path d="M39.2350636,69.2529949 C39.2350636,69.2529949 38.1086828,67.2910763 35.9336303,67.2534548 C33.7585778,67.2158334 32.2516629,68.7823265 32.2516629,68.7823265" id="Path"></path>
                    <polyline id="Path" points="37.8667433 82.8079235 38.0782401 70.710626 33.2394492 70.3656293 33.0215434 82.8079235"></polyline>
                    <path d="M51.1926452,23.4108571 L51.8727998,23.4820978 L51.8864189,22.7048546 L51.4802489,22.6632309 L51.6372692,17.8797034 C51.6372692,17.8797034 51.01079,17.1921114 50.0390262,17.1600931 C49.0672624,17.1280749 48.3790966,17.5371081 48.3790966,17.5371081 L48.3166089,22.3374451 L48.0778739,22.312631 L48.0642547,23.0898741 L48.6883306,23.1547111 L48.7043531,22.9137737 L51.1557935,23.1571125 L51.1918441,23.4116576 L51.1926452,23.4108571 Z" id="Path"></path>
                    <path d="M72.8294109,25.7433871 L73.5095654,25.8146277 L73.5231845,25.0373845 L73.1170145,24.9957608 L73.2740349,20.2122334 C73.2740349,20.2122334 72.6475557,19.5246413 71.6757919,19.4926231 C70.7040281,19.4606048 70.0158623,19.869638 70.0158623,19.869638 L69.9533746,24.669975 L69.7146395,24.6451609 L69.7010204,25.4224041 L70.3250962,25.487241 L70.3411187,25.2463036 L72.7925592,25.4896424 L72.8286098,25.7441875 L72.8294109,25.7433871 Z" id="Path"></path>
                    <path d="M93.4799925,27.9614517 L94.160147,28.0326924 L94.1737662,27.2554492 L93.7675961,27.2138255 L93.9246165,22.4302981 C93.9246165,22.4302981 93.2981373,21.742706 92.3263735,21.7106878 C91.3546097,21.6786695 90.6664439,22.0877027 90.6664439,22.0877027 L90.6039562,26.8880397 L90.3652211,26.8632256 L90.351602,27.6404687 L90.9756779,27.7053057 L90.9917004,27.4643683 L93.4431408,27.7077071 L93.4791914,27.9622522 L93.4799925,27.9614517 Z" id="Path"></path>
                    <path d="M112.916871,30.0546452 L113.597025,30.1258858 L113.610644,29.3486427 L113.204474,29.3070189 L113.361495,24.5234915 C113.361495,24.5234915 112.735016,23.8358995 111.763252,23.8038812 C110.791488,23.771863 110.103322,24.1808962 110.103322,24.1808962 L110.040834,28.9812332 L109.802099,28.956419 L109.78848,29.7336622 L110.412556,29.7984992 L110.428579,29.5575618 L112.880019,29.8009005 L112.91607,30.0554457 L112.916871,30.0546452 Z" id="Path"></path>
                    <path d="M131.505358,31.9277132 L132.170292,31.9973529 L132.183911,31.2377198 L131.787354,31.1968965 L131.94117,26.5214307 C131.94117,26.5214307 131.329111,25.8490473 130.378978,25.8178295 C129.428844,25.7866117 128.7559,26.1860395 128.7559,26.1860395 L128.695014,30.8775144 L128.461887,30.8535007 L128.448268,31.6131338 L129.058725,31.6763699 L129.073946,31.4410357 L131.470109,31.6795717 L131.505358,31.9285136 L131.505358,31.9277132 Z" id="Path"></path>
                    <path d="M148.852103,33.2772827 L149.456952,33.3405187 L149.468969,32.6505253 L149.108463,32.6129039 L149.247859,28.3632809 C149.247859,28.3632809 148.691077,27.7517322 147.828266,27.7237162 C146.965456,27.6957002 146.353397,28.058307 146.353397,28.058307 L146.298119,32.3231386 L146.085821,32.3015263 L146.073804,32.9915197 L146.628182,33.0491526 L146.642602,32.8354307 L148.820058,33.051554 L148.852103,33.2772827 Z" id="Path"></path>
                    <polyline id="Path" points="15.8862953 61.4541482 16.0945876 36.9994049 14.6685863 35.3640725 14.6749953 33.6687058"></polyline>
                    <polyline id="Path" points="45.8531516 36.8385132 43.4073191 38.9092939 43.4641989 62.1985727"></polyline>
                    <line x1="140.13704" y1="20.6372757" x2="140.04804" y2="24.3898153" id="Path"></line>
                    <line x1="146.710698" y1="18.4896512" x2="146.593734" y2="25.194274" id="Path"></line>
                    <path d="M149.467367,72.7165697 C149.467367,72.7165697 149.108463,71.3117687 147.454942,71.2437299 C145.801422,71.1756911 145.357599,72.2883255 145.357599,72.2883255" id="Path"></path>
                    <polyline id="Path" points="145.631584 82.8919714 145.804626 73.0055345 148.998709 73.2880956 148.829672 82.9512052"></polyline>
                    <path d="M161.020381,71.3533925 C161.020381,71.3533925 160.66388,69.8037089 159.01036,69.7308674 C157.356839,69.6588263 156.911414,70.8875268 156.911414,70.8875268" id="Path"></path>
                    <polyline id="Path" points="157.162967 82.7671002 157.356839 71.6783778 160.550121 71.9849526 160.361856 82.7662997"></polyline>
                    <path d="M141.540242,72.7093656 C141.540242,72.7093656 141.181338,71.3045646 139.527817,71.2365258 C137.874297,71.168487 137.430474,72.2811214 137.430474,72.2811214" id="Path"></path>
                    <polyline id="Path" points="137.703657 82.9327947 137.877501 72.9983304 141.071584 73.2808915 140.903348 82.8759623"></polyline>
                    <path d="M132.636546,72.7581934 C132.636546,72.7581934 132.277642,71.3533925 130.624122,71.2853537 C128.970601,71.2173149 128.526778,72.3299493 128.526778,72.3299493" id="Path"></path>
                    <polyline id="Path" points="128.803166 82.8055221 128.973806 73.0471582 132.167888 73.3297193 132.002055 82.8111253"></polyline>
                    <path d="M123.667959,72.601304 C123.667959,72.601304 123.309055,71.196503 121.655535,71.1284642 C120.002014,71.0604254 119.558191,72.1730598 119.558191,72.1730598" id="Path"></path>
                    <polyline id="Path" points="119.832176 82.7911139 120.005219 72.8902687 123.1985 73.1728299 123.030264 82.7967171"></polyline>
                    <path d="M114.091319,72.4348091 C114.091319,72.4348091 113.732415,71.0300081 112.078895,70.9619693 C110.425374,70.8939305 109.981551,72.0065649 109.981551,72.0065649" id="Path"></path>
                    <polyline id="Path" points="110.253132 82.7398847 110.427777 72.7229734 113.62186 73.0063349 113.451221 82.780708"></polyline>
                    <path d="M104.420146,72.6437282 C104.420146,72.6437282 104.061243,71.2389272 102.407722,71.1708884 C100.754201,71.1028496 100.310378,72.215484 100.310378,72.215484" id="Path"></path>
                    <polyline id="Path" points="100.585965 82.7358824 100.756605 72.9326929 103.950687 73.215254 103.784855 82.7110683"></polyline>
                    <path d="M94.482199,72.711767 C94.482199,72.711767 94.1232953,71.306966 92.4697747,71.2389272 C90.8162541,71.1708884 90.3724313,72.2835228 90.3724313,72.2835228" id="Path"></path>
                    <polyline id="Path" points="90.6496203 82.7014628 90.8194586 72.9999313 94.0127402 73.2832928 93.8877648 82.7126692"></polyline>
                    <path d="M84.5226215,72.638125 C84.5226215,72.638125 84.1637178,71.233324 82.5101972,71.1652852 C80.8566766,71.0972464 80.4128537,72.2098808 80.4128537,72.2098808" id="Path"></path>
                    <polyline id="Path" points="80.6571966 82.8079235 80.8598811 72.9270897 84.0539637 73.2096508 83.8857276 82.8079235"></polyline>
                    <path d="M74.1152154,73.0111377 C74.1152154,73.0111377 73.7563117,71.6063367 72.1027911,71.5382979 C70.4492705,71.4702591 70.0054476,72.5828935 70.0054476,72.5828935" id="Path"></path>
                    <polyline id="Path" points="70.2858412 82.8103248 70.452475 73.3001024 73.6457566 73.5826635 73.5215823 82.815928"></polyline>
                    <path d="M63.3400933,72.8230304 C63.3400933,72.8230304 62.9811896,71.4182294 61.327669,71.3501906 C59.6741484,71.2821518 59.2303255,72.3947862 59.2303255,72.3947862" id="Path"></path>
                    <polyline id="Path" points="59.5075145 82.815928 59.6773529 73.1119952 62.8706344 73.3945563 62.7528692 82.8079235"></polyline>
                    <path d="M52.4776486,73.1720294 C52.4776486,73.1720294 52.1187449,71.7672284 50.4652243,71.6991896 C48.8117037,71.6311508 48.4992653,72.5524761 48.4992653,72.5524761" id="Path"></path>
                    <polyline id="Path" points="48.4832428 73.455391 52.0081898 73.7435553 51.8736009 82.8079235"></polyline>
                    <line x1="15.8862953" y1="61.4541482" x2="15.6988322" y2="82.8079235" id="Path"></line>
                    <line x1="14.1462533" y1="62.100917" x2="13.7416855" y2="81.4327394" id="Path"></line>
                    <line x1="10.6124939" y1="62.0040618" x2="10.272016" y2="81.4767645" id="Path"></line>
                    <polyline id="Path" points="9.34431408 81.200607 9.75368861 62.146543 9.80576169 59.1688452 10.8119738 58.0626145"></polyline>
                    <line x1="1.38095457" y1="62.9133802" x2="1.36195457" y2="63.7730704" id="Path"></line>
                    <line x1="5.8041457" y1="36.5735621" x2="4.80514368" y2="81.1813961" id="Path"></line>
                    <polyline id="Path" points="23.6764282 57.0124157 22.8048049 58.2715336 22.7551352 61.1051492 22.2592393 61.6830788"></polyline>
                    <polyline id="Path" points="17.9315657 61.5277902 17.9868432 58.3403728 17.8282206 57.4902882 15.9207436 57.456669"></polyline>
                    <polyline id="Path" points="7.520154 62.1177266 7.57062483 59.2112694 6.99862207 58.3443751 5.26979578 58.3147582"></polyline>
                    <line x1="166.137646" y1="42.7282713" x2="166.071646" y2="45.7660033" id="Path"></line>
                    <line x1="165.028691" y1="42.7082599" x2="164.964691" y2="45.6611436" id="Path"></line>
                    <line x1="163.922537" y1="42.559375" x2="163.856537" y2="45.5722929" id="Path"></line>
                    <line x1="162.813682" y1="42.5025426" x2="162.748682" y2="45.4858436" id="Path"></line>
                    <line x1="161.707428" y1="42.3760705" x2="161.641428" y2="45.3825847" id="Path"></line>
                    <line x1="160.597672" y1="42.3560591" x2="160.533672" y2="45.3049405" id="Path"></line>
                    <line x1="159.491518" y1="42.2303874" x2="159.425518" y2="45.2152893" id="Path"></line>
                    <line x1="158.383464" y1="42.1399359" x2="158.318464" y2="45.1280396" id="Path"></line>
                    <line x1="157.275509" y1="42.0486838" x2="157.210509" y2="45.0367876" id="Path"></line>
                    <line x1="156.168355" y1="41.9582323" x2="156.103355" y2="44.9479369" id="Path"></line>
                    <line x1="155.0604" y1="41.8709825" x2="154.9954" y2="44.8622881" id="Path"></line>
                    <line x1="153.952445" y1="41.7797305" x2="153.887445" y2="44.7694351" id="Path"></line>
                    <line x1="152.845292" y1="41.6860771" x2="152.780292" y2="44.6837863" id="Path"></line>
                    <line x1="151.737436" y1="41.6196392" x2="151.671436" y2="44.6157475" id="Path"></line>
                    <line x1="150.626978" y1="41.6572607" x2="150.561978" y2="44.6453644" id="Path"></line>
                    <line x1="149.519825" y1="41.56841" x2="149.454825" y2="44.542906" id="Path"></line>
                    <line x1="148.41187" y1="41.5051739" x2="148.34687" y2="44.4516539" id="Path"></line>
                    <line x1="147.303815" y1="41.4187247" x2="147.239815" y2="44.3668056" id="Path"></line>
                    <line x1="146.196761" y1="41.3010576" x2="146.131761" y2="44.2731522" id="Path"></line>
                    <line x1="145.088806" y1="41.2178101" x2="145.023806" y2="44.1827006" id="Path"></line>
                    <line x1="143.981652" y1="41.1097485" x2="143.916652" y2="44.0914486" id="Path"></line>
                    <line x1="142.873697" y1="41.0329047" x2="142.808697" y2="44.0025979" id="Path"></line>
                    <line x1="141.765742" y1="40.9400517" x2="141.700742" y2="43.9177495" id="Path"></line>
                    <line x1="140.658588" y1="40.8471988" x2="140.593588" y2="43.8128897" id="Path"></line>
                    <line x1="139.550534" y1="40.7519445" x2="139.486534" y2="43.7232386" id="Path"></line>
                    <line x1="138.44348" y1="40.6670961" x2="138.37848" y2="43.6319866" id="Path"></line>
                    <line x1="137.335425" y1="40.577445" x2="137.271425" y2="43.51512" id="Path"></line>
                    <line x1="136.22747" y1="40.4917962" x2="136.16347" y2="43.4550857" id="Path"></line>
                    <line x1="135.122317" y1="40.3124939" x2="135.054317" y2="43.3894483" id="Path"></line>
                    <line x1="134.014262" y1="40.2364506" x2="133.947262" y2="43.2725817" id="Path"></line>
                    <line x1="132.906307" y1="40.1692122" x2="132.839307" y2="43.2133479" id="Path"></line>
                    <line x1="131.797352" y1="40.1059762" x2="131.732352" y2="43.0932794" id="Path"></line>
                    <line x1="130.690298" y1="40.0155246" x2="130.624298" y2="43.0300434" id="Path"></line>
                    <line x1="129.582244" y1="39.9202703" x2="129.517244" y2="42.9115758" id="Path"></line>
                    <line x1="128.475189" y1="39.8274173" x2="128.409189" y2="42.8211243" id="Path"></line>
                    <line x1="127.367135" y1="39.7345644" x2="127.302135" y2="42.7306727" id="Path"></line>
                    <line x1="126.25918" y1="39.6561197" x2="126.19418" y2="42.6482257" id="Path"></line>
                    <line x1="125.152126" y1="39.549659" x2="125.086126" y2="42.5777855" id="Path"></line>
                    <line x1="124.044071" y1="39.456806" x2="123.979071" y2="42.4609189" id="Path"></line>
                    <line x1="122.937017" y1="39.3639531" x2="122.871017" y2="42.3680659" id="Path"></line>
                    <line x1="121.828962" y1="39.2711001" x2="121.763962" y2="42.2776144" id="Path"></line>
                    <line x1="120.721908" y1="39.1750454" x2="120.655908" y2="42.2031719" id="Path"></line>
                    <line x1="119.613854" y1="39.0861947" x2="119.548854" y2="42.0967112" id="Path"></line>
                    <line x1="118.506799" y1="38.9957431" x2="118.440799" y2="42.0054592" id="Path"></line>
                    <line x1="117.398844" y1="38.9004888" x2="117.332844" y2="41.9134067" id="Path"></line>
                    <line x1="116.291691" y1="38.8076359" x2="116.225691" y2="41.824556" id="Path"></line>
                    <line x1="115.183736" y1="38.7171843" x2="115.117736" y2="41.7341045" id="Path"></line>
                    <line x1="114.076582" y1="38.595515" x2="114.010582" y2="41.6436529" id="Path"></line>
                    <line x1="112.968627" y1="38.5386825" x2="112.902627" y2="41.5532013" id="Path"></line>
                    <line x1="111.860672" y1="38.4370246" x2="111.794672" y2="41.4595479" id="Path"></line>
                    <line x1="110.753518" y1="38.3441716" x2="110.687518" y2="41.3682959" id="Path"></line>
                    <line x1="109.645563" y1="38.2585228" x2="109.579563" y2="41.2810462" id="Path"></line>
                    <line x1="108.537509" y1="38.1648694" x2="108.472509" y2="41.1905946" id="Path"></line>
                    <line x1="107.430454" y1="38.0664133" x2="107.364454" y2="41.0977416" id="Path"></line>
                    <line x1="106.3225" y1="37.9735603" x2="106.2565" y2="41.008891" id="Path"></line>
                    <line x1="105.215346" y1="37.8807074" x2="105.149346" y2="40.9184394" id="Path"></line>
                    <line x1="104.107391" y1="37.7878544" x2="104.041391" y2="40.8279878" id="Path"></line>
                    <line x1="103.000336" y1="37.6950015" x2="102.933336" y2="40.7375363" id="Path"></line>
                    <line x1="101.892282" y1="37.602949" x2="101.826282" y2="40.6470847" id="Path"></line>
                    <line x1="100.785228" y1="37.5100961" x2="100.718228" y2="40.5526308" id="Path"></line>
                    <line x1="99.6771733" y1="37.4196445" x2="99.6111733" y2="40.4653811" id="Path"></line>
                    <line x1="98.5700195" y1="37.3243902" x2="98.5040195" y2="40.3461131" id="Path"></line>
                    <line x1="97.4629651" y1="37.1755053" x2="97.3959651" y2="40.2820766" id="Path"></line>
                    <line x1="96.3541096" y1="37.1554939" x2="96.2881096" y2="40.1940264" id="Path"></line>
                    <line x1="95.2470553" y1="37.0442305" x2="95.1800553" y2="40.1035748" id="Path"></line>
                    <line x1="94.1390009" y1="36.9513775" x2="94.0730009" y2="40.0123228" id="Path"></line>
                    <line x1="93.0319465" y1="36.8585246" x2="92.9649465" y2="39.9218712" id="Path"></line>
                    <line x1="91.9239916" y1="36.7664721" x2="91.8569916" y2="39.8346215" id="Path"></line>
                    <line x1="90.8168378" y1="36.6752201" x2="90.7498378" y2="39.7409681" id="Path"></line>
                    <line x1="89.7087834" y1="36.5831676" x2="89.6427834" y2="39.6265028" id="Path"></line>
                    <line x1="88.6018284" y1="36.4903146" x2="88.5338284" y2="39.6064914" id="Path"></line>
                    <line x1="87.4937741" y1="36.4030649" x2="87.4267741" y2="39.4688129" id="Path"></line>
                    <line x1="86.3867197" y1="36.3006065" x2="86.3187197" y2="39.3783613" id="Path"></line>
                    <line x1="85.2786653" y1="36.2181595" x2="85.2116653" y2="39.2879097" id="Path"></line>
                    <line x1="84.171611" y1="36.1012928" x2="84.103611" y2="39.1974582" id="Path"></line>
                    <line x1="83.0635566" y1="36.0268504" x2="82.9965566" y2="39.1070066" id="Path"></line>
                    <line x1="81.9556016" y1="35.9388002" x2="81.8886016" y2="39.0157546" id="Path"></line>
                    <line x1="80.8476467" y1="35.8475481" x2="80.7806467" y2="38.925303" id="Path"></line>
                    <line x1="79.7404929" y1="35.7554957" x2="79.6734929" y2="38.8388537" id="Path"></line>
                    <line x1="78.6334385" y1="35.6554386" x2="78.5654385" y2="38.7476017" id="Path"></line>
                    <line x1="77.5253842" y1="35.5609848" x2="77.4583842" y2="38.6483451" id="Path"></line>
                    <line x1="76.4174292" y1="35.4705332" x2="76.3504292" y2="38.5602949" id="Path"></line>
                    <line x1="75.3103748" y1="35.3776802" x2="75.2423748" y2="38.4698433" id="Path"></line>
                    <line x1="74.2023205" y1="35.2864282" x2="74.1353205" y2="38.3817931" id="Path"></line>
                    <line x1="73.0952661" y1="35.1919744" x2="73.0272661" y2="38.2889402" id="Path"></line>
                    <line x1="71.9872117" y1="35.0999219" x2="71.9202117" y2="38.2008899" id="Path"></line>
                    <line x1="70.8801573" y1="35.0070689" x2="70.8121573" y2="38.108037" id="Path"></line>
                    <line x1="69.7722024" y1="34.9158169" x2="69.7042024" y2="38.0191863" id="Path"></line>
                    <line x1="68.664148" y1="34.821363" x2="68.597148" y2="37.9303357" id="Path"></line>
                    <line x1="67.5570937" y1="34.7285101" x2="67.4890937" y2="37.8398841" id="Path"></line>
                    <line x1="66.4491387" y1="34.6364576" x2="66.3811387" y2="37.7478316" id="Path"></line>
                    <line x1="65.3419849" y1="34.5444051" x2="65.2739849" y2="37.6573801" id="Path"></line>
                    <line x1="64.23403" y1="34.4507517" x2="64.16603" y2="37.5685294" id="Path"></line>
                    <line x1="63.1269756" y1="34.3578988" x2="63.0579756" y2="37.492486" id="Path"></line>
                    <line x1="62.0189212" y1="34.2650459" x2="61.9509212" y2="37.383624" id="Path"></line>
                    <line x1="60.9118669" y1="34.1697915" x2="60.8428669" y2="37.2947733" id="Path"></line>
                    <line x1="59.8038125" y1="34.0801404" x2="59.7358125" y2="37.2011199" id="Path"></line>
                    <line x1="58.6958576" y1="33.9872875" x2="58.6278576" y2="37.108267" id="Path"></line>
                    <line x1="57.5887037" y1="33.8944345" x2="57.5207037" y2="37.0250195" id="Path"></line>
                    <line x1="56.4807488" y1="33.8015816" x2="56.4127488" y2="36.9337675" id="Path"></line>
                    <line x1="55.3736944" y1="33.7087287" x2="55.3046944" y2="36.841715" id="Path"></line>
                    <line x1="54.2656401" y1="33.6126739" x2="54.1976401" y2="36.7544652" id="Path"></line>
                    <line x1="53.1585857" y1="33.5238232" x2="53.0895857" y2="36.6608118" id="Path"></line>
                    <line x1="52.0505313" y1="33.4309703" x2="51.9825313" y2="36.5695598" id="Path"></line>
                    <line x1="50.9482837" y1="33.0267398" x2="50.8792837" y2="36.189343" id="Path"></line>
                    <line x1="49.8420304" y1="32.8594444" x2="49.7720304" y2="36.0724764" id="Path"></line>
                    <line x1="48.7366778" y1="32.6585299" x2="48.6646778" y2="35.9524079" id="Path"></line>
                    <line x1="47.6303251" y1="32.4880327" x2="47.5583251" y2="35.8131285" id="Path"></line>
                    <line x1="46.5274752" y1="32.160646" x2="46.4524752" y2="35.5914021" id="Path"></line>
                    <line x1="45.4248298" y1="31.7420073" x2="45.3528298" y2="35.0695045" id="Path"></line>
                    <line x1="44.3177754" y1="31.6507553" x2="44.2447754" y2="34.9806539" id="Path"></line>
                    <line x1="43.2097211" y1="31.5603037" x2="43.1377211" y2="34.8918032" id="Path"></line>
                    <line x1="42.1026667" y1="31.4482398" x2="42.0296667" y2="34.8045535" id="Path"></line>
                    <line x1="40.9947118" y1="31.3777996" x2="40.9217118" y2="34.7141019" id="Path"></line>
                    <line x1="39.8866574" y1="31.2873481" x2="39.8146574" y2="34.6252512" id="Path"></line>
                    <line x1="38.779603" y1="31.196096" x2="38.706603" y2="34.5364006" id="Path"></line>
                    <line x1="37.6716481" y1="31.1264563" x2="37.5986481" y2="34.4475499" id="Path"></line>
                    <line x1="36.5644943" y1="31.013592" x2="36.4914943" y2="34.3586993" id="Path"></line>
                    <line x1="35.4565393" y1="30.9231404" x2="35.3835393" y2="34.2698486" id="Path"></line>
                    <line x1="34.349485" y1="30.829487" x2="34.275485" y2="34.1809979" id="Path"></line>
                    <line x1="33.2414306" y1="30.7422373" x2="33.1684306" y2="34.0905464" id="Path"></line>
                    <line x1="32.1334756" y1="30.6501848" x2="32.0604756" y2="34.0040971" id="Path"></line>
                    <line x1="31.0264213" y1="30.5589327" x2="30.9524213" y2="33.9152464" id="Path"></line>
                    <line x1="29.9183669" y1="30.4708825" x2="29.8453669" y2="33.8263957" id="Path"></line>
                    <line x1="28.810412" y1="30.3764287" x2="28.737412" y2="33.7359442" id="Path"></line>
                    <line x1="27.7033576" y1="30.2811744" x2="27.6293576" y2="33.6510958" id="Path"></line>
                    <line x1="15.508737" y1="29.9513863" x2="15.425737" y2="33.7327424" id="Path"></line>
                    <line x1="14.3965776" y1="30.1042735" x2="14.3155776" y2="33.8247948" id="Path"></line>
                    <line x1="13.2770091" y1="30.6517857" x2="13.2000091" y2="34.1858007" id="Path"></line>
                    <line x1="12.159043" y1="31.1448668" x2="12.086043" y2="34.4811691" id="Path"></line>
                    <line x1="11.0502869" y1="31.1256559" x2="10.9772869" y2="34.4611577" id="Path"></line>
                    <line x1="9.94153083" y1="31.1064449" x2="9.86853083" y2="34.4419467" id="Path"></line>
                    <line x1="8.82656465" y1="31.4474393" x2="8.75156465" y2="34.8757941" id="Path"></line>
                    <line x1="7.71530578" y1="31.5402923" x2="7.64130578" y2="34.9542388" id="Path"></line>
                    <line x1="5.4978931" y1="31.5018704" x2="5.4228931" y2="34.9158169" id="Path"></line>
                    <line x1="4.38913704" y1="31.4826594" x2="4.31413704" y2="34.8958055" id="Path"></line>
                    <line x1="3.37541646" y1="31.9725387" x2="3.30341646" y2="35.2664168" id="Path"></line>
                    <line x1="2.70157147" y1="32.4544135" x2="2.63057147" y2="35.7058674" id="Path"></line>
                    <line x1="2.02672648" y1="32.9667056" x2="1.95872648" y2="36.0972905" id="Path"></line>
                    <line x1="6.60664916" y1="31.5210813" x2="6.53164916" y2="34.9350279" id="Path"></line>
                    <line x1="26.5953032" y1="30.1947251" x2="26.5223032" y2="33.5574424" id="Path"></line>
                    <line x1="25.4882488" y1="30.1034731" x2="25.4142488" y2="33.472594" id="Path"></line>
                    <line x1="24.3801945" y1="30.012221" x2="24.3071945" y2="33.3853443" id="Path"></line>
                    <line x1="23.2722395" y1="29.9217695" x2="23.1992395" y2="33.2916909" id="Path"></line>
                    <line x1="22.1628812" y1="29.9537877" x2="22.0878812" y2="33.4149612" id="Path"></line>
                    <line x1="21.0491139" y1="30.269968" x2="20.9681139" y2="33.949666" id="Path"></line>
                    <line x1="19.941159" y1="30.2067319" x2="19.860159" y2="33.9000377" id="Path"></line>
                    <line x1="18.8333035" y1="30.1258858" x2="18.7513035" y2="33.8504094" id="Path"></line>
                    <line x1="17.724448" y1="30.1066749" x2="17.643448" y2="33.8015816" id="Path"></line>
                    <line x1="16.6165925" y1="30.0146224" x2="16.5345925" y2="33.7519533" id="Path"></line>
                    <line x1="0.67723537" y1="33.9920902" x2="0.61323537" y2="36.9273638" id="Path"></line>
                    <line x1="1.35198092" y1="33.4789977" x2="1.28598092" y2="36.511927" id="Path"></line>
                    <line x1="44.386293" y1="5.19487095" x2="39.0708331" y2="4.57931998" id="Path"></line>
                    <polyline id="Path" points="38.9498634 3.62197414 25.8747133 2.23238183 24.59692 2.91116886 18.3497526 2.10110699 10.1190013 9.33082915"></polyline>
                    <line x1="21.3041547" y1="35.6714477" x2="21.3411547" y2="33.9656752" id="Path"></line>
                    <line x1="9.2533162" y1="36.0948892" x2="9.2533162" y2="34.4155317" id="Path"></line>
                    <line x1="22.3300685" y1="33.2228516" x2="22.3300685" y2="34.6076412" id="Path"></line>
                    <path d="M30.3025274,20.2362471 L29.9812766,11.6393454 C29.9812766,11.6393454 33.4389291,9.88074269 35.8903696,12.2044676 C36.2044103,14.7795358 36.5737286,20.7957661 36.5737286,20.7957661 L30.3025274,20.2362471 Z" id="Path"></path>
                    <path d="M154.287732,33.2908904 L153.966481,24.6939887 C153.966481,24.6939887 157.424134,22.935386 159.875574,25.259111 C160.189615,27.8341792 160.558933,33.8504094 160.558933,33.8504094 L154.287732,33.2908904 Z" id="Path"></path>
                    <line x1="16.8228096" y1="21.7082864" x2="18.3497526" y2="2.10110699" id="Path"></line>
                    <line x1="46.1984362" y1="35.1375433" x2="45.533503" y2="36.4198745" id="Path"></line>
                    <line x1="51.3905229" y1="36.2501777" x2="50.804901" y2="37.3812226" id="Path"></line>
                </g>
                <line x1="1" y1="84.9500588" x2="350" y2="84.9500588" id="Path" stroke="#FFFFFF" stroke-width="0.5" fill="#FFFFFF" fill-rule="nonzero"></line>
                <g id="Maison_rocher" transform="translate(264, 3.9976)" stroke="#FFFFFF" stroke-width="0.5">
                    <path d="M60.9269035,12.5577411 L60.6130564,9.66915658 L63.7539293,0 L66.4552562,9.29228032 L66.4552562,32.2721304 C66.4552562,32.2721304 64.3824242,33.6220035 61.7643629,32.3665495" id="Path"></path>
                    <path d="M62.6546639,15.3623086 L53.1471783,0.628127103 C53.1471783,0.628127103 47.5715885,10.7709795 41.4251492,15.4175198 L49.5395379,15.5087382 L62.6538632,15.3623086 L62.6546639,15.3623086 Z" id="Path"></path>
                    <path d="M53.1471783,0.628127103 C53.2048237,2.6997463 49.5819713,15.5079381 49.5819713,15.5079381 L50.0791628,40.162527" id="Path"></path>
                    <polygon id="Path" points="39.9071541 18.8734191 43.9487361 16.4873363 46.8806445 16.4873363 48.5139304 18.245292 46.0632009 18.4757386"></polygon>
                    <path d="M46.8806445,16.4873363 L46.1480677,18.467737 L46.1424633,35.788842 L48.5139304,35.788842 C48.5139304,35.788842 47.9534892,19.9976466 48.5139304,18.245292" id="Path"></path>
                    <path d="M46.1424633,35.7896421 L41.4251492,36.3025459 C41.4251492,36.3025459 40.7494172,20.720993 41.0952895,18.8742193" id="Path"></path>
                    <polygon id="Path" points="50.141612 18.502144 52.749265 17.968436 61.9845363 17.968436 63.533756 18.3765185 58.62349 15.8023977 53.6603824 15.8023977"></polygon>
                    <line x1="53.6603824" y1="15.8023977" x2="52.749265" y2="17.968436" id="Path"></line>
                    <polyline id="Path" points="51.3649751 18.2516933 51.8381477 35.7896421 53.147979 35.956876 61.6698885 36.144914 61.7643629 17.968436"></polyline>
                    <line x1="52.749265" y1="17.968436" x2="53.147979" y2="35.956876" id="Path"></line>
                    <line x1="46.1524318" y1="10.8045863" x2="46.1524318" y2="8.74897038" id="Path"></line>
                    <rect id="Rectangle" x="45.9847391" y="6.7189596" width="1" height="1.75795573"></rect>
                    <rect id="Rectangle" x="47.1160298" y="6.7189596" width="1" height="1.75795573"></rect>
                    <polyline id="Path" points="40.996812 21.0450585 34.7398857 21.2018903 31.0017426 25.8484305 31.0017426 26.3821385 33.2947479 26.3821385 33.2635233 26.0052622 35.7895121 22.9910523 38.0376822 26.1380891 41.07047 26.1380891"></polyline>
                    <line x1="34.7398857" y1="21.2018903" x2="35.7895121" y2="22.9910523" id="Path"></line>
                    <line x1="32.5813863" y1="26.3821385" x2="33.3363807" y2="27.5879825" id="Path"></line>
                    <line x1="38.380352" y1="26.1380891" x2="39.3331021" y2="27.6599971" id="Path"></line>
                    <line x1="39.3430706" y1="26.1380891" x2="39.3430706" y2="28.7778233" id="Path"></line>
                    <line x1="33.2995328" y1="26.3821385" x2="33.3515328" y2="28.9874657" id="Path"></line>
                    <polyline id="Path" points="41.1457292 28.7778233 39.8911415 28.7778233 23.6823798 29.6572012 23.6823798 31.8232395 22.9914358 31.8232395 22.8345122 44.2865615 25.912936 44.2865615 28.0802424 42.0893169 28.0169926 40.1633272 25.0642678 40.1633272 25.0330432 41.7124406 25.6303135 41.7124406"></polyline>
                    <path d="M66.4552562,32.2729305 C66.4552562,32.2729305 65.805945,33.9788757 65.5337306,34.1045011 C65.5337306,34.4605732 64.9476692,35.3815596 64.3399908,36.144914 C64.298358,36.6994262 64.3399908,37.5996084 64.3399908,37.5996084 C64.3399908,37.5996084 64.1302256,37.8924677 63.9837103,37.9556804 L63.9837103,38.7350381 C63.9837103,38.7350381 63.7427205,38.8918699 63.6170216,38.8918699 C63.4913226,38.8918699 63.3504116,38.6094127 63.3504116,38.6094127 L63.3504116,37.8556602 L62.6594676,37.1651205 C62.6594676,37.1651205 62.5025441,36.7258316 62.7851666,36.3649586 C63.0677891,36.0040855 62.6162336,35.7056251 62.6162336,35.7056251 L61.7643629,34.0316864 C61.7643629,34.0316864 65.0053146,34.2485303 65.5337306,34.1045011" id="Path"></path>
                    <line x1="65.0245297" y1="35.195922" x2="68.6962206" y2="37.0971067" id="Path"></line>
                    <polyline id="Path" points="64.3263801 37.1763227 67.6906288 37.1763227 67.6906288 50.5342257"></polyline>
                    <line x1="23.6823798" y1="31.8232395" x2="41.1457292" y2="31.2007136" id="Path"></line>
                    <line x1="39.9955843" y1="28.7778233" x2="39.9955843" y2="38.6974305" id="Path"></line>
                    <polygon id="Path" points="25.3052575 34.1101023 27.7559871 34.1101023 27.7559871 38.8606636 25.3052575 38.9654848"></polygon>
                    <polygon id="Path" points="31.2739569 33.8740545 33.7238858 33.8740545 33.7238858 38.625416 31.2739569 38.7302372"></polygon>
                    <polygon id="Path" points="37.4091873 33.8740545 38.0793149 33.8740545 38.0793149 38.625416 37.4091873 38.6302169"></polygon>
                    <line x1="63.3504116" y1="38.6094127" x2="63.1014156" y2="63.3024094" id="Path"></line>
                    <polyline id="Path" points="63.3504116 49.4508065 65.805945 49.4508065 69.407981 51.7528723 71.0060392 51.7528723 71.0060392 55.6392588"></polyline>
                    <polyline id="Path" points="63.2383234 51.3295867 65.6858504 51.3295867 69.2198328 53.683663 69.2246366 56.2561836"></polyline>
                    <polyline id="Path" points="41.8278663 36.2969448 43.5692373 38.2957493 43.5692373 36.144914"></polyline>
                    <polyline id="Path" points="47.1992954 35.7896421 48.5515601 38.2957493 48.5139304 35.7896421"></polyline>
                    <polyline id="Path" points="45.016777 40.0224987 45.016777 37.9292751 47.4875223 37.6988285 47.4875223 39.9176775"></polyline>
                    <path d="M44.7229457,40.0224987 L48.5507594,40.1913328 L54.6907937,40.4617876 L55.9261663,40.9010765 L61.7635623,40.6498256 C61.7635623,40.6498256 62.1590737,40.7122382 62.1590737,41.121121 C62.1590737,41.5300037 62.2479436,50.3349854 61.7635623,51.7528723" id="Path"></path>
                    <line x1="48.5515601" y1="40.1913328" x2="48.3145735" y2="48.8442838" id="Path"></line>
                    <line x1="54.6915943" y1="40.4617876" x2="54.4089718" y2="64.6554832" id="Path"></line>
                    <line x1="55.9269669" y1="40.9010765" x2="55.5506707" y2="64.3602235" id="Path"></line>
                    <path d="M55.9269669,51.7528723 L61.7643629,51.7528723 C61.7643629,51.7528723 61.5754141,60.9163266 63.1014156,63.3024094" id="Path"></path>
                    <path d="M59.1967413,40.9010765 L59.1967413,51.7528723 L59.4273229,59.4232245 C59.4273229,59.4232245 59.4009021,61.4500346 60.6578917,63.6160729" id="Path"></path>
                    <path d="M63.2383234,53.0771403 C63.2383234,53.0771403 63.9709002,53.3699996 64.2222981,53.6844632 C64.473696,53.9981267 64.725094,54.4166114 65.0181247,54.5214326 C65.3111554,54.6262538 65.5625533,54.563041 65.5417369,55.0239343 C65.5209206,55.4840274 65.6041861,55.6728656 65.7515021,55.8817078 C65.8980175,56.0913502 66.0989757,56.0697459 66.0093051,56.3001925 C65.9196345,56.5306391 66.0317227,56.7666869 66.0317227,56.7666869 C66.0317227,56.7666869 65.9916912,57.2051756 66.085365,57.3308011 C66.1798393,57.4564265 67.0325107,58.2637898 67.347959,58.1317631" id="Path"></path>
                    <path d="M52.4794526,66.1421841 C50.6059776,66.0205595 51.1023684,65.2115958 51.4898735,64.723497 C51.6443951,64.5290576 51.8885874,64.4274371 52.1359822,64.4498416 L54.4089718,64.6562834 C54.4089718,64.6562834 51.3073298,65.4308401 52.4794526,66.1421841 C56.4585855,67.3560297 81.9962921,65.499654 81.9962921,65.499654 L80.9154411,80.9491803 L50.919024,80.9491803" id="Path"></path>
                    <polygon id="Path" points="50.9798719 65.5508644 41.6421201 80.9491803 50.919024 80.9491803"></polygon>
                    <path d="M40.3114724,80.9491803 L50.9198247,63.5360567 L50.9526505,63.4824459 C50.9902801,63.4480389 51.0287104,63.4136319 51.0287104,63.4136319 C51.0287104,63.4136319 51.3273455,63.1415769 51.3657758,62.702288 C51.404206,62.2629991 51.4218199,60.6930814 51.3657758,60.2225862 C51.3097317,59.7512908 50.8877995,59.1551702 50.6364015,58.6526685 C50.3850036,58.1501669 51.1271879,56.109754 51.1271879,56.109754 C51.1271879,56.109754 50.6364015,53.7548775 50.5107026,53.5356331 C50.3850036,53.3155886 49.7565088,51.5264265 49.582772,50.9303059 C49.4090352,50.3341853 48.4378706,49.2347628 47.8766287,48.4818104 C47.3153868,47.7280579 47.3065799,47.0375182 47.2008966,46.2525593 C47.0952134,45.4676005 44.9199007,44.086521 43.7573855,43.6472321 C42.5948702,43.2079433 41.7782272,43.1759368 40.5532628,43.2391496 C39.3282983,43.3015622 37.1609919,43.2391496 36.6581961,43.1767369 C36.1554002,43.1143243 34.8679866,42.8630735 34.2394917,42.9566924 C33.6109969,43.0511115 30.8472209,44.9034864 30.8472209,44.9034864 C30.8472209,44.9034864 29.0570114,46.3477786 28.5854401,46.3477786 C28.1138688,46.3477786 26.4181337,47.7608646 26.1667358,48.0433217 C25.9153379,48.3257789 25.0674703,48.4514043 25.0674703,48.4514043 C25.0674703,48.4514043 23.2452356,49.9893155 22.5542916,50.5366262 C21.8633476,51.0831368 22.0827203,51.4336077 22.0202712,51.7480714 C21.957822,52.0617348 20.2925109,52.6898619 19.4134187,52.7842811 C18.5343266,52.8787002 16.3662196,53.6004462 15.7697499,53.8204907 C15.1732803,54.0405353 12.5656272,54.0405353 11.8746832,54.0717416 C11.1837392,54.1029479 10.0524485,55.1567611 10.0524485,55.1567611 C10.0524485,55.1567611 9.64412706,55.6104529 9.29825474,55.2959893 C8.95238243,54.9815257 8.10451488,55.2959893 8.10451488,55.2959893 C8.10451488,55.2959893 7.88434153,56.6146561 7.35032108,57.4308213 C6.81630063,58.2469864 6.50245352,60.9467328 6.43920373,61.5436535 C6.37675456,62.1397742 5.08854031,64.4634444 4.83714237,64.7459015 C4.58574444,65.0283587 4.08294857,66.126981 4.02049941,66.5350636 C3.95805024,66.9431461 4.05172399,69.1723972 4.02049941,69.4548544 C3.98927482,69.7373116 2.66983599,71.5264736 2.57536161,71.9665626 C2.48088722,72.4058515 2.19826471,73.0963913 1.82116781,73.6933121 C1.44407091,74.2894327 1.44407091,74.3838518 1.56976987,74.9175598 C1.69546884,75.4512678 0.501728972,78.9983856 0.501728972,78.9983856 C0.501728972,78.9983856 -0.19001566,79.7473371 0.0509740788,80.0025888 C0.25353356,80.2170322 0.500928341,80.952381 0.500928341,80.952381" id="Path"></path>
                    <line x1="42.2289821" y1="79.9917765" x2="50.9670619" y2="79.9917765" id="Path"></line>
                    <line x1="42.7197685" y1="79.1928047" x2="50.9670619" y2="79.0928047" id="Path"></line>
                    <line x1="43.2049505" y1="78.3878418" x2="50.9670619" y2="78.2878418" id="Path"></line>
                    <line x1="43.7005407" y1="77.5737782" x2="50.9670619" y2="77.4847782" id="Path"></line>
                    <line x1="44.1913271" y1="76.7642149" x2="50.9670619" y2="76.6812149" id="Path"></line>
                    <line x1="44.6516896" y1="75.9753536" x2="50.9670619" y2="75.8753536" id="Path"></line>
                    <line x1="45.1728999" y1="75.1442884" x2="50.9670619" y2="75.0732884" id="Path"></line>
                    <line x1="45.6436706" y1="74.366228" x2="50.9670619" y2="74.266228" id="Path"></line>
                    <line x1="46.1424633" y1="73.5449637" x2="50.9670619" y2="73.4639637" id="Path"></line>
                    <line x1="46.6580693" y1="72.7146987" x2="50.9670619" y2="72.6626987" id="Path"></line>
                    <line x1="47.135245" y1="71.9051354" x2="50.9670619" y2="71.8591354" id="Path"></line>
                    <line x1="47.6036137" y1="71.1370759" x2="50.9670619" y2="71.0500759" id="Path"></line>
                    <line x1="48.1160171" y1="70.2861089" x2="50.9670619" y2="70.2511089" id="Path"></line>
                    <line x1="48.6068036" y1="69.4765457" x2="50.9670619" y2="69.4475457" id="Path"></line>
                    <line x1="49.09759" y1="68.6669825" x2="50.9670619" y2="68.6439825" id="Path"></line>
                    <line x1="49.5963827" y1="67.8421179" x2="50.9670619" y2="67.8421179" id="Path"></line>
                    <path d="M8.37032416,55.15116 C8.37032416,55.15116 8.40154874,53.8012868 8.888332,53.4716201 C9.37511526,53.1419534 10.5216179,52.5298296 10.5848677,52.4986233 C10.6481175,52.4674169 11.3070363,52.6242487 11.4647605,52.4986233 C11.621684,52.3729978 11.7633956,52.2321693 11.9675564,52.294582 C12.1717171,52.3569946 13.5696177,52.5770391 13.9939518,52.4986233 C14.4182859,52.4202074 15.0459801,52.3729978 15.4703142,52.3729978 C15.8946483,52.3729978 17.5119216,52.1065439 17.9987049,51.9177057 C18.4854881,51.7288675 18.862585,51.6976612 19.2709065,51.4936199 C19.679228,51.2895786 19.7737024,50.8654928 20.5431082,50.8974993 C21.3125139,50.9295057 22.0194705,51.7448707 22.0194705,51.7448707" id="Path"></path>
                    <path d="M25.1379258,48.4370014 C25.1379258,48.4370014 25.8040503,46.7222544 26.0714608,46.2829655 C26.3388713,45.8436766 27.7832085,44.007305 28.3956907,43.6144255 C29.008173,43.2223462 29.8248159,43.3159651 30.390061,43.0967207 C30.955306,42.8766762 32.7911514,42.7798566 33.012926,43.0967207 L33.2347006,43.4135849" id="Path"></path>
                    <path d="M34.2378905,42.9550921 C34.2378905,42.9550921 33.3579977,42.3901778 33.829569,41.6364253 C34.3011403,40.8826727 34.3323649,40.2233393 34.8191481,40.0985141 C35.3059314,39.9736888 37.6645884,39.0727065 38.0793149,38.9654848 C38.4940415,38.8582631 40.0336537,38.486988 40.3787253,38.8606636 C40.7245977,39.2351393 41.4940034,40.2393425 42.2634092,39.8784695 C43.032815,39.5175965 43.2842129,38.9990916 43.8182334,39.3607648 C44.3522538,39.722438 45.0119732,40.3969744 45.8126036,40.444184 C46.613234,40.4913936 47.1984948,41.5900159 47.1984948,41.5900159 C47.1984948,41.5900159 47.3986523,42.1861365 47.6028131,42.2965588 C47.8069738,42.406181 48.105609,42.9558923 47.995122,43.2223462 C47.8854356,43.4888001 47.7213064,44.4153876 47.8742268,44.6034256 C48.0271472,44.7914637 47.0031409,45.8380755 47.0031409,45.8380755" id="Path"></path>
                    <path d="M15.5583835,68.0329667 C16.3277893,67.6720936 16.5791872,67.1535887 17.1132077,67.5152619 C17.6472281,67.8761349 18.3069476,68.5514716 19.1075779,68.5986811 C19.9082083,68.6458907 20.4934691,69.744513 20.4934691,69.744513 C20.4934691,69.744513 20.6936267,70.3406336 20.8977874,70.451056 C21.1019481,70.5606782 21.4005833,71.1103894 21.2900963,71.3768433 C21.1804099,71.6432972 21.0162807,72.5698847 21.1692011,72.7579228 C21.3221215,72.9459608 20.2981153,73.9925726 20.2981153,73.9925726" id="Path"></path>
                    <path d="M30.669481,59.391218 C30.669481,59.391218 29.6975157,59.0063401 30.0145653,58.175772 C30.3316149,57.3460041 30.2355393,56.693072 30.6886961,56.475428 C31.1418529,56.2585841 33.2827385,54.9215135 33.6694429,54.735876 C34.0561474,54.5510386 35.4948801,53.8901048 35.9056035,54.1901655 C36.3171275,54.4910264 37.2658745,55.3279958 37.9512141,54.8254941 C38.6365537,54.3229924 38.7838697,53.7660797 39.3771368,54.0181307 C39.9704039,54.2693816 40.7478159,54.8046899 41.5428419,54.696668 C42.3378678,54.5886462 43.1240868,55.5544416 43.1240868,55.5544416" id="Path"></path>
                    <path d="M55.0414698,40.5866128 L54.8757393,38.1573212 C54.8757393,38.1573212 54.7812649,37.8228536 55.1583618,37.7388366 C55.5354587,37.6548196 56.5642687,37.6132111 56.5642687,37.6132111 C56.5642687,37.6132111 56.9277549,37.6548196 56.9277549,37.9060704 L56.9277549,40.8586679" id="Path"></path>
                    <line x1="55.9407234" y1="40.0224987" x2="55.9027234" y2="38.1677234" id="Path"></line>
                    <line x1="55.3889433" y1="38.6752097" x2="56.3625099" y2="38.6132097" id="Path"></line>
                    <path d="M11.9307274,52.0801386 L11.9307274,50.8086813 C11.9307274,50.8086813 11.9931765,50.2909765 12.527197,50.2589701 C13.0612174,50.2269636 22.0186699,49.1291414 22.0186699,49.1291414 L25.9121354,44.2865615" id="Path"></path>
                    <polyline id="Path" points="22.2868811 48.7362619 22.2868811 44.3465737 22.8345122 44.2865615"></polyline>
                    <rect id="Rectangle" x="53.9181854" y="18.8734191" width="6.69487108" height="4.48170689"></rect>
                    <line x1="55.49819" y1="23.355126" x2="55.49819" y2="18.8734191" id="Path"></line>
                    <line x1="57.3828739" y1="23.2855119" x2="57.3828739" y2="18.803805" id="Path"></line>
                    <line x1="59.1634758" y1="23.355126" x2="59.1634758" y2="18.8734191" id="Path"></line>
                    <line x1="60.6122558" y1="20.152878" x2="53.9181854" y2="20.2993076" id="Path"></line>
                    <rect id="Rectangle" x="54.0262705" y="27.9224502" width="6.69487108" height="4.9794076"></rect>
                    <line x1="55.6062751" y1="32.9018578" x2="55.6062751" y2="27.9224502" id="Path"></line>
                    <line x1="57.490959" y1="32.8250422" x2="57.490959" y2="27.8456346" id="Path"></line>
                    <line x1="59.2715609" y1="32.9018578" x2="59.2715609" y2="27.9224502" id="Path"></line>
                    <line x1="60.7203409" y1="29.3443379" x2="54.0262705" y2="29.5067708" id="Path"></line>
                    <polygon id="Path" points="41.8278663 28.524172 45.0960394 28.1368936 45.0960394 33.0034784 41.8278663 33.1074994"></polygon>
                    <line x1="42.656079" y1="28.4273524" x2="42.656079" y2="33.0818942" id="Path"></line>
                    <line x1="43.5792058" y1="28.3433354" x2="43.5792058" y2="32.9978772" id="Path"></line>
                    <line x1="44.4462885" y1="28.2953256" x2="44.4462885" y2="32.9498675" id="Path"></line>
                    <line x1="41.8278663" y1="29.9268558" x2="45.0960394" y2="29.4915677" id="Path"></line>
                    <polygon id="Path" points="41.9351508 19.4199297 45.2033239 19.0326513 45.2033239 23.8992361 41.9351508 24.0040573"></polygon>
                    <line x1="42.7633635" y1="19.3231101" x2="42.7633635" y2="23.9776519" id="Path"></line>
                    <line x1="43.6864903" y1="19.2398932" x2="43.6864903" y2="23.8936349" id="Path"></line>
                    <line x1="44.553573" y1="19.1910834" x2="44.553573" y2="23.8456252" id="Path"></line>
                    <line x1="41.9351508" y1="20.8226135" x2="45.2033239" y2="20.3873254" id="Path"></line>
                    <polygon id="Path" points="47.7533316 19.1910834 46.9126697 19.3231101 46.9126697 23.3655281 47.7533316 23.1158776"></polygon>
                    <polygon id="Path" points="65.3495857 11.1990662 64.5089238 11.3022871 64.5089238 14.4525245 65.3495857 14.2580852"></polygon>
                    <polygon id="Path" points="65.3495857 23.0358614 64.5089238 23.1390823 64.5089238 26.2885196 65.3495857 26.0948804"></polygon>
                    <polygon id="Path" points="47.6860786 28.4273524 46.8454168 28.5593791 46.8454168 32.6017971 47.6860786 32.3521466"></polygon>
                    <polygon id="Path" points="53.2768805 9.77717844 55.2872633 11.6423559 59.1535073 11.5799432 57.6114932 9.60194298"></polygon>
                    <polyline id="Path" points="46.9126697 9.97881924 50.2609059 9.97881924 46.994334 12.1448575 45.0215808 12.0768438 45.0215808 8.66495338 46.1424633 8.74897038 47.7989675 8.74336925"></polyline>
                    <polyline id="Path" points="70.8154891 57.7660891 70.9043591 62.1829829 73.7297836 61.5772603 73.7610082 58.8783142 75.3630696 58.8399064 72.9819949 54.9551203 69.7562552 59.1631718 66.8507676 58.7254833 68.7898943 56.406614 72.9819949 54.9551203"></polyline>
                    <polyline id="Path" points="67.811524 58.8703126 67.811524 60.424227 70.8555206 62.2237912"></polyline>
                    <polyline id="Path" points="72.6585402 55.4256155 73.7610082 57.3956142 73.7610082 58.8783142"></polyline>
                    <path d="M54.4089718,64.6554832 C55.9950205,64.0737655 76.1292728,61.7564966 79.0675863,61.4204286 C79.2861583,61.3956236 79.4999267,61.496444 79.6200212,61.6812814 C79.6200212,61.6812814 82.0963709,65.0915715 81.9970927,65.4980537" id="Path"></path>
                    <polyline id="Path" points="34.7398857 29.0578799 34.7398857 26.8670366 36.6533923 26.5717769 36.6533923 28.9538589"></polyline>
                    <line x1="42.1036441" y1="15.4247212" x2="42.1036441" y2="17.6339683" id="Path"></line>
                    <line x1="61.686262" y1="15.3735109" x2="61.686262" y2="17.4027215" id="Path"></line>
                    <path d="M60.6122558,9.66995674 C60.6122558,9.66995674 64.6170089,10.096443 66.4552562,9.35869376" id="Path"></path>
                    <path d="M51.5771422,55.9153146 L52.749265,55.9153146 L52.948622,48.8442838 C52.948622,48.8442838 52.6764077,46.4974089 51.5771422,46.4662026 C50.4778767,46.4349963 50.2264788,48.4378015 50.2264788,48.4378015 L50.2264788,52.5594356" id="Path"></path>
                    <polygon id="Path" points="56.5642687 45.5236118 58.2047603 45.3355738 58.2047603 48.8442838 56.5642687 48.8442838"></polygon>
                    <polygon id="Path" points="59.9269162 45.5236118 61.2935923 45.4868044 61.2727759 48.7970742 59.9269162 48.7834715"></polygon>
                </g>
                <path d="M335,66.9606114 C335,66.9606114 333.856304,65.9091035 333.666897,66.1145143 C333.47749,66.3199252 333.051929,66.5126201 332.727116,66.3649199 C332.402303,66.2172198 331.980771,64.9123718 331.474611,64.9632354 C330.968451,65.0140991 330.820956,65.4454619 330.29384,65.6645668 C329.766724,65.8836717 329.303282,65.7535781 328.944617,65.8054199 C328.585953,65.8572617 328.124122,66.1017984 328,66.305253" id="Path" stroke="#FFFFFF" stroke-width="0.5"></path>
            </g>
        </g>
    </g>
</svg>