<?xml version="1.0" encoding="UTF-8"?>
<svg width="75px" height="67px" viewBox="0 0 75 67" version="1.1" xmlns="http://www.w3.org/2000/svg" xmlns:xlink="http://www.w3.org/1999/xlink">
    <title>Group 23</title>
    <g id="Page-1" stroke="none" stroke-width="1" fill="none" fill-rule="evenodd">
        <g id="Group-23">
            <path d="M7.03377933,13.2235742 C-0.796220665,23.5535742 -3.37622067,40.2235742 6.03377933,51.7835742 C16.3837793,64.4735742 36.0937793,64.7835742 48.5537793,55.7835742 C58.6637793,48.4535742 64.6837793,34.6035742 60.6837793,21.4035742 C57.6497793,11.3305742 49.6047793,3.55357422 39.4337793,0.863574218 C26.1337793,-2.50642578 13.6537793,4.48357422 7.03377933,13.2235742 Z" id="Fill-1" fill="#EDF4F8"></path>
            <path d="M35.3018952,5.53012542 C40.6368827,5.52638588 46.3146036,5.59080232 52.0197963,5.70277985 L57.0425439,5.81342345 L62.034,5.949 L62.163039,5.89951844 L62.2825878,5.85922011 C62.9292887,5.65507533 63.6246341,5.64646255 64.2893507,5.97278781 C65.8151726,6.72185026 66.615985,8.93916591 66.4996923,12.9909511 L66.4745397,13.6288252 C66.469133,13.7375662 66.4631169,13.8475256 66.4564882,13.9587097 L66.4093374,14.6405588 C66.3911526,14.8727732 66.3704911,15.1099355 66.347327,15.352095 L66.2703015,16.0936147 C66.228009,16.4719198 66.1800276,16.8615798 66.1262698,17.2627614 L66.0110264,18.0805361 L65.8802238,18.9293315 L65.5344284,20.9888429 L65.344702,22.1602058 L65.164562,23.3229269 L64.994043,24.4764007 L64.8331797,25.6200217 C64.8071757,25.8097705 64.7815755,25.9990835 64.7563797,26.1879482 L64.6100649,27.3156546 L64.4734923,28.4319944 L64.3466966,29.5363621 L64.2297125,30.6281522 L64.1225746,31.7067591 L64.0253175,32.7715773 L63.9379759,33.8220014 L63.8605844,34.8574257 L63.7931776,35.8772449 L63.7357902,36.8808533 L63.6884569,37.8676455 C63.6814077,38.0306758 63.674779,38.1929803 63.6685713,38.3545462 L63.6363839,39.3149787 L63.6143371,40.2570811 L63.6024656,41.180248 L63.600804,42.0838738 C63.6013798,42.232816 63.6023824,42.3809188 63.6038127,42.5281695 L63.6175309,43.4013484 L63.6415455,44.2534724 L63.6758913,45.083936 C63.6824785,45.2205079 63.6894975,45.3561521 63.6969492,45.4908559 L63.7468566,46.2876936 C63.7560417,46.4185856 63.7656609,46.5485119 63.7757148,46.67746 L63.8412618,47.4393094 C63.8530578,47.5642943 63.8652901,47.6882757 63.8779593,47.8112411 L63.9592238,48.5367397 C63.9736437,48.6555904 63.9885021,48.7733999 64.0037995,48.8901554 L64.1008595,49.5779409 C64.766076,53.9650312 66.1013943,56.7107734 68.1496211,57.0668633 C68.4216826,57.114162 68.6038889,57.3730545 68.5565902,57.645116 C68.5092916,57.9171775 68.250399,58.0993838 67.9783376,58.0520851 C65.2550264,57.5786299 63.6191121,54.0502453 62.9417777,48.5022866 L62.8553435,47.733326 C62.7748266,46.9520419 62.7120257,46.1340787 62.6666142,45.282062 L62.6269869,44.4187913 L62.59888,43.5334016 L62.5822207,42.6264763 L62.5769366,41.6985988 L62.582955,40.7503526 L62.6002034,39.7823209 L62.6286091,38.7950874 C62.6342692,38.6289807 62.6403911,38.4620982 62.6469733,38.2944521 L62.691979,37.2795095 L62.7479605,36.2468234 L62.8148454,35.1969773 L62.892561,34.1305546 L62.9810347,33.0481386 L63.080194,31.9503129 L63.1899662,30.8376607 L63.3102788,29.7107655 L63.4410592,28.5702108 L63.5822348,27.4165799 L63.733733,26.2504562 L63.8954812,25.0724232 L64.0674069,23.8830642 L64.2494374,22.6829627 L64.4415002,21.472702 L64.6435227,20.2528657 L64.8211712,19.2093999 L64.9555834,18.373434 C64.9767254,18.2367935 64.997241,18.1014918 65.0171357,17.9675218 L65.1290962,17.1796252 L65.2264154,16.4233479 L65.3093543,15.6983483 L65.3781742,15.0042848 L65.4331363,14.3408159 L65.4745016,13.7076002 C65.4802773,13.6045663 65.4854973,13.5027788 65.4901671,13.4022304 L65.5116269,12.8137539 C65.5190991,12.5268938 65.5217174,12.2510585 65.5196286,11.9860558 L65.5092185,11.4704368 C65.4981524,11.1362439 65.4788923,10.8210813 65.4517865,10.5244934 L65.4052869,10.0934859 C65.1786671,8.28566137 64.6279187,7.25300358 63.8486668,6.87045016 C63.4481487,6.67382624 63.0066531,6.67929475 62.5836166,6.81283518 L62.4460651,6.86138924 L62.3670024,6.89637975 L62.2504117,6.9574576 L58.4766547,6.84996211 L55.4910696,6.77690073 L53.9006902,6.74160948 C48.1994203,6.61944855 42.490791,6.54251411 37.0907479,6.53137364 L34.2656024,6.53185186 L31.2492831,6.54883906 L29.3207601,6.56984544 L27.0076388,6.60677343 L23.9610496,6.67794842 L21.5379232,6.75657896 L20.0239544,6.81781355 L18.5943848,6.88595233 L17.2519912,6.96086916 L15.7008214,7.06385462 L14.2956276,7.17698723 L13.5248361,7.24963493 L12.8097201,7.32579367 L11.9448636,7.4327083 L11.3642134,7.5168525 L11.0101414,7.57480394 L10.5294435,7.66447462 L10.2430912,7.7260611 L9.98443422,7.789074 L9.75381972,7.85349755 L9.55159483,7.91931598 C9.52027577,7.93040109 9.49015407,7.94154365 9.46123697,7.95274335 L9.30224739,8.02062453 C9.10968911,8.11203991 8.99515071,8.20706984 8.96233498,8.3055461 C6.34042549,16.1735969 4.53943577,29.193716 6.45405439,38.830513 L6.56865609,39.3826677 C6.65874735,39.798762 6.73841285,40.22091 6.80812717,40.6497617 L6.85614246,40.9539736 L6.94220815,41.5553202 C6.98196824,41.8543232 7.01686805,42.1515096 7.04712745,42.4499786 L7.10152418,43.049545 C7.10958082,43.1500638 7.11713814,43.2509548 7.1242043,43.3523326 L7.16077233,43.9673603 C7.16590637,44.0711448 7.17056554,44.1756457 7.17475796,44.2809779 L7.19437678,44.9238641 C7.19909286,45.1420967 7.20200713,45.3645725 7.20318474,45.5922099 L7.20157272,46.2915252 L7.18993162,47.0273197 L7.16865232,47.8051034 L7.13812571,48.6303859 L7.07585218,49.969423 L6.96067735,52.1258503 L6.92598996,52.8562755 L6.88594244,53.8657041 L6.86768497,54.4849431 L6.85654169,55.0642191 L6.85282242,55.6061099 L6.85683699,56.1131935 L6.86889523,56.5880477 L6.88930698,57.0332505 C6.89342227,57.1051232 6.89789854,57.1758679 6.90274224,57.2455382 L6.93626517,57.6510975 L6.9789162,58.0334501 C6.98680259,58.0953849 6.99508222,58.1564602 7.00376156,58.2167296 L7.06068565,58.5691059 C7.07098961,58.6263669 7.08170618,58.6829294 7.09284182,58.7388473 L7.16473609,59.0670476 L7.24699776,59.3823531 L7.33993668,59.6873415 L7.44386267,59.9845908 L7.55908557,60.2766789 L7.6859152,60.5661838 C8.79439216,62.9802207 11.2309043,64.2119567 15.7311647,64.2767737 L17.3367447,64.2848972 L18.3770766,64.2999431 L19.3643226,64.3239316 L21.6363738,64.4086297 L23.5037225,64.4979068 L29.3020516,64.8187409 L39.6873157,65.4201312 L42.6433823,65.5730882 L44.9499769,65.6791365 L46.6163142,65.7471415 L48.2281681,65.8050895 L49.272486,65.8380575 L51.2885642,65.8901924 L52.7371754,65.9170361 L54.1314415,65.9332005 L55.4713971,65.93853 L56.7570766,65.932869 L57.9885146,65.9160619 L58.7793563,65.898588 L59.5461161,65.876045 L60.2888045,65.8483869 L61.3577255,65.7972078 L62.3725432,65.7342602 L63.019048,65.6856803 L63.6415326,65.6317546 L64.240007,65.5724371 L64.8144817,65.5076817 L65.3649668,65.4374423 C65.4547157,65.4252762 65.5434655,65.4128797 65.6312164,65.4002517 L66.1457363,65.3216998 C66.2294923,65.3081425 66.3122499,65.2943519 66.3940091,65.280327 L66.8725869,65.1933589 L67.327216,65.1007224 C67.4009923,65.084808 67.4737713,65.0686556 67.545553,65.0522641 L67.9642784,64.9510384 L68.3590807,64.8440291 L68.7299702,64.73119 C70.1058936,64.2874073 70.9549647,63.7141099 71.2797785,62.9996114 C71.5064048,62.5009211 71.7161903,61.7803421 71.9091202,60.8784528 L72.0352428,60.2507778 C72.0970554,59.9239552 72.1569947,59.5779889 72.2150603,59.2143819 L72.3286929,58.4640922 L72.4373279,57.6694324 L72.5409642,56.8330742 L72.6396008,55.9576894 C72.6556236,55.8086882 72.671438,55.6581722 72.687044,55.5061971 L72.7781793,54.5772823 L72.8643126,53.6160205 L72.9454428,52.6250837 L73.0215689,51.6071436 L73.1263734,50.0354469 L73.2199133,48.4180218 L73.2760135,47.3187869 L73.3271048,46.2059078 L73.3731861,45.0820565 L73.4142566,43.9499047 L73.4664647,42.2419582 L73.4950037,41.1007444 L73.52841,39.3917293 L73.5505308,37.6940962 L73.5590066,36.5731172 L73.5623109,34.9144928 L73.5543209,33.291297 L73.5350333,31.7125471 L73.5044449,30.1872605 L73.4625522,28.7244547 L73.428342,27.7884154 L73.3891053,26.886825 L73.3448411,26.0223552 L73.2955483,25.1976778 L73.2412262,24.4154648 C73.2317533,24.288783 73.2220708,24.163982 73.2121787,24.0411173 L73.1503105,23.3276104 L73.0834104,22.6632473 C73.071841,22.5567639 73.0600619,22.4524395 73.0480731,22.3503297 L72.9736232,21.7646921 C72.9607954,21.6716636 72.9477579,21.5809611 72.9345105,21.4926402 L72.8351718,20.8621084 C72.8014549,20.6586546 72.7670995,20.4618543 72.7320013,20.2714971 L72.6243743,19.7195451 C71.9456492,16.432447 70.9770791,15.2785823 69.0593688,14.9268653 L68.7399649,14.8766511 C68.6853096,14.8693838 68.629935,14.86265 68.573828,14.8564232 C68.2993706,14.825964 68.1015711,14.5787802 68.1320303,14.3043229 C68.1624896,14.0298655 68.4096733,13.8320659 68.6841307,13.8625252 C71.460496,14.170646 72.8128757,15.596849 73.6463243,19.7445652 L73.761956,20.3557829 C73.8181045,20.6708217 73.8718253,21.0001354 73.9234482,21.3443083 L74.00211,21.9139309 L74.0756493,22.5379956 L74.1440627,23.2138357 L74.2073469,23.9387844 C74.2174667,24.0635534 74.2273726,24.1902575 74.2370646,24.3188411 L74.2926488,25.1124526 L74.3430957,25.9485059 L74.3884019,26.8243342 L74.4285642,27.7372707 L74.4791555,29.1704201 L74.5181545,30.6720627 L74.54555,32.2331983 L74.561331,33.8448266 L74.5654863,35.4979473 L74.558005,37.1835603 L74.5388759,38.8926653 L74.508088,40.616262 L74.4810801,41.7689329 L74.4308362,43.4966819 L74.3689038,45.2149219 L74.3211165,46.350688 L74.2681262,47.475561 L74.1788779,49.1366126 L74.1128656,50.222586 L74.0040688,51.8127878 L73.925014,52.8431945 L73.8407364,53.8467077 L73.7512329,54.8206606 L73.6564999,55.7623866 C73.6402752,55.9165072 73.6238324,56.0691739 73.6071715,56.2203311 L73.5045884,57.1087165 C73.4870549,57.2536137 73.4693031,57.3968903 73.451333,57.5384907 L73.3408925,58.3675353 L73.2252095,59.153686 L73.1042808,59.894276 L72.978103,60.5866386 C72.7419635,61.8101319 72.4793437,62.7770338 72.1901525,63.4133978 C71.9090989,64.0316362 71.3799632,64.5591606 70.5933518,65.0033798 L70.3050179,65.1567161 L69.9952101,65.3032067 C69.9417809,65.3270554 69.8874531,65.3506218 69.8322249,65.3739075 L69.4900342,65.5102653 L69.1261403,65.6399584 C68.9387522,65.7031508 68.743191,65.7638711 68.539405,65.8221599 L68.1208513,65.9355079 L67.680273,66.0424444 L67.2175785,66.143042 L66.7326759,66.237373 L66.2254734,66.3255097 C66.1390763,66.339687 66.0517461,66.3536092 65.9634811,66.3672779 L65.4226567,66.446259 L64.8593031,66.5192269 L64.2733283,66.5862539 L63.6646407,66.6474124 L63.0331485,66.7027749 L62.3787599,66.7524136 L61.701383,66.796401 L61.0009262,66.8348094 L59.9067653,66.8821199 L58.7601582,66.9172849 L57.9664637,66.9341014 L56.7317579,66.9495669 L55.4437799,66.9535384 L54.10222,66.9462602 L53.177926,66.9352789 L51.7463745,66.9097941 L49.752951,66.8593706 L48.1939657,66.8095366 L46.0295063,66.7275342 L43.7663026,66.628283 L41.4036202,66.5123621 L37.1555726,66.2802244 L24.4151298,65.5466474 L21.3592439,65.3975965 L19.8611913,65.3399829 L18.5443873,65.3036752 L17.8902015,65.2917665 L16.4405335,65.2798268 L16.1109793,65.2794742 C11.0122804,65.2794742 8.10204345,63.8688395 6.77714196,60.9834741 L6.70693561,60.8273424 L6.57584265,60.5152706 L6.45689144,60.2013103 C6.40039437,60.0434294 6.34832241,59.8838756 6.30048347,59.721202 L6.21039273,59.3912664 C6.19629931,59.3354409 6.18266199,59.2791616 6.16947367,59.2223749 L6.09567478,58.8751368 C6.08425398,58.816106 6.07326795,58.7564606 6.06270957,58.696147 L6.00443421,58.3258183 L5.95608104,57.9368804 C5.94883005,57.8703638 5.94197826,57.8029645 5.93551855,57.7346291 L5.90140838,57.3129541 C5.89648855,57.2406597 5.89194657,57.1673219 5.88777533,57.0928873 L5.86713985,56.6326871 L5.85506065,56.143588 L5.85119627,55.6230175 L5.85520523,55.0684031 L5.86674604,54.4771725 L5.89743254,53.5160439 L5.9615223,52.0823727 L6.09923009,49.4740792 L6.13807865,48.6095167 L6.16824011,47.7977606 L6.1893453,47.0334143 L6.20102504,46.311081 C6.2021657,46.1938934 6.20289825,46.0782314 6.203215,45.9639827 L6.20006437,45.2945502 L6.18656536,44.653639 L6.16234879,44.0358525 C6.12770065,43.3264922 6.0704171,42.6533266 5.9878601,41.9777919 L5.910846,41.3972824 L5.82108389,40.8102159 C5.7764414,40.5355951 5.7275837,40.2640111 5.67438411,39.9952878 L5.59131247,39.5943265 C3.44786018,29.6990801 5.28971828,16.1635312 8.01362369,7.98940234 C8.10225234,7.72343788 8.3761132,7.48324805 8.83163062,7.26689969 L9.05475509,7.16873245 C9.17275366,7.12048823 9.30039694,7.07349784 9.43764101,7.02773751 L9.72491716,6.93784992 L10.0377173,6.85120026 L10.3759632,6.76774632 L10.7395769,6.68744585 L11.1284802,6.61025661 C11.1954005,6.59764866 11.2633713,6.58516859 11.332391,6.57281551 L11.7590822,6.50021394 L12.2108676,6.43061802 L12.6876693,6.36398551 L13.4496062,6.26950075 L14.2673901,6.18144609 L15.1407573,6.09967899 L15.7537515,6.04859028 L16.7191716,5.97698566 L18.0917221,5.89067754 L19.184786,5.8326352 L20.7265711,5.76389272 L22.3642025,5.70472315 L24.097055,5.65478861 L26.3960734,5.60484244 L29.3482817,5.5623282 L30.9028831,5.54786531 L34.1677623,5.53181527 L35.3018952,5.53012542 Z" id="Stroke-3" fill="#066B9F" fill-rule="nonzero"></path>
            <path d="M57.0529793,14.9888742 C57.3291217,14.9888742 57.5529793,15.2127318 57.5529793,15.4888742 C57.5529793,15.7343341 57.3761042,15.9384826 57.142855,15.9808185 L57.0529793,15.9888742 L19.7819793,15.9888742 C19.505837,15.9888742 19.2819793,15.7650166 19.2819793,15.4888742 C19.2819793,15.2434143 19.4588545,15.0392658 19.6921037,14.9969299 L19.7819793,14.9888742 L57.0529793,14.9888742 Z" id="Stroke-5" fill="#066B9F" fill-rule="nonzero"></path>
            <path d="M58.1425792,21.201929 C58.4178629,21.1801689 58.6586645,21.3856904 58.6804245,21.6609741 C58.6997669,21.9056707 58.5395287,22.1231222 58.3103408,22.1837066 L58.2213795,22.1988194 L40.3583795,23.6108194 C40.0830958,23.6325795 39.8422942,23.427058 39.8205341,23.1517744 C39.8011918,22.9070777 39.96143,22.6896263 40.1906178,22.6290418 L40.2795792,22.613929 L58.1425792,21.201929 Z" id="Stroke-7" fill="#066B9F" fill-rule="nonzero"></path>
            <path d="M39.6203684,29.390124 L42.3572589,29.584627 L44.4045427,29.7373633 L47.4091853,29.973728 L49.5559333,30.1539049 L51.1968281,30.3005223 L53.1576599,30.4905616 L54.2742806,30.6097137 L55.213122,30.7219228 L55.8034349,30.8027053 L56.2984098,30.8815167 L56.5764143,30.9333719 L56.8135267,30.9849652 L57.010339,31.036542 L57.1674434,31.0883482 C57.2361672,31.1143495 57.2902227,31.140529 57.3299427,31.1670246 C57.5596654,31.3202635 57.6216677,31.630715 57.4684289,31.8604376 C57.3322166,32.0646355 57.0717869,32.1363137 56.8542537,32.0420967 L56.7528411,31.9878672 L56.6704069,31.962403 L56.5387775,31.9327328 L56.2532519,31.8810278 L55.8677325,31.8216256 L54.822381,31.6839692 L53.9428836,31.5816362 L52.9350554,31.4737848 L51.6135902,31.343813 L50.0315104,31.1993605 L48.2945803,31.0501844 L46.3419052,30.8910606 L44.3283347,30.7344555 L42.2842973,30.5819617 L39.5525903,30.3878244 C39.2770829,30.369108 39.0689127,30.1305925 39.0876291,29.8550852 C39.1063455,29.5795778 39.344861,29.3714076 39.6203684,29.390124 Z" id="Stroke-9" fill="#066B9F" fill-rule="nonzero"></path>
            <path d="M58.1270048,37.2982056 C58.401473,37.267844 58.6485864,37.4657315 58.6789479,37.7401997 C58.705936,37.9841714 58.5525792,38.2065294 58.3253989,38.2742543 L58.2369539,38.2921428 L40.3739539,40.2681428 C40.0994857,40.2985044 39.8523723,40.1006169 39.8220107,39.8261487 C39.7950226,39.582177 39.9483795,39.359819 40.1755598,39.2920942 L40.2640048,39.2742056 L58.1270048,37.2982056 Z" id="Stroke-11" fill="#066B9F" fill-rule="nonzero"></path>
            <path d="M45.1709401,46.1185746 L46.011403,46.0846075 L46.8340329,46.0588034 C46.9695795,46.0551894 47.1043289,46.0519202 47.238254,46.0489984 L48.031696,46.0356547 L48.8040541,46.030762 L49.554028,46.0344355 L50.2803172,46.0467903 L50.9816215,46.0679418 C51.0963513,46.0722064 51.2099858,46.0768425 51.322498,46.0818522 L51.9838869,46.1164145 L52.61704,46.1600615 L53.220657,46.2129083 C53.3187263,46.2224891 53.4155107,46.2324581 53.5109832,46.2428176 L54.0678581,46.3096801 C54.1579744,46.3216113 54.2467247,46.3339379 54.3340817,46.3466621 L54.8412886,46.4277996 C55.9847502,46.6283463 56.8445234,46.9077884 57.3462729,47.2727118 C57.5695961,47.4351352 57.6189652,47.7478446 57.4565417,47.9711678 C57.2941183,48.194491 56.9814089,48.24386 56.7580857,48.0814366 C56.3855412,47.8104842 55.6998453,47.5921369 54.7682225,47.4263447 L54.3210252,47.3535567 C54.2436636,47.3420473 54.1649079,47.3308488 54.0847889,47.3199612 L53.5879587,47.2583663 L53.0598757,47.2042322 C52.9693391,47.1958315 52.8775615,47.1877416 52.7845734,47.1799625 L52.2123652,47.1370174 L51.612576,47.1015302 L50.9866746,47.0734999 L50.3361297,47.0529254 L49.6624099,47.0398055 L48.9669841,47.0341393 L48.2513209,47.0359256 L47.1430938,47.052576 L46.3832628,47.0729888 L45.6083349,47.1008502 L44.7913838,47.1376348 L43.9544052,47.183463 L43.1396502,47.2362399 C43.0061609,47.2455711 42.873936,47.2551588 42.7431447,47.2649866 L41.9769546,47.326702 L41.2532943,47.3933867 L40.5802863,47.4642491 C40.4727906,47.4763636 40.3677439,47.4886192 40.2653153,47.5009994 L39.6835154,47.5766438 L39.2393265,47.6436146 L38.915,47.7 L38.9113605,47.7531332 C38.8740217,47.9957365 38.6681503,48.1706033 38.4311755,48.1769652 L38.3411204,48.1712554 C38.0394267,48.124822 37.8439057,48.0707359 37.6974639,47.9665196 C37.2549791,47.6516223 37.4329166,47.1777068 37.8010075,46.981148 C37.9924218,46.8789336 38.3266941,46.78941 38.8133904,46.7017168 L39.2681101,46.6267461 C39.4434242,46.6000379 39.6311545,46.5736778 39.8299558,46.5477947 L40.4582284,46.4717054 C40.5680278,46.4593053 40.6802587,46.4470567 40.7947531,46.4349757 L41.5075358,46.3646293 L42.2665717,46.2990782 L43.0637916,46.2390954 L43.8911259,46.1854543 L44.7405052,46.138928 C44.8834572,46.1318095 45.0269915,46.1250197 45.1709401,46.1185746 Z" id="Stroke-13" fill="#066B9F" fill-rule="nonzero"></path>
            <path d="M39.3518816,54.2945398 C40.3340174,53.7715809 41.9624639,53.4850557 44.1456692,53.391232 L44.8534364,53.367958 L45.5974445,53.3571891 C45.9784019,53.35488 46.3727093,53.3571455 46.7800065,53.3638135 L47.6118135,53.3829685 L48.4776188,53.4135575 C49.9610981,53.47441 51.5235089,53.5808625 53.1579672,53.724227 L54.8688681,53.8859385 L58.1818793,54.2358742 C58.4580217,54.2358742 58.6818793,54.4597318 58.6818793,54.7358742 C58.6818793,55.0120166 58.4580217,55.2358742 58.1818793,55.2358742 L54.7150165,54.8757223 L53.8878496,54.7945812 C51.9693221,54.614762 50.1479387,54.4829152 48.4366332,54.4127173 L47.6076858,54.3834524 C47.4721685,54.3794758 47.3379854,54.3759515 47.2051575,54.3728825 L46.4246197,54.3599548 C46.2972963,54.3587185 46.1713699,54.3579432 46.0468614,54.3576319 L45.3169939,54.3613555 C45.0794883,54.3644682 44.847822,54.3694601 44.6221626,54.3763545 L43.9633721,54.4027686 L43.3416271,54.4407372 C41.7339279,54.5575173 40.5320987,54.7990362 39.8218771,55.1772086 C39.5781349,55.3069943 39.2753306,55.2146142 39.1455449,54.970872 C39.0157593,54.7271297 39.1081393,54.4243255 39.3518816,54.2945398 Z" id="Stroke-15" fill="#066B9F" fill-rule="nonzero"></path>
            <path d="M25.98342,45.6383544 C29.7816084,45.565763 32.6337833,46.0468955 34.2083945,47.2841185 C34.4255284,47.4547276 34.4632442,47.7690555 34.2926351,47.9861894 C34.1220259,48.2033233 33.8076981,48.2410391 33.5905642,48.0704299 C32.2543755,47.0205432 29.582104,46.5697586 26.0025286,46.6381718 C24.1350833,46.6738626 22.1311587,46.8474197 20.1134144,47.1145529 C19.6338856,47.1780387 19.1735024,47.2442408 18.7367231,47.3115158 L17.579757,47.5012079 L17.1276345,47.5829217 C17.1004531,47.5880712 17.0759756,47.5927761 17.054262,47.5970141 C16.7832339,47.6499135 16.5206387,47.4730851 16.4677394,47.2020569 C16.4148401,46.9310287 16.5916685,46.6684336 16.8626966,46.6155343 L17.7297644,46.4609163 L18.1485359,46.3918799 L19.0355997,46.255316 C19.3416399,46.2103739 19.6575974,46.1661737 19.9821676,46.1232032 C22.034342,45.8515117 24.0741833,45.6748439 25.98342,45.6383544 Z" id="Stroke-17" fill="#066B9F" fill-rule="nonzero"></path>
            <path d="M16.7351893,54.2885024 L16.7716734,54.2709628 L16.8498126,54.2399695 L16.9753751,54.2089009 L17.2033398,54.1828969 L17.4900619,54.1706473 L17.894143,54.1669815 L19.6918037,54.1977559 L25.9576912,54.3692705 L28.2162142,54.4160536 L29.2063195,54.4290646 L30.3817176,54.4351559 L31.391278,54.4279072 L31.8337265,54.4191183 L32.4193244,54.3992968 L32.9110615,54.3713152 L33.1866463,54.3480193 L33.4203728,54.3209347 L33.6121838,54.2899965 C33.6691285,54.2790342 33.7190779,54.267419 33.7620224,54.2551398 C34.0275247,54.1792244 34.3042984,54.332915 34.3802138,54.5984173 C34.4561291,54.8639196 34.3024386,55.1406933 34.0369363,55.2166086 L33.956726,55.2376993 L33.7695209,55.2764602 C33.735323,55.2825446 33.6996198,55.2884427 33.6624006,55.2941564 L33.4208114,55.3262449 L33.1423394,55.3540146 L32.8264832,55.3775689 L32.4727416,55.3970114 L31.869997,55.418692 L31.419348,55.4283078 L30.9290587,55.4341741 L29.8275535,55.4350723 L28.5614704,55.4222148 L26.7413183,55.3880604 L18.610033,55.1787771 L17.8223437,55.1679195 L17.4078029,55.1686088 L17.227814,55.1755628 L17.1817694,55.1832461 C16.9346927,55.3065657 16.6344272,55.2062409 16.5111075,54.9591642 C16.40149,54.7395405 16.4685793,54.4778911 16.6583712,54.3358468 L16.7351893,54.2885024 Z" id="Stroke-19" fill="#066B9F" fill-rule="nonzero"></path>
            <path d="M16.5517552,21.8800735 L16.3623195,22.8725695 L16.2307361,23.6062963 C16.0534962,24.6156663 15.8762848,25.7056105 15.710859,26.8361178 C15.4980195,28.2906468 15.3205859,29.705309 15.1903416,31.0404284 L15.1247691,31.7466831 L15.0685182,32.4274982 L15.0219089,33.0825271 L14.9852615,33.7114228 L14.958896,34.3138385 L14.9431327,34.8894275 C14.9396809,35.0767808 14.9382488,35.2596052 14.9382488,35.4378429 L14.9446931,35.9587379 L14.9626571,36.4517657 L14.9925038,36.9165794 C15.1659955,39.0944366 15.767097,40.2714742 16.9584793,40.2714742 L17.257269,40.274571 L17.8130762,40.290966 L18.9961494,40.3459076 L22.3008967,40.5245469 L23.5318769,40.583202 L24.660352,40.6280434 L26.1514415,40.6705202 L27.2055309,40.6862947 L27.8680609,40.6881918 L28.4984626,40.6827907 C28.6008536,40.6812632 28.7019069,40.6794171 28.8016231,40.6772454 L29.3838784,40.6602494 L29.9340669,40.6350919 L30.4522132,40.6014276 C30.5359021,40.5950887 30.618257,40.5883811 30.6992782,40.5812974 L31.1694073,40.5342253 C33.213013,40.3015768 34.2852034,39.78431 34.3960631,38.8408228 C34.7215851,36.0704226 34.9496581,32.9252524 34.8933844,30.0377318 L34.8759259,29.3978349 C34.8722168,29.2932974 34.8681037,29.1898228 34.8635799,29.0874214 L34.8314548,28.4859745 L34.7891529,27.9107814 C34.5041726,24.5393767 33.6524021,22.6124742 31.9234793,22.6124742 L31.1386769,22.604308 L30.1673399,22.5802957 L28.3825576,22.5161614 L25.8436547,22.4016342 L23.0912016,22.2601955 L19.8654829,22.0795898 L16.5517552,21.8800735 Z M17.368,22.932 L20.8788575,23.1393988 L23.6997901,23.2940218 L26.5744207,23.437649 L28.6759474,23.5287068 L30.1473316,23.5801445 L31.1278969,23.6042703 L31.9234793,23.6124742 C32.814101,23.6124742 33.4323682,24.9491064 33.7192882,27.333824 L33.77757,27.8808965 C33.7863666,27.9749115 33.7947026,28.070335 33.8025752,28.1671521 L33.8442244,28.7646625 L33.8746054,29.3949185 C33.8828383,29.6103833 33.8891693,29.8311885 33.8935743,30.0572167 C33.9487678,32.889312 33.7235419,35.9952209 33.4028956,38.7241256 C33.3753001,38.9589808 33.0208779,39.1553038 32.3795852,39.3076805 L32.0872985,39.3702784 L31.7605837,39.4274005 L31.4001398,39.478952 C31.3372939,39.4870744 31.2730718,39.4949608 31.2074879,39.5026091 L30.7977609,39.5456271 L30.3560521,39.5828378 L29.8830604,39.6141464 L29.3794849,39.6394582 L28.8460245,39.6586785 L28.2833781,39.6717127 L27.6922447,39.6784659 L26.7536602,39.6766119 L26.094367,39.6672486 L25.4090331,39.6512729 L24.3289885,39.6152056 L23.1809756,39.5662867 L18.5640369,39.322749 L17.843129,39.2913813 L17.2705125,39.2746398 L16.9584793,39.2714742 C16.634113,39.2714742 16.3845959,38.9052089 16.2158495,38.2249996 L16.1526727,37.9362962 C16.1036386,37.6819637 16.0636667,37.3935236 16.0329764,37.0729139 L16.0006171,36.6728647 C15.9959711,36.6036576 15.9916999,36.5331947 15.9878052,36.4614916 L15.9689693,36.0165133 C15.9665877,35.939911 15.9645861,35.8620994 15.9629664,35.7830941 L15.9578432,35.294861 L15.9619673,34.7787214 L15.9754226,34.2354195 L15.9982935,33.6656994 L16.0306642,33.0703053 L16.0726189,32.4499813 L16.1242418,31.8054715 L16.1856171,31.13752 C16.3141783,29.8196533 16.4896614,28.4205424 16.7003219,26.9809047 L16.9019605,25.6579943 C16.9705499,25.2251201 17.0402647,24.8012031 17.1103517,24.388828 L17.2609086,23.5234188 L17.368,22.932 Z" id="Stroke-21" fill="#066B9F" fill-rule="nonzero"></path>
        </g>
    </g>
</svg>