<?xml version="1.0" encoding="utf-8"?>
<!-- Generator: Adobe Illustrator 26.0.2, SVG Export Plug-In . SVG Version: 6.00 Build 0)  -->
<svg version="1.1" id="Calque_1" xmlns="http://www.w3.org/2000/svg" xmlns:xlink="http://www.w3.org/1999/xlink" x="0px" y="0px"
	 viewBox="0 0 480 195" style="enable-background:new 0 0 480 195;" xml:space="preserve">
<style type="text/css">
	.st0{fill-rule:evenodd;clip-rule:evenodd;fill:#FEFEFE;}
</style>
<g id="Clip-20">
</g>
<g>
	<path class="st0" d="M5.8,137.1H2.7v3.5h3.1V137.1z M5.5,140.2H3.1v-2.8h2.4V140.2z"/>
	<path class="st0" d="M16.9,137.1h-3.1v3.5h3.1V137.1z M16.6,140.2h-2.4v-2.8h2.4V140.2z"/>
	<path class="st0" d="M25.9,137.1h-3.1v3.5h3.1V137.1z M25.5,140.2h-2.4v-2.8h2.4V140.2z"/>
	<path class="st0" d="M34.8,137.1h-3.1v3.5h3.1V137.1z M34.5,140.2H32v-2.8h2.4V140.2z"/>
	<path class="st0" d="M45.7,137.1h-3.1v3.5h3.1V137.1z M45.4,140.2h-2.4v-2.8h2.4V140.2z"/>
	<path class="st0" d="M16.2,168h3v-4.7h-3V168z M16.5,163.7h2.4v4h-2.4V163.7z"/>
	<path class="st0" d="M7.9,157.4L7.4,157l-0.1-1.4l-0.3,0L6.8,157l-0.6,0.4l-0.6-2.9v9.4l0.8-0.8l0.6,0.4l0.7-0.3l0.7,0.7V156
		l-0.3,0L7.9,157.4z M8.1,163.1l-0.4-0.3L7,163.2l-0.7-0.5L6,163.1v-5.6l0.1,0.5l1-0.8l0,0l1,0.8V163.1z"/>
	<path class="st0" d="M12.4,152.4h2.8v-2.5h-2.8V152.4z M12.8,150.3h2.1v1.8h-2.1V150.3z"/>
	<path class="st0" d="M15.3,152.4h2.8v-2.5h-2.8V152.4z M15.7,150.3h2.1v1.8h-2.1V150.3z"/>
	<path class="st0" d="M12.4,157.1h2.8v-4.3h-2.8V157.1z M12.8,153.2h2.1v3.6h-2.1V153.2z"/>
	<path class="st0" d="M15.3,157.1h2.8v-4.3h-2.8V157.1z M15.7,153.2h2.1v3.6h-2.1V153.2z"/>
	<path class="st0" d="M20.4,148.9l-0.1-0.1c0,0-0.9-1.2-0.9-2l-0.3,0c-0.1,0.8-0.4,2-0.7,2.2l-0.1,0.1h-1.3l-0.2-0.1
		c-0.4-0.1-1.4-0.6-1.4-1.3v-0.2l-0.4,0.1v0.1c0,0.6-1,1.1-1.4,1.3l-0.2,0.1h-1.4l-0.1,0c-0.3-0.2-0.5-1.4-0.7-2.2l-0.3,0
		c0,0.8-0.9,2-0.9,2l-0.1,0.1l0.3,0.3v8.8l-0.3,0.1l0.1,0.1c0,0,0.3,0.8,1,0.8c0.6,0,0.8-0.6,0.8-0.9h6.5c0.1,0.3,0.2,0.8,0.8,0.8
		c0.7,0,1-0.8,1-0.8l0.1-0.1l-0.3-0.1v-8.8L20.4,148.9z M15.3,148.1c0.2,0.3,0.5,0.6,0.8,0.8l-1.6,0
		C14.8,148.7,15.2,148.4,15.3,148.1z M12.1,149.3h6.6v8.7h-6.6V149.3z M11.3,158.8c-0.3,0-0.5-0.3-0.6-0.5l0.2-0.1v-9.1l-0.2-0.2
		c0.1-0.2,0.5-0.7,0.7-1.3c0.1,0.5,0.3,1,0.5,1.3h0v0.1l-0.2,0.1l0.1,8.9l0.2,0.1v0.1h0C11.7,158.5,11.6,158.8,11.3,158.8z
		 M20,158.3c-0.1,0.2-0.3,0.5-0.6,0.5c-0.3,0-0.4-0.3-0.5-0.5H19v-0.2l0.1-0.1l0.1-8.9l-0.1-0.1V149h-0.1c0.2-0.3,0.4-0.9,0.5-1.3
		c0.2,0.5,0.5,1.1,0.7,1.3l-0.2,0.2v9.1L20,158.3z"/>
	<path class="st0" d="M29.4,167.9h3v-4.7h-3V167.9z M29.7,163.6h2.4v4h-2.4V163.6z"/>
	<path class="st0" d="M41.8,157l-0.1-1.4l-0.3,0l-0.1,1.4l-0.5,0.4l-0.2-1.4l-0.3,0v7.9l0.7-0.7l0.7,0.3l0.6-0.4l0.8,0.8v-9.4
		l-0.6,2.9L41.8,157z M42.6,157.5v5.6l-0.4-0.4l-0.7,0.5l-0.7-0.3l-0.4,0.3V158l1-0.8l1,0.8L42.6,157.5z"/>
	<path class="st0" d="M38.4,148.9l-0.1-0.1c0,0-0.9-1.2-0.9-2l-0.3,0c-0.1,0.8-0.4,2-0.7,2.2l-0.1,0H35l-0.2-0.1
		c-0.4-0.1-1.4-0.6-1.4-1.3v-0.1l-0.4-0.1v0.2c0,0.6-1,1.1-1.4,1.3l-0.2,0.1h-1.3l-0.1-0.1c-0.3-0.2-0.5-1.4-0.7-2.2l-0.3,0
		c0,0.8-0.9,2-0.9,2l-0.1,0.1l0.3,0.3v8.8l-0.3,0.1l0.1,0.1c0,0,0.3,0.8,1,0.8c0.6,0,0.8-0.6,0.8-0.8h6.5c0.1,0.3,0.2,0.9,0.8,0.9
		c0.7,0,1-0.8,1-0.8l0.1-0.1l-0.3-0.1v-8.8L38.4,148.9z M33.3,148.1c0.2,0.3,0.5,0.6,0.8,0.8l-1.6,0
		C32.7,148.7,33.1,148.4,33.3,148.1z M29.9,149.3h6.6v8.7h-6.6V149.3z M29.2,158.8c-0.3,0-0.5-0.3-0.6-0.5l0.2-0.1v-9.1l-0.2-0.2
		c0.1-0.2,0.5-0.7,0.7-1.3c0.1,0.5,0.3,1,0.5,1.3h-0.1v0.1l-0.1,0.1l0.1,8.9l0.1,0.1v0.2h0.1C29.6,158.5,29.5,158.8,29.2,158.8z
		 M37.9,158.3c-0.1,0.2-0.3,0.5-0.6,0.5c-0.3,0-0.4-0.3-0.5-0.5h0v-0.1L37,158l0.1-8.9l-0.2-0.1v-0.1h0c0.2-0.3,0.4-0.9,0.5-1.3
		c0.2,0.5,0.5,1.1,0.7,1.3l-0.2,0.2v9.1L37.9,158.3z"/>
	<path class="st0" d="M33.4,152.4h2.8v-2.5h-2.8V152.4z M33.7,150.2h2.1v1.8h-2.1V150.2z"/>
	<path class="st0" d="M30.5,152.4h2.8v-2.5h-2.8V152.4z M30.8,150.2h2.1v1.8h-2.1V150.2z"/>
	<path class="st0" d="M33.4,157h2.8v-4.3h-2.8V157z M33.7,153.1h2.1v3.6h-2.1V153.1z"/>
	<path class="st0" d="M30.5,157h2.8v-4.3h-2.8V157z M30.8,153.1h2.1v3.6h-2.1V153.1z"/>
	<path class="st0" d="M22.7,157v2.3h1.4V157c0-0.3-0.3-0.6-0.6-0.6h-0.2C23,156.4,22.7,156.7,22.7,157z M23.1,157
		c0-0.2,0.1-0.3,0.3-0.3h0.2c0.2,0,0.3,0.1,0.3,0.3v2h-0.8V157z"/>
	<path class="st0" d="M25.7,157c0-0.3-0.3-0.6-0.6-0.6h-0.2c-0.3,0-0.6,0.3-0.6,0.6v2.3h1.4V157z M25.4,159h-0.8v-2
		c0-0.2,0.1-0.3,0.3-0.3h0.2c0.2,0,0.3,0.1,0.3,0.3V159z"/>
	<path class="st0" d="M48.6,136.7l-6.2-5l-3.6-12.3l2.6-9l4.4,15v8.9h0.3v-9l-4.8-16.2l-2.8,9.6l-4.2-14.5l-4.6,14.9L27.7,106v-8
		h1.9l-1.4-1.2l-3.7-14.2l0-0.1v-5.9l-0.3,0l-0.1,5.9l0,0.1l-3.7,14.2L19,97.9h1.9v8l-2.1,13.2l-4.6-14.9l-5.1,17.6v-6.3h0.8v-1H9.2
		V114H6.9l-0.4,0.4H5.8v1h0.9v9.3H6.2v6.9l-6.2,5h1.8v6.7h0.4H3v0.2c0,0,0,0,0,0v2.2c0,0,0,0,0,0v48.7h35c0,0,0,0,0,0c0,0,0,0,0,0
		h7.6v-51.1h0.9h0v-1.3c0,0,0,0,0,0v-5.4H48.6z M19.9,97.6l0.8-0.7l3.6-13.7l3.6,13.6l0,0l0.8,0.7h-1.1h-0.2h-6.1h-0.2H19.9z
		 M27.3,105.8h-6.1l0-7.9h6.1V105.8z M27.7,122.4v9.9h-6.6v-9.9l1.5-3.1h3.6L27.7,122.4z M22.7,119l0.7-1.5h1.8L26,119H22.7z
		 M23.6,117.1l0.7-1.5l0.7,1.5H23.6z M24.6,115.4v-0.9h0.2v-0.3h-0.2v-0.6h0.2v-0.3h-0.2v-0.8h-0.5v0.8h-0.3v0.3h0.3v0.6h-0.3v0.3
		h0.3v0.9l-0.9,1.8h-1.1l1.6-11h1l1.7,11h-1.1L24.6,115.4z M7,125.1v-10H6.1v-0.4h0.5l0.4-0.4h1.8v0.5h0.7v0.4H8.7v7.7h0l-2.2,7.6
		v-5.5H7z M6.5,131.8l7.7-26.4l4.7,15.2l2.3-14.4h2.3l-1.7,11.3h1.3l-0.7,1.5h-0.5v0.3h0.4l-1.1,2.3v-4.7h-0.3v5.1h0.1l-0.1,0.2l0,0
		v10.3H28v-10.3l-0.2-0.5h0.1v-5h-0.3v4.4l-1-2h0.2V119h-0.4l-0.7-1.5h1.3l-1.8-11.3h2.2l2.3,14.4l4.7-15.2l7.7,26.4l5.6,4.5h-1.3v0
		H2.3v0H0.9L6.5,131.8z M46.2,140.9H2.1v-4.2h44.1V140.9z M2.1,143v-1.8h44.1v0.4c-0.1,0-0.1,0-0.2,0h-0.1c-0.3,0-0.6,0.2-0.6,0.6v1
		h-1.5v-1c0-0.3-0.2-0.6-0.6-0.6h-0.1c-0.3,0-0.6,0.2-0.6,0.6v1h-1.5v-1c0-0.3-0.2-0.6-0.6-0.6h-0.1c-0.3,0-0.6,0.2-0.6,0.6v1h-1.5
		v-1c0-0.3-0.2-0.6-0.6-0.6h-0.1c-0.3,0-0.6,0.2-0.6,0.6v1h-1.5v-1c0-0.3-0.2-0.6-0.6-0.6h-0.1c-0.3,0-0.6,0.2-0.6,0.6v1H33v-1
		c0-0.3-0.2-0.6-0.6-0.6h-0.1c-0.3,0-0.6,0.2-0.6,0.6v1h-1.5v-1c0-0.3-0.2-0.6-0.6-0.6h-0.1c-0.3,0-0.6,0.2-0.6,0.6v1h-1.5v-1
		c0-0.3-0.2-0.6-0.6-0.6H27c-0.3,0-0.6,0.2-0.6,0.6v1h-1.5v-1c0-0.3-0.2-0.6-0.6-0.6h-0.1c-0.3,0-0.6,0.2-0.6,0.6v1h-1.5v-1
		c0-0.3-0.2-0.6-0.6-0.6h-0.1c-0.3,0-0.6,0.2-0.6,0.6v1h-1.5v-1c0-0.3-0.2-0.6-0.6-0.6h-0.1c-0.3,0-0.6,0.2-0.6,0.6v1h-1.5v-1
		c0-0.3-0.2-0.6-0.6-0.6h-0.1c-0.3,0-0.6,0.2-0.6,0.6v1h-1.5v-1c0-0.3-0.2-0.6-0.6-0.6h-0.1c-0.3,0-0.6,0.2-0.6,0.6v1h-1.5v-1
		c0-0.3-0.2-0.6-0.6-0.6h-0.1c-0.3,0-0.6,0.2-0.6,0.6v1H8.7v-1c0-0.3-0.2-0.6-0.6-0.6H8.1c-0.3,0-0.6,0.2-0.6,0.6v1H6v-1
		c0-0.3-0.2-0.6-0.6-0.6H5.4c-0.3,0-0.6,0.2-0.6,0.6v1H3.3v-1c0-0.3-0.2-0.6-0.6-0.6H2.7c-0.3,0-0.6,0.2-0.6,0.6v1H2.1z M46.2,142.1
		v1h-0.5v-1c0-0.1,0.1-0.2,0.2-0.2H46C46.1,141.8,46.2,141.9,46.2,142.1z M45.3,168.6H26.5v-9.2h-0.2v-4h-0.7l-0.1-1.5
		c0.2,0,0.3-0.2,0.3-0.4c0-0.2-0.2-0.4-0.4-0.4l-0.1-1c0.2,0,0.3-0.2,0.3-0.4c0-0.2-0.2-0.4-0.4-0.4l-0.1-1.1c0.2,0,0.4-0.2,0.4-0.4
		c0-0.2-0.2-0.4-0.4-0.4H25l-0.2-2.1c0-0.1-0.1-0.3-0.6-0.3c-0.2,0-0.4,0.1-0.5,0.2c0,0.1-0.1,0.1,0,0.2l-0.2,2.1
		c-0.2,0-0.4,0.2-0.4,0.4c0,0.2,0.1,0.4,0.3,0.4l-0.1,1.1h0c-0.2,0-0.4,0.2-0.4,0.4c0,0.2,0.2,0.4,0.3,0.4l-0.1,1h0
		c-0.2,0-0.4,0.2-0.4,0.4c0,0.2,0.1,0.4,0.3,0.4l-0.2,1.6h-0.6v4h-0.5v9.2H3.4v-22.4c0.1,0,0.1,0,0.2,0h0.1c0.3,0,0.5-0.2,0.5-0.5
		v-2.2c0-0.1,0-0.1,0-0.2h0.7h1c0,0.1,0,0.1,0,0.2v2.2c0,0.3,0.2,0.5,0.5,0.5h0.1c0.3,0,0.5-0.2,0.5-0.5v-2.2c0-0.1,0-0.1,0-0.2h0.7
		h1c0,0.1,0,0.1,0,0.2v2.2c0,0.3,0.2,0.5,0.5,0.5h0.1c0.3,0,0.5-0.2,0.5-0.5v-2.2c0-0.1,0-0.1,0-0.2h0.6h1c0,0.1,0,0.1,0,0.2v2.2
		c0,0.3,0.2,0.5,0.5,0.5h0.1c0.3,0,0.5-0.2,0.5-0.5v-2.2c0-0.1,0-0.1,0-0.2H13h1.1c0,0.1,0,0.1,0,0.2v2.2c0,0.3,0.2,0.5,0.5,0.5h0.1
		c0.3,0,0.5-0.2,0.5-0.5v-2.2c0-0.1,0-0.1,0-0.2h0.5h1.1c0,0.1,0,0.1,0,0.2v2.2c0,0.3,0.2,0.5,0.5,0.5h0.1c0.3,0,0.5-0.2,0.5-0.5
		v-2.2c0-0.1,0-0.1,0-0.2h0.5h1.2h0c0,0.1,0,0.1,0,0.2v2.2c0,0.3,0.2,0.5,0.5,0.5h0.1c0.3,0,0.5-0.2,0.5-0.5v-2.2c0-0.1,0-0.1,0-0.2
		h0.4h1.2h0.1c0,0.1,0,0.1,0,0.2v2.2c0,0.3,0.2,0.5,0.5,0.5h0.1c0.3,0,0.5-0.2,0.5-0.5v-2.2c0-0.1,0-0.1,0-0.2h0.4h1.2h0.1
		c0,0.1,0,0.1,0,0.2v2.2c0,0.3,0.2,0.5,0.5,0.5h0.1c0.3,0,0.5-0.2,0.5-0.5v-2.2c0-0.1,0-0.1,0-0.2h0.3h1.2h0.2c0,0.1,0,0.1,0,0.2
		v2.2c0,0.3,0.2,0.5,0.5,0.5h0.1c0.3,0,0.5-0.2,0.5-0.5v-2.2c0-0.1,0-0.1,0-0.2h0.3h1.2h0.2c0,0.1,0,0.1,0,0.2v2.2
		c0,0.3,0.2,0.5,0.5,0.5h0.1c0.3,0,0.5-0.2,0.5-0.5v-2.2c0-0.1,0-0.1,0-0.2h0.2H33h0.3c0,0.1,0,0.1,0,0.2v2.2c0,0.3,0.2,0.5,0.5,0.5
		h0.1c0.3,0,0.5-0.2,0.5-0.5v-2.2c0-0.1,0-0.1,0-0.2h0.2h1.2H36c0,0.1,0,0.1,0,0.2v2.2c0,0.3,0.2,0.5,0.5,0.5h0.1
		c0.3,0,0.5-0.2,0.5-0.5v-2.2c0-0.1,0-0.1,0-0.2h0.1h1.2h0.4c0,0.1,0,0.1,0,0.2v2.2c0,0.3,0.2,0.5,0.5,0.5h0.1
		c0.3,0,0.5-0.2,0.5-0.5v-2.2c0-0.1,0-0.1,0-0.2H40h1.2h0.4c0,0.1,0,0.1,0,0.2v2.2c0,0.3,0.2,0.5,0.5,0.5h0.1c0.3,0,0.5-0.2,0.5-0.5
		v-2.2c0-0.1,0-0.1,0-0.2h0h1.2h0.5c0,0.1,0,0.1,0,0.2v2.2c0,0.3,0.2,0.5,0.5,0.5h0.1c0.2,0,0.3-0.1,0.4-0.2V168.6z M5.7,143H5.2v-1
		c0-0.1,0.1-0.2,0.2-0.2h0.1c0.1,0,0.2,0.1,0.2,0.2V143z M8.4,143H7.9v-1c0-0.1,0.1-0.2,0.2-0.2h0.1c0.1,0,0.2,0.1,0.2,0.2V143z
		 M11.1,143h-0.5v-1c0-0.1,0.1-0.2,0.2-0.2h0.1c0.1,0,0.2,0.1,0.2,0.2V143z M13.8,143h-0.5v-1c0-0.1,0.1-0.2,0.2-0.2h0.1
		c0.1,0,0.2,0.1,0.2,0.2V143z M16.5,143H16v-1c0-0.1,0.1-0.2,0.2-0.2h0.1c0.1,0,0.2,0.1,0.2,0.2V143z M19.2,143h-0.5v-1
		c0-0.1,0.1-0.2,0.2-0.2H19c0.1,0,0.2,0.1,0.2,0.2V143z M21.9,143h-0.5v-1c0-0.1,0.1-0.2,0.2-0.2h0.1c0.1,0,0.2,0.1,0.2,0.2V143z
		 M24.6,143h-0.5v-1c0-0.1,0.1-0.2,0.2-0.2h0.1c0.1,0,0.2,0.1,0.2,0.2V143z M27.3,143h-0.5v-1c0-0.1,0.1-0.2,0.2-0.2h0.1
		c0.1,0,0.2,0.1,0.2,0.2V143z M30,143h-0.5v-1c0-0.1,0.1-0.2,0.2-0.2h0.1c0.1,0,0.2,0.1,0.2,0.2V143z M32.7,143h-0.5v-1
		c0-0.1,0.1-0.2,0.2-0.2h0.1c0.1,0,0.2,0.1,0.2,0.2V143z M35.4,143h-0.5v-1c0-0.1,0.1-0.2,0.2-0.2h0.1c0.1,0,0.2,0.1,0.2,0.2V143z
		 M38.1,143h-0.5v-1c0-0.1,0.1-0.2,0.2-0.2h0.1c0.1,0,0.2,0.1,0.2,0.2V143z M40.8,143h-0.5v-1c0-0.1,0.1-0.2,0.2-0.2h0.1
		c0.1,0,0.2,0.1,0.2,0.2V143z M43.5,143H43v-1c0-0.1,0.1-0.2,0.2-0.2h0.1c0.1,0,0.2,0.1,0.2,0.2V143z M45.1,143.5v2.2
		c0,0.1-0.1,0.2-0.2,0.2h-0.1c-0.1,0-0.2-0.1-0.2-0.2v-2.2c0-0.1,0.1-0.2,0.2-0.2h0.1C45,143.3,45.1,143.4,45.1,143.5z M42.3,143.5
		v2.2c0,0.1-0.1,0.2-0.2,0.2H42c-0.1,0-0.2-0.1-0.2-0.2v-2.2c0-0.1,0.1-0.2,0.2-0.2h0.1C42.2,143.3,42.3,143.4,42.3,143.5z
		 M39.6,143.5v2.2c0,0.1-0.1,0.2-0.2,0.2h-0.1c-0.1,0-0.2-0.1-0.2-0.2v-2.2c0-0.1,0.1-0.2,0.2-0.2h0.1
		C39.5,143.3,39.6,143.4,39.6,143.5z M36.8,143.5v2.2c0,0.1-0.1,0.2-0.2,0.2h-0.1c-0.1,0-0.2-0.1-0.2-0.2v-2.2
		c0-0.1,0.1-0.2,0.2-0.2h0.1C36.7,143.3,36.8,143.4,36.8,143.5z M34.1,143.5v2.2c0,0.1-0.1,0.2-0.2,0.2h-0.1c-0.1,0-0.2-0.1-0.2-0.2
		v-2.2c0-0.1,0.1-0.2,0.2-0.2h0.1C34,143.3,34.1,143.4,34.1,143.5z M31.3,143.5v2.2c0,0.1-0.1,0.2-0.2,0.2H31
		c-0.1,0-0.2-0.1-0.2-0.2v-2.2c0-0.1,0.1-0.2,0.2-0.2h0.1C31.3,143.3,31.3,143.4,31.3,143.5z M28.6,143.5v2.2c0,0.1-0.1,0.2-0.2,0.2
		h-0.1c-0.1,0-0.2-0.1-0.2-0.2v-2.2c0-0.1,0.1-0.2,0.2-0.2h0.1C28.5,143.3,28.6,143.4,28.6,143.5z M25.9,143.5v2.2
		c0,0.1-0.1,0.2-0.2,0.2h-0.1c-0.1,0-0.2-0.1-0.2-0.2v-2.2c0-0.1,0.1-0.2,0.2-0.2h0.1C25.8,143.3,25.9,143.4,25.9,143.5z
		 M23.1,143.5v2.2c0,0.1-0.1,0.2-0.2,0.2h-0.1c-0.1,0-0.2-0.1-0.2-0.2v-2.2c0-0.1,0.1-0.2,0.2-0.2h0.1
		C23,143.3,23.1,143.4,23.1,143.5z M20.4,143.5v2.2c0,0.1-0.1,0.2-0.2,0.2h-0.1c-0.1,0-0.2-0.1-0.2-0.2v-2.2c0-0.1,0.1-0.2,0.2-0.2
		h0.1C20.3,143.3,20.4,143.4,20.4,143.5z M17.6,143.5v2.2c0,0.1-0.1,0.2-0.2,0.2h-0.1c-0.1,0-0.2-0.1-0.2-0.2v-2.2
		c0-0.1,0.1-0.2,0.2-0.2h0.1C17.5,143.3,17.6,143.4,17.6,143.5z M14.9,143.5v2.2c0,0.1-0.1,0.2-0.2,0.2h-0.1c-0.1,0-0.2-0.1-0.2-0.2
		v-2.2c0-0.1,0.1-0.2,0.2-0.2h0.1C14.8,143.3,14.9,143.4,14.9,143.5z M12.1,143.5v2.2c0,0.1-0.1,0.2-0.2,0.2h-0.1
		c-0.1,0-0.2-0.1-0.2-0.2v-2.2c0-0.1,0.1-0.2,0.2-0.2h0.1C12,143.3,12.1,143.4,12.1,143.5z M9.4,143.5v2.2c0,0.1-0.1,0.2-0.2,0.2
		H9.1c-0.1,0-0.2-0.1-0.2-0.2v-2.2c0-0.1,0.1-0.2,0.2-0.2h0.1C9.3,143.3,9.4,143.4,9.4,143.5z M6.6,143.5v2.2c0,0.1-0.1,0.2-0.2,0.2
		H6.3c-0.1,0-0.2-0.1-0.2-0.2v-2.2c0-0.1,0.1-0.2,0.2-0.2h0.1C6.5,143.3,6.6,143.4,6.6,143.5z M3.9,143.5v2.2c0,0.1-0.1,0.2-0.2,0.2
		H3.6c-0.1,0-0.2-0.1-0.2-0.2v-2.2c0-0.1,0.1-0.2,0.2-0.2h0.1C3.8,143.3,3.9,143.4,3.9,143.5z M3.4,168.9h18.5h4.6h18.8v1H3.4V168.9
		z M23.2,153.5C23.1,153.5,23.1,153.4,23.2,153.5c-0.1-0.1,0-0.2,0-0.2h0.3l0.2-1.7h-0.3c0,0-0.1,0-0.1-0.1s0-0.1,0.1-0.1h0.3
		l0.2-1.7h-0.3c0,0-0.1,0-0.1-0.1c0,0,0-0.1,0.1-0.1h0.3l0.2-2.4c0,0,0.1,0,0.2,0c0.2,0,0.2,0,0.3,0l0.2,2.4h0.4c0,0,0.1,0,0.1,0.1
		c0,0,0,0.1-0.1,0.1h-0.3l0.2,1.7h0.3c0,0,0.1,0,0.1,0.1s0,0.1-0.1,0.1h-0.3l0.2,1.7h0.3c0,0,0.1,0,0.1,0.1s0,0.1-0.1,0.1h-0.2
		l0.2,2.2h0.7v3.7h-3.3v-3.6h0.6l0.2-2.2H23.2z M24.3,160.4h-0.2l-0.9-0.8h2.1L24.3,160.4z M25.2,160.2l0.3,0.9v7H23v-7l0.3-0.9
		l0.7,0.6h0.4L25.2,160.2z M23.2,159.7l-0.5,1.4v7.4h3.2V161l-0.5-1.4h0.8v8.9h-3.9v-8.9h0.1v0H23.2z M3,143H2.5v-1
		c0-0.1,0.1-0.2,0.2-0.2h0.1c0.1,0,0.2,0.1,0.2,0.2V143z M10.8,183.1c1.6-5.7,5.2-8.7,7.9-10.3c2.9-1.6,5.4-2,5.6-2h0
		c0.2,0,2.7,0.4,5.6,2c2.7,1.6,6.3,4.6,7.9,10.3c0.1,4.1,0.2,10.2,0,11h-2.4v-11l0,0c-1.2-4.5-4.2-7-6.5-8.3
		c-2.5-1.4-4.6-1.7-4.7-1.7l-0.1,0l0,0c-0.1,0-2.2,0.3-4.7,1.7c-2.3,1.3-5.2,3.8-6.5,8.3l0,0v11h-2.4
		C10.7,193.3,10.8,187.2,10.8,183.1z M30.8,194.1H17.9v-8.7c0-3.7,6-5.7,6.4-5.9c0.4,0.1,6.4,2.2,6.4,5.9V194.1z M27.7,180.8
		c-1.6-1-3.3-1.6-3.3-1.6l0,0h-0.1l0,0c0,0-1.7,0.5-3.3,1.6c-2.2,1.4-3.3,3-3.3,4.6v8.7h-2.1v-10.5c1.2-3.9,3.5-5.9,5.3-6.9
		c1.9-1,3.5-1.2,3.6-1.2h0c0.1,0,1.7,0.2,3.6,1.2c1.8,1,4.1,3,5.3,6.9v10.5h-2.1v-8.7C31.1,183.7,29.9,182.1,27.7,180.8z
		 M33.5,183.6c-1.2-4-3.6-6.1-5.5-7.1c-2-1.1-3.6-1.2-3.7-1.2l0,0l-0.1,0c-0.1,0-1.7,0.1-3.7,1.2c-1.8,1-4.2,3.1-5.5,7.1l0,0v10.5
		h-1.6v-11c1.2-4.4,4.1-6.8,6.3-8.1c2.3-1.3,4.4-1.7,4.6-1.7h0c0.2,0,2.2,0.4,4.5,1.7c2.2,1.3,5.1,3.7,6.3,8.1v11h-1.6L33.5,183.6
		L33.5,183.6z M38.2,194.1c0.1-0.5,0.1-1.8,0-5.5c0-2.8-0.1-5.5-0.1-5.6l0,0c-1.7-5.8-5.3-8.9-8.1-10.5c-3-1.7-5.7-2.1-5.7-2.1
		l-0.1,0l0,0c0,0-2.7,0.3-5.7,2.1c-2.8,1.6-6.4,4.7-8.1,10.5l0,0c0,0-0.1,2.8-0.1,5.6c0,3.7,0,5,0,5.5H3.4v-23.9h41.9v23.9H38.2z"/>
	<path class="st0" d="M11.6,124.3v8.3h5.4v-8.2l0.7,0.9v-1.7l-3.2-4.5h-0.3l-3.2,4.5v1.7L11.6,124.3L11.6,124.3z M11.9,124.3v2h2.2
		v-2h-2l1.4-1.6v-0.7c0.1-0.3,0.3-0.8,0.7-0.8h0.1c0.4,0,0.6,0.6,0.7,0.8v0.7l1.4,1.6h-2.1v2h2.2v-2h0.1v5.8h-4.7L11.9,124.3
		L11.9,124.3z M12.3,126v-1.4h1.5v1.4H12.3z M16.1,124.6v1.4h-1.5v-1.4H16.1z M11.9,132.2v-1.8h4.7v1.8H11.9z M11.2,124.3v-0.5
		l3.1-4.2l3.1,4.2v0.5L17,124h-0.5l-1.2-1.4v-0.7l0,0c0,0-0.3-1.1-1-1.1h-0.1c-0.7,0-1,1.1-1,1.1l0,0v0.7l-1.2,1.4h-0.5L11.2,124.3z
		"/>
	<path class="st0" d="M14.1,129.5v-3h-2.2v3H14.1z M12.3,126.8h1.5v2.3h-1.5V126.8z"/>
	<path class="st0" d="M16.5,126.5h-2.2v3h2.2V126.5z M16.1,129.1h-1.5v-2.3h1.5V129.1z"/>
	<path class="st0" d="M31.6,124.5v8.3H37v-8.2l0.7,0.9v-1.7l-3.2-4.5h-0.3l-3.2,4.5v1.7L31.6,124.5L31.6,124.5z M32,124.5v2h2.2v-2
		h-2l1.4-1.6v-0.7c0-0.1,0.3-0.8,0.7-0.8h0.1c0.4,0,0.6,0.6,0.7,0.8v0.7l1.4,1.6h-2.1v2h2.2v-2h0.1v5.8h-4.7L32,124.5L32,124.5z
		 M32.3,126.2v-1.4h1.5v1.4H32.3z M36.2,124.9v1.4h-1.5v-1.4H36.2z M31.9,132.5v-1.8h4.7v1.8H31.9z M31.2,124.5V124l3.1-4.2l3.1,4.2
		v0.5l-0.2-0.3h-0.5l-1.2-1.4v-0.7l0,0c0,0-0.3-1.1-1-1.1h-0.1c-0.7,0-1,1.1-1,1.1l0,0v0.7l-1.2,1.4h-0.5L31.2,124.5z"/>
	<path class="st0" d="M34.1,129.7v-3H32v3H34.1z M32.3,127.1h1.5v2.3h-1.5V127.1z"/>
	<path class="st0" d="M36.5,126.7h-2.2v3h2.2V126.7z M36.2,129.4h-1.5v-2.3h1.5V129.4z"/>
	<path class="st0" d="M21.7,126.1h2.6v-2.3h-2.6V126.1z M22,124.2h1.9v1.6H22V124.2z"/>
	<path class="st0" d="M24.4,126.2h2.6v-2.3h-2.6V126.2z M24.7,124.2h1.9v1.6h-1.9V124.2z"/>
	<path class="st0" d="M21.7,130h2.6v-3.6h-2.6V130z M22,126.7h1.9v2.9H22V126.7z"/>
	<path class="st0" d="M24.3,130h2.6v-3.6h-2.6V130z M24.7,126.8h1.9v2.9h-1.9V126.8z"/>
	<path class="st0" d="M25.2,123c0.6,0,1.1-0.5,1.1-1.1c0-0.5-0.4-1-0.9-1l0.1-0.1l-0.1,0.1c0.1-0.1,0.1-0.3,0.1-0.4
		c0-0.6-0.5-1.1-1.1-1.1c-0.6,0-1.1,0.5-1.1,1.1c0,0.1,0,0.3,0.1,0.4c-0.5,0.1-0.9,0.5-0.9,1c0,0.6,0.5,1.1,1.1,1.1
		c0.3,0,0.6-0.2,0.8-0.4C24.5,122.9,24.8,123,25.2,123z M24.2,122.2c-0.1,0.3-0.4,0.5-0.7,0.5c-0.4,0-0.7-0.3-0.7-0.7
		c0-0.4,0.3-0.7,0.7-0.7c0,0,0.1,0,0.1,0l0.3,0l0.2,0.2c0,0,0.1,0.1,0.1,0.1l-0.1,0.1l0.1,0c0,0,0,0.1,0.1,0.1l0.1,0.2L24.2,122.2z
		 M24.3,121.2c0,0-0.1,0-0.1,0l-0.3,0l-0.2-0.2c-0.1-0.1-0.2-0.3-0.2-0.5c0-0.4,0.3-0.7,0.7-0.7c0.4,0,0.7,0.3,0.7,0.7
		c0,0.2-0.1,0.4-0.3,0.5l-0.1,0.1l-0.1,0C24.5,121.2,24.4,121.2,24.3,121.2z M24.5,121.7c0-0.1,0.1-0.2,0.2-0.3l0.1-0.1l0.1,0
		c0.1,0,0.2,0,0.3,0c0.4,0,0.7,0.3,0.7,0.7c0,0.4-0.3,0.7-0.7,0.7c-0.3,0-0.6-0.2-0.7-0.5l-0.1-0.2L24.5,121.7z"/>
	<path class="st0" d="M24,103.5v-3.7c0-0.7-0.5-1.2-1.2-1.2h-0.2c-0.7,0-1.2,0.5-1.2,1.2v3.7H24z M21.7,99.8c0-0.5,0.4-0.9,0.9-0.9
		h0.2c0.5,0,0.9,0.4,0.9,0.9v3.4h-2V99.8z"/>
	<path class="st0" d="M27.1,99.8c0-0.7-0.5-1.2-1.2-1.2h-0.2c-0.7,0-1.2,0.5-1.2,1.2v3.7h2.6V99.8z M26.8,103.2h-2v-3.4
		c0-0.5,0.4-0.9,0.9-0.9h0.2c0.5,0,0.9,0.4,0.9,0.9V103.2z"/>
	<path class="st0" d="M62.6,192.4h4.8v-11.1h-4.8V192.4z M63,181.7h4.2v10.4H63V181.7z"/>
	<path class="st0" d="M67.9,192.4h4.8v-11.1h-4.8V192.4z M68.2,181.7h4.2v10.4h-4.2V181.7z"/>
	<path class="st0" d="M62.6,180.9h10.1v-2.7H62.6V180.9z M63,178.5h9.4v2.1H63V178.5z"/>
	<path class="st0" d="M69.6,171.5h-3.7c-1.7,0-3.2,1.4-3.2,3.2v3.1h10.1v-3.1C72.7,172.9,71.3,171.5,69.6,171.5z M72.4,177.5H63
		v-2.8c0-1.6,1.3-2.8,2.8-2.8h3.7c1.6,0,2.8,1.3,2.8,2.8V177.5z"/>
	<path class="st0" d="M70.6,170.6h-0.5c0.1-0.2,0.3-0.6,0.3-0.9c0-0.6-0.3-0.7-0.6-0.7c-0.4,0-0.6,0.5-0.7,0.6l0,0
		c0,0-0.1,0.5-0.6,0.6c0,0,0,0,0-0.1c0-0.7-0.4-1.3-0.9-1.3c-0.5,0-0.9,0.6-0.9,1.3c0,0,0,0,0,0.1c-0.5-0.1-0.6-0.6-0.6-0.6l0,0
		c0-0.1-0.3-0.6-0.7-0.6c-0.3,0-0.6,0.1-0.6,0.7c0,0.3,0.2,0.6,0.3,0.9h-0.5c-1.9,0-3.4,1.5-3.4,3.4v19.3H74V174
		C74,172.1,72.5,170.6,70.6,170.6z M69.5,169.8c0.1-0.2,0.2-0.4,0.3-0.4c0.2,0,0.3,0,0.3,0.4c0,0.2-0.2,0.6-0.4,0.9h-1.1
		C69.2,170.5,69.4,170,69.5,169.8z M67.7,169.3c0.3,0,0.6,0.4,0.6,0.9c0,0.5-0.3,0.9-0.6,0.9s-0.6-0.4-0.6-0.9
		C67.1,169.7,67.4,169.3,67.7,169.3z M65.3,169.7c0-0.3,0.1-0.4,0.3-0.4c0.1,0,0.3,0.2,0.3,0.4c0.1,0.3,0.3,0.7,0.8,0.8h-1.1
		C65.5,170.4,65.3,170,65.3,169.7z M73.7,193H61.6v-19c0-1.7,1.4-3.1,3.1-3.1H67c0.2,0.3,0.4,0.6,0.7,0.6c0.3,0,0.6-0.2,0.7-0.6h2.2
		c1.7,0,3.1,1.4,3.1,3.1V193z"/>
	<path class="st0" d="M64.8,163.5h2.8v-8h-2.8V163.5z M65.1,155.8h2.1v7.4h-2.1V155.8z"/>
	<path class="st0" d="M64.7,154.8h2.9v-3.1h-2.9V154.8z M65,152h2.2v2.5H65V152z"/>
	<path class="st0" d="M67.8,163.5h2.8v-8h-2.8V163.5z M68.1,155.8h2.1v7.4h-2.1V155.8z"/>
	<path class="st0" d="M67.7,154.8h2.9v-3.1h-2.9V154.8z M68,152h2.2v2.5H68V152z"/>
	<path class="st0" d="M69.3,148.7c-0.1-0.2-0.5-0.6-1.1-0.4c-0.1-0.1-0.3-0.2-0.5-0.2l-0.1,0c-0.2,0-0.4,0.1-0.5,0.2
		c-0.6-0.2-1,0.2-1.1,0.4c-0.1,0.3-0.2,0.5-0.1,0.7h-3.1v15.2h9.7v-15.2h-3C69.4,149.2,69.4,149,69.3,148.7z M66.3,148.9
		c0-0.1,0.3-0.5,0.8-0.2l0.2,0.1l0.1-0.2c0,0,0.1-0.2,0.3-0.2l0.1,0c0.2,0,0.3,0.2,0.3,0.2l0.1,0.2l0.2-0.1c0.5-0.3,0.8,0.2,0.8,0.2
		c0.3,0.6,0,0.9,0,0.9l0,0v0.1c0,0.2,0,0.3-0.1,0.4c-0.1,0.1-0.4,0.1-0.4,0.1l-0.2,0v0.2c0,0.3-0.5,0.4-0.6,0.4l0,0
		c-0.1,0-0.6-0.1-0.6-0.4v-0.2l-0.2,0c0,0-0.2,0-0.4-0.1c-0.1-0.1-0.1-0.2-0.1-0.4l0-0.1l0,0C66.3,149.8,66,149.5,66.3,148.9z
		 M72.1,149.8v14.5h-9v-14.5h2.8c0,0.1,0.1,0.2,0.1,0.2c0,0.3,0.1,0.5,0.3,0.6c0.1,0.1,0.3,0.2,0.5,0.2c0.1,0.5,0.8,0.6,0.8,0.6l0,0
		l0.1,0l0,0c0,0,0.7-0.1,0.8-0.6c0.1,0,0.3,0,0.5-0.2c0.2-0.1,0.3-0.4,0.3-0.6c0,0,0.1-0.1,0.1-0.2H72.1z"/>
	<path class="st0" d="M62.8,144.8h9.7v-15.2h-3c0-0.2,0-0.4-0.1-0.7c-0.1-0.2-0.5-0.6-1.1-0.4c-0.1-0.1-0.3-0.2-0.5-0.2l-0.1,0
		c-0.2,0-0.4,0.1-0.5,0.2c-0.6-0.2-1,0.2-1.1,0.4c-0.1,0.3-0.2,0.5-0.1,0.7h-3.1V144.8z M66.3,129.1c0-0.1,0.3-0.5,0.8-0.2l0.2,0.1
		l0.1-0.2c0,0,0.1-0.2,0.3-0.2l0.1,0c0.2,0,0.3,0.2,0.3,0.2l0.1,0.2l0.2-0.1c0.5-0.3,0.8,0.2,0.8,0.2c0.3,0.6,0,0.9,0,0.9l0,0v0.1
		c0,0.2,0,0.3-0.1,0.4c-0.1,0.1-0.4,0.1-0.4,0.1l-0.2,0v0.2c0,0.3-0.5,0.4-0.6,0.4l0,0c-0.1,0-0.6-0.1-0.6-0.4v-0.2l-0.2,0
		c0,0-0.2,0-0.4-0.1c-0.1-0.1-0.1-0.2-0.1-0.4l0-0.1l0,0C66.3,130,66,129.6,66.3,129.1z M63.1,129.9h2.8c0,0.1,0.1,0.2,0.1,0.2
		c0,0.3,0.1,0.5,0.3,0.6c0.1,0.1,0.3,0.2,0.5,0.2c0.1,0.5,0.8,0.6,0.8,0.6l0,0l0.1,0l0,0c0,0,0.7-0.1,0.8-0.6c0.1,0,0.3,0,0.5-0.2
		c0.2-0.1,0.3-0.4,0.3-0.6c0,0,0.1-0.1,0.1-0.2h2.8v14.5h-9V129.9z"/>
	<path class="st0" d="M64.8,143.6h2.8v-8h-2.8V143.6z M65.1,135.9h2.1v7.4h-2.1V135.9z"/>
	<path class="st0" d="M64.7,134.9h2.9v-3.1h-2.9V134.9z M65,132.1h2.2v2.5H65V132.1z"/>
	<path class="st0" d="M67.8,143.6h2.8v-8h-2.8V143.6z M68.2,135.9h2.1v7.4h-2.1V135.9z"/>
	<path class="st0" d="M67.7,134.9h2.9v-3.1h-2.9V134.9z M68,132.1h2.2v2.5H68V132.1z"/>
	<path class="st0" d="M70.3,116.8c0-1-0.8-1.9-1.9-1.9h-1.6c-1,0-1.9,0.8-1.9,1.9v8.2h5.4V116.8z M70,124.7h-4.7v-7.9
		c0-0.9,0.7-1.6,1.6-1.6h1.6c0.9,0,1.6,0.7,1.6,1.6V124.7z"/>
	<path class="st0" d="M78.5,192.4h4.8v-11.1h-4.8V192.4z M78.9,181.7H83v10.4h-4.2V181.7z"/>
	<path class="st0" d="M83.8,192.4h4.8v-11.1h-4.8V192.4z M84.1,181.7h4.2v10.4h-4.2V181.7z"/>
	<path class="st0" d="M78.5,180.9h10.1v-2.7H78.5V180.9z M78.9,178.5h9.4v2.1h-9.4V178.5z"/>
	<path class="st0" d="M85.5,171.5h-3.7c-1.7,0-3.2,1.4-3.2,3.2v3.1h10.1v-3.1C88.6,172.9,87.2,171.5,85.5,171.5z M88.3,177.5h-9.4
		v-2.8c0-1.6,1.3-2.8,2.8-2.8h3.7c1.6,0,2.8,1.3,2.8,2.8V177.5z"/>
	<path class="st0" d="M86.5,170.6H86c0.1-0.2,0.3-0.6,0.3-0.9c0-0.6-0.3-0.7-0.6-0.7c-0.4,0-0.6,0.5-0.7,0.6l0,0
		c0,0-0.1,0.5-0.6,0.6c0,0,0,0,0-0.1c0-0.7-0.4-1.3-0.9-1.3c-0.5,0-0.9,0.6-0.9,1.3c0,0,0,0,0,0.1c-0.5-0.1-0.6-0.6-0.6-0.6l0,0
		c0-0.1-0.3-0.6-0.7-0.6c-0.3,0-0.6,0.1-0.6,0.7c0,0.3,0.2,0.6,0.3,0.9h-0.5c-1.9,0-3.4,1.5-3.4,3.4v19.3h12.8V174
		C89.9,172.1,88.4,170.6,86.5,170.6z M85.4,169.8c0.1-0.2,0.2-0.4,0.3-0.4c0.2,0,0.3,0,0.3,0.4c0,0.2-0.2,0.6-0.4,0.9h-1.1
		C85.1,170.5,85.3,170,85.4,169.8z M83.6,169.3c0.3,0,0.6,0.4,0.6,0.9c0,0.5-0.3,0.9-0.6,0.9c-0.3,0-0.6-0.4-0.6-0.9
		C83,169.7,83.3,169.3,83.6,169.3z M81.2,169.7c0-0.3,0.1-0.4,0.3-0.4c0.1,0,0.3,0.2,0.3,0.4c0.1,0.3,0.3,0.7,0.8,0.8h-1.1
		C81.4,170.4,81.2,170,81.2,169.7z M89.6,193H77.5v-19c0-1.7,1.4-3.1,3.1-3.1h2.2c0.2,0.3,0.4,0.6,0.7,0.6c0.3,0,0.6-0.2,0.7-0.6
		h2.2c1.7,0,3.1,1.4,3.1,3.1V193z"/>
	<path class="st0" d="M80.7,163.5h2.8v-8h-2.8V163.5z M81,155.8h2.1v7.4H81V155.8z"/>
	<path class="st0" d="M80.6,154.8h2.9v-3.1h-2.9V154.8z M80.9,152h2.2v2.5h-2.2V152z"/>
	<path class="st0" d="M83.7,163.5h2.8v-8h-2.8V163.5z M84,155.8h2.1v7.4H84V155.8z"/>
	<path class="st0" d="M83.6,154.8h2.9v-3.1h-2.9V154.8z M83.9,152h2.2v2.5h-2.2V152z"/>
	<path class="st0" d="M85.2,148.7c-0.1-0.2-0.5-0.6-1.1-0.4c-0.1-0.1-0.3-0.2-0.5-0.2l-0.1,0c-0.2,0-0.4,0.1-0.5,0.2
		c-0.6-0.2-1,0.2-1.1,0.4c-0.1,0.3-0.2,0.5-0.1,0.7h-3.1v15.2h9.7v-15.2h-3C85.3,149.2,85.3,149,85.2,148.7z M82.2,148.9
		c0-0.1,0.3-0.5,0.8-0.2l0.2,0.1l0.1-0.2c0,0,0.1-0.2,0.3-0.2l0.1,0c0.2,0,0.3,0.2,0.3,0.2l0.1,0.2l0.2-0.1c0.5-0.3,0.8,0.2,0.8,0.2
		c0.3,0.6,0,0.9,0,0.9l0,0v0.1c0,0.2,0,0.3-0.1,0.4c-0.1,0.1-0.4,0.1-0.4,0.1l-0.2,0v0.2c0,0.3-0.5,0.4-0.6,0.4l0,0
		c-0.1,0-0.6-0.1-0.6-0.4v-0.2l-0.2,0c0,0-0.2,0-0.4-0.1c-0.1-0.1-0.1-0.2-0.1-0.4l0-0.1l0,0C82.2,149.8,81.9,149.5,82.2,148.9z
		 M88,149.8v14.5h-9v-14.5h2.8c0,0.1,0.1,0.2,0.1,0.2c0,0.3,0.1,0.5,0.3,0.6c0.1,0.1,0.3,0.2,0.5,0.2c0.1,0.5,0.8,0.6,0.8,0.6l0,0
		l0.1,0l0,0c0,0,0.7-0.1,0.8-0.6c0.1,0,0.3,0,0.5-0.2c0.2-0.1,0.3-0.4,0.3-0.6c0,0,0.1-0.1,0.1-0.2H88z"/>
	<path class="st0" d="M88.4,129.6h-3c0-0.2,0-0.4-0.1-0.7c-0.1-0.2-0.5-0.6-1.1-0.4c-0.1-0.1-0.3-0.2-0.5-0.2l-0.1,0
		c-0.2,0-0.4,0.1-0.5,0.2c-0.6-0.2-1,0.2-1.1,0.4c-0.1,0.3-0.2,0.5-0.1,0.7h-3.1v15.2h9.7V129.6z M82.2,129.1c0-0.1,0.3-0.5,0.8-0.2
		l0.2,0.1l0.1-0.2c0,0,0.1-0.2,0.3-0.2l0.1,0c0.2,0,0.3,0.2,0.3,0.2l0.1,0.2l0.2-0.1c0.5-0.3,0.8,0.2,0.8,0.2c0.3,0.6,0,0.9,0,0.9
		l0,0v0.1c0,0.2,0,0.3-0.1,0.4c-0.1,0.1-0.4,0.1-0.4,0.1l-0.2,0v0.2c0,0.3-0.5,0.4-0.6,0.4l0,0c-0.1,0-0.6-0.1-0.6-0.4v-0.2l-0.2,0
		c0,0-0.2,0-0.4-0.1c-0.1-0.1-0.1-0.2-0.1-0.4l0-0.1l0,0C82.2,130,81.9,129.6,82.2,129.1z M88,144.5h-9v-14.5h2.8
		c0,0.1,0.1,0.2,0.1,0.2c0,0.3,0.1,0.5,0.3,0.6c0.1,0.1,0.3,0.2,0.5,0.2c0.1,0.5,0.8,0.6,0.8,0.6l0,0l0.1,0l0,0c0,0,0.7-0.1,0.8-0.6
		c0.1,0,0.3,0,0.5-0.2c0.2-0.1,0.3-0.4,0.3-0.6c0,0,0.1-0.1,0.1-0.2H88V144.5z"/>
	<path class="st0" d="M80.7,143.6h2.8v-8h-2.8V143.6z M81,135.9h2.1v7.4H81V135.9z"/>
	<path class="st0" d="M80.6,134.9h2.9v-3.1h-2.9V134.9z M80.9,132.1h2.2v2.5h-2.2V132.1z"/>
	<path class="st0" d="M83.7,143.6h2.8v-8h-2.8V143.6z M84.1,135.9h2.1v7.4h-2.1V135.9z"/>
	<path class="st0" d="M83.6,134.9h2.9v-3.1h-2.9V134.9z M83.9,132.1h2.2v2.5h-2.2V132.1z"/>
	<path class="st0" d="M86.2,116.8c0-1-0.8-1.9-1.9-1.9h-1.6c-1,0-1.9,0.8-1.9,1.9v8.2h5.4V116.8z M85.9,124.7h-4.7v-7.9
		c0-0.9,0.7-1.6,1.6-1.6h1.6c0.9,0,1.6,0.7,1.6,1.6V124.7z"/>
	<path class="st0" d="M94.4,192.4h4.8v-11.1h-4.8V192.4z M94.8,181.7h4.2v10.4h-4.2V181.7z"/>
	<path class="st0" d="M99.7,192.4h4.8v-11.1h-4.8V192.4z M100,181.7h4.2v10.4H100V181.7z"/>
	<path class="st0" d="M94.4,180.9h10.1v-2.7H94.4V180.9z M94.8,178.5h9.4v2.1h-9.4V178.5z"/>
	<path class="st0" d="M101.3,171.5h-3.7c-1.7,0-3.2,1.4-3.2,3.2v3.1h10.1v-3.1C104.5,172.9,103.1,171.5,101.3,171.5z M104.2,177.5
		h-9.4v-2.8c0-1.6,1.3-2.8,2.8-2.8h3.7c1.6,0,2.8,1.3,2.8,2.8V177.5z"/>
	<path class="st0" d="M102.4,170.6h-0.5c0.1-0.2,0.3-0.6,0.3-0.9c0-0.6-0.3-0.7-0.6-0.7c-0.4,0-0.6,0.5-0.7,0.6l0,0
		c0,0-0.1,0.5-0.6,0.6c0,0,0,0,0-0.1c0-0.7-0.4-1.3-0.9-1.3c-0.5,0-0.9,0.6-0.9,1.3c0,0,0,0,0,0.1c-0.5-0.1-0.6-0.6-0.6-0.6l0,0
		c0-0.1-0.3-0.6-0.7-0.6c-0.3,0-0.6,0.1-0.6,0.7c0,0.3,0.2,0.6,0.3,0.9h-0.5c-1.9,0-3.4,1.5-3.4,3.4v19.3h12.8V174
		C105.8,172.1,104.3,170.6,102.4,170.6z M101.3,169.8c0.1-0.2,0.2-0.4,0.3-0.4c0.2,0,0.3,0,0.3,0.4c0,0.2-0.2,0.6-0.4,0.9h-1.1
		C101,170.5,101.2,170,101.3,169.8z M99.5,169.3c0.3,0,0.6,0.4,0.6,0.9c0,0.5-0.3,0.9-0.6,0.9s-0.6-0.4-0.6-0.9
		C98.9,169.7,99.2,169.3,99.5,169.3z M97.1,169.7c0-0.3,0.1-0.4,0.3-0.4c0.1,0,0.3,0.2,0.3,0.4c0.1,0.3,0.3,0.7,0.8,0.8h-1.1
		C97.3,170.4,97.1,170,97.1,169.7z M105.5,193H93.4v-19c0-1.7,1.4-3.1,3.1-3.1h2.2c0.2,0.3,0.4,0.6,0.7,0.6c0.3,0,0.6-0.2,0.7-0.6
		h2.2c1.7,0,3.1,1.4,3.1,3.1V193z"/>
	<path class="st0" d="M96.6,163.5h2.8v-8h-2.8V163.5z M96.9,155.8H99v7.4h-2.1V155.8z"/>
	<path class="st0" d="M96.5,154.8h2.9v-3.1h-2.9V154.8z M96.8,152H99v2.5h-2.2V152z"/>
	<path class="st0" d="M99.6,163.5h2.8v-8h-2.8V163.5z M99.9,155.8h2.1v7.4h-2.1V155.8z"/>
	<path class="st0" d="M99.5,154.8h2.9v-3.1h-2.9V154.8z M99.8,152h2.2v2.5h-2.2V152z"/>
	<path class="st0" d="M101.1,148.7c-0.1-0.2-0.5-0.6-1.1-0.4c-0.1-0.1-0.3-0.2-0.5-0.2l-0.1,0c-0.2,0-0.4,0.1-0.5,0.2
		c-0.6-0.2-1,0.2-1.1,0.4c-0.1,0.3-0.2,0.5-0.1,0.7h-3.1v15.2h9.7v-15.2h-3C101.2,149.2,101.2,149,101.1,148.7z M98.1,148.9
		c0-0.1,0.3-0.5,0.8-0.2l0.2,0.1l0.1-0.2c0,0,0.1-0.2,0.3-0.2l0.1,0c0.2,0,0.3,0.2,0.3,0.2l0.1,0.2l0.2-0.1c0.5-0.3,0.8,0.2,0.8,0.2
		c0.3,0.6,0,0.9,0,0.9l0,0v0.1c0,0.2,0,0.3-0.1,0.4c-0.1,0.1-0.4,0.1-0.4,0.1l-0.2,0v0.2c0,0.3-0.5,0.4-0.6,0.4l0,0
		c-0.1,0-0.6-0.1-0.6-0.4v-0.2l-0.2,0c0,0-0.2,0-0.4-0.1c-0.1-0.1-0.1-0.2-0.1-0.4l0-0.1l0,0C98.1,149.8,97.8,149.5,98.1,148.9z
		 M103.9,149.8v14.5h-9v-14.5h2.8c0,0.1,0.1,0.2,0.1,0.2c0,0.3,0.1,0.5,0.3,0.6c0.1,0.1,0.3,0.2,0.5,0.2c0.1,0.5,0.8,0.6,0.8,0.6
		l0,0l0.1,0l0,0c0,0,0.7-0.1,0.8-0.6c0.1,0,0.3,0,0.5-0.2c0.2-0.1,0.3-0.4,0.3-0.6c0,0,0.1-0.1,0.1-0.2H103.9z"/>
	<path class="st0" d="M104.3,129.6h-3c0-0.2,0-0.4-0.1-0.7c-0.1-0.2-0.5-0.6-1.1-0.4c-0.1-0.1-0.3-0.2-0.5-0.2l-0.1,0
		c-0.2,0-0.4,0.1-0.5,0.2c-0.6-0.2-1,0.2-1.1,0.4c-0.1,0.3-0.2,0.5-0.1,0.7h-3.1v15.2h9.7V129.6z M98.1,129.1c0-0.1,0.3-0.5,0.8-0.2
		l0.2,0.1l0.1-0.2c0,0,0.1-0.2,0.3-0.2l0.1,0c0.2,0,0.3,0.2,0.3,0.2l0.1,0.2l0.2-0.1c0.5-0.3,0.8,0.2,0.8,0.2c0.3,0.6,0,0.9,0,0.9
		l0,0v0.1c0,0.2,0,0.3-0.1,0.4c-0.1,0.1-0.4,0.1-0.4,0.1l-0.2,0v0.2c0,0.3-0.5,0.4-0.6,0.4l0,0c-0.1,0-0.6-0.1-0.6-0.4v-0.2l-0.2,0
		c0,0-0.2,0-0.4-0.1c-0.1-0.1-0.1-0.2-0.1-0.4l0-0.1l0,0C98.1,130,97.8,129.6,98.1,129.1z M103.9,144.5h-9v-14.5h2.8
		c0,0.1,0.1,0.2,0.1,0.2c0,0.3,0.1,0.5,0.3,0.6c0.1,0.1,0.3,0.2,0.5,0.2c0.1,0.5,0.8,0.6,0.8,0.6l0,0l0.1,0l0,0c0,0,0.7-0.1,0.8-0.6
		c0.1,0,0.3,0,0.5-0.2c0.2-0.1,0.3-0.4,0.3-0.6c0,0,0.1-0.1,0.1-0.2h2.8V144.5z"/>
	<path class="st0" d="M96.6,143.6h2.8v-8h-2.8V143.6z M96.9,135.9H99v7.4h-2.1V135.9z"/>
	<path class="st0" d="M96.5,134.9h2.9v-3.1h-2.9V134.9z M96.8,132.1H99v2.5h-2.2V132.1z"/>
	<path class="st0" d="M99.6,143.6h2.8v-8h-2.8V143.6z M99.9,135.9h2.1v7.4h-2.1V135.9z"/>
	<path class="st0" d="M99.5,134.9h2.9v-3.1h-2.9V134.9z M99.8,132.1h2.2v2.5h-2.2V132.1z"/>
	<path class="st0" d="M102.1,116.8c0-1-0.8-1.9-1.9-1.9h-1.6c-1,0-1.9,0.8-1.9,1.9v8.2h5.4V116.8z M101.8,124.7h-4.7v-7.9
		c0-0.9,0.7-1.6,1.6-1.6h1.6c0.9,0,1.6,0.7,1.6,1.6V124.7z"/>
	<path class="st0" d="M110.3,192.4h4.8v-11.1h-4.8V192.4z M110.7,181.7h4.2v10.4h-4.2V181.7z"/>
	<path class="st0" d="M115.6,192.4h4.8v-11.1h-4.8V192.4z M115.9,181.7h4.2v10.4h-4.2V181.7z"/>
	<path class="st0" d="M110.3,180.9h10.1v-2.7h-10.1V180.9z M110.7,178.5h9.4v2.1h-9.4V178.5z"/>
	<path class="st0" d="M117.2,171.5h-3.7c-1.7,0-3.2,1.4-3.2,3.2v3.1h10.1v-3.1C120.4,172.9,119,171.5,117.2,171.5z M120.1,177.5
		h-9.4v-2.8c0-1.6,1.3-2.8,2.8-2.8h3.7c1.6,0,2.8,1.3,2.8,2.8V177.5z"/>
	<path class="st0" d="M118.3,170.6h-0.5c0.1-0.2,0.3-0.6,0.3-0.9c0-0.6-0.3-0.7-0.6-0.7c-0.4,0-0.6,0.5-0.7,0.6l0,0
		c0,0-0.1,0.5-0.6,0.6c0,0,0,0,0-0.1c0-0.7-0.4-1.3-0.9-1.3c-0.5,0-0.9,0.6-0.9,1.3c0,0,0,0,0,0.1c-0.5-0.1-0.6-0.6-0.6-0.6l0,0
		c0-0.1-0.3-0.6-0.7-0.6c-0.3,0-0.6,0.1-0.6,0.7c0,0.3,0.2,0.6,0.3,0.9h-0.5c-1.9,0-3.4,1.5-3.4,3.4v19.3h12.8V174
		C121.7,172.1,120.2,170.6,118.3,170.6z M117.2,169.8c0.1-0.2,0.2-0.4,0.3-0.4c0.2,0,0.3,0,0.3,0.4c0,0.2-0.2,0.6-0.4,0.9h-1.1
		C116.9,170.5,117.1,170,117.2,169.8z M115.4,169.3c0.3,0,0.6,0.4,0.6,0.9c0,0.5-0.3,0.9-0.6,0.9s-0.6-0.4-0.6-0.9
		C114.8,169.7,115.1,169.3,115.4,169.3z M113,169.7c0-0.3,0.1-0.4,0.3-0.4c0.1,0,0.3,0.2,0.3,0.4c0.1,0.3,0.3,0.7,0.8,0.8h-1.1
		C113.2,170.4,113,170,113,169.7z M121.4,193h-12.1v-19c0-1.7,1.4-3.1,3.1-3.1h2.2c0.2,0.3,0.4,0.6,0.7,0.6c0.3,0,0.6-0.2,0.7-0.6
		h2.2c1.7,0,3.1,1.4,3.1,3.1V193z"/>
	<path class="st0" d="M112.5,163.5h2.8v-8h-2.8V163.5z M112.8,155.8h2.1v7.4h-2.1V155.8z"/>
	<path class="st0" d="M112.4,154.8h2.9v-3.1h-2.9V154.8z M112.7,152h2.2v2.5h-2.2V152z"/>
	<path class="st0" d="M115.5,163.5h2.8v-8h-2.8V163.5z M115.8,155.8h2.1v7.4h-2.1V155.8z"/>
	<path class="st0" d="M115.4,154.8h2.9v-3.1h-2.9V154.8z M115.7,152h2.2v2.5h-2.2V152z"/>
	<path class="st0" d="M117,148.7c-0.1-0.2-0.5-0.6-1.1-0.4c-0.1-0.1-0.3-0.2-0.5-0.2l-0.1,0c-0.2,0-0.4,0.1-0.5,0.2
		c-0.6-0.2-1,0.2-1.1,0.4c-0.1,0.3-0.2,0.5-0.1,0.7h-3.1v15.2h9.7v-15.2h-3C117.1,149.2,117.1,149,117,148.7z M114,148.9
		c0-0.1,0.3-0.5,0.8-0.2l0.2,0.1l0.1-0.2c0,0,0.1-0.2,0.3-0.2l0.1,0c0.2,0,0.3,0.2,0.3,0.2l0.1,0.2l0.2-0.1c0.5-0.3,0.8,0.2,0.8,0.2
		c0.3,0.6,0,0.9,0,0.9l0,0v0.1c0,0.2,0,0.3-0.1,0.4c-0.1,0.1-0.4,0.1-0.4,0.1l-0.2,0v0.2c0,0.3-0.5,0.4-0.6,0.4l0,0
		c-0.1,0-0.6-0.1-0.6-0.4v-0.2l-0.2,0c0,0-0.2,0-0.4-0.1c-0.1-0.1-0.1-0.2-0.1-0.4l0-0.1l0,0C114,149.8,113.7,149.5,114,148.9z
		 M119.8,149.8v14.5h-9v-14.5h2.8c0,0.1,0.1,0.2,0.1,0.2c0,0.3,0.1,0.5,0.3,0.6c0.1,0.1,0.3,0.2,0.5,0.2c0.1,0.5,0.8,0.6,0.8,0.6
		l0,0l0.1,0l0,0c0,0,0.7-0.1,0.8-0.6c0.1,0,0.3,0,0.5-0.2c0.2-0.1,0.3-0.4,0.3-0.6c0,0,0.1-0.1,0.1-0.2H119.8z"/>
	<path class="st0" d="M120.1,129.6h-3c0-0.2,0-0.4-0.1-0.7c-0.1-0.2-0.5-0.6-1.1-0.4c-0.1-0.1-0.3-0.2-0.5-0.2l-0.1,0
		c-0.2,0-0.4,0.1-0.5,0.2c-0.6-0.2-1,0.2-1.1,0.4c-0.1,0.3-0.2,0.5-0.1,0.7h-3.1v15.2h9.7V129.6z M114,129.1c0-0.1,0.3-0.5,0.8-0.2
		l0.2,0.1l0.1-0.2c0,0,0.1-0.2,0.3-0.2l0.1,0c0.2,0,0.3,0.2,0.3,0.2l0.1,0.2l0.2-0.1c0.5-0.3,0.8,0.2,0.8,0.2c0.3,0.6,0,0.9,0,0.9
		l0,0v0.1c0,0.2,0,0.3-0.1,0.4c-0.1,0.1-0.4,0.1-0.4,0.1l-0.2,0v0.2c0,0.3-0.5,0.4-0.6,0.4l0,0c-0.1,0-0.6-0.1-0.6-0.4v-0.2l-0.2,0
		c0,0-0.2,0-0.4-0.1c-0.1-0.1-0.1-0.2-0.1-0.4l0-0.1l0,0C114,130,113.7,129.6,114,129.1z M119.8,144.5h-9v-14.5h2.8
		c0,0.1,0.1,0.2,0.1,0.2c0,0.3,0.1,0.5,0.3,0.6c0.1,0.1,0.3,0.2,0.5,0.2c0.1,0.5,0.8,0.6,0.8,0.6l0,0l0.1,0l0,0c0,0,0.7-0.1,0.8-0.6
		c0.1,0,0.3,0,0.5-0.2c0.2-0.1,0.3-0.4,0.3-0.6c0,0,0.1-0.1,0.1-0.2h2.8V144.5z"/>
	<path class="st0" d="M112.5,143.6h2.8v-8h-2.8V143.6z M112.8,135.9h2.1v7.4h-2.1V135.9z"/>
	<path class="st0" d="M112.4,134.9h2.9v-3.1h-2.9V134.9z M112.7,132.1h2.2v2.5h-2.2V132.1z"/>
	<path class="st0" d="M115.5,143.6h2.8v-8h-2.8V143.6z M115.8,135.9h2.1v7.4h-2.1V135.9z"/>
	<path class="st0" d="M115.4,134.9h2.9v-3.1h-2.9V134.9z M115.7,132.1h2.2v2.5h-2.2V132.1z"/>
	<path class="st0" d="M118,116.8c0-1-0.8-1.9-1.9-1.9h-1.6c-1,0-1.9,0.8-1.9,1.9v8.2h5.4V116.8z M117.7,124.7H113v-7.9
		c0-0.9,0.7-1.6,1.6-1.6h1.6c0.9,0,1.6,0.7,1.6,1.6V124.7z"/>
	<path class="st0" d="M126.2,192.4h4.8v-11.1h-4.8V192.4z M126.6,181.7h4.2v10.4h-4.2V181.7z"/>
	<path class="st0" d="M131.5,192.4h4.8v-11.1h-4.8V192.4z M131.8,181.7h4.2v10.4h-4.2V181.7z"/>
	<path class="st0" d="M126.2,180.9h10.1v-2.7h-10.1V180.9z M126.6,178.5h9.4v2.1h-9.4V178.5z"/>
	<path class="st0" d="M133.1,171.5h-3.7c-1.7,0-3.2,1.4-3.2,3.2v3.1h10.1v-3.1C136.3,172.9,134.9,171.5,133.1,171.5z M136,177.5
		h-9.4v-2.8c0-1.6,1.3-2.8,2.8-2.8h3.7c1.6,0,2.8,1.3,2.8,2.8V177.5z"/>
	<path class="st0" d="M134.2,170.6h-0.5c0.1-0.2,0.3-0.6,0.3-0.9c0-0.6-0.3-0.7-0.6-0.7c-0.4,0-0.6,0.5-0.7,0.6l0,0
		c0,0-0.1,0.5-0.6,0.6c0,0,0,0,0-0.1c0-0.7-0.4-1.3-0.9-1.3c-0.5,0-0.9,0.6-0.9,1.3c0,0,0,0,0,0.1c-0.5-0.1-0.6-0.6-0.6-0.6l0,0
		c0-0.1-0.3-0.6-0.7-0.6c-0.3,0-0.6,0.1-0.6,0.7c0,0.3,0.2,0.6,0.3,0.9h-0.5c-1.9,0-3.4,1.5-3.4,3.4v19.3h12.8V174
		C137.6,172.1,136.1,170.6,134.2,170.6z M133.1,169.8c0.1-0.2,0.2-0.4,0.3-0.4c0.2,0,0.3,0,0.3,0.4c0,0.2-0.2,0.6-0.4,0.9h-1.1
		C132.8,170.5,133,170,133.1,169.8z M131.3,169.3c0.3,0,0.6,0.4,0.6,0.9c0,0.5-0.3,0.9-0.6,0.9s-0.6-0.4-0.6-0.9
		C130.7,169.7,131,169.3,131.3,169.3z M128.9,169.7c0-0.3,0.1-0.4,0.3-0.4c0.1,0,0.3,0.2,0.3,0.4c0.1,0.3,0.3,0.7,0.8,0.8h-1.1
		C129.1,170.4,128.9,170,128.9,169.7z M137.3,193h-12.1v-19c0-1.7,1.4-3.1,3.1-3.1h2.2c0.2,0.3,0.4,0.6,0.7,0.6
		c0.3,0,0.6-0.2,0.7-0.6h2.2c1.7,0,3.1,1.4,3.1,3.1V193z"/>
	<path class="st0" d="M128.4,163.5h2.8v-8h-2.8V163.5z M128.7,155.8h2.1v7.4h-2.1V155.8z"/>
	<path class="st0" d="M128.2,154.8h2.9v-3.1h-2.9V154.8z M128.6,152h2.2v2.5h-2.2V152z"/>
	<path class="st0" d="M131.4,163.5h2.8v-8h-2.8V163.5z M131.7,155.8h2.1v7.4h-2.1V155.8z"/>
	<path class="st0" d="M131.3,154.8h2.9v-3.1h-2.9V154.8z M131.6,152h2.2v2.5h-2.2V152z"/>
	<path class="st0" d="M132.9,148.7c-0.1-0.2-0.5-0.6-1.1-0.4c-0.1-0.1-0.3-0.2-0.5-0.2l-0.1,0c-0.2,0-0.4,0.1-0.5,0.2
		c-0.6-0.2-1,0.2-1.1,0.4c-0.1,0.3-0.2,0.5-0.1,0.7h-3.1v15.2h9.7v-15.2h-3C133,149.2,133,149,132.9,148.7z M129.9,148.9
		c0-0.1,0.3-0.5,0.8-0.2l0.2,0.1l0.1-0.2c0,0,0.1-0.2,0.3-0.2l0.1,0c0.2,0,0.3,0.2,0.3,0.2l0.1,0.2l0.2-0.1c0.5-0.3,0.8,0.2,0.8,0.2
		c0.3,0.6,0,0.9,0,0.9l0,0v0.1c0,0.2,0,0.3-0.1,0.4c-0.1,0.1-0.4,0.1-0.4,0.1l-0.2,0v0.2c0,0.3-0.5,0.4-0.6,0.4l0,0
		c-0.1,0-0.6-0.1-0.6-0.4v-0.2l-0.2,0c0,0-0.2,0-0.4-0.1c-0.1-0.1-0.1-0.2-0.1-0.4l0-0.1l0,0C129.9,149.8,129.6,149.5,129.9,148.9z
		 M135.7,149.8v14.5h-9v-14.5h2.8c0,0.1,0.1,0.2,0.1,0.2c0,0.3,0.1,0.5,0.3,0.6c0.1,0.1,0.3,0.2,0.5,0.2c0.1,0.5,0.8,0.6,0.8,0.6
		l0,0l0.1,0l0,0c0,0,0.7-0.1,0.8-0.6c0.1,0,0.3,0,0.5-0.2c0.2-0.1,0.3-0.4,0.3-0.6c0,0,0.1-0.1,0.1-0.2H135.7z"/>
	<path class="st0" d="M136,129.6h-3c0-0.2,0-0.4-0.1-0.7c-0.1-0.2-0.5-0.6-1.1-0.4c-0.1-0.1-0.3-0.2-0.5-0.2l-0.1,0
		c-0.2,0-0.4,0.1-0.5,0.2c-0.6-0.2-1,0.2-1.1,0.4c-0.1,0.3-0.2,0.5-0.1,0.7h-3.1v15.2h9.7V129.6z M129.9,129.1
		c0-0.1,0.3-0.5,0.8-0.2l0.2,0.1l0.1-0.2c0,0,0.1-0.2,0.3-0.2l0.1,0c0.2,0,0.3,0.2,0.3,0.2l0.1,0.2l0.2-0.1c0.5-0.3,0.8,0.2,0.8,0.2
		c0.3,0.6,0,0.9,0,0.9l0,0v0.1c0,0.2,0,0.3-0.1,0.4c-0.1,0.1-0.4,0.1-0.4,0.1l-0.2,0v0.2c0,0.3-0.5,0.4-0.6,0.4l0,0
		c-0.1,0-0.6-0.1-0.6-0.4v-0.2l-0.2,0c0,0-0.2,0-0.4-0.1c-0.1-0.1-0.1-0.2-0.1-0.4l0-0.1l0,0C129.9,130,129.6,129.6,129.9,129.1z
		 M135.7,144.5h-9v-14.5h2.8c0,0.1,0.1,0.2,0.1,0.2c0,0.3,0.1,0.5,0.3,0.6c0.1,0.1,0.3,0.2,0.5,0.2c0.1,0.5,0.8,0.6,0.8,0.6l0,0
		l0.1,0l0,0c0,0,0.7-0.1,0.8-0.6c0.1,0,0.3,0,0.5-0.2c0.2-0.1,0.3-0.4,0.3-0.6c0,0,0.1-0.1,0.1-0.2h2.8V144.5z"/>
	<path class="st0" d="M128.4,143.6h2.8v-8h-2.8V143.6z M128.7,135.9h2.1v7.4h-2.1V135.9z"/>
	<path class="st0" d="M128.3,134.9h2.9v-3.1h-2.9V134.9z M128.6,132.1h2.2v2.5h-2.2V132.1z"/>
	<path class="st0" d="M131.4,143.6h2.8v-8h-2.8V143.6z M131.7,135.9h2.1v7.4h-2.1V135.9z"/>
	<path class="st0" d="M131.3,134.9h2.9v-3.1h-2.9V134.9z M131.6,132.1h2.2v2.5h-2.2V132.1z"/>
	<path class="st0" d="M133.9,116.8c0-1-0.8-1.9-1.9-1.9h-1.6c-1,0-1.9,0.8-1.9,1.9v8.2h5.4V116.8z M133.6,124.7h-4.7v-7.9
		c0-0.9,0.7-1.6,1.6-1.6h1.6c0.9,0,1.6,0.7,1.6,1.6V124.7z"/>
	<path class="st0" d="M142.1,192.4h4.8v-11.1h-4.8V192.4z M142.5,181.7h4.2v10.4h-4.2V181.7z"/>
	<path class="st0" d="M147.4,192.4h4.8v-11.1h-4.8V192.4z M147.7,181.7h4.2v10.4h-4.2V181.7z"/>
	<path class="st0" d="M142.1,180.9h10.1v-2.7h-10.1V180.9z M142.5,178.5h9.4v2.1h-9.4V178.5z"/>
	<path class="st0" d="M149,171.5h-3.7c-1.7,0-3.2,1.4-3.2,3.2v3.1h10.1v-3.1C152.2,172.9,150.8,171.5,149,171.5z M151.9,177.5h-9.4
		v-2.8c0-1.6,1.3-2.8,2.8-2.8h3.7c1.6,0,2.8,1.3,2.8,2.8V177.5z"/>
	<path class="st0" d="M150.1,170.6h-0.5c0.1-0.2,0.3-0.6,0.3-0.9c0-0.6-0.3-0.7-0.6-0.7c-0.4,0-0.6,0.5-0.7,0.6l0,0
		c0,0-0.1,0.5-0.6,0.6c0,0,0,0,0-0.1c0-0.7-0.4-1.3-0.9-1.3c-0.5,0-0.9,0.6-0.9,1.3c0,0,0,0,0,0.1c-0.5-0.1-0.6-0.6-0.6-0.6l0,0
		c0-0.1-0.3-0.6-0.7-0.6c-0.3,0-0.6,0.1-0.6,0.7c0,0.3,0.2,0.6,0.3,0.9h-0.5c-1.9,0-3.4,1.5-3.4,3.4v19.3h12.8V174
		C153.5,172.1,152,170.6,150.1,170.6z M149,169.8c0.1-0.2,0.2-0.4,0.3-0.4c0.2,0,0.3,0,0.3,0.4c0,0.2-0.2,0.6-0.4,0.9h-1.1
		C148.7,170.5,148.9,170,149,169.8z M147.2,169.3c0.3,0,0.6,0.4,0.6,0.9c0,0.5-0.3,0.9-0.6,0.9s-0.6-0.4-0.6-0.9
		C146.6,169.7,146.9,169.3,147.2,169.3z M144.8,169.7c0-0.3,0.1-0.4,0.3-0.4c0.1,0,0.3,0.2,0.3,0.4c0.1,0.3,0.3,0.7,0.8,0.8h-1.1
		C145,170.4,144.8,170,144.8,169.7z M153.2,193h-12.1v-19c0-1.7,1.4-3.1,3.1-3.1h2.2c0.2,0.3,0.4,0.6,0.7,0.6c0.3,0,0.6-0.2,0.7-0.6
		h2.2c1.7,0,3.1,1.4,3.1,3.1V193z"/>
	<path class="st0" d="M144.3,163.5h2.8v-8h-2.8V163.5z M144.6,155.8h2.1v7.4h-2.1V155.8z"/>
	<path class="st0" d="M144.1,154.8h2.9v-3.1h-2.9V154.8z M144.5,152h2.2v2.5h-2.2V152z"/>
	<path class="st0" d="M147.3,163.5h2.8v-8h-2.8V163.5z M147.6,155.8h2.1v7.4h-2.1V155.8z"/>
	<path class="st0" d="M147.2,154.8h2.9v-3.1h-2.9V154.8z M147.5,152h2.2v2.5h-2.2V152z"/>
	<path class="st0" d="M148.8,148.7c-0.1-0.2-0.5-0.6-1.1-0.4c-0.1-0.1-0.3-0.2-0.5-0.2l-0.1,0c-0.2,0-0.4,0.1-0.5,0.2
		c-0.6-0.2-1,0.2-1.1,0.4c-0.1,0.3-0.2,0.5-0.1,0.7h-3.1v15.2h9.7v-15.2h-3C148.9,149.2,148.9,149,148.8,148.7z M145.8,148.9
		c0-0.1,0.3-0.5,0.8-0.2l0.2,0.1l0.1-0.2c0,0,0.1-0.2,0.3-0.2l0.1,0c0.2,0,0.3,0.2,0.3,0.2l0.1,0.2l0.2-0.1c0.5-0.3,0.8,0.2,0.8,0.2
		c0.3,0.6,0,0.9,0,0.9l0,0v0.1c0,0.2,0,0.3-0.1,0.4c-0.1,0.1-0.4,0.1-0.4,0.1l-0.2,0v0.2c0,0.3-0.5,0.4-0.6,0.4l0,0
		c-0.1,0-0.6-0.1-0.6-0.4v-0.2l-0.2,0c0,0-0.2,0-0.4-0.1c-0.1-0.1-0.1-0.2-0.1-0.4l0-0.1l0,0C145.8,149.8,145.5,149.5,145.8,148.9z
		 M151.6,149.8v14.5h-9v-14.5h2.8c0,0.1,0.1,0.2,0.1,0.2c0,0.3,0.1,0.5,0.3,0.6c0.1,0.1,0.3,0.2,0.5,0.2c0.1,0.5,0.8,0.6,0.8,0.6
		l0,0l0.1,0l0,0c0,0,0.7-0.1,0.8-0.6c0.1,0,0.3,0,0.5-0.2c0.2-0.1,0.3-0.4,0.3-0.6c0,0,0.1-0.1,0.1-0.2H151.6z"/>
	<path class="st0" d="M151.9,129.6h-3c0-0.2,0-0.4-0.1-0.7c-0.1-0.2-0.5-0.6-1.1-0.4c-0.1-0.1-0.3-0.2-0.5-0.2l-0.1,0
		c-0.2,0-0.4,0.1-0.5,0.2c-0.6-0.2-1,0.2-1.1,0.4c-0.1,0.3-0.2,0.5-0.1,0.7h-3.1v15.2h9.7V129.6z M145.8,129.1
		c0-0.1,0.3-0.5,0.8-0.2l0.2,0.1l0.1-0.2c0,0,0.1-0.2,0.3-0.2l0.1,0c0.2,0,0.3,0.2,0.3,0.2l0.1,0.2l0.2-0.1c0.5-0.3,0.8,0.2,0.8,0.2
		c0.3,0.6,0,0.9,0,0.9l0,0v0.1c0,0.2,0,0.3-0.1,0.4c-0.1,0.1-0.4,0.1-0.4,0.1l-0.2,0v0.2c0,0.3-0.5,0.4-0.6,0.4l0,0
		c-0.1,0-0.6-0.1-0.6-0.4v-0.2l-0.2,0c0,0-0.2,0-0.4-0.1c-0.1-0.1-0.1-0.2-0.1-0.4l0-0.1l0,0C145.8,130,145.5,129.6,145.8,129.1z
		 M151.6,144.5h-9v-14.5h2.8c0,0.1,0.1,0.2,0.1,0.2c0,0.3,0.1,0.5,0.3,0.6c0.1,0.1,0.3,0.2,0.5,0.2c0.1,0.5,0.8,0.6,0.8,0.6l0,0
		l0.1,0l0,0c0,0,0.7-0.1,0.8-0.6c0.1,0,0.3,0,0.5-0.2c0.2-0.1,0.3-0.4,0.3-0.6c0,0,0.1-0.1,0.1-0.2h2.8V144.5z"/>
	<path class="st0" d="M144.3,143.6h2.8v-8h-2.8V143.6z M144.6,135.9h2.1v7.4h-2.1V135.9z"/>
	<path class="st0" d="M144.2,134.9h2.9v-3.1h-2.9V134.9z M144.5,132.1h2.2v2.5h-2.2V132.1z"/>
	<path class="st0" d="M147.3,143.6h2.8v-8h-2.8V143.6z M147.6,135.9h2.1v7.4h-2.1V135.9z"/>
	<path class="st0" d="M147.2,134.9h2.9v-3.1h-2.9V134.9z M147.5,132.1h2.2v2.5h-2.2V132.1z"/>
	<path class="st0" d="M149.8,116.8c0-1-0.8-1.9-1.9-1.9h-1.6c-1,0-1.9,0.8-1.9,1.9v8.2h5.4V116.8z M149.5,124.7h-4.7v-7.9
		c0-0.9,0.7-1.6,1.6-1.6h1.6c0.9,0,1.6,0.7,1.6,1.6V124.7z"/>
	<path class="st0" d="M158,192.4h4.8v-11.1H158V192.4z M158.4,181.7h4.2v10.4h-4.2V181.7z"/>
	<path class="st0" d="M163.3,192.4h4.8v-11.1h-4.8V192.4z M163.6,181.7h4.2v10.4h-4.2V181.7z"/>
	<path class="st0" d="M158,180.9h10.1v-2.7H158V180.9z M158.4,178.5h9.4v2.1h-9.4V178.5z"/>
	<path class="st0" d="M164.9,171.5h-3.7c-1.7,0-3.2,1.4-3.2,3.2v3.1h10.1v-3.1C168.1,172.9,166.7,171.5,164.9,171.5z M167.8,177.5
		h-9.4v-2.8c0-1.6,1.3-2.8,2.8-2.8h3.7c1.6,0,2.8,1.3,2.8,2.8V177.5z"/>
	<path class="st0" d="M166,170.6h-0.5c0.1-0.2,0.3-0.6,0.3-0.9c0-0.6-0.3-0.7-0.6-0.7c-0.4,0-0.6,0.5-0.7,0.6l0,0
		c0,0-0.1,0.5-0.6,0.6c0,0,0,0,0-0.1c0-0.7-0.4-1.3-0.9-1.3c-0.5,0-0.9,0.6-0.9,1.3c0,0,0,0,0,0.1c-0.5-0.1-0.6-0.6-0.6-0.6l0,0
		c0-0.1-0.3-0.6-0.7-0.6c-0.3,0-0.6,0.1-0.6,0.7c0,0.3,0.2,0.6,0.3,0.9h-0.5c-1.9,0-3.4,1.5-3.4,3.4v19.3h12.8V174
		C169.4,172.1,167.9,170.6,166,170.6z M164.9,169.8c0.1-0.2,0.2-0.4,0.3-0.4c0.2,0,0.3,0,0.3,0.4c0,0.2-0.2,0.6-0.4,0.9H164
		C164.6,170.5,164.8,170,164.9,169.8z M163.1,169.3c0.3,0,0.6,0.4,0.6,0.9c0,0.5-0.3,0.9-0.6,0.9c-0.3,0-0.6-0.4-0.6-0.9
		C162.5,169.7,162.8,169.3,163.1,169.3z M160.7,169.7c0-0.3,0.1-0.4,0.3-0.4c0.1,0,0.3,0.2,0.3,0.4c0.1,0.3,0.3,0.7,0.8,0.8H161
		C160.9,170.4,160.7,170,160.7,169.7z M169.1,193H157v-19c0-1.7,1.4-3.1,3.1-3.1h2.2c0.2,0.3,0.4,0.6,0.7,0.6c0.3,0,0.6-0.2,0.7-0.6
		h2.2c1.7,0,3.1,1.4,3.1,3.1V193z"/>
	<path class="st0" d="M160.2,163.5h2.8v-8h-2.8V163.5z M160.5,155.8h2.1v7.4h-2.1V155.8z"/>
	<path class="st0" d="M160,154.8h2.9v-3.1H160V154.8z M160.4,152h2.2v2.5h-2.2V152z"/>
	<path class="st0" d="M163.2,163.5h2.8v-8h-2.8V163.5z M163.5,155.8h2.1v7.4h-2.1V155.8z"/>
	<path class="st0" d="M163.1,154.8h2.9v-3.1h-2.9V154.8z M163.4,152h2.2v2.5h-2.2V152z"/>
	<path class="st0" d="M164.6,148.7c-0.1-0.2-0.5-0.6-1.1-0.4c-0.1-0.1-0.3-0.2-0.5-0.2l-0.1,0c-0.2,0-0.4,0.1-0.5,0.2
		c-0.6-0.2-1,0.2-1.1,0.4c-0.1,0.3-0.2,0.5-0.1,0.7h-3.1v15.2h9.7v-15.2h-3C164.8,149.2,164.8,149,164.6,148.7z M161.7,148.9
		c0-0.1,0.3-0.5,0.8-0.2l0.2,0.1l0.1-0.2c0,0,0.1-0.2,0.3-0.2l0.1,0c0.2,0,0.3,0.2,0.3,0.2l0.1,0.2l0.2-0.1c0.5-0.3,0.8,0.2,0.8,0.2
		c0.3,0.6,0,0.9,0,0.9l0,0v0.1c0,0.2,0,0.3-0.1,0.4c-0.1,0.1-0.4,0.1-0.4,0.1l-0.2,0v0.2c0,0.3-0.5,0.4-0.6,0.4l0,0
		c-0.1,0-0.6-0.1-0.6-0.4v-0.2l-0.2,0c0,0-0.2,0-0.4-0.1c-0.1-0.1-0.1-0.2-0.1-0.4l0-0.1l0,0C161.7,149.8,161.4,149.5,161.7,148.9z
		 M167.5,149.8v14.5h-9v-14.5h2.8c0,0.1,0.1,0.2,0.1,0.2c0,0.3,0.1,0.5,0.3,0.6c0.1,0.1,0.3,0.2,0.5,0.2c0.1,0.5,0.8,0.6,0.8,0.6
		l0,0l0.1,0l0,0c0,0,0.7-0.1,0.8-0.6c0.1,0,0.3,0,0.5-0.2c0.2-0.1,0.3-0.4,0.3-0.6c0,0,0.1-0.1,0.1-0.2H167.5z"/>
	<path class="st0" d="M167.8,129.6h-3c0-0.2,0-0.4-0.1-0.7c-0.1-0.2-0.5-0.6-1.1-0.4c-0.1-0.1-0.3-0.2-0.5-0.2l-0.1,0
		c-0.2,0-0.4,0.1-0.5,0.2c-0.6-0.2-1,0.2-1.1,0.4c-0.1,0.3-0.2,0.5-0.1,0.7h-3.1v15.2h9.7V129.6z M161.7,129.1
		c0-0.1,0.3-0.5,0.8-0.2l0.2,0.1l0.1-0.2c0,0,0.1-0.2,0.3-0.2l0.1,0c0.2,0,0.3,0.2,0.3,0.2l0.1,0.2l0.2-0.1c0.5-0.3,0.8,0.2,0.8,0.2
		c0.3,0.6,0,0.9,0,0.9l0,0v0.1c0,0.2,0,0.3-0.1,0.4c-0.1,0.1-0.4,0.1-0.4,0.1l-0.2,0v0.2c0,0.3-0.5,0.4-0.6,0.4l0,0
		c-0.1,0-0.6-0.1-0.6-0.4v-0.2l-0.2,0c0,0-0.2,0-0.4-0.1c-0.1-0.1-0.1-0.2-0.1-0.4l0-0.1l0,0C161.7,130,161.4,129.6,161.7,129.1z
		 M167.5,144.5h-9v-14.5h2.8c0,0.1,0.1,0.2,0.1,0.2c0,0.3,0.1,0.5,0.3,0.6c0.1,0.1,0.3,0.2,0.5,0.2c0.1,0.5,0.8,0.6,0.8,0.6l0,0
		l0.1,0l0,0c0,0,0.7-0.1,0.8-0.6c0.1,0,0.3,0,0.5-0.2c0.2-0.1,0.3-0.4,0.3-0.6c0,0,0.1-0.1,0.1-0.2h2.8V144.5z"/>
	<path class="st0" d="M160.2,143.6h2.8v-8h-2.8V143.6z M160.5,135.9h2.1v7.4h-2.1V135.9z"/>
	<path class="st0" d="M160.1,134.9h2.9v-3.1h-2.9V134.9z M160.4,132.1h2.2v2.5h-2.2V132.1z"/>
	<path class="st0" d="M163.2,143.6h2.8v-8h-2.8V143.6z M163.5,135.9h2.1v7.4h-2.1V135.9z"/>
	<path class="st0" d="M163.1,134.9h2.9v-3.1h-2.9V134.9z M163.4,132.1h2.2v2.5h-2.2V132.1z"/>
	<path class="st0" d="M165.7,116.8c0-1-0.8-1.9-1.9-1.9h-1.6c-1,0-1.9,0.8-1.9,1.9v8.2h5.4V116.8z M165.4,124.7h-4.7v-7.9
		c0-0.9,0.7-1.6,1.6-1.6h1.6c0.9,0,1.6,0.7,1.6,1.6V124.7z"/>
	<path class="st0" d="M173.9,192.4h4.8v-11.1h-4.8V192.4z M174.3,181.7h4.2v10.4h-4.2V181.7z"/>
	<path class="st0" d="M179.2,192.4h4.8v-11.1h-4.8V192.4z M179.5,181.7h4.2v10.4h-4.2V181.7z"/>
	<path class="st0" d="M173.9,180.9H184v-2.7h-10.1V180.9z M174.3,178.5h9.4v2.1h-9.4V178.5z"/>
	<path class="st0" d="M180.8,171.5h-3.7c-1.7,0-3.2,1.4-3.2,3.2v3.1H184v-3.1C184,172.9,182.6,171.5,180.8,171.5z M183.7,177.5h-9.4
		v-2.8c0-1.6,1.3-2.8,2.8-2.8h3.7c1.6,0,2.8,1.3,2.8,2.8V177.5z"/>
	<path class="st0" d="M181.9,170.6h-0.5c0.1-0.2,0.3-0.6,0.3-0.9c0-0.6-0.3-0.7-0.6-0.7c-0.4,0-0.6,0.5-0.7,0.6l0,0
		c0,0-0.1,0.5-0.6,0.6c0,0,0,0,0-0.1c0-0.7-0.4-1.3-0.9-1.3c-0.5,0-0.9,0.6-0.9,1.3c0,0,0,0,0,0.1c-0.5-0.1-0.6-0.6-0.6-0.6l0,0
		c0-0.1-0.3-0.6-0.7-0.6c-0.3,0-0.6,0.1-0.6,0.7c0,0.3,0.2,0.6,0.3,0.9H176c-1.9,0-3.4,1.5-3.4,3.4v19.3h12.8V174
		C185.3,172.1,183.8,170.6,181.9,170.6z M180.8,169.8c0.1-0.2,0.2-0.4,0.3-0.4c0.2,0,0.3,0,0.3,0.4c0,0.2-0.2,0.6-0.4,0.9h-1.1
		C180.5,170.5,180.7,170,180.8,169.8z M179,169.3c0.3,0,0.6,0.4,0.6,0.9c0,0.5-0.3,0.9-0.6,0.9s-0.6-0.4-0.6-0.9
		C178.4,169.7,178.7,169.3,179,169.3z M176.6,169.7c0-0.3,0.1-0.4,0.3-0.4c0.1,0,0.3,0.2,0.3,0.4c0.1,0.3,0.3,0.7,0.8,0.8h-1.1
		C176.8,170.4,176.6,170,176.6,169.7z M185,193h-12.1v-19c0-1.7,1.4-3.1,3.1-3.1h2.2c0.2,0.3,0.4,0.6,0.7,0.6c0.3,0,0.6-0.2,0.7-0.6
		h2.2c1.7,0,3.1,1.4,3.1,3.1V193z"/>
	<path class="st0" d="M176.1,163.5h2.8v-8h-2.8V163.5z M176.4,155.8h2.1v7.4h-2.1V155.8z"/>
	<path class="st0" d="M175.9,154.8h2.9v-3.1h-2.9V154.8z M176.3,152h2.2v2.5h-2.2V152z"/>
	<path class="st0" d="M179.1,163.5h2.8v-8h-2.8V163.5z M179.4,155.8h2.1v7.4h-2.1V155.8z"/>
	<path class="st0" d="M179,154.8h2.9v-3.1H179V154.8z M179.3,152h2.2v2.5h-2.2V152z"/>
	<path class="st0" d="M180.5,148.7c-0.1-0.2-0.5-0.6-1.1-0.4c-0.1-0.1-0.3-0.2-0.5-0.2l-0.1,0c-0.2,0-0.4,0.1-0.5,0.2
		c-0.6-0.2-1,0.2-1.1,0.4c-0.1,0.3-0.2,0.5-0.1,0.7h-3.1v15.2h9.7v-15.2h-3C180.7,149.2,180.7,149,180.5,148.7z M177.6,148.9
		c0-0.1,0.3-0.5,0.8-0.2l0.2,0.1l0.1-0.2c0,0,0.1-0.2,0.3-0.2l0.1,0c0.2,0,0.3,0.2,0.3,0.2l0.1,0.2l0.2-0.1c0.5-0.3,0.8,0.2,0.8,0.2
		c0.3,0.6,0,0.9,0,0.9l0,0v0.1c0,0.2,0,0.3-0.1,0.4c-0.1,0.1-0.4,0.1-0.4,0.1l-0.2,0v0.2c0,0.3-0.5,0.4-0.6,0.4l0,0
		c-0.1,0-0.6-0.1-0.6-0.4v-0.2l-0.2,0c0,0-0.2,0-0.4-0.1c-0.1-0.1-0.1-0.2-0.1-0.4l0-0.1l0,0C177.6,149.8,177.3,149.5,177.6,148.9z
		 M183.4,149.8v14.5h-9v-14.5h2.8c0,0.1,0.1,0.2,0.1,0.2c0,0.3,0.1,0.5,0.3,0.6c0.1,0.1,0.3,0.2,0.5,0.2c0.1,0.5,0.8,0.6,0.8,0.6
		l0,0l0.1,0l0,0c0,0,0.7-0.1,0.8-0.6c0.1,0,0.3,0,0.5-0.2c0.2-0.1,0.3-0.4,0.3-0.6c0,0,0.1-0.1,0.1-0.2H183.4z"/>
	<path class="st0" d="M183.7,129.6h-3c0-0.2,0-0.4-0.1-0.7c-0.1-0.2-0.5-0.6-1.1-0.4c-0.1-0.1-0.3-0.2-0.5-0.2l-0.1,0
		c-0.2,0-0.4,0.1-0.5,0.2c-0.6-0.2-1,0.2-1.1,0.4c-0.1,0.3-0.2,0.5-0.1,0.7h-3.1v15.2h9.7V129.6z M177.6,129.1
		c0-0.1,0.3-0.5,0.8-0.2l0.2,0.1l0.1-0.2c0,0,0.1-0.2,0.3-0.2l0.1,0c0.2,0,0.3,0.2,0.3,0.2l0.1,0.2l0.2-0.1c0.5-0.3,0.8,0.2,0.8,0.2
		c0.3,0.6,0,0.9,0,0.9l0,0v0.1c0,0.2,0,0.3-0.1,0.4c-0.1,0.1-0.4,0.1-0.4,0.1l-0.2,0v0.2c0,0.3-0.5,0.4-0.6,0.4l0,0
		c-0.1,0-0.6-0.1-0.6-0.4v-0.2l-0.2,0c0,0-0.2,0-0.4-0.1c-0.1-0.1-0.1-0.2-0.1-0.4l0-0.1l0,0C177.6,130,177.3,129.6,177.6,129.1z
		 M183.4,144.5h-9v-14.5h2.8c0,0.1,0.1,0.2,0.1,0.2c0,0.3,0.1,0.5,0.3,0.6c0.1,0.1,0.3,0.2,0.5,0.2c0.1,0.5,0.8,0.6,0.8,0.6l0,0
		l0.1,0l0,0c0,0,0.7-0.1,0.8-0.6c0.1,0,0.3,0,0.5-0.2c0.2-0.1,0.3-0.4,0.3-0.6c0,0,0.1-0.1,0.1-0.2h2.8V144.5z"/>
	<path class="st0" d="M176.1,143.6h2.8v-8h-2.8V143.6z M176.4,135.9h2.1v7.4h-2.1V135.9z"/>
	<path class="st0" d="M176,134.9h2.9v-3.1H176V134.9z M176.3,132.1h2.2v2.5h-2.2V132.1z"/>
	<path class="st0" d="M179.1,143.6h2.8v-8h-2.8V143.6z M179.4,135.9h2.1v7.4h-2.1V135.9z"/>
	<path class="st0" d="M179,134.9h2.9v-3.1H179V134.9z M179.3,132.1h2.2v2.5h-2.2V132.1z"/>
	<path class="st0" d="M181.6,116.8c0-1-0.8-1.9-1.9-1.9h-1.6c-1,0-1.9,0.8-1.9,1.9v8.2h5.4V116.8z M181.3,124.7h-4.7v-7.9
		c0-0.9,0.7-1.6,1.6-1.6h1.6c0.9,0,1.6,0.7,1.6,1.6V124.7z"/>
	<path class="st0" d="M189.8,192.4h4.8v-11.1h-4.8V192.4z M190.2,181.7h4.2v10.4h-4.2V181.7z"/>
	<path class="st0" d="M195.1,192.4h4.8v-11.1h-4.8V192.4z M195.4,181.7h4.2v10.4h-4.2V181.7z"/>
	<path class="st0" d="M189.8,180.9h10.1v-2.7h-10.1V180.9z M190.2,178.5h9.4v2.1h-9.4V178.5z"/>
	<path class="st0" d="M196.7,171.5H193c-1.7,0-3.2,1.4-3.2,3.2v3.1h10.1v-3.1C199.9,172.9,198.5,171.5,196.7,171.5z M199.6,177.5
		h-9.4v-2.8c0-1.6,1.3-2.8,2.8-2.8h3.7c1.6,0,2.8,1.3,2.8,2.8V177.5z"/>
	<path class="st0" d="M197.8,170.6h-0.5c0.1-0.2,0.3-0.6,0.3-0.9c0-0.6-0.3-0.7-0.6-0.7c-0.4,0-0.6,0.5-0.7,0.6l0,0
		c0,0-0.1,0.5-0.6,0.6c0,0,0,0,0-0.1c0-0.7-0.4-1.3-0.9-1.3c-0.5,0-0.9,0.6-0.9,1.3c0,0,0,0,0,0.1c-0.5-0.1-0.6-0.6-0.6-0.6l0,0
		c0-0.1-0.3-0.6-0.7-0.6c-0.3,0-0.6,0.1-0.6,0.7c0,0.3,0.2,0.6,0.3,0.9h-0.5c-1.9,0-3.4,1.5-3.4,3.4v19.3h12.8V174
		C201.2,172.1,199.7,170.6,197.8,170.6z M196.7,169.8c0.1-0.2,0.2-0.4,0.3-0.4c0.2,0,0.3,0,0.3,0.4c0,0.2-0.2,0.6-0.4,0.9h-1.1
		C196.4,170.5,196.6,170,196.7,169.8z M194.9,169.3c0.3,0,0.6,0.4,0.6,0.9c0,0.5-0.3,0.9-0.6,0.9s-0.6-0.4-0.6-0.9
		C194.3,169.7,194.6,169.3,194.9,169.3z M192.5,169.7c0-0.3,0.1-0.4,0.3-0.4c0.1,0,0.3,0.2,0.3,0.4c0.1,0.3,0.3,0.7,0.8,0.8h-1.1
		C192.7,170.4,192.5,170,192.5,169.7z M200.9,193h-12.1v-19c0-1.7,1.4-3.1,3.1-3.1h2.2c0.2,0.3,0.4,0.6,0.7,0.6
		c0.3,0,0.6-0.2,0.7-0.6h2.2c1.7,0,3.1,1.4,3.1,3.1V193z"/>
	<path class="st0" d="M191.9,163.5h2.8v-8h-2.8V163.5z M192.3,155.8h2.1v7.4h-2.1V155.8z"/>
	<path class="st0" d="M191.8,154.8h2.9v-3.1h-2.9V154.8z M192.2,152h2.2v2.5h-2.2V152z"/>
	<path class="st0" d="M195,163.5h2.8v-8H195V163.5z M195.3,155.8h2.1v7.4h-2.1V155.8z"/>
	<path class="st0" d="M194.9,154.8h2.9v-3.1h-2.9V154.8z M195.2,152h2.2v2.5h-2.2V152z"/>
	<path class="st0" d="M196.4,148.7c-0.1-0.2-0.5-0.6-1.1-0.4c-0.1-0.1-0.3-0.2-0.5-0.2l-0.1,0c-0.2,0-0.4,0.1-0.5,0.2
		c-0.6-0.2-1,0.2-1.1,0.4c-0.1,0.3-0.2,0.5-0.1,0.7H190v15.2h9.7v-15.2h-3C196.6,149.2,196.6,149,196.4,148.7z M193.5,148.9
		c0-0.1,0.3-0.5,0.8-0.2l0.2,0.1l0.1-0.2c0,0,0.1-0.2,0.3-0.2l0.1,0c0.2,0,0.3,0.2,0.3,0.2l0.1,0.2l0.2-0.1c0.5-0.3,0.8,0.2,0.8,0.2
		c0.3,0.6,0,0.9,0,0.9l0,0v0.1c0,0.2,0,0.3-0.1,0.4c-0.1,0.1-0.4,0.1-0.4,0.1l-0.2,0v0.2c0,0.3-0.5,0.4-0.6,0.4l0,0
		c-0.1,0-0.6-0.1-0.6-0.4v-0.2l-0.2,0c0,0-0.2,0-0.4-0.1c-0.1-0.1-0.1-0.2-0.1-0.4l0-0.1l0,0C193.5,149.8,193.2,149.5,193.5,148.9z
		 M199.3,149.8v14.5h-9v-14.5h2.8c0,0.1,0.1,0.2,0.1,0.2c0,0.3,0.1,0.5,0.3,0.6c0.1,0.1,0.3,0.2,0.5,0.2c0.1,0.5,0.8,0.6,0.8,0.6
		l0,0l0.1,0l0,0c0,0,0.7-0.1,0.8-0.6c0.1,0,0.3,0,0.5-0.2c0.2-0.1,0.3-0.4,0.3-0.6c0,0,0.1-0.1,0.1-0.2H199.3z"/>
	<path class="st0" d="M199.6,129.6h-3c0-0.2,0-0.4-0.1-0.7c-0.1-0.2-0.5-0.6-1.1-0.4c-0.1-0.1-0.3-0.2-0.5-0.2l-0.1,0
		c-0.2,0-0.4,0.1-0.5,0.2c-0.6-0.2-1,0.2-1.1,0.4c-0.1,0.3-0.2,0.5-0.1,0.7H190v15.2h9.7V129.6z M193.5,129.1c0-0.1,0.3-0.5,0.8-0.2
		l0.2,0.1l0.1-0.2c0,0,0.1-0.2,0.3-0.2l0.1,0c0.2,0,0.3,0.2,0.3,0.2l0.1,0.2l0.2-0.1c0.5-0.3,0.8,0.2,0.8,0.2c0.3,0.6,0,0.9,0,0.9
		l0,0v0.1c0,0.2,0,0.3-0.1,0.4c-0.1,0.1-0.4,0.1-0.4,0.1l-0.2,0v0.2c0,0.3-0.5,0.4-0.6,0.4l0,0c-0.1,0-0.6-0.1-0.6-0.4v-0.2l-0.2,0
		c0,0-0.2,0-0.4-0.1c-0.1-0.1-0.1-0.2-0.1-0.4l0-0.1l0,0C193.5,130,193.2,129.6,193.5,129.1z M199.3,144.5h-9v-14.5h2.8
		c0,0.1,0.1,0.2,0.1,0.2c0,0.3,0.1,0.5,0.3,0.6c0.1,0.1,0.3,0.2,0.5,0.2c0.1,0.5,0.8,0.6,0.8,0.6l0,0l0.1,0l0,0c0,0,0.7-0.1,0.8-0.6
		c0.1,0,0.3,0,0.5-0.2c0.2-0.1,0.3-0.4,0.3-0.6c0,0,0.1-0.1,0.1-0.2h2.8V144.5z"/>
	<path class="st0" d="M192,143.6h2.8v-8H192V143.6z M192.3,135.9h2.1v7.4h-2.1V135.9z"/>
	<path class="st0" d="M191.9,134.9h2.9v-3.1h-2.9V134.9z M192.2,132.1h2.2v2.5h-2.2V132.1z"/>
	<path class="st0" d="M195,143.6h2.8v-8H195V143.6z M195.3,135.9h2.1v7.4h-2.1V135.9z"/>
	<path class="st0" d="M194.9,134.9h2.9v-3.1h-2.9V134.9z M195.2,132.1h2.2v2.5h-2.2V132.1z"/>
	<path class="st0" d="M197.5,116.8c0-1-0.8-1.9-1.9-1.9H194c-1,0-1.9,0.8-1.9,1.9v8.2h5.4V116.8z M197.2,124.7h-4.7v-7.9
		c0-0.9,0.7-1.6,1.6-1.6h1.6c0.9,0,1.6,0.7,1.6,1.6V124.7z"/>
	<path class="st0" d="M205.7,192.4h4.8v-11.1h-4.8V192.4z M206,181.7h4.2v10.4H206V181.7z"/>
	<path class="st0" d="M211,192.4h4.8v-11.1H211V192.4z M211.3,181.7h4.2v10.4h-4.2V181.7z"/>
	<path class="st0" d="M205.7,180.9h10.1v-2.7h-10.1V180.9z M206,178.5h9.4v2.1H206V178.5z"/>
	<path class="st0" d="M212.6,171.5h-3.7c-1.7,0-3.2,1.4-3.2,3.2v3.1h10.1v-3.1C215.8,172.9,214.4,171.5,212.6,171.5z M215.5,177.5
		H206v-2.8c0-1.6,1.3-2.8,2.8-2.8h3.7c1.6,0,2.8,1.3,2.8,2.8V177.5z"/>
	<path class="st0" d="M213.7,170.6h-0.5c0.1-0.2,0.3-0.6,0.3-0.9c0-0.6-0.3-0.7-0.6-0.7c-0.4,0-0.6,0.5-0.7,0.6l0,0
		c0,0-0.1,0.5-0.6,0.6c0,0,0,0,0-0.1c0-0.7-0.4-1.3-0.9-1.3c-0.5,0-0.9,0.6-0.9,1.3c0,0,0,0,0,0.1c-0.5-0.1-0.6-0.6-0.6-0.6l0,0
		c0-0.1-0.3-0.6-0.7-0.6c-0.3,0-0.6,0.1-0.6,0.7c0,0.3,0.2,0.6,0.3,0.9h-0.5c-1.9,0-3.4,1.5-3.4,3.4v19.3h12.8V174
		C217.1,172.1,215.6,170.6,213.7,170.6z M212.6,169.8c0.1-0.2,0.2-0.4,0.3-0.4c0.2,0,0.3,0,0.3,0.4c0,0.2-0.2,0.6-0.4,0.9h-1.1
		C212.3,170.5,212.5,170,212.6,169.8z M210.8,169.3c0.3,0,0.6,0.4,0.6,0.9c0,0.5-0.3,0.9-0.6,0.9c-0.3,0-0.6-0.4-0.6-0.9
		C210.2,169.7,210.5,169.3,210.8,169.3z M208.4,169.7c0-0.3,0.1-0.4,0.3-0.4c0.1,0,0.3,0.2,0.3,0.4c0.1,0.3,0.3,0.7,0.8,0.8h-1.1
		C208.6,170.4,208.4,170,208.4,169.7z M216.8,193h-12.1v-19c0-1.7,1.4-3.1,3.1-3.1h2.2c0.2,0.3,0.4,0.6,0.7,0.6
		c0.3,0,0.6-0.2,0.7-0.6h2.2c1.7,0,3.1,1.4,3.1,3.1V193z"/>
	<path class="st0" d="M207.8,163.5h2.8v-8h-2.8V163.5z M208.2,155.8h2.1v7.4h-2.1V155.8z"/>
	<path class="st0" d="M207.7,154.8h2.9v-3.1h-2.9V154.8z M208.1,152h2.2v2.5h-2.2V152z"/>
	<path class="st0" d="M210.9,163.5h2.8v-8h-2.8V163.5z M211.2,155.8h2.1v7.4h-2.1V155.8z"/>
	<path class="st0" d="M210.8,154.8h2.9v-3.1h-2.9V154.8z M211.1,152h2.2v2.5h-2.2V152z"/>
	<path class="st0" d="M212.3,148.7c-0.1-0.2-0.5-0.6-1.1-0.4c-0.1-0.1-0.3-0.2-0.5-0.2l-0.1,0c-0.2,0-0.4,0.1-0.5,0.2
		c-0.6-0.2-1,0.2-1.1,0.4c-0.1,0.3-0.2,0.5-0.1,0.7h-3.1v15.2h9.7v-15.2h-3C212.5,149.2,212.5,149,212.3,148.7z M209.4,148.9
		c0-0.1,0.3-0.5,0.8-0.2l0.2,0.1l0.1-0.2c0,0,0.1-0.2,0.3-0.2l0.1,0c0.2,0,0.3,0.2,0.3,0.2l0.1,0.2l0.2-0.1c0.5-0.3,0.8,0.2,0.8,0.2
		c0.3,0.6,0,0.9,0,0.9l0,0v0.1c0,0.2,0,0.3-0.1,0.4c-0.1,0.1-0.4,0.1-0.4,0.1l-0.2,0v0.2c0,0.3-0.5,0.4-0.6,0.4l0,0
		c-0.1,0-0.6-0.1-0.6-0.4v-0.2l-0.2,0c0,0-0.2,0-0.4-0.1c-0.1-0.1-0.1-0.2-0.1-0.4l0-0.1l0,0C209.4,149.8,209.1,149.5,209.4,148.9z
		 M215.2,149.8v14.5h-9v-14.5h2.8c0,0.1,0.1,0.2,0.1,0.2c0,0.3,0.1,0.5,0.3,0.6c0.1,0.1,0.3,0.2,0.5,0.2c0.1,0.5,0.8,0.6,0.8,0.6
		l0,0l0.1,0l0,0c0,0,0.7-0.1,0.8-0.6c0.1,0,0.3,0,0.5-0.2c0.2-0.1,0.3-0.4,0.3-0.6c0,0,0.1-0.1,0.1-0.2H215.2z"/>
	<path class="st0" d="M215.5,129.6h-3c0-0.2,0-0.4-0.1-0.7c-0.1-0.2-0.5-0.6-1.1-0.4c-0.1-0.1-0.3-0.2-0.5-0.2l-0.1,0
		c-0.2,0-0.4,0.1-0.5,0.2c-0.6-0.2-1,0.2-1.1,0.4c-0.1,0.3-0.2,0.5-0.1,0.7h-3.1v15.2h9.7V129.6z M209.4,129.1
		c0-0.1,0.3-0.5,0.8-0.2l0.2,0.1l0.1-0.2c0,0,0.1-0.2,0.3-0.2l0.1,0c0.2,0,0.3,0.2,0.3,0.2l0.1,0.2l0.2-0.1c0.5-0.3,0.8,0.2,0.8,0.2
		c0.3,0.6,0,0.9,0,0.9l0,0v0.1c0,0.2,0,0.3-0.1,0.4c-0.1,0.1-0.4,0.1-0.4,0.1l-0.2,0v0.2c0,0.3-0.5,0.4-0.6,0.4l0,0
		c-0.1,0-0.6-0.1-0.6-0.4v-0.2l-0.2,0c0,0-0.2,0-0.4-0.1c-0.1-0.1-0.1-0.2-0.1-0.4l0-0.1l0,0C209.4,130,209.1,129.6,209.4,129.1z
		 M215.2,144.5h-9v-14.5h2.8c0,0.1,0.1,0.2,0.1,0.2c0,0.3,0.1,0.5,0.3,0.6c0.1,0.1,0.3,0.2,0.5,0.2c0.1,0.5,0.8,0.6,0.8,0.6l0,0
		l0.1,0l0,0c0,0,0.7-0.1,0.8-0.6c0.1,0,0.3,0,0.5-0.2c0.2-0.1,0.3-0.4,0.3-0.6c0,0,0.1-0.1,0.1-0.2h2.8V144.5z"/>
	<path class="st0" d="M207.9,143.6h2.8v-8h-2.8V143.6z M208.2,135.9h2.1v7.4h-2.1V135.9z"/>
	<path class="st0" d="M207.8,134.9h2.9v-3.1h-2.9V134.9z M208.1,132.1h2.2v2.5h-2.2V132.1z"/>
	<path class="st0" d="M210.9,143.6h2.8v-8h-2.8V143.6z M211.2,135.9h2.1v7.4h-2.1V135.9z"/>
	<path class="st0" d="M210.8,134.9h2.9v-3.1h-2.9V134.9z M211.1,132.1h2.2v2.5h-2.2V132.1z"/>
	<path class="st0" d="M213.4,116.8c0-1-0.8-1.9-1.9-1.9h-1.6c-1,0-1.9,0.8-1.9,1.9v8.2h5.4V116.8z M213.1,124.7h-4.7v-7.9
		c0-0.9,0.7-1.6,1.6-1.6h1.6c0.9,0,1.6,0.7,1.6,1.6V124.7z"/>
	<path class="st0" d="M221.6,192.4h4.8v-11.1h-4.8V192.4z M221.9,181.7h4.2v10.4h-4.2V181.7z"/>
	<path class="st0" d="M226.9,192.4h4.8v-11.1h-4.8V192.4z M227.2,181.7h4.2v10.4h-4.2V181.7z"/>
	<path class="st0" d="M221.6,180.9h10.1v-2.7h-10.1V180.9z M221.9,178.5h9.4v2.1h-9.4V178.5z"/>
	<path class="st0" d="M228.5,171.5h-3.7c-1.7,0-3.2,1.4-3.2,3.2v3.1h10.1v-3.1C231.7,172.9,230.3,171.5,228.5,171.5z M231.4,177.5
		h-9.4v-2.8c0-1.6,1.3-2.8,2.8-2.8h3.7c1.6,0,2.8,1.3,2.8,2.8V177.5z"/>
	<path class="st0" d="M229.6,170.6h-0.5c0.1-0.2,0.3-0.6,0.3-0.9c0-0.6-0.3-0.7-0.6-0.7c-0.4,0-0.6,0.5-0.7,0.6l0,0
		c0,0-0.1,0.5-0.6,0.6c0,0,0,0,0-0.1c0-0.7-0.4-1.3-0.9-1.3c-0.5,0-0.9,0.6-0.9,1.3c0,0,0,0,0,0.1c-0.5-0.1-0.6-0.6-0.6-0.6l0,0
		c0-0.1-0.3-0.6-0.7-0.6c-0.3,0-0.6,0.1-0.6,0.7c0,0.3,0.2,0.6,0.3,0.9h-0.5c-1.9,0-3.4,1.5-3.4,3.4v19.3H233V174
		C233,172.1,231.5,170.6,229.6,170.6z M228.4,169.8c0.1-0.2,0.2-0.4,0.3-0.4c0.2,0,0.3,0,0.3,0.4c0,0.2-0.2,0.6-0.4,0.9h-1.1
		C228.2,170.5,228.4,170,228.4,169.8z M226.7,169.3c0.3,0,0.6,0.4,0.6,0.9c0,0.5-0.3,0.9-0.6,0.9s-0.6-0.4-0.6-0.9
		C226.1,169.7,226.4,169.3,226.7,169.3z M224.3,169.7c0-0.3,0.1-0.4,0.3-0.4c0.1,0,0.3,0.2,0.3,0.4c0.1,0.3,0.3,0.7,0.8,0.8h-1.1
		C224.5,170.4,224.3,170,224.3,169.7z M232.7,193h-12.1v-19c0-1.7,1.4-3.1,3.1-3.1h2.2c0.2,0.3,0.4,0.6,0.7,0.6
		c0.3,0,0.6-0.2,0.7-0.6h2.2c1.7,0,3.1,1.4,3.1,3.1V193z"/>
	<path class="st0" d="M223.7,163.5h2.8v-8h-2.8V163.5z M224.1,155.8h2.1v7.4h-2.1V155.8z"/>
	<path class="st0" d="M223.6,154.8h2.9v-3.1h-2.9V154.8z M224,152h2.2v2.5H224V152z"/>
	<path class="st0" d="M226.8,163.5h2.8v-8h-2.8V163.5z M227.1,155.8h2.1v7.4h-2.1V155.8z"/>
	<path class="st0" d="M226.7,154.8h2.9v-3.1h-2.9V154.8z M227,152h2.2v2.5H227V152z"/>
	<path class="st0" d="M228.2,148.7c-0.1-0.2-0.5-0.6-1.1-0.4c-0.1-0.1-0.3-0.2-0.5-0.2l-0.1,0c-0.2,0-0.4,0.1-0.5,0.2
		c-0.6-0.2-1,0.2-1.1,0.4c-0.1,0.3-0.2,0.5-0.1,0.7h-3.1v15.2h9.7v-15.2h-3C228.4,149.2,228.4,149,228.2,148.7z M225.3,148.9
		c0-0.1,0.3-0.5,0.8-0.2l0.2,0.1l0.1-0.2c0,0,0.1-0.2,0.3-0.2l0.1,0c0.2,0,0.3,0.2,0.3,0.2l0.1,0.2l0.2-0.1c0.5-0.3,0.8,0.2,0.8,0.2
		c0.3,0.6,0,0.9,0,0.9l0,0v0.1c0,0.2,0,0.3-0.1,0.4c-0.1,0.1-0.4,0.1-0.4,0.1l-0.2,0v0.2c0,0.3-0.5,0.4-0.6,0.4l0,0
		c-0.1,0-0.6-0.1-0.6-0.4v-0.2l-0.2,0c0,0-0.2,0-0.4-0.1c-0.1-0.1-0.1-0.2-0.1-0.4l0-0.1l0,0C225.3,149.8,225,149.5,225.3,148.9z
		 M231.1,149.8v14.5h-9v-14.5h2.8c0,0.1,0.1,0.2,0.1,0.2c0,0.3,0.1,0.5,0.3,0.6c0.1,0.1,0.3,0.2,0.5,0.2c0.1,0.5,0.8,0.6,0.8,0.6
		l0,0l0.1,0l0,0c0,0,0.7-0.1,0.8-0.6c0.1,0,0.3,0,0.5-0.2c0.2-0.1,0.3-0.4,0.3-0.6c0,0,0.1-0.1,0.1-0.2H231.1z"/>
	<path class="st0" d="M231.4,129.6h-3c0-0.2,0-0.4-0.1-0.7c-0.1-0.2-0.5-0.6-1.1-0.4c-0.1-0.1-0.3-0.2-0.5-0.2l-0.1,0
		c-0.2,0-0.4,0.1-0.5,0.2c-0.6-0.2-1,0.2-1.1,0.4c-0.1,0.3-0.2,0.5-0.1,0.7h-3.1v15.2h9.7V129.6z M225.3,129.1
		c0-0.1,0.3-0.5,0.8-0.2l0.2,0.1l0.1-0.2c0,0,0.1-0.2,0.3-0.2l0.1,0c0.2,0,0.3,0.2,0.3,0.2l0.1,0.2l0.2-0.1c0.5-0.3,0.8,0.2,0.8,0.2
		c0.3,0.6,0,0.9,0,0.9l0,0v0.1c0,0.2,0,0.3-0.1,0.4c-0.1,0.1-0.4,0.1-0.4,0.1l-0.2,0v0.2c0,0.3-0.5,0.4-0.6,0.4l0,0
		c-0.1,0-0.6-0.1-0.6-0.4v-0.2l-0.2,0c0,0-0.2,0-0.4-0.1c-0.1-0.1-0.1-0.2-0.1-0.4l0-0.1l0,0C225.3,130,225,129.6,225.3,129.1z
		 M231.1,144.5h-9v-14.5h2.8c0,0.1,0.1,0.2,0.1,0.2c0,0.3,0.1,0.5,0.3,0.6c0.1,0.1,0.3,0.2,0.5,0.2c0.1,0.5,0.8,0.6,0.8,0.6l0,0
		l0.1,0l0,0c0,0,0.7-0.1,0.8-0.6c0.1,0,0.3,0,0.5-0.2c0.2-0.1,0.3-0.4,0.3-0.6c0,0,0.1-0.1,0.1-0.2h2.8V144.5z"/>
	<path class="st0" d="M223.8,143.6h2.8v-8h-2.8V143.6z M224.1,135.9h2.1v7.4h-2.1V135.9z"/>
	<path class="st0" d="M223.7,134.9h2.9v-3.1h-2.9V134.9z M224,132.1h2.2v2.5H224V132.1z"/>
	<path class="st0" d="M226.8,143.6h2.8v-8h-2.8V143.6z M227.1,135.9h2.1v7.4h-2.1V135.9z"/>
	<path class="st0" d="M226.7,134.9h2.9v-3.1h-2.9V134.9z M227,132.1h2.2v2.5H227V132.1z"/>
	<path class="st0" d="M229.3,116.8c0-1-0.8-1.9-1.9-1.9h-1.6c-1,0-1.9,0.8-1.9,1.9v8.2h5.4V116.8z M229,124.7h-4.7v-7.9
		c0-0.9,0.7-1.6,1.6-1.6h1.6c0.9,0,1.6,0.7,1.6,1.6V124.7z"/>
	<path class="st0" d="M237.5,192.4h4.8v-11.1h-4.8V192.4z M237.8,181.7h4.2v10.4h-4.2V181.7z"/>
	<path class="st0" d="M242.8,192.4h4.8v-11.1h-4.8V192.4z M243.1,181.7h4.2v10.4h-4.2V181.7z"/>
	<path class="st0" d="M237.5,180.9h10.1v-2.7h-10.1V180.9z M237.8,178.5h9.4v2.1h-9.4V178.5z"/>
	<path class="st0" d="M237.5,174.7v3.1h10.1v-3.1c0-1.7-1.4-3.2-3.2-3.2h-3.7C238.9,171.5,237.5,172.9,237.5,174.7z M240.7,171.8
		h3.7c1.6,0,2.8,1.3,2.8,2.8v2.8h-9.4v-2.8C237.8,173.1,239.1,171.8,240.7,171.8z"/>
	<path class="st0" d="M244.3,149.4c0-0.2,0-0.4-0.1-0.7c-0.1-0.2-0.5-0.6-1.1-0.4c-0.1-0.1-0.3-0.2-0.5-0.2l-0.1,0
		c-0.2,0-0.4,0.1-0.5,0.2c-0.6-0.2-1,0.2-1.1,0.4c-0.1,0.3-0.2,0.5-0.1,0.7h-3.1v15.2h9.7v-15.2H244.3z M241.2,148.9
		c0-0.1,0.3-0.5,0.8-0.2l0.2,0.1l0.1-0.2c0,0,0.1-0.2,0.3-0.2l0.1,0c0.2,0,0.3,0.2,0.3,0.2l0.1,0.2l0.2-0.1c0.5-0.3,0.8,0.2,0.8,0.2
		c0.3,0.6,0,0.9,0,0.9l0,0v0.1c0,0.2,0,0.3-0.1,0.4c-0.1,0.1-0.4,0.1-0.4,0.1l-0.2,0v0.2c0,0.3-0.5,0.4-0.6,0.4l0,0
		c-0.1,0-0.6-0.1-0.6-0.4v-0.2l-0.2,0c0,0-0.2,0-0.4-0.1c-0.1-0.1-0.1-0.2-0.1-0.4l0-0.1l0,0C241.2,149.8,240.9,149.5,241.2,148.9z
		 M247,164.3h-9v-14.5h2.8c0,0.1,0.1,0.2,0.1,0.2c0,0.3,0.1,0.5,0.3,0.6c0.1,0.1,0.3,0.2,0.5,0.2c0.1,0.5,0.8,0.6,0.8,0.6l0,0l0.1,0
		l0,0c0,0,0.7-0.1,0.8-0.6c0.1,0,0.3,0,0.5-0.2c0.2-0.1,0.3-0.4,0.3-0.6c0,0,0.1-0.1,0.1-0.2h2.8V164.3z"/>
	<path class="st0" d="M239.6,163.5h2.8v-8h-2.8V163.5z M240,155.8h2.1v7.4H240V155.8z"/>
	<path class="st0" d="M239.5,154.8h2.9v-3.1h-2.9V154.8z M239.9,152h2.2v2.5h-2.2V152z"/>
	<path class="st0" d="M242.7,163.5h2.8v-8h-2.8V163.5z M243,155.8h2.1v7.4H243V155.8z"/>
	<path class="st0" d="M242.6,154.8h2.9v-3.1h-2.9V154.8z M242.9,152h2.2v2.5h-2.2V152z"/>
	<path class="st0" d="M247.3,129.6h-3c0-0.2,0-0.4-0.1-0.7c-0.1-0.2-0.5-0.6-1.1-0.4c-0.1-0.1-0.3-0.2-0.5-0.2l-0.1,0
		c-0.2,0-0.4,0.1-0.5,0.2c-0.6-0.2-1,0.2-1.1,0.4c-0.1,0.3-0.2,0.5-0.1,0.7h-3.1v15.2h9.7V129.6z M241.2,129.1
		c0-0.1,0.3-0.5,0.8-0.2l0.2,0.1l0.1-0.2c0,0,0.1-0.2,0.3-0.2l0.1,0c0.2,0,0.3,0.2,0.3,0.2l0.1,0.2l0.2-0.1c0.5-0.3,0.8,0.2,0.8,0.2
		c0.3,0.6,0,0.9,0,0.9l0,0v0.1c0,0.2,0,0.3-0.1,0.4c-0.1,0.1-0.4,0.1-0.4,0.1l-0.2,0v0.2c0,0.3-0.5,0.4-0.6,0.4l0,0
		c-0.1,0-0.6-0.1-0.6-0.4v-0.2l-0.2,0c0,0-0.2,0-0.4-0.1c-0.1-0.1-0.1-0.2-0.1-0.4l0-0.1l0,0C241.2,130,240.9,129.6,241.2,129.1z
		 M247,144.5h-9v-14.5h2.8c0,0.1,0.1,0.2,0.1,0.2c0,0.3,0.1,0.5,0.3,0.6c0.1,0.1,0.3,0.2,0.5,0.2c0.1,0.5,0.8,0.6,0.8,0.6l0,0l0.1,0
		l0,0c0,0,0.7-0.1,0.8-0.6c0.1,0,0.3,0,0.5-0.2c0.2-0.1,0.3-0.4,0.3-0.6c0,0,0.1-0.1,0.1-0.2h2.8V144.5z"/>
	<path class="st0" d="M239.7,143.6h2.8v-8h-2.8V143.6z M240,135.9h2.1v7.4H240V135.9z"/>
	<path class="st0" d="M239.6,134.9h2.9v-3.1h-2.9V134.9z M239.9,132.1h2.2v2.5h-2.2V132.1z"/>
	<path class="st0" d="M242.7,143.6h2.8v-8h-2.8V143.6z M243,135.9h2.1v7.4H243V135.9z"/>
	<path class="st0" d="M242.6,134.9h2.9v-3.1h-2.9V134.9z M242.9,132.1h2.2v2.5h-2.2V132.1z"/>
	<path class="st0" d="M245.2,116.8c0-1-0.8-1.9-1.9-1.9h-1.6c-1,0-1.9,0.8-1.9,1.9v8.2h5.4V116.8z M244.9,124.7h-4.7v-7.9
		c0-0.9,0.7-1.6,1.6-1.6h1.6c0.9,0,1.6,0.7,1.6,1.6V124.7z"/>
	<path class="st0" d="M334.9,189.7c1.2,0,2.1-1,2.1-2.1s-1-2.1-2.1-2.1s-2.1,1-2.1,2.1S333.7,189.7,334.9,189.7z M334.9,185.7
		c1,0,1.8,0.8,1.8,1.8c0,1-0.8,1.8-1.8,1.8c-1,0-1.8-0.8-1.8-1.8C333,186.5,333.9,185.7,334.9,185.7z"/>
	<path class="st0" d="M334.9,189c0.8,0,1.5-0.7,1.5-1.5c0-0.8-0.7-1.5-1.5-1.5c-0.8,0-1.5,0.7-1.5,1.5
		C333.4,188.3,334,189,334.9,189z M334.9,186.4c0.6,0,1.1,0.5,1.1,1.1c0,0.6-0.5,1.1-1.1,1.1c-0.6,0-1.1-0.5-1.1-1.1
		C333.7,186.9,334.2,186.4,334.9,186.4z"/>
	<path class="st0" d="M293.3,189.7c1.2,0,2.1-1,2.1-2.1s-1-2.1-2.1-2.1s-2.1,1-2.1,2.1S292.1,189.7,293.3,189.7z M293.3,185.7
		c1,0,1.8,0.8,1.8,1.8c0,1-0.8,1.8-1.8,1.8c-1,0-1.8-0.8-1.8-1.8C291.5,186.5,292.3,185.7,293.3,185.7z"/>
	<path class="st0" d="M293.3,189c0.8,0,1.5-0.7,1.5-1.5c0-0.8-0.7-1.5-1.5-1.5c-0.8,0-1.5,0.7-1.5,1.5
		C291.8,188.3,292.5,189,293.3,189z M293.3,186.4c0.6,0,1.1,0.5,1.1,1.1c0,0.6-0.5,1.1-1.1,1.1s-1.1-0.5-1.1-1.1
		C292.2,186.9,292.7,186.4,293.3,186.4z"/>
	<path class="st0" d="M376.5,189.7c1.2,0,2.1-1,2.1-2.1s-1-2.1-2.1-2.1s-2.1,1-2.1,2.1S375.3,189.7,376.5,189.7z M376.5,185.7
		c1,0,1.8,0.8,1.8,1.8c0,1-0.8,1.8-1.8,1.8c-1,0-1.8-0.8-1.8-1.8C374.7,186.5,375.5,185.7,376.5,185.7z"/>
	<path class="st0" d="M376.5,189c0.8,0,1.5-0.7,1.5-1.5c0-0.8-0.7-1.5-1.5-1.5s-1.5,0.7-1.5,1.5C375,188.3,375.7,189,376.5,189z
		 M376.5,186.4c0.6,0,1.1,0.5,1.1,1.1c0,0.6-0.5,1.1-1.1,1.1s-1.1-0.5-1.1-1.1C375.4,186.9,375.9,186.4,376.5,186.4z"/>
	<path class="st0" d="M418.3,189.7c1.2,0,2.1-1,2.1-2.1s-1-2.1-2.1-2.1c-1.2,0-2.1,1-2.1,2.1S417.1,189.7,418.3,189.7z M418.3,185.7
		c1,0,1.8,0.8,1.8,1.8c0,1-0.8,1.8-1.8,1.8c-1,0-1.8-0.8-1.8-1.8C416.5,186.5,417.3,185.7,418.3,185.7z"/>
	<path class="st0" d="M418.3,189c0.8,0,1.5-0.7,1.5-1.5c0-0.8-0.7-1.5-1.5-1.5c-0.8,0-1.5,0.7-1.5,1.5
		C416.8,188.3,417.5,189,418.3,189z M418.3,186.4c0.6,0,1.1,0.5,1.1,1.1c0,0.6-0.5,1.1-1.1,1.1c-0.6,0-1.1-0.5-1.1-1.1
		C417.1,186.9,417.7,186.4,418.3,186.4z"/>
	<path class="st0" d="M347.1,96.7h22.9c2.4,0,4.4-2,4.4-4.4s-2-4.4-4.4-4.4c-0.7,0-1.3,0.2-2,0.5c-0.7-0.8-1.6-1.3-2.6-1.4
		c-1-2.3-3.2-3.8-5.8-3.8c-2.2,0-4.3,1.2-5.4,3.1c-0.6-0.3-1.4-0.5-2.1-0.5c-1.6,0-3.1,0.9-3.9,2.3c-0.4-0.1-0.8-0.2-1.2-0.2
		c-2.4,0-4.4,2-4.4,4.4S344.7,96.7,347.1,96.7z M347.1,88.3c0.4,0,0.8,0.1,1.2,0.2l0.1,0l0.1-0.1c0.7-1.4,2.1-2.3,3.7-2.3
		c0.7,0,1.5,0.2,2.1,0.6l0.1,0.1l0.1-0.1c1-1.9,3-3.1,5.2-3.1c2.4,0,4.6,1.5,5.5,3.7l0,0.1l0.1,0c1,0.1,1.9,0.6,2.6,1.4l0.1,0.1
		l0.1-0.1c0.6-0.3,1.2-0.5,1.9-0.5c2.2,0,4.1,1.8,4.1,4.1s-1.8,4.1-4.1,4.1h-22.9c-2.2,0-4.1-1.8-4.1-4.1S344.9,88.3,347.1,88.3z"/>
	<path class="st0" d="M278.1,133.3H301c2.4,0,4.4-2,4.4-4.4c0-2.4-2-4.4-4.4-4.4c-0.7,0-1.3,0.2-2,0.5c-0.7-0.8-1.6-1.3-2.6-1.4
		c-1-2.3-3.2-3.8-5.8-3.8c-2.2,0-4.3,1.2-5.4,3.1c-0.6-0.4-1.4-0.5-2.1-0.5c-1.6,0-3.1,0.9-3.9,2.3c-0.4-0.1-0.8-0.2-1.2-0.2
		c-2.4,0-4.4,2-4.4,4.4C273.7,131.3,275.7,133.3,278.1,133.3z M278.1,124.8c0.4,0,0.8,0.1,1.2,0.2l0.1,0l0.1-0.1
		c0.7-1.4,2.1-2.3,3.7-2.3c0.7,0,1.5,0.2,2.1,0.6l0.1,0.1l0.1-0.1c1-1.9,3-3.1,5.2-3.1c2.4,0,4.6,1.5,5.5,3.7l0,0.1l0.1,0
		c1,0.1,1.9,0.6,2.6,1.4l0.1,0.1l0.1-0.1c0.6-0.3,1.2-0.5,1.9-0.5c2.2,0,4.1,1.8,4.1,4.1c0,2.2-1.8,4.1-4.1,4.1h-22.9
		c-2.2,0-4.1-1.8-4.1-4.1C274,126.6,275.9,124.8,278.1,124.8z"/>
	<path class="st0" d="M477.8,193.5v-0.9H476v-0.9h-1.8v-0.8h-2v-0.7h-0.7v-0.8h-1.7v-1h-0.6v-2.1h0.3v-1h-2.2v-2.7h-1.6v-1.6h-1.2
		v-2.9h-0.7v-2h-0.5v-5.8h-0.8v-1.1h-0.5l-0.5-23.5h0l0,0c0,0,0.4-0.2,0.4-0.7v-0.5c0.4-0.1,1-0.6,1-1.4c0,0,0-0.2-0.1-0.3
		c-0.1-0.1-0.3-0.2-0.6-0.2v-1.9h-1.1v-0.4l0.4-0.6l-1.1-1.1v-0.2c0.1-0.1,0.4-0.5,0.4-0.8c0-0.3-0.2-0.6-0.3-0.7c0-0.1,0-0.2,0-0.3
		c0,0,0.2-0.2,0.7-0.3c0.6,0,0.9-0.7,0.9-1c0-0.2,0.2-0.7,0.4-1l0.1-0.2l-0.2,0c-0.2,0-0.8-0.2-1-0.4c-0.1-0.1-0.2-0.2-0.4-0.3
		c0.1-0.1,0.2-0.2,0.2-0.3c0-0.1-0.1-0.3-0.2-0.4c0.5,0,1-0.2,1-0.2l0.5-0.1l-0.8-0.3c0.3-0.2,0.7-0.4,1.1-0.5
		c0.7-0.2,0.6-1.5,0.6-1.9c0.3-0.2,0.6-0.8,0.7-0.9l0-0.1l0-0.1c0,0-0.1-0.3-0.1-1.2c0-0.7-0.1-0.8-0.2-1c0-0.1-0.1-0.1-0.1-0.1
		c-0.1,0-0.2,0-0.4,0.3l-0.3-0.4l-0.1,0.4c0,0-0.2,1-0.2,1.3c0,0.1-0.2,0.5-0.9,1c-0.4,0.3-0.6,0.7-0.6,1c0,0.1-0.2,0.2-0.3,0.3
		l-0.2-0.6l0,0c0,0-0.3-0.6-0.4-0.8c-0.1-0.1-0.1-0.2-0.2-0.3c-0.1-0.1-0.1-0.1-0.1-0.1c0-0.1,0.1-0.2,0.1-0.3
		c0.1-0.1,0.2-0.3,0.2-0.4c0-0.1,0-0.3-0.1-0.4c-0.1-0.1-0.3-0.3-0.5-0.3c-0.1,0-0.1,0-0.2,0.1c0,0-0.1,0.2,0,0.7
		c0,0.2-0.1,0.5-0.2,0.6c-0.1,0.2-0.1,0.3,0,0.4c0,0.1,0.1,0.2,0.2,0.3c0,0-0.1,0-0.1,0l-0.2,0l0.1,0.2c0,0,0.1,0.2,0,0.6
		c0,0.3,0.1,0.4,0.1,0.5c0,0-0.1,0-0.1,0c-0.2,0-0.9-0.5-0.9-0.6c-0.1-0.2-0.3-0.4-0.4-0.4c-0.1-0.1-0.3,0-0.3,0
		c-0.1,0-0.1,0.1-0.1,0.2c0,0.2,0.1,0.5,0.2,0.6l0,0c0,0,0.6,0.5,0.9,0.7l0.1,0c0.3,0.2,0.5,0.3,0.5,0.5c0.1,0.2,0,0.8-0.1,1.3
		c0,0.1-0.1,0.2-0.2,0.3c-0.1,0.1-0.2,0.3-0.2,0.5c0,0.3,0.1,0.5,0.3,0.6c0.1,0.1,0.2,0.2,0.2,0.3c0.1,0.1,0.1,0.4,0,0.6
		c-0.1,0.1-0.1,0.2-0.1,0.2c-0.3,0-0.6,0.5-0.6,0.6l-0.1,0.2l0.2,0.1c0,0,0.2,0.1,0.7,0.1c0.1,0,0.2,0,0.2,0v0.9
		c-0.1,0.1-0.4,0.4-0.4,0.6c0,0.3,0.2,0.6,0.4,0.7v0.2l-1.1,1.2l0.4,0.6v0.3h-1.2v1.9c-0.3,0-0.4,0.1-0.6,0.2
		c-0.1,0.1-0.1,0.3-0.1,0.3c0,0.9,0.6,1.3,1,1.4v0.5c0,0.4,0.3,0.6,0.4,0.7l-0.4,23.5h-0.2v1.1h-0.6v5.8h-0.5v2h-0.8v2.2h-36.1v-0.6
		h-0.2v-1h-0.7v-2.6h1.3v-0.6h0.1v-0.3h-0.4v0.3h0v0.3h-1v-0.3h0.1v-0.3h-0.1v-0.8h0.5h1.1l0.3,0l-0.2-0.3c-0.2-0.2-0.6-0.9-0.6-1.3
		h-0.3c0,0.3-0.2,0.7-0.4,1c-0.2-0.3-0.4-0.7-0.4-1h0v-3h-0.3v3c0,0.3-0.2,0.8-0.4,1.1c-0.2-0.3-0.4-0.7-0.4-1.1h-0.3
		c0,0.4-0.4,1.1-0.6,1.3l-0.2,0.3h1.2h0.4h0.4v0.8H418v0.3h0.1v0.3h-1v-0.3h0.1v-0.3h-0.5v0.3h0.1v0.6h1.3v2.6h-0.7v1h-0.2v0.6
		h-39.6v-0.6h-0.2v-1h-0.7v-2.6h1.3v-0.6h0.1v-0.3h-0.4v0.3h0v0.3h-1v-0.3h0.1v-0.3h-0.1v-0.8h0.5h1.1l0.3,0l-0.2-0.3
		c-0.2-0.2-0.6-0.9-0.6-1.3h-0.3c0,0.3-0.2,0.7-0.4,1c-0.2-0.3-0.4-0.7-0.4-1h0v-3h-0.3v3c0,0.3-0.2,0.8-0.4,1.1
		c-0.2-0.3-0.4-0.7-0.4-1.1h-0.3c0,0.4-0.4,1.1-0.6,1.3l-0.2,0.3h1.2h0.4h0.4v0.8h-0.1v0.3h0.1v0.3h-1v-0.3h0.1v-0.3h-0.5v0.3h0.1
		v0.6h1.3v2.6h-0.7v1h-0.2v0.6h-39.5v-0.6h-0.2v-1H335v-2.6h1.3v-0.6h0.1v-0.3H336v0.3h0v0.3h-1v-0.3h0.1v-0.3H335v-0.8h0.5h1.1
		l0.3,0l-0.2-0.3c-0.2-0.2-0.6-0.9-0.6-1.3h-0.3c0,0.3-0.2,0.7-0.4,1c-0.2-0.3-0.4-0.7-0.4-1h0v-3h-0.3v3c0,0.3-0.2,0.8-0.4,1.1
		c-0.2-0.3-0.4-0.7-0.4-1.1h-0.3c0,0.4-0.4,1.1-0.6,1.3l-0.2,0.3h1.2h0.4h0.4v0.8h-0.1v0.3h0.1v0.3h-1v-0.3h0.1v-0.3h-0.5v0.3h0.1
		v0.6h1.3v2.6H334v1h-0.2v0.6h-39.4v-0.6h-0.2v-1h-0.7v-2.6h1.3v-0.6h0.1v-0.3h-0.4v0.3h0v0.3h-1v-0.3h0.1v-0.3h-0.1v-0.8h0.5h1.1
		l0.3,0l-0.2-0.3c-0.2-0.2-0.6-0.9-0.6-1.3h-0.3c0,0.3-0.2,0.7-0.4,1c-0.2-0.3-0.4-0.7-0.4-1h0v-3h-0.3v3c0,0.3-0.2,0.8-0.4,1.1
		c-0.2-0.3-0.4-0.7-0.4-1.1h-0.3c0,0.4-0.4,1.1-0.6,1.3l-0.2,0.3h1.2h0.4h0.4v0.8H293v0.3h0.1v0.3h-1v-0.3h0.1v-0.3h-0.5v0.3h0.1
		v0.6h1.3v2.6h-0.7v1h-0.2v0.6h-39.6v-52.7h0.1l2.3-1.8l-8.2,0v-9.6c0,0,0-0.1,0-0.1h1.1v-1h-1.3c-0.5-1.4-1.8-2.3-3.2-2.3h-1.8
		c-1.5,0-2.7,0.9-3.2,2.3h-1.1v1h0.9c0,0,0,0.1,0,0.1v9.6l-7.3,0v-9.6c0,0,0-0.1,0-0.1h1.1v-1h-1.3c-0.5-1.4-1.8-2.3-3.2-2.3h-1.8
		c-1.5,0-2.7,0.9-3.2,2.3h-1.1v1h0.9c0,0,0,0.1,0,0.1v9.6l-7.3,0v-9.5c0,0,0-0.1,0-0.1h1.1v-1h-1.3c-0.5-1.4-1.8-2.3-3.2-2.3h-1.8
		c-1.5,0-2.7,0.9-3.2,2.3h-1.1v1h0.9c0,0,0,0.1,0,0.1v9.5l-7.3,0v-9.5c0,0,0-0.1,0-0.1h1.1v-1h-1.3c-0.5-1.4-1.8-2.3-3.2-2.3h-1.8
		c-1.5,0-2.7,0.9-3.2,2.3h-1.1v1h0.9c0,0,0,0.1,0,0.1v9.5l-7.3,0v-9.5c0,0,0-0.1,0-0.1h1.1v-1H183c-0.5-1.4-1.8-2.3-3.2-2.3H178
		c-1.5,0-2.7,0.9-3.2,2.3h-1.1v1h0.9c0,0,0,0.1,0,0.1v9.5l-7.3,0v-9.4c0,0,0-0.1,0-0.1h1.1v-1h-1.3c-0.5-1.4-1.8-2.3-3.2-2.3h-1.8
		c-1.5,0-2.7,0.9-3.2,2.3h-1.1v1h0.9c0,0,0,0.1,0,0.1v9.4l-7.3,0v-9.4c0,0,0-0.1,0-0.1h1.1v-1h-1.3c-0.5-1.4-1.8-2.3-3.2-2.3h-1.8
		c-1.5,0-2.7,0.9-3.2,2.3h-1.1v1h0.9c0,0,0,0.1,0,0.1v9.4l-7.3,0v-9.4c0,0,0-0.1,0-0.1h1.1v-1h-1.3c-0.5-1.4-1.8-2.3-3.2-2.3h-1.8
		c-1.5,0-2.7,0.9-3.2,2.3H126v1h0.9c0,0,0,0.1,0,0.1v9.3l-7.3,0v-9.3c0,0,0-0.1,0-0.1h1.1v-1h-1.3c-0.5-1.4-1.8-2.3-3.2-2.3h-1.8
		c-1.5,0-2.7,0.9-3.2,2.3h-1.1v1h0.9c0,0,0,0.1,0,0.1v9.3l-7.3,0v-9.3c0,0,0-0.1,0-0.1h1.1v-1h-1.3c-0.5-1.4-1.8-2.3-3.2-2.3h-1.8
		c-1.5,0-2.7,0.9-3.2,2.3h-1.1v1h0.9c0,0,0,0.1,0,0.1v9.3l-7.3,0v-9.3c0,0,0-0.1,0-0.1h1.1v-1h-1.3c-0.5-1.4-1.8-2.3-3.2-2.3h-1.8
		c-1.5,0-2.7,0.9-3.2,2.3h-1.1v1h0.9c0,0,0,0.1,0,0.1v9.2l-7.3,0v-9.2c0,0,0-0.1,0-0.1H73v-1h-1.3c-0.5-1.4-1.8-2.3-3.2-2.3h-1.8
		c-1.5,0-2.7,0.9-3.2,2.3h-1.1v1h0.9c0,0,0,0.1,0,0.1v9.2l-7.5,0v-12.6l11.2-3.2h174l11.7,3.2v12.8h0.3v-13l-15.3-4.2l0,0h-18.8
		v-4.1h-4.4v4.1h-27v-4.1h-4.4v4.1h-21.9V106l1.3-1.2H161v-9.8l-1-1.7v-0.4h0.4v-0.7H160v-0.6h0.4v-0.7H160v-0.7h0.4v-0.7H160v-0.9
		h-0.9v0.9h-0.3V86v0v-7.4l1.3-1.5h-2.3v-3l-0.6-1.3l-0.2-1.3h0.5v-0.8h-0.6l-0.1-0.4h0.5v-0.8h-0.7l-0.1-0.4h0.4v-0.8h-0.6
		l-0.1-0.4h0.5v-0.8h-0.7l-0.1-0.4h0.5v-0.8H156l-0.1-0.4h0.5v-0.8h-0.6l-0.1-0.4h0.4v-0.8h-0.6l-0.1-0.4h0.4v-0.8h-0.5l-0.3-1.9
		l-0.4,1.9h-0.5v0.8h0.4l-0.1,0.4h-0.5v0.8h0.4l-0.1,0.4h-0.6v0.8h0.4l-0.1,0.4h-0.6v0.8h0.4l-0.1,0.4h-0.6v0.8h0.4l-0.1,0.4h-0.5
		v0.8h0.3l-0.1,0.4h-0.5v0.8h0.4l-0.1,0.4h-0.5v0.8h0.3l-0.3,0.6v0L147.9,6l0-0.2H147V1h1.1V0.7H147V0h-0.3v0.7h-1.2V1h1.2v4.8h-0.9
		l-4.5,64.8h-0.4l-0.1-0.4h0.4v-0.8h-0.5l-0.1-0.4h0.3v-0.8h-0.5l-0.1-0.4h0.4v-0.8h-0.6l-0.1-0.4h0.4v-0.8h-0.6l-0.1-0.4h0.4v-0.8
		h-0.6l-0.1-0.4h0.4v-0.8h-0.5l-0.1-0.4h0.4v-0.8h-0.5l-0.4-1.9l-0.3,1.9h-0.5v0.8h0.4l-0.1,0.4h-0.6v0.8h0.4l-0.1,0.4h-0.6v0.8h0.5
		l-0.1,0.4h-0.7v0.8h0.5l-0.1,0.4H137v0.8h0.5l-0.1,0.4h-0.6v0.8h0.4l-0.1,0.4h-0.7v0.8h0.5l-0.1,0.4h-0.6v0.8h0.5l-0.2,1.3l0.2,0
		l-0.5,1.5v11.6h0v1.6h-25v-1.6v-0.2V74.3l-0.5-1.5l0.2,0l-0.2-1.3h0.5v-0.8h-0.6l-0.1-0.4h0.5v-0.8h-0.7l-0.1-0.4h0.4v-0.8h-0.6
		l-0.1-0.4h0.5v-0.8h-0.7l-0.1-0.4h0.5v-0.8h-0.7l-0.1-0.4h0.5v-0.8h-0.6l-0.1-0.4h0.4v-0.8h-0.6l-0.1-0.4h0.4v-0.8h-0.5l-0.3-1.9
		l-0.4,1.9H108v0.8h0.4l-0.1,0.4h-0.5v0.8h0.4l-0.1,0.4h-0.6v0.8h0.4l-0.1,0.4h-0.6v0.8h0.4l-0.1,0.4H107v0.8h0.4l-0.1,0.4h-0.5v0.8
		h0.3l-0.1,0.4h-0.5v0.8h0.4l-0.1,0.4h-0.4L102,6l0-0.2H101V1h1.2V0.7H101V0h-0.3v0.7h-1.1V1h1.1v4.8h-0.8l-4.7,66.2v0l-0.3-0.6h0.3
		v-0.8h-0.5l-0.1-0.4H95v-0.8h-0.5l-0.1-0.4h0.3v-0.8h-0.5l-0.1-0.4h0.4v-0.8H94l-0.1-0.4h0.4v-0.8h-0.6l-0.1-0.4h0.4v-0.8h-0.6
		l-0.1-0.4h0.4v-0.8h-0.5l-0.1-0.4h0.4v-0.8H93l-0.4-1.9l-0.3,1.9h-0.5v0.8h0.4l-0.1,0.4h-0.6v0.8H92l-0.1,0.4h-0.6v0.8h0.5
		l-0.1,0.4H91v0.8h0.5l-0.1,0.4h-0.7v0.8h0.5l-0.1,0.4h-0.6v0.8h0.4l-0.1,0.4h-0.7v0.8h0.5l-0.1,0.4h-0.6v0.8h0.5l-0.2,1.3L89.9,74
		v3h-2.3l1.3,1.5V86v0v3.5h-0.3v-0.9h-0.9v0.9h-0.4v0.7h0.4v0.7h-0.4v0.7h0.4v0.6h-0.4v0.7h0.4v0.4l-1,1.7v9.8h-1.5l1.3,1.2v2.3
		H70.2l-3.2,0.9h-0.8v0.2l-10.5,3l-0.1,0v12.9l-0.6,0l-2.1,0.5l1.9,1.6v66.6h-4.4v0.3h4.4h3.8h190.2h3.6h0.2v-0.5
		c0.5,0,4.5,0.4,7.9,0.2c3.4-0.2,12.8,0.2,16,0.3l0.6,0c1.5,0.1,5.5-0.1,8.8-0.2c1.9-0.1,3.6-0.1,4.2-0.1h0c0.7,0,1.9,0.1,3,0.2
		c1.5,0.1,2.9,0.2,3.4,0.1c0.7-0.2,5.2-0.6,9.7-0.3c4.2,0.2,13.2,0.1,16.3,0c1.3-0.1,3.4,0,5.6,0c2.7,0,5.5,0.1,7.1,0
		c1.5-0.1,3.3-0.1,4.9,0c1.5,0.1,2.8,0.1,3.6,0c1.4-0.2,17-1.1,20.3-0.7l0.6,0.1c3.4,0.4,8.9,1,11.4,1c0.1,0,0.1,0,0.2,0
		c0.6,0,1.5,0,2.5,0c3,0,6.7,0,7.9-0.3c1.1-0.2,9.8-0.1,16.1-0.1c2.5,0,4.7,0.1,5.9,0.1c1.7,0,3.1,0.1,4.2,0.1
		c1.7,0.1,2.8,0.1,3.9-0.1c0.8-0.1,2.7-0.1,4.9,0c2.8,0.1,5.9,0.2,8.2,0c1.7-0.2,5.3-0.1,8.1,0c0.6,0,1.2,0,1.7,0v0.6H480v-1.3
		H477.8z M457.8,129.9c-0.1-0.1-0.1-0.2-0.1-0.2C457.7,129.7,457.9,129.8,457.8,129.9c0.1,0.1,0.2,0.2,0.3,0.3
		C458,130,457.8,129.9,457.8,129.9z M459.7,127.5c0,0.1,0.1,0.1,0,0.1c0,0.1,0,0.1-0.1,0.2c0,0,0,0,0,0l0,0l0,0
		C459.6,127.6,459.6,127.5,459.7,127.5C459.6,127.4,459.7,127.5,459.7,127.5z M459.5,128.6c0,0.1,0.1,0.2,0.1,0.2
		c0,0,0.1,0.1,0.1,0.1c0,0-0.1-0.1-0.1-0.1c-0.1,0-0.1-0.1-0.1-0.1C459.5,128.7,459.5,128.6,459.5,128.6z M459.6,138.6l0-0.5l-0.1,0
		c-0.2-0.2-0.3-0.4-0.3-0.5c0-0.1,0.2-0.4,0.3-0.5l0.1,0v-1c0-0.1,0-0.1,0-0.2c-0.1-0.2-0.3-0.2-0.5-0.2c-0.2,0-0.3,0-0.4,0
		c0.1-0.1,0.2-0.3,0.2-0.3c0.1,0,0.2,0,0.4-0.3c0.2-0.3,0.2-0.7,0.1-1c-0.1-0.1-0.2-0.2-0.2-0.3c-0.1-0.1-0.2-0.3-0.2-0.4
		c0-0.1,0.1-0.2,0.2-0.3c0.1-0.1,0.2-0.2,0.2-0.4c0.1-0.3,0.2-1.1,0.1-1.5c-0.1-0.3-0.4-0.5-0.7-0.7l-0.1,0c0,0-0.1,0-0.1-0.1
		c0.2,0.1,0.4,0.2,0.5,0.2c0.2,0,0.4,0,0.4-0.1c0.1-0.1,0.1-0.1,0.1-0.2c0-0.1-0.1-0.1-0.1-0.2c-0.1-0.1-0.1-0.1-0.1-0.3
		c0-0.2,0-0.4,0-0.5c0.1,0,0.2,0,0.3,0.1c0,0.1,0.1,0.2,0.2,0.1c0,0,0.1,0,0.1-0.1c0,0.1,0.1,0.2,0.1,0.2l0.3,0.9l0.2-0.1
		c0.1,0,0.7-0.2,0.7-0.7c0-0.3,0.1-0.5,0.4-0.8c1-0.8,1-1.1,1-1.2c0-0.2,0.1-0.6,0.1-0.9l0.1,0.2l0.1-0.2c0.1-0.1,0.2-0.2,0.2-0.3
		c0,0.1,0.1,0.2,0.1,0.7c0,0.7,0.1,1.1,0.1,1.2c-0.1,0.3-0.4,0.7-0.6,0.7l-0.1,0l0,0.1c0.1,0.5,0.1,1.6-0.3,1.7
		c-0.7,0.2-1.5,0.7-1.5,0.7l-0.3,0.2l0.4,0.1c-0.3,0-0.6,0.1-0.8,0l-0.7-0.1l0.6,0.4c0.2,0.1,0.4,0.4,0.4,0.4c0,0-0.2,0.1-0.3,0.1
		l-0.6,0l0.5,0.3c0,0,0.3,0.2,0.6,0.4c0.2,0.2,0.7,0.4,1,0.4c-0.1,0.3-0.3,0.7-0.3,0.9c0,0.2-0.2,0.7-0.6,0.7c-0.6,0-1,0.3-1,0.6
		c0,0.2,0,0.4,0,0.4l0,0.1l0.1,0.1c0.1,0.1,0.3,0.3,0.3,0.5c0,0.2-0.2,0.5-0.4,0.6l0,0v0.5l1,1l-0.3,0.4v0.6h-1.8v-0.4l-0.3-0.5
		L459.6,138.6z M419.4,173.5c0.1,0.2,0.2,0.4,0.3,0.6h-0.7C419.2,173.9,419.3,173.7,419.4,173.5z M418.6,174.1h-0.2v-0.3
		C418.5,173.9,418.6,174,418.6,174.1z M416.8,174.1c0.1-0.2,0.2-0.4,0.3-0.6c0.1,0.2,0.2,0.4,0.3,0.6H416.8z M418,174.1
		c0.1-0.1,0.1-0.2,0.2-0.3v0.3H418z M377.6,173.5c0.1,0.2,0.2,0.4,0.3,0.6h-0.7C377.4,173.9,377.5,173.7,377.6,173.5z M376.8,174.1
		h-0.2v-0.3C376.7,173.9,376.8,174,376.8,174.1z M375,174.1c0.1-0.2,0.2-0.4,0.3-0.6c0.1,0.2,0.2,0.4,0.3,0.6H375z M376.2,174.1
		c0.1-0.1,0.1-0.2,0.2-0.3v0.3H376.2z M335.9,173.5c0.1,0.2,0.2,0.4,0.3,0.6h-0.7C335.7,173.9,335.9,173.7,335.9,173.5z
		 M335.2,174.1H335v-0.3C335.1,173.9,335.1,174,335.2,174.1z M333.3,174.1c0.1-0.2,0.2-0.4,0.3-0.6c0.1,0.2,0.2,0.4,0.3,0.6H333.3z
		 M334.5,174.1c0.1-0.1,0.1-0.2,0.2-0.3v0.3H334.5z M294.4,173.5c0.1,0.2,0.2,0.4,0.3,0.6h-0.7C294.2,173.9,294.3,173.7,294.4,173.5
		z M293.6,174.1h-0.2v-0.3C293.5,173.9,293.6,174,293.6,174.1z M291.8,174.1c0.1-0.2,0.2-0.4,0.3-0.6c0.1,0.2,0.2,0.4,0.3,0.6H291.8
		z M293,174.1c0.1-0.1,0.1-0.2,0.2-0.3v0.3H293z M237.6,115.7v-0.4h1l0-0.1c0.4-1.3,1.6-2.1,2.9-2.1h1.8c1.3,0,2.5,0.9,2.9,2.1
		l0,0.1h1.2v0.4h-1.1l0,0.2c0,0.1,0,0.2,0,0.3v9.5h-7.9v-9.5c0-0.1,0-0.2,0-0.3l0-0.2H237.6z M221.7,115.7v-0.4h1l0-0.1
		c0.4-1.3,1.6-2.1,2.9-2.1h1.8c1.3,0,2.5,0.9,2.9,2.1l0,0.1h1.2v0.4h-1.1l0,0.2c0,0.1,0,0.2,0,0.3v9.5h-7.9v-9.5c0-0.1,0-0.2,0-0.3
		l0-0.2H221.7z M205.8,115.7v-0.4h1l0-0.1c0.4-1.3,1.6-2.1,2.9-2.1h1.8c1.3,0,2.5,0.9,2.9,2.1l0,0.1h1.2v0.4h-1.1l0,0.2
		c0,0.1,0,0.2,0,0.3v9.5h-7.9v-9.5c0-0.1,0-0.2,0-0.3l0-0.2H205.8z M189.9,115.7v-0.4h1l0-0.1c0.4-1.3,1.6-2.1,2.9-2.1h1.8
		c1.3,0,2.5,0.9,2.9,2.1l0,0.1h1.2v0.4h-1.1l0,0.2c0,0.1,0,0.2,0,0.3v9.5h-7.9v-9.5c0-0.1,0-0.2,0-0.3l0-0.2H189.9z M214.8,104.6
		h3.7v3.7h-3.7V104.6z M183.4,104.6h3.7v3.7h-3.7V104.6z M88.9,92.2h-0.3v-0.6h0.3V92.2z M88.9,94.3l-0.3-0.7v-0.7h0.3V94.3z
		 M89.7,83.2L89.7,83.2l0.4-0.1v-1.2h-0.4v-0.1h0.4v-1.3h-0.4v-0.1h0.4v-0.9h0.2v0.9h0.4v0.1h-0.4v1.3h0.4v0.1h-0.4v1.2h0.4v0.1
		h-0.4v1.1l0.8,1.7v3.5h0v0.7h0v0.7h0v0.7h0.4v0.6h-0.4v0.7h0.4v0.4l-0.8,1.9v0.2h-1.5v-0.4l0,0v-9l0.9-1.8v-1H89.7z M92.8,83.1
		L92.8,83.1l0.4-0.1v-1.2h-0.4v-0.1h0.4v-1.3h-0.4v-0.1h0.4v-0.9h0.2v0.9H94v0.1h-0.4v1.3H94v0.1h-0.4V83H94v0.1h-0.4v1.1l0.8,1.7
		v2.8h-0.1v0.9h-0.4v0.7h0.4v0.7h-0.4v0.7h0.4v0.6h-0.4v0.7h0.4v0.6l-0.9,1.8l-0.8-1.7v-0.8h0.4v-0.7h-0.4v-0.6h0.4v-0.7h-0.4v-0.7
		h0.4v-0.7h-0.4v-0.9h-0.1V86l0.9-1.8v-1H92.8z M95.2,89.8L95.2,89.8l-0.4,0.1v1.3h0.4v0.1h-0.4v1.2h0.4v0.1h-0.4v1.1l0.8,1.7v9.5
		h-1.9v-9.4l0.9-1.8v-1h-0.4v-0.1h0.4v-1.2h-0.4v-0.1h0.4v-1.3h-0.4v-0.1h0.4V89h0.2v0.9H95.2z M111.4,90.1h25V99h-0.9v-5.5
		c0-0.6-0.4-1.1-0.9-1.3c0.1-0.1,0.1-0.3,0.1-0.5c0-0.5-0.4-0.9-0.9-0.9s-0.9,0.4-0.9,0.9c0,0.2,0.1,0.4,0.2,0.5
		c-0.5,0.2-0.8,0.7-0.8,1.3V99h-0.5v-5.5c0-0.6-0.4-1.1-0.9-1.3c0.1-0.1,0.1-0.3,0.1-0.5c0-0.5-0.4-0.9-0.9-0.9s-0.9,0.4-0.9,0.9
		c0,0.2,0.1,0.4,0.2,0.5c-0.5,0.2-0.8,0.7-0.8,1.3V99h-0.5v-5.5c0-0.6-0.4-1.1-0.9-1.3c0.1-0.1,0.1-0.3,0.1-0.5
		c0-0.5-0.4-0.9-0.9-0.9s-0.9,0.4-0.9,0.9c0,0.2,0.1,0.4,0.2,0.5c-0.5,0.2-0.8,0.7-0.8,1.3V99h-0.5v-5.5c0-0.6-0.4-1.1-0.9-1.3
		c0.1-0.1,0.1-0.3,0.1-0.5c0-0.5-0.4-0.9-0.9-0.9c-0.5,0-0.9,0.4-0.9,0.9c0,0.2,0.1,0.4,0.2,0.5c-0.5,0.2-0.8,0.7-0.8,1.3V99h-0.5
		v-5.5c0-0.6-0.4-1.1-0.9-1.3c0.1-0.1,0.1-0.3,0.1-0.5c0-0.5-0.4-0.9-0.9-0.9s-0.9,0.4-0.9,0.9c0,0.2,0.1,0.4,0.2,0.5
		c-0.5,0.2-0.8,0.7-0.8,1.3V99H116v-5.5c0-0.6-0.4-1.1-0.9-1.3c0.1-0.1,0.1-0.3,0.1-0.5c0-0.5-0.4-0.9-0.9-0.9s-0.9,0.4-0.9,0.9
		c0,0.2,0.1,0.4,0.2,0.5c-0.5,0.2-0.8,0.7-0.8,1.3V99h-1.3V90.1z M140,74.3L140,74.3l0.6-2.1l0.3,2.1v11.2h0.2l0,0.2H140V74.4
		L140,74.3z M152.5,92.6L152.5,92.6l0.4-0.1v-1.2h-0.4v-0.1h0.4v-1.3h-0.4v-0.1h0.4V89h0.2v0.9h0.4v0.1h-0.4v1.3h0.4v0.1h-0.4v1.2
		h0.4v0.1h-0.4v1l0.9,1.8v8.8h-1.9v-8.9l0.8-1.7v-1.1H152.5z M153.8,83.1L153.8,83.1l0.4-0.1v-1.2h-0.4v-0.1h0.4v-1.3h-0.4v-0.1h0.4
		v-0.9h0.2v0.9h0.4v0.1h-0.4v1.3h0.4v0.1h-0.4V83h0.4v0.1h-0.4v1l0.9,1.8v2.7h-0.1v0.9h-0.4v0.7h0.4v0.7h-0.4v0.7h0.4v0.6h-0.4v0.7
		h0.4v0.8l-0.8,1.7l-0.9-1.8v-0.6h0.4v-0.7h-0.4v-0.6h0.4v-0.7h-0.4v-0.7h0.4v-0.7h-0.4v-0.9h-0.1v-2.8l0.8-1.7v-1.1H153.8z
		 M156.2,89.8L156.2,89.8l-0.4,0.1v1.3h0.4v0.1h-0.4v1.2h0.4v0.1h-0.4v0.8l0.8,1.9v8.9h-1.9v-8.8l0.8-1.7v-1.2h-0.4v-0.1h0.4v-1.2
		h-0.4v-0.1h0.4v-1.3h-0.4v-0.1h0.4V89h0.2v0.9H156.2z M156.9,83.2L156.9,83.2l0.4-0.1v-1.2h-0.4v-0.1h0.4v-1.3h-0.4v-0.1h0.4v-0.9
		h0.2v0.9h0.4v0.1h-0.4v1.3h0.4v0.1h-0.4v1.2h0.4v0.1h-0.4v1l0.9,1.8v9v0.4H157v-0.2l-0.8-1.9v-0.4h0.4v-0.7h-0.4v-0.6h0.4v-0.7h0
		v-0.7h0v-0.7h0V86l0.8-1.7v-1.1H156.9z M158.8,91.6h0.3v0.6h-0.3V91.6z M158.8,92.9h0.3v0.7l-0.3,0.7V92.9z M141.5,85.7v-2.9
		l0.3-2.2l0.3,2.2v21.9h-0.6V85.7z M145.9,83.3v-0.5l0.3-2.2l0.3,2.2v21.9h-0.6V83.3z M150.1,104.8H147V83.3c0-0.8,0.6-1.4,1.4-1.4
		h0.3c0.8,0,1.4,0.6,1.4,1.4V104.8z M145.6,104.8h-3.1V83.3c0-0.8,0.6-1.4,1.4-1.4h0.3c0.8,0,1.4,0.6,1.4,1.4V104.8z M151.6,106.2
		v2.1h-14.9v-2.1H151.6z M152,108.3v-2.1h3.7v2.1H152z M156.1,106.2h4.9v2.1h-4.9V106.2z M152,105.9v-0.7h2.5h1.3v0.7H152z
		 M152.2,104.6h1.9v0.2h-1.9V104.6z M154.4,104.8v-0.2h1.3v0.2H154.4z M156.1,104.6h0.9v-8.8h1.5v9h-2.4V104.6z M156.1,90.9v-0.7
		h0.1L156.1,90.9L156.1,90.9z M151.6,105.9h-14.9v-0.7h4.5h1h0.3h3.1h0.3h0.8h0.1h3.3h0.3h0.9h0.3V105.9z M151.1,104.8h-0.6v-22
		l0.3-2.2l0.3,2.2V104.8z M150.2,82.4c-0.3-0.5-0.8-0.8-1.4-0.8h-0.3c-0.7,0-1.3,0.4-1.6,1.1l-0.5-3.9h4.4L150.2,82.4z M145.6,82.4
		c-0.3-0.5-0.8-0.8-1.4-0.8h-0.3c-0.6,0-1.2,0.3-1.5,0.8l-0.5-3.7h4.2L145.6,82.4z M141.3,81.9v-3.1h0.4L141.3,81.9z M139.7,85.7
		H138V75l0.9-2.6l0.8,2.1V85.7z M141.2,86v18.8h-4.5V86H141.2z M133.4,92.1c-0.1-0.1-0.2-0.3-0.2-0.5c0-0.3,0.3-0.6,0.6-0.6
		c0.3,0,0.6,0.3,0.6,0.6c0,0.2-0.1,0.3-0.2,0.4l-0.2,0.2l0.3,0.1c0.5,0.1,0.9,0.5,0.9,1.1V99h-2.7v-5.5c0-0.5,0.3-0.9,0.8-1.1
		l0.3-0.1L133.4,92.1z M129.5,92.1c-0.1-0.1-0.2-0.3-0.2-0.5c0-0.3,0.3-0.6,0.6-0.6s0.6,0.3,0.6,0.6c0,0.2-0.1,0.3-0.2,0.4l-0.2,0.2
		l0.3,0.1c0.5,0.1,0.9,0.5,0.9,1.1V99h-2.7v-5.5c0-0.5,0.3-0.9,0.8-1.1l0.3-0.1L129.5,92.1z M125.6,92.1c-0.1-0.1-0.2-0.3-0.2-0.5
		c0-0.3,0.3-0.6,0.6-0.6s0.6,0.3,0.6,0.6c0,0.2-0.1,0.3-0.2,0.4l-0.2,0.2l0.3,0.1c0.5,0.1,0.9,0.5,0.9,1.1V99h-2.7v-5.5
		c0-0.5,0.3-0.9,0.8-1.1l0.3-0.1L125.6,92.1z M121.7,92.1c-0.1-0.1-0.2-0.3-0.2-0.5c0-0.3,0.3-0.6,0.6-0.6c0.3,0,0.6,0.3,0.6,0.6
		c0,0.2-0.1,0.3-0.2,0.4l-0.2,0.2l0.3,0.1c0.5,0.1,0.9,0.5,0.9,1.1V99h-2.7v-5.5c0-0.5,0.3-0.9,0.8-1.1l0.3-0.1L121.7,92.1z
		 M117.8,92.1c-0.1-0.1-0.2-0.3-0.2-0.5c0-0.3,0.3-0.6,0.6-0.6s0.6,0.3,0.6,0.6c0,0.2-0.1,0.3-0.2,0.4l-0.2,0.2l0.3,0.1
		c0.5,0.1,0.9,0.5,0.9,1.1V99h-2.7v-5.5c0-0.5,0.3-0.9,0.8-1.1l0.3-0.1L117.8,92.1z M113.9,92.1c-0.1-0.1-0.2-0.3-0.2-0.5
		c0-0.3,0.3-0.6,0.6-0.6s0.6,0.3,0.6,0.6c0,0.2-0.1,0.3-0.2,0.4l-0.2,0.2l0.3,0.1c0.5,0.1,0.9,0.5,0.9,1.1V99H113v-5.5
		c0-0.5,0.3-0.9,0.8-1.1l0.3-0.1L113.9,92.1z M111.4,99.3h1.3h3.4h0.5h3.4h0.5h3.4h0.5h3.4h0.5h3.4h0.5h3.4h0.9v2.8h-25V99.3z
		 M111.4,102.4h25v2.4h0v0h-11.6v-0.6h-4.4v0.6h-9V102.4z M97.6,83.3c0-0.8,0.6-1.4,1.4-1.4h0.3c0.8,0,1.4,0.6,1.4,1.4v21.5h-3.1
		V83.3z M101.8,83.3C101.8,83.3,101.8,83.3,101.8,83.3l0,21.5h-0.6V82.9l0.3-2.2l0.3,2.2V83.3z M102.2,83.3c0-0.8,0.6-1.4,1.4-1.4
		h0.3c0.8,0,1.4,0.6,1.4,1.4v21.5h-3.1V83.3z M106.2,104.8h-0.6V82.9l0.3-2.2l0.3,2.2V104.8z M111,104.8h-4.5V86h4.5V104.8z
		 M109.7,85.7H108V74.5l0.8-2.1l0.9,2.6V85.7z M107.7,74.5v11.3h-1.2v-0.2h0.2V74.3l0.3-2.1l0.6,2.1l0,0L107.7,74.5z M106.4,82
		l-0.4-3.2h0.4V82z M105.3,82.5c-0.3-0.5-0.8-0.8-1.5-0.8h-0.3c-0.6,0-1.1,0.3-1.4,0.8l-0.5-3.6h4.2L105.3,82.5z M100.9,82.7
		c-0.3-0.6-0.9-1.1-1.6-1.1H99c-0.6,0-1.1,0.3-1.4,0.8l-0.5-3.6h4.4L100.9,82.7z M97.3,82.9v0.5v21.5h-0.6V82.9l0.3-2.2L97.3,82.9z
		 M97.3,105.1h0.3h3.3h0.1h0.8h0.3h3.1h0.3h0.6v0h4.8v0.7H93.3v-0.7h2.6h0.5H97.3z M92.2,89v0.9h0.4v0.1h-0.4v1.3h0.4v0.1h-0.4v1.2
		h0.4v0.1h-0.4v1.2l0.8,1.7v8.8h-1.9v-8.9l0.8-1.9v-0.8h-0.4v-0.1h0.4v-1.2h-0.4v-0.1h0.4v-1.3h-0.4v-0.1h0.4V89H92.2z M91.5,90.9
		v-0.7h0.1L91.5,90.9L91.5,90.9z M90.8,95.8v8.4h-1.5v-8.4H90.8z M90.8,104.6H93v0.2h-3.7v-0.2H90.8z M93,105.1v0.7h-3.7v-0.7H93z
		 M93,106.2v2.1h-3.7v-2.1H93z M93.3,108.3v-2.1H111v2.1H93.3z M111.4,106.2v-0.3v-0.7h9v3.2h-9V106.2z M120.7,108.3v-3.7h3.7v3.7
		H120.7z M124.7,105.1h11.6v0.7h0v2.4h-11.6V105.1z M161.7,105.1l-0.8,0.7h-4.9v-0.7h2.4h2.5H161.7z M159,89.8h0.4V89h0.2v0.9h0.4
		v0.1h-0.4v1.3h0.4v0.1h-0.4v1.2h0.4v0.1h-0.4v0.8l1,1.7v9.7h-1.9v-9v-0.7l0.6-1.5v-1.1H159v-0.1h0.4v-1.2H159v-0.1h0.4v-1.3
		L159,89.8L159,89.8z M159.1,90.2v0.7h-0.3v-0.7H159.1z M157.9,84.2v-0.6h0.4v-0.7h-0.4v-0.6h0.4v-0.7h-0.4v-0.7h0.4v-0.7h-0.4v-0.9
		H157v0.9h-0.4v0.7h0.4v0.7h-0.4v0.7h0.4v0.6h-0.4v0.7h0.4v0.7l-0.8,1.7v3.6h-0.1v-0.9h-0.5v-2.8l-0.9-1.8v-0.6h0.4v-0.7h-0.4v-0.6
		h0.4v-0.7h-0.4v-0.7h0.4V80h-0.4v-0.9h-0.9V80h-0.4v0.7h0.4v0.7h-0.4v0.7h0.4v0.6h-0.4v0.7h0.4v0.7l-0.8,1.7v2.9h-0.5v0.9h-0.4v0.7
		h0.4v0.7h-0.4v0.7h0.4v0.6h-0.4v0.7h0.4v0.7l-0.8,1.7v9h-0.2v0.6h-0.3V82.9l-0.6-4.1h7.7v6.5L157.9,84.2z M158.5,78.4L158.5,78.4
		l-7.7,0l0-0.2l0,0.2h-4.5l0-0.2l0,0.2h-4.3l0-0.2l0,0.2h-0.5v-2.7h11.3v1.3h-11.2v0.3h18L158.5,78.4z M153.6,70.5l0.6,0.9v5.7h-1.3
		v-5L153.6,70.5z M154.6,71.8l0.4-1l0.6,1.9v4.3h-1V71.8z M157.5,77.1h-1.6v-4l0.1,0l0.5-1.2l0.9,2.2V77.1z M153.1,69.9v-0.2h0.5
		l0.2-1h-0.4v-0.2h0.4l0.2-1h-0.5v-0.2h0.5l0.2-1h-0.5v-0.2h0.5l0.2-1H154V65h0.5l0.2-1h-0.5v-0.2h0.5l0.2-1h-0.5v-0.2h0.5l0.1-0.4
		l0.1,0.4h0.5v0.2h-0.5l0.2,1h0.5V64h-0.5l0.2,1h0.6v0.2h-0.5l0.2,1h0.6v0.2h-0.6l0.2,1h0.6v0.2H156l0.2,1h0.5v0.2h-0.5l0.2,1h0.6
		v0.2h-0.6l0.2,1h0.6v0.2h-0.6l0.1,0.3l-0.1-0.3l-0.7,1.5l-0.8-2.7l-0.6,1.2l-0.9-1.3l-0.1,0.1H153.1z M152.9,71.1v-0.2h0.2
		L152.9,71.1L152.9,71.1z M146.1,6.2h1.5l4.7,65.6h-10.7L146.1,6.2z M152.6,72.1v3.3h-11.3v-1.1l-0.5-2.9h0.4l0,0.5l0,0.2H152.6z
		 M141,70.9v0.2h-0.2v0.1l0-0.2H141z M136.7,71.1v-0.2h0.6l0.2-1h-0.6v-0.2h0.6l0.2-1h-0.5v-0.2h0.5l0.2-1h-0.6v-0.2h0.6l0.2-1h-0.6
		v-0.2h0.6l0.2-1h-0.5V65h0.6l0.2-1H138v-0.2h0.5l0.2-1h-0.5v-0.2h0.5l0.1-0.4l0.1,0.4h0.5v0.2h-0.5l0.2,1h0.5V64h-0.5l0.2,1h0.5
		v0.2h-0.5l0.2,1h0.5v0.2h-0.5l0.2,1h0.5v0.2h-0.5l0.2,1h0.4v0.2h-0.4l0.2,1h0.5v0.2h-0.4l0.2,1h0.1l-0.8,2.9l-0.9-2.4l-1,2.8
		l-0.7-2.9l-0.2,0.5l0.1-0.7H136.7z M137.2,72.6l0.4,2l0.1,0l-0.2,0.4v10.8h-1V74.3L137.2,72.6z M136.4,87.8v2h-25v-2H136.4z
		 M111,85.7h-1V74.9l-0.2-0.4l0.1,0l0.4-2l0.5,1.8V85.7z M107,69.9v-0.2h0.5l0.2-1h-0.4v-0.2h0.4l0.2-1h-0.5v-0.2h0.5l0.2-1h-0.5
		v-0.2h0.5l0.2-1h-0.5V65h0.5l0.2-1h-0.5v-0.2h0.5l0.2-1h-0.5v-0.2h0.5l0.1-0.4l0.1,0.4h0.5v0.2H109l0.2,1h0.5V64h-0.5l0.2,1h0.6
		v0.2h-0.5l0.2,1h0.6v0.2h-0.6l0.2,1h0.6v0.2h-0.6l0.2,1h0.5v0.2h-0.5l0.2,1h0.6v0.2h-0.6l0.2,1h0.6v0.2h-0.6l0.1,0.7l-0.2-0.5
		l-0.7,2.9l-1-2.8l-0.9,2.4l-0.8-2.9h0.1l0.2-1H107z M106.8,71h0.2l0,0.2v-0.1h-0.2V71z M100.2,6.2h1.5l4.6,65.6H95.5L100.2,6.2z
		 M106.6,72.1l0-0.6h0.4l-0.5,2.8l0,0v1.1H95.1v-3.3H106.6z M93.5,77.1v-5.7l0.6-0.9l0.7,1.6v5H93.5z M93.2,77.1h-1v-4.3l0.6-1.9
		l0.4,1V77.1z M94.8,71v0.2h-0.1L94.7,71H94.8z M90.5,71.1V71h0.6l0.2-1h-0.6v-0.2h0.6l0.2-1H91v-0.2h0.5l0.2-1h-0.6v-0.2h0.6l0.2-1
		h-0.6v-0.2H92l0.2-1h-0.5V65h0.6l0.2-1h-0.5v-0.2h0.5l0.2-1h-0.5v-0.2h0.5l0.1-0.4l0.1,0.4h0.5v0.2h-0.5l0.2,1h0.5V64H93l0.2,1h0.5
		v0.2h-0.5l0.2,1H94v0.2h-0.5l0.2,1h0.5v0.2h-0.5l0.2,1h0.4v0.2H94l0.2,1h0.5v0.2h-0.4l-0.1-0.1l-0.9,1.3l-0.6-1.2l-0.8,2.7
		l-0.7-1.5L91,71.4l0.1-0.3H90.5z M90.2,74.1l0.9-2.2l0.5,1.2l0.1,0v4h-1.6V74.1z M88.3,77.4h18v-0.3H95.1v-1.3h11.3v2.7H106l0-0.2
		l0,0.2h-4.3l0-0.2l0,0.2H97l0-0.2l0,0.2h-7.7v0L88.3,77.4z M89.3,78.8h7.7l-0.6,4.1l0,22h-0.5v-9.6l-0.8-1.7v-0.7h0.4v-0.7h-0.4
		v-0.6h0.4v-0.7h-0.4v-0.7h0.4v-0.7h-0.4v-0.9h-0.5v-2.9l-0.8-1.7v-0.7h0.4v-0.7h-0.4v-0.6h0.4v-0.7h-0.4v-0.7h0.4V80h-0.4v-0.9
		h-0.9V80h-0.4v0.7h0.4v0.7h-0.4v0.7h0.4v0.6h-0.4v0.7h0.4v0.6L92,85.9v2.8h-0.5v0.9h-0.1v-3.6l-0.8-1.7v-0.7h0.4v-0.7h-0.4v-0.6
		h0.4v-0.7h-0.4v-0.7h0.4v-0.7h-0.4v-0.9h-0.9v0.9h-0.4v0.7h0.4v0.7h-0.4v0.7h0.4v0.6h-0.4v0.7h0.4v0.6l-0.6,1.2V78.8z M88.9,90.9
		h-0.3v-0.7h0.3V90.9z M87.1,95.1l1-1.7v-0.8h-0.4v-0.1H88v-1.2h-0.4v-0.1H88v-1.3h-0.4v-0.1H88V89h0.2v0.9h0.4v0.1h-0.4v1.3h0.4
		v0.1h-0.4v1.2h0.4v0.1h-0.4v1.1l0.6,1.5v0.7h0v8.4v0.6h-1.9V95.1z M86.7,105.1h2.2v0.7h-2.2l-0.8-0.7H86.7z M86.8,106.2h2.1v2.1
		h-2.1V106.2z M70.3,108.6h16.2v0h2.4h4.4h18v0h9v0h4.4v0h26.9v0h4.4v0h27.1v0h4.4v0h27v0h4.4v0h18.8l2.2,0.6H68.2L70.3,108.6z
		 M477.5,193v0.6h-35.3V193h1.3v0H476v0H477.5z M475.6,192.1v0.6h-31.8v-0.6h1.7h28.6H475.6z M473.8,191.8h-27.9v-0.5h27.9V191.8z
		 M471.8,190.6v0.4h-24.1v-0.4h0.4h23.3H471.8z M471.1,190.3h-22.7v-0.5h22.7V190.3z M469.4,189.4h-19.1v-0.6h19.1V189.4z
		 M450.5,186.5c-0.1,0-0.2-0.1-0.2-0.1L450.5,186.5L450.5,186.5z M468.8,188.4h-17.9v-2.1h17.9V188.4z M469.1,186h-18.5v-0.2h18.5
		V186z M466.9,183v2.4h-14.3V183h1.1h11.9H466.9z M465.3,181.4v1.3h-11.3v-1.3h1.5h8.9H465.3z M457.7,140.9h4.1v1.5h-4.1V140.9z
		 M457.9,144.1c0,0-0.9-0.2-0.9-1.2c0-0.1,0.1-0.2,0.4-0.2h4.7c0.3,0,0.4,0.1,0.4,0.2c0,1-0.8,1.1-0.9,1.2l-0.1,0v0.8
		c0,0.2-0.2,0.3-0.2,0.4h-3c-0.1,0-0.2-0.2-0.2-0.4v-0.8L457.9,144.1z M458.4,145.6h2.6l0.5,23.5H458L458.4,145.6z M457.8,169.5h4.2
		h0.2v0.8h-4.3V169.5z M457.1,170.6h0.3h5h0.4v5.5h-5.7V170.6z M456.7,176.4h0.1h6.4h0.2v1.7h-6.7V176.4z M455.8,178.5h0.5h7.4h0.4
		v2.6h-8.2V178.5z M455.5,181.1h-1.8v1.2h-0.6v-1.6h2.4V181.1z M420.2,182.2v-1.6h0.8v1.6H420.2z M421.3,180.7h0.8v1.6h-0.8V180.7z
		 M422.4,180.7h0.8v1.6h-0.8V180.7z M423.5,180.7h0.8v1.6h-0.8V180.7z M424.6,180.7h0.8v1.6h-0.8V180.7z M425.7,180.7h0.8v1.6h-0.8
		V180.7z M426.8,180.7h0.8v1.6h-0.8V180.7z M427.9,180.7h0.8v1.6h-0.8V180.7z M429,180.7h0.8v1.6H429V180.7z M430.1,180.7h0.8v1.6
		h-0.8V180.7z M431.2,180.7h0.8v1.6h-0.8V180.7z M432.3,180.7h0.8v1.6h-0.8V180.7z M433.4,180.7h0.8v1.6h-0.8V180.7z M434.5,180.7
		h0.8v1.6h-0.8V180.7z M435.5,180.7h0.8v1.6h-0.8V180.7z M436.6,180.7h0.8v1.6h-0.8V180.7z M437.7,180.7h0.8v1.6h-0.8V180.7z
		 M438.8,180.7h0.8v1.6h-0.8V180.7z M439.9,180.7h0.8v1.6h-0.8V180.7z M441,180.7h0.8v1.6H441V180.7z M442.1,180.7h0.8v1.6h-0.8
		V180.7z M443.2,180.7h0.8v1.6h-0.8V180.7z M444.3,180.7h0.8v1.6h-0.8V180.7z M445.4,180.7h0.8v1.6h-0.8V180.7z M446.5,180.7h0.8
		v1.6h-0.8V180.7z M447.6,180.7h0.8v1.6h-0.8V180.7z M448.7,180.7h0.8v1.6h-0.8V180.7z M449.8,180.7h0.8v1.6h-0.8V180.7z
		 M450.9,180.7h0.8v1.6h-0.8V180.7z M452,180.7h0.8v1.6H452V180.7z M419.9,180.7v1.6h-0.5v-1.6H419.9z M417.5,180.7h0.2v1.6h-0.2
		V180.7z M418,180.7h0.8v1.6H418V180.7z M417.7,179.1h1.1v0.7h-1.1V179.1z M417.5,180.1h1.5v0.3h-1.5V180.1z M417.2,182.2h-0.3v-1.6
		h0.3V182.2z M378.5,182.2v-1.6h0.8v1.6H378.5z M379.6,180.7h0.8v1.6h-0.8V180.7z M380.7,180.7h0.8v1.6h-0.8V180.7z M381.8,180.7
		h0.8v1.6h-0.8V180.7z M382.9,180.7h0.8v1.6h-0.8V180.7z M384,180.7h0.8v1.6H384V180.7z M385.1,180.7h0.8v1.6h-0.8V180.7z
		 M386.2,180.7h0.8v1.6h-0.8V180.7z M387.3,180.7h0.8v1.6h-0.8V180.7z M388.4,180.7h0.8v1.6h-0.8V180.7z M389.5,180.7h0.8v1.6h-0.8
		V180.7z M390.6,180.7h0.8v1.6h-0.8V180.7z M391.7,180.7h0.8v1.6h-0.8V180.7z M392.8,180.7h0.8v1.6h-0.8V180.7z M393.9,180.7h0.8
		v1.6h-0.8V180.7z M395,180.7h0.8v1.6H395V180.7z M396.1,180.7h0.8v1.6h-0.8V180.7z M397.2,180.7h0.8v1.6h-0.8V180.7z M398.3,180.7
		h0.8v1.6h-0.8V180.7z M399.4,180.7h0.8v1.6h-0.8V180.7z M400.5,180.7h0.8v1.6h-0.8V180.7z M401.6,180.7h0.8v1.6h-0.8V180.7z
		 M402.7,180.7h0.8v1.6h-0.8V180.7z M403.8,180.7h0.8v1.6h-0.8V180.7z M404.8,180.7h0.8v1.6h-0.8V180.7z M405.9,180.7h0.8v1.6h-0.8
		V180.7z M407,180.7h0.8v1.6H407V180.7z M408.1,180.7h0.8v1.6h-0.8V180.7z M409.2,180.7h0.8v1.6h-0.8V180.7z M410.3,180.7h0.8v1.6
		h-0.8V180.7z M411.4,180.7h0.8v1.6h-0.8V180.7z M412.5,180.7h0.8v1.6h-0.8V180.7z M413.6,180.7h0.8v1.6h-0.8V180.7z M414.7,180.7
		h0.8v1.6h-0.8V180.7z M415.8,180.7h0.8v1.6h-0.8V180.7z M378.2,180.7v1.6h-0.6v-1.6H378.2z M375.7,180.7h0.3v1.6h-0.3V180.7z
		 M376.3,180.7h0.8v1.6h-0.8V180.7z M375.9,179.1h1.1v0.7h-1.1V179.1z M375.7,180.1h1.5v0.3h-1.5V180.1z M375.4,182.2h-0.2v-1.6h0.2
		V182.2z M336.9,182.2v-1.6h0.8v1.6H336.9z M338,180.7h0.8v1.6H338V180.7z M339.1,180.7h0.8v1.6h-0.8V180.7z M340.2,180.7h0.8v1.6
		h-0.8V180.7z M341.3,180.7h0.8v1.6h-0.8V180.7z M342.4,180.7h0.8v1.6h-0.8V180.7z M343.5,180.7h0.8v1.6h-0.8V180.7z M344.5,180.7
		h0.8v1.6h-0.8V180.7z M345.6,180.7h0.8v1.6h-0.8V180.7z M346.7,180.7h0.8v1.6h-0.8V180.7z M347.8,180.7h0.8v1.6h-0.8V180.7z
		 M348.9,180.7h0.8v1.6h-0.8V180.7z M350,180.7h0.8v1.6H350V180.7z M351.1,180.7h0.8v1.6h-0.8V180.7z M352.2,180.7h0.8v1.6h-0.8
		V180.7z M353.3,180.7h0.8v1.6h-0.8V180.7z M354.4,180.7h0.8v1.6h-0.8V180.7z M355.5,180.7h0.8v1.6h-0.8V180.7z M356.6,180.7h0.8
		v1.6h-0.8V180.7z M357.7,180.7h0.8v1.6h-0.8V180.7z M358.8,180.7h0.8v1.6h-0.8V180.7z M359.9,180.7h0.8v1.6h-0.8V180.7z M361,180.7
		h0.8v1.6H361V180.7z M362.1,180.7h0.8v1.6h-0.8V180.7z M363.2,180.7h0.8v1.6h-0.8V180.7z M364.3,180.7h0.8v1.6h-0.8V180.7z
		 M365.4,180.7h0.8v1.6h-0.8V180.7z M366.5,180.7h0.8v1.6h-0.8V180.7z M367.6,180.7h0.8v1.6h-0.8V180.7z M368.7,180.7h0.8v1.6h-0.8
		V180.7z M369.8,180.7h0.8v1.6h-0.8V180.7z M370.9,180.7h0.8v1.6h-0.8V180.7z M372,180.7h0.8v1.6H372V180.7z M373.1,180.7h0.8v1.6
		h-0.8V180.7z M374.2,180.7h0.8v1.6h-0.8V180.7z M336.5,180.7v1.6h-0.6v-1.6H336.5z M334.1,180.7h0.3v1.6h-0.3V180.7z M334.7,180.7
		h0.8v1.6h-0.8V180.7z M334.3,179.1h1.1v0.7h-1.1V179.1z M334.1,180.1h1.5v0.3h-1.5V180.1z M333.8,182.2h-0.2v-1.6h0.2V182.2z
		 M295.2,182.2v-1.6h0.8v1.6H295.2z M296.3,180.7h0.8v1.6h-0.8V180.7z M297.4,180.7h0.8v1.6h-0.8V180.7z M298.5,180.7h0.8v1.6h-0.8
		V180.7z M299.6,180.7h0.8v1.6h-0.8V180.7z M300.7,180.7h0.8v1.6h-0.8V180.7z M301.8,180.7h0.8v1.6h-0.8V180.7z M302.9,180.7h0.8
		v1.6h-0.8V180.7z M304,180.7h0.8v1.6H304V180.7z M305.1,180.7h0.8v1.6h-0.8V180.7z M306.2,180.7h0.8v1.6h-0.8V180.7z M307.3,180.7
		h0.8v1.6h-0.8V180.7z M308.4,180.7h0.8v1.6h-0.8V180.7z M309.5,180.7h0.8v1.6h-0.8V180.7z M310.6,180.7h0.8v1.6h-0.8V180.7z
		 M311.7,180.7h0.8v1.6h-0.8V180.7z M312.8,180.7h0.8v1.6h-0.8V180.7z M313.9,180.7h0.8v1.6h-0.8V180.7z M314.9,180.7h0.8v1.6h-0.8
		V180.7z M316,180.7h0.8v1.6H316V180.7z M317.1,180.7h0.8v1.6h-0.8V180.7z M318.2,180.7h0.8v1.6h-0.8V180.7z M319.3,180.7h0.8v1.6
		h-0.8V180.7z M320.4,180.7h0.8v1.6h-0.8V180.7z M321.5,180.7h0.8v1.6h-0.8V180.7z M322.6,180.7h0.8v1.6h-0.8V180.7z M323.7,180.7
		h0.8v1.6h-0.8V180.7z M324.8,180.7h0.8v1.6h-0.8V180.7z M325.9,180.7h0.8v1.6h-0.8V180.7z M327,180.7h0.8v1.6H327V180.7z
		 M328.1,180.7h0.8v1.6h-0.8V180.7z M329.2,180.7h0.8v1.6h-0.8V180.7z M330.3,180.7h0.8v1.6h-0.8V180.7z M331.4,180.7h0.8v1.6h-0.8
		V180.7z M332.5,180.7h0.8v1.6h-0.8V180.7z M294.9,180.7v1.6h-0.5v-1.6H294.9z M292.5,180.7h0.2v1.6h-0.2V180.7z M293,180.7h0.8v1.6
		H293V180.7z M292.7,179.1h1.1v0.7h-1.1V179.1z M292.5,180.1h1.5v0.3h-1.5V180.1z M292.2,182.2h-0.3v-1.6h0.3V182.2z M254.6,182.2
		v-1.6h0.8v1.6H254.6z M255.7,180.7h0.8v1.6h-0.8V180.7z M256.8,180.7h0.8v1.6h-0.8V180.7z M257.9,180.7h0.8v1.6h-0.8V180.7z
		 M259,180.7h0.8v1.6H259V180.7z M260.1,180.7h0.8v1.6h-0.8V180.7z M261.2,180.7h0.8v1.6h-0.8V180.7z M262.3,180.7h0.8v1.6h-0.8
		V180.7z M263.4,180.7h0.8v1.6h-0.8V180.7z M264.5,180.7h0.8v1.6h-0.8V180.7z M265.6,180.7h0.8v1.6h-0.8V180.7z M266.7,180.7h0.8
		v1.6h-0.8V180.7z M267.8,180.7h0.8v1.6h-0.8V180.7z M268.9,180.7h0.8v1.6h-0.8V180.7z M270,180.7h0.8v1.6H270V180.7z M271.1,180.7
		h0.8v1.6h-0.8V180.7z M272.2,180.7h0.8v1.6h-0.8V180.7z M273.3,180.7h0.8v1.6h-0.8V180.7z M274.4,180.7h0.8v1.6h-0.8V180.7z
		 M275.5,180.7h0.8v1.6h-0.8V180.7z M276.6,180.7h0.8v1.6h-0.8V180.7z M277.7,180.7h0.8v1.6h-0.8V180.7z M278.8,180.7h0.8v1.6h-0.8
		V180.7z M279.9,180.7h0.8v1.6h-0.8V180.7z M281,180.7h0.8v1.6H281V180.7z M282.1,180.7h0.8v1.6h-0.8V180.7z M283.2,180.7h0.8v1.6
		h-0.8V180.7z M284.2,180.7h0.8v1.6h-0.8V180.7z M285.3,180.7h0.8v1.6h-0.8V180.7z M286.4,180.7h0.8v1.6h-0.8V180.7z M287.5,180.7
		h0.8v1.6h-0.8V180.7z M288.6,180.7h0.8v1.6h-0.8V180.7z M289.7,180.7h0.8v1.6h-0.8V180.7z M290.8,180.7h0.8v1.6h-0.8V180.7z
		 M254.3,180.7v1.6h-1.8v-1.6H254.3z M174,115.7v-0.4h1l0-0.1c0.4-1.3,1.6-2.1,2.9-2.1h1.8c1.3,0,2.5,0.9,2.9,2.1l0,0.1h1.2v0.4
		h-1.1l0,0.2c0,0.1,0,0.2,0,0.3v9.5h-1.5l-6.4,0v-9.5c0-0.1,0-0.2,0-0.3l0-0.2H174z M158.1,115.7v-0.4h1l0-0.1
		c0.4-1.3,1.6-2.1,2.9-2.1h1.8c1.3,0,2.5,0.9,2.9,2.1l0,0.1h1.2v0.4h-1.1l0,0.2c0,0.1,0,0.2,0,0.3v9.4l-7.9,0v-9.4
		c0-0.1,0-0.2,0-0.3l0-0.2H158.1z M142.3,115.7v-0.4h1l0-0.1c0.4-1.3,1.6-2.1,2.9-2.1h1.8c1.3,0,2.5,0.9,2.9,2.1l0,0.1h1.2v0.4H151
		l0,0.2c0,0.1,0,0.2,0,0.3v9.4l-7.9,0v-9.4c0-0.1,0-0.2,0-0.3l0-0.2H142.3z M126.4,115.7v-0.4h1l0-0.1c0.4-1.3,1.6-2.1,2.9-2.1h1.8
		c1.3,0,2.5,0.9,2.9,2.1l0,0.1h1.2v0.4h-1.1l0,0.2c0,0.1,0,0.2,0,0.3v9.4l-7.9,0v-9.3c0-0.1,0-0.2,0-0.3l0-0.2H126.4z M110.5,115.7
		v-0.4h1l0-0.1c0.4-1.3,1.6-2.1,2.9-2.1h1.8c1.3,0,2.5,0.9,2.9,2.1l0,0.1h1.2v0.4h-1.1l0,0.2c0,0.1,0,0.2,0,0.3v9.3l-7.9,0v-9.3
		c0-0.1,0-0.2,0-0.3l0-0.2H110.5z M94.6,115.7v-0.4h1l0-0.1c0.4-1.3,1.6-2.1,2.9-2.1h1.8c1.3,0,2.5,0.9,2.9,2.1l0,0.1h1.2v0.4h-1.1
		l0,0.2c0,0.1,0,0.2,0,0.3v9.3l-7.9,0v-9.3c0-0.1,0-0.2,0-0.3l0-0.2H94.6z M78.7,115.7v-0.4h1l0-0.1c0.4-1.3,1.6-2.1,2.9-2.1h1.8
		c1.3,0,2.5,0.9,2.9,2.1l0,0.1h1.2v0.4h-1.1l0,0.2c0,0.1,0,0.2,0,0.3v9.3l-7.9,0v-9.2c0-0.1,0-0.2,0-0.3l0-0.2H78.7z M62.8,115.7
		v-0.4h1l0-0.1c0.4-1.3,1.6-2.1,2.9-2.1h1.8c1.3,0,2.5,0.9,2.9,2.1l0,0.1h1.2v0.4h-1.1l0,0.2c0,0.1,0,0.2,0,0.3v9.2l-7.9,0v-9.2
		c0-0.1,0-0.2,0-0.3l0-0.2H62.8z M55,125.7l8.3,0v0.3h8.6v-0.2l7.3,0v0.2h8.6v-0.2l7.3,0v0.2h8.6v-0.2l7.3,0v0.2h8.6v-0.1l7.3,0v0.1
		h8.6v-0.1l7.3,0v0.1h8.6v-0.1l7.3,0v0h8.6v0l7.3,0v0h6.8l72.7,0.2l-1.5,1.1h-3.7v0H58.6v0H55l-1.4-1.2L55,125.7z M58.6,166.7h190
		v1.2h-190V166.7z M58.6,166.4v-18.7h190.2v18.7H58.6z M58.6,146.2h190v1.2h-190V146.2z M248.8,145.9H58.6v-18.3h190.2V145.9z
		 M55.1,194.1v-66.5h3.1v18.3v1.8v18.7v1.8v25.9H55.1z M58.6,194.1v-25.9h190.2v4.9c-0.4-1.5-1.7-2.5-3.3-2.5H245
		c0.1-0.2,0.3-0.6,0.3-0.9c0-0.6-0.3-0.7-0.6-0.7c-0.4,0-0.6,0.5-0.7,0.6l0,0c0,0-0.1,0.5-0.6,0.6c0,0,0,0,0-0.1
		c0-0.7-0.4-1.3-0.9-1.3c-0.5,0-0.9,0.6-0.9,1.3c0,0,0,0,0,0.1c-0.5-0.1-0.6-0.6-0.6-0.6l0,0c0-0.1-0.3-0.6-0.7-0.6
		c-0.3,0-0.6,0.1-0.6,0.7c0,0.3,0.2,0.6,0.3,0.9h-0.5c-1.9,0-3.4,1.5-3.4,3.4v19.3h12.6v0.8H58.6z M240.2,169.7
		c0-0.3,0.1-0.4,0.3-0.4c0.1,0,0.3,0.2,0.3,0.4c0.1,0.3,0.3,0.7,0.8,0.8h-1.1C240.4,170.4,240.2,170,240.2,169.7z M241.8,170.9
		c0.2,0.3,0.4,0.6,0.7,0.6c0.3,0,0.6-0.2,0.7-0.6h2.2c1.7,0,3.1,1.4,3.1,3.1v19h-12.1v-19c0-1.7,1.4-3.1,3.1-3.1H241.8z M242,170.2
		c0-0.5,0.3-0.9,0.6-0.9s0.6,0.4,0.6,0.9c0,0.5-0.3,0.9-0.6,0.9S242,170.7,242,170.2z M244.6,170.6h-1.1c0.5-0.1,0.8-0.6,0.8-0.8
		c0.1-0.2,0.2-0.4,0.3-0.4c0.2,0,0.3,0,0.3,0.4C245,170,244.7,170.4,244.6,170.6z M249.1,194.1v-66.5h3.1v66.5H249.1z M252.6,182.6
		h39.6h2.2h39.4h2.2h39.5h2.2h39.6h2.2h34.4v0.1h-1.4v2.7h-2.1v1c-3.4-1.1-7.6-1.8-11.2-1.8c-8.5,0-16,2.8-18.8,6.9H416
		c-2.8-4.1-10.3-6.9-18.8-6.9c-8.5,0-16,2.8-18.8,7l-4.1,0c-2.7-4.2-10.3-7-18.8-7c-8.4,0-15.9,2.8-18.7,6.9l-4.3,0
		c-2.8-4.1-10.3-6.9-18.7-6.9c-8.3,0-15.7,2.8-18.6,6.9H291c-2.6-4.2-10.2-7-18.9-7c-9.8,0-17.9,3.7-19.6,8.6V182.6z M285.8,193.9
		c-3.2,0.1-7.3,0.3-8.7,0.2l-0.6,0c-3.1-0.1-12.6-0.5-16-0.3c-1.3,0.1-2.7,0.1-3.9,0c1.6-4.1,8.1-7.1,15.6-7.1c7.5,0,14,3,15.6,7.1
		C287.1,193.9,286.5,193.9,285.8,193.9z M322.4,193.8c-3.1,0.1-12,0.2-16.3,0c-2.9-0.2-5.9,0-7.8,0.1c1.7-4.1,8.1-7,15.6-7
		c7.4,0,13.8,2.9,15.5,7c-0.4,0-0.9,0-1.3,0C325.8,193.8,323.7,193.7,322.4,193.8z M364,193.1c-3.4-0.4-19,0.5-20.4,0.7
		c-0.7,0.1-2,0.1-3.5,0c0,0,0,0,0,0c1.7-4,8.1-6.9,15.5-6.9c7.4,0,13.8,2.9,15.5,7c-2.2-0.2-4.7-0.5-6.5-0.7L364,193.1z
		 M416.7,193.9c-1,0.2-2,0.2-3.4,0.1c-0.7-2.1-2.7-4-5.6-5.3c-2.9-1.4-6.6-2.1-10.3-2.1c-3.8,0-7.4,0.8-10.3,2.1
		c-2.9,1.4-4.9,3.3-5.6,5.3l0.3,0.1c1.5-4.2,8.1-7.2,15.6-7.2c7.5,0,14,3,15.6,7.1c0,0,0,0,0,0c-1.1,0-2.5-0.1-4.2-0.1
		c-1.2,0-3.4,0-5.9-0.1c-6.7-0.1-15-0.2-16.2,0.1c-1.2,0.2-5,0.2-7.8,0.2c-1,0-1.9,0-2.5,0c-1.1,0-2.8-0.1-4.8-0.3
		c-0.8-2-2.7-3.9-5.6-5.2c-2.9-1.4-6.6-2.1-10.3-2.1c-3.8,0-7.4,0.8-10.3,2.1c-2.8,1.3-4.7,3.1-5.5,5.1c-1.5-0.1-3.2-0.1-4.6,0
		c-1.2,0.1-3.3,0.1-5.4,0c-0.8-2-2.8-3.9-5.6-5.2c-2.9-1.4-6.6-2.1-10.3-2.1c-3.8,0-7.4,0.8-10.3,2.1c-2.8,1.3-4.8,3.2-5.6,5.3
		c-0.7,0.1-1.3,0.1-1.5,0.2c-0.4,0.1-1.9,0-3.3-0.1c-1.1-0.1-2.3-0.2-3-0.2h0c-0.4,0-1.1,0-2,0c-0.8-2.1-2.7-3.9-5.6-5.3
		c-2.9-1.4-6.6-2.1-10.3-2.1c-3.8,0-7.4,0.8-10.3,2.1c-2.8,1.3-4.8,3.2-5.6,5.3c-1.6-0.1-3-0.2-3.5-0.2c0.6-2.4,2.8-4.6,6.2-6.2
		c3.6-1.7,8.3-2.6,13.2-2.6c8.6,0,16.1,2.8,18.6,6.9l0,0.1h4.6l0-0.1c2.8-4.1,10.2-6.8,18.4-6.8c8.4,0,15.8,2.7,18.5,6.8l0,0.1
		l4.6,0l0-0.1c2.7-4.1,10.1-6.8,18.5-6.8c8.5,0,15.9,2.8,18.6,6.9l0,0.1l4.5,0l0-0.1c2.6-4.1,10.1-6.9,18.6-6.9
		c8.4,0,15.8,2.8,18.5,6.9l0,0.1h4.6l0-0.1c2.7-4.1,10.1-6.9,18.5-6.9c3.7,0,8,0.7,11.5,1.9v1.6H450v0.8c-3.4-1.7-7.5-2.6-11-2.6
		c-3.8,0-7.4,0.8-10.3,2.1c-2.9,1.3-4.8,3.2-5.6,5.3c-0.5,0-1,0-1.4-0.1C419.4,193.8,417.5,193.8,416.7,193.9z M437.9,193.9
		c-2.9-0.1-6.4-0.1-8.2,0c-1.8,0.2-4.1,0.1-6.3,0.1c1.6-4.1,8.1-7.1,15.6-7.1c3.4,0,7.3,0.9,10.7,2.5h-1.6v0.8h-0.7v0.7h-1.9v0.8h-2
		v0.9h-1.7v0.9h-2.2v0.4C439.1,193.9,438.5,193.9,437.9,193.9z M479.7,194.5h-39.7v-0.6h1.9h36h1.8V194.5z"/>
</g>
</svg>
