<?xml version="1.0" encoding="UTF-8"?>
<svg width="194px" height="201px" viewBox="0 0 194 201" version="1.1" xmlns="http://www.w3.org/2000/svg" xmlns:xlink="http://www.w3.org/1999/xlink">
    <title>campagne</title>
    <g id="Landing" stroke="none" stroke-width="1" fill="none" fill-rule="evenodd">
        <g id="campagne" fill-rule="nonzero">
            <path d="M0.0383256842,124.679202 C0.556573031,105.232853 11.0247818,87.434392 27.7221221,77.6101204 C51.9287267,65.2376761 78.9438323,80.8377146 92.3845161,88.5704924 C105.8252,96.3032701 128.694423,109.549855 132.50596,133.353362 C136.919319,162.334468 111.107857,194.341444 81.2842499,200.124217 C39.6916862,207.789753 -1.43279393,163.679299 0.0383256842,124.679202 Z" id="Path" fill="#F1F6F7"></path>
            <path d="M29.3125295,196.973394 C27.9470468,196.974188 26.6004185,196.654817 25.3808652,196.040945 C20.6495403,193.510012 20.6495403,186.849664 20.6495403,183.652696 C19.6499647,150.817176 21.5158393,126.107282 21.5158393,125.840868 C21.8377673,124.224624 21.5020243,122.546788 20.582902,121.178624 C19.9831566,120.645796 19.3167728,120.579193 17.9840052,120.579193 C16.4272187,120.730813 14.8627258,120.380737 13.5192339,119.58014 C10.3872301,117.382225 9.92076144,113.719033 9.38765441,103.72851 C8.5213555,87.4772589 9.05446252,84.8131194 11.5200825,82.9482217 C14.7540078,80.5827451 19.1482129,80.5827451 22.3821382,82.9482217 C24.3146511,84.6133089 24.7144814,86.8778275 24.3812895,100.731353 L24.3812895,101.397388 C24.3812895,105.460201 24.3812895,108.457358 25.2475884,109.123393 C26.0758301,109.585971 27.0848819,109.585971 27.9131236,109.123393 C29.579083,107.857926 27.9131236,102.063423 26.6469944,97.4677822 C24.5812047,90.0081915 22.182223,81.616152 26.6469944,76.9539078 C28.3669406,74.7278991 31.3005143,73.8216329 33.977216,74.6893892 C38.0421571,76.4210799 37.3757733,83.0814287 36.5094744,91.4734682 C35.6431755,99.8655078 34.6435998,109.589617 38.9750944,112.32036 C40.363567,113.229838 42.1167069,113.380029 43.6397808,112.719981 C45.9721241,110.98829 43.6397808,102.463044 41.2407992,95.669488 C38.0421571,85.4125508 34.5769614,74.8891996 40.1079468,70.2269554 C42.0898043,68.523019 44.814069,67.9683667 47.3048916,68.7616787 C52.5026852,71.2260078 51.1699176,81.0833241 49.5705965,92.5391241 C48.2378289,102.130026 46.5718695,114.052051 50.7034489,116.249966 C51.9742955,116.924889 53.4975434,116.924889 54.76839,116.249966 C57.0340949,114.584879 56.1011576,106.59246 52.0362165,82.9482217 C51.1177138,79.4971445 50.7356315,75.9254218 50.9033641,72.3582671 C52.9691538,61.7017089 64.7641468,55.9738089 79.957697,49.6464775 C113.809993,35.393331 129.270097,28.9327927 135.667381,33.3952264 C142.064666,37.8576601 141.531559,43.985181 140.998451,61.0356741 C140.998451,68.8948857 140.465344,78.752202 140.598621,91.8730892 C140.598621,103.062475 141.198367,111.854136 141.531559,119.38033 C142.397857,137.962703 142.731049,145.622104 136.333765,149.684917 C129.936481,153.74773 117.874934,148.885675 94.3515867,138.895152 C82.8897856,134.033097 71.4279846,128.571611 60.3660138,122.843711 C59.4643315,122.365518 59.1212289,121.247291 59.5996725,120.346081 C60.0781162,119.44487 61.1969293,119.101947 62.0986116,119.58014 C73.0273057,125.374644 84.4224683,130.702923 95.817631,135.564978 C116.80872,144.489845 129.13682,149.884728 134.667806,146.621157 C140.198791,143.357586 139.132577,136.497426 138.332916,119.247123 C137.999724,111.987343 137.533256,102.929268 137.399979,91.6066752 C137.399979,78.2859775 137.399979,68.5618682 137.799809,60.6360531 C138.332916,43.9185775 138.266278,38.9233159 133.868145,35.8595554 C129.470012,32.795795 111.07782,40.2553857 81.4237413,52.976652 C67.09649,58.9709659 56.1011576,64.2326415 54.3019214,72.9576985 C54.3117991,76.1215078 54.6920012,79.2732979 55.4347738,82.3487903 C60.1660987,109.722824 60.8324824,115.650535 56.8341797,118.714295 C54.5680292,120.21777 51.6705709,120.395591 49.2374046,119.180519 C47.602463,118.275894 46.3836828,116.77113 45.8388473,114.9845 L45.3723787,115.384121 C42.8125665,117.019009 39.5357552,117.019009 36.975943,115.384121 C30.8452122,111.587722 31.9114263,100.86456 32.9110019,91.4068648 C33.444109,86.0785857 34.1771311,78.8188054 32.4445333,78.0861671 C30.7119355,77.3535287 29.9789133,78.485788 29.045976,79.5514438 C25.9139722,82.8816182 27.979762,90.2746054 29.8456365,96.8683508 C31.7115111,103.462096 33.444109,109.523014 29.8456365,112.12055 C27.818269,113.432466 25.2091662,113.432466 23.1817987,112.12055 C20.5162636,110.388859 20.6495403,107.058685 20.7828171,101.530595 L20.7828171,100.86456 C20.7828171,88.8759322 20.7828171,86.3449996 19.9165182,85.6123613 C17.9052081,84.2472065 15.2639905,84.2472065 13.2526804,85.6123613 C12.1198279,86.4116031 11.7199977,89.4753636 12.4530198,103.595303 C12.9861268,113.186205 13.5192339,115.650535 15.1851933,116.916001 C15.971094,117.369713 16.8829405,117.556661 17.7840901,117.448829 C19.5539123,117.312839 21.3048802,117.888198 22.6486917,119.047312 C24.4061587,121.004163 25.2107689,123.636054 24.8477582,126.240489 C24.8477582,126.240489 22.9818836,151.08359 23.9814593,183.7193 C23.9814593,186.117025 23.9814593,191.645115 27.0468247,193.243598 C28.8787186,194.205762 31.0972534,194.051061 32.7777252,192.843978 C35.3766219,190.779269 35.04343,186.183629 34.9767917,184.185524 C34.3770463,175.393864 34.4436846,157.544129 34.9767917,121.311831 C34.9941416,120.834781 35.2005551,120.384201 35.5505481,120.059378 C35.9005411,119.734555 36.365391,119.562145 36.8426663,119.58014 C37.2846286,119.597456 37.7015611,119.78972 38.0015656,120.114554 C38.3015701,120.439389 38.4600188,120.870128 38.4419873,121.311831 C37.7756036,157.077904 37.7089652,175.194053 38.4419873,183.785903 C39.2268636,187.969745 37.963866,192.27654 35.04343,195.37491 C33.3818521,196.567259 31.3517363,197.133506 29.3125295,196.973394 Z M45.0391868,71.5590252 C43.8929715,71.6817387 42.8174339,72.172488 41.9738214,72.9576985 C38.2420722,76.1546659 41.374076,86.2783961 44.1062495,94.8702461 L45.5056554,99.2660764 C45.5056554,97.0015578 46.0387625,94.6704357 46.3719544,92.2727101 C47.5714452,83.8806706 49.0374895,73.4239229 46.0387625,72.2916636 C45.7827518,71.9567056 45.4357739,71.7023883 45.0391868,71.5590252 L45.0391868,71.5590252 Z" id="Shape" fill="#066CA0"></path>
            <path d="M149.734898,24.9542311 C149.433556,25.0152563 149.121938,25.0152563 148.820595,24.9542311 C148.005699,24.4456412 147.757946,23.4220383 148.257947,22.6296247 L162.746133,0.977576603 C162.958292,0.561554855 163.338046,0.243102223 163.800577,0.0933446308 C164.263109,-0.0564129612 164.769885,-0.0249995601 165.207718,0.180568697 C165.598588,0.411649091 165.872325,0.783687635 165.965317,1.21022619 C166.058308,1.63676475 165.962456,2.080661 165.700035,2.43875776 L151.28218,24.2236405 C150.920653,24.6877657 150.344994,24.9595784 149.734898,24.9542311 L149.734898,24.9542311 Z" id="Path" fill="#066CA0"></path>
            <path d="M161.688503,43 C160.938253,43 160.278032,42.4761927 160.067962,41.7142911 C159.80692,40.7675213 160.320845,39.776156 161.215845,39.5000148 L178.839238,34.0714663 C179.418201,33.8928342 180.043274,34.054511 180.478997,34.4955946 C180.91472,34.9366782 181.094896,35.5901575 180.951655,36.2098731 C180.808414,36.8295888 180.363517,37.3213912 179.784554,37.5000232 L162.161161,42.9285717 L161.688503,43 Z" id="Path" fill="#066CA0"></path>
            <path d="M167.62866,62.95 C167.21532,62.968957 166.811957,62.8098959 166.507492,62.5078819 C166.203028,62.2058679 166.02246,61.7856983 166.005596,61.34 C165.969746,60.8755359 166.107213,60.4148405 166.387522,60.0600481 C166.66783,59.7052557 167.06782,59.48568 167.498815,59.45 L192.364162,58.05 L192.364162,58.05 C192.777502,58.031043 193.180866,58.1901041 193.48533,58.4921181 C193.789795,58.7941321 193.970363,59.2143017 193.987227,59.66 C194.043619,60.1220378 193.911564,60.5877544 193.625188,60.9368028 C193.338811,61.2858511 192.92621,61.4839835 192.494008,61.48 L167.62866,62.95 L167.62866,62.95 Z" id="Path" fill="#066CA0"></path>
            <path d="M183.069164,87.7059371 L183.069164,87.7059371 L168.58789,86.7959371 C167.652245,86.686593 166.959442,85.8610185 167.001846,84.9059371 C167.109563,83.9561596 167.922854,83.2528924 168.863724,83.2959371 L183.276039,84.2059371 C184.228156,84.2059371 185,84.9894388 185,85.9559371 C185,86.9224354 184.228156,87.7059371 183.276039,87.7059371 L183.069164,87.7059371 Z" id="Path" fill="#066CA0"></path>
            <path d="M192.351671,116 L191.951106,116 L167.249558,110.256202 C166.36144,110.011003 165.832843,109.150308 166.047861,108.299523 C166.128016,107.87681 166.38694,107.503243 166.764886,107.265026 C167.142831,107.026808 167.607147,106.94452 168.050689,107.03715 L192.752237,112.844067 C193.631027,113.060984 194.16504,113.902449 193.953934,114.737627 C193.776587,115.448696 193.123423,115.963303 192.351671,116 Z" id="Path" fill="#066CA0"></path>
            <path d="M176.321591,138.948558 C176.030781,139.017147 175.727719,139.017147 175.436908,138.948558 L164.888763,133.164879 C164.353881,132.876557 164.015278,132.328136 164.000503,131.726202 C163.985729,131.124268 164.297026,130.560268 164.817134,130.246656 C165.337242,129.933044 165.987142,129.917465 166.522025,130.205787 L177.138222,136.056718 C177.534819,136.253896 177.828028,136.608237 177.944841,137.031515 C178.061655,137.454792 177.991082,137.90718 177.750695,138.276037 C177.432579,138.739269 176.88601,138.996479 176.321591,138.948558 Z" id="Path" fill="#066CA0"></path>
            <path d="M171.33173,175.99635 C170.79106,176.034486 170.27267,175.771637 169.978353,175.310124 L153.331814,151.772591 C152.771227,150.995658 152.937857,149.904979 153.703993,149.336491 C154.470129,148.768003 155.54565,148.936982 156.106238,149.713915 L172.685107,173.32007 C172.947308,173.692506 173.051915,174.155736 172.975669,174.606769 C172.899424,175.057802 172.648647,175.459251 172.279094,175.721859 C172.000951,175.91498 171.668498,176.011306 171.33173,175.99635 L171.33173,175.99635 Z" id="Path" fill="#066CA0"></path>
        </g>
    </g>
</svg>