<?xml version="1.0" encoding="UTF-8"?>
<svg width="89px" height="80px" viewBox="0 0 89 80" version="1.1" xmlns="http://www.w3.org/2000/svg" xmlns:xlink="http://www.w3.org/1999/xlink">
    <title>3Fichier 6</title>
    <g id="Landing" stroke="none" stroke-width="1" fill="none" fill-rule="evenodd">
        <g id="3Fichier-6" fill-rule="nonzero">
            <path d="M61.1252951,0.963599543 C46.9988061,-3.1075598 33.3258587,6.67657068 25.3221822,12.5096744 C17.3185057,18.3427781 1.19109752,29.9422452 1.15107914,47.3214238 C1.66066503,59.3594804 8.50214206,70.2275832 19.1326724,75.8862794 C40.0622864,87.0319124 75.7453442,74.7516941 83.2421212,48.4426611 C88.4578504,29.5284552 78.1864656,6.02251557 61.1252951,0.963599543 Z" id="Shape" fill="#F4F7F8"></path>
            <path d="M88.7842732,56.0309057 C88.0775194,54.5100674 85.7038936,54.696837 81.4100312,55.0170135 L80.1565434,55.123739 C77.6362329,55.2971679 77.1828437,55.2838272 76.8227993,55.2838272 C75.6145886,55.2817238 74.407497,55.3574779 73.2090207,55.5106189 C71.0754245,55.6973885 68.9284933,55.8708174 66.794897,56.0309057 L63.9278771,56.2443567 C64.0876041,56.0315061 64.1970256,55.7852025 64.2479165,55.5239596 C64.3102802,54.6177504 63.9627421,53.7313936 63.3011332,53.1092952 C62.0743154,51.7752265 60.5274581,51.7752265 56.7936647,52.0286996 L55.1934675,52.1087437 L52.8465117,52.2021285 C49.4194227,52.3221947 48.2592798,52.3622168 47.6858758,53.5361972 C47.2546697,54.8167228 47.6029415,56.231208 48.5793192,57.1648641 C48.7731161,57.3728843 48.9875818,57.5606221 49.2193981,57.7251729 L45.872319,58.0053274 C41.2584171,58.4188887 38.498077,58.872472 36.5378355,59.1926485 C34.5818541,59.683121 32.5414513,59.7332417 30.563766,59.3393961 C27.5367264,58.6723617 24.6297015,57.1648641 18.8289867,54.1632095 C14.0684002,51.6951824 13.4949962,50.9214226 13.4016513,50.8547191 C13.8017006,50.2810696 17.4021443,50.1876848 19.7357651,50.1209814 L21.6826717,50.1209814 C21.6826717,50.1209814 25.5764848,49.9475524 52.3531175,48.2799666 L58.2605121,47.8930866 C61.3599482,47.5055205 64.4955595,47.5055205 67.5949956,47.8930866 C68.1826961,48.669687 68.8839834,49.3532853 69.6752519,49.9208711 C71.5565972,51.1019655 73.6007823,52.0008933 75.7426662,52.5890085 C77.582893,53.1893394 82.9968934,54.6568149 84.1570364,54.0698247 L84.4770758,53.8563737 L84.5704206,53.58956 C84.6347771,53.343286 84.591122,53.0812434 84.4504059,52.8691629 C83.5836324,51.5350942 76.0627057,47.8530646 68.3417543,46.6257214 C66.5415325,43.957584 65.8747837,40.5557088 65.3413846,36.713591 C64.3412614,30.0432475 64.007887,25.0004678 63.7278525,21.3050975 C63.2877982,14.9949526 63.0744386,11.8198691 60.3941083,9.72538125 C58.860586,8.52471942 57.6204332,8.56474148 53.0065314,8.69814835 C52.0464131,8.69814835 50.93961,8.69814835 49.5394375,8.79153316 C28.2034752,9.27179789 16.415356,9.53861163 14.8684987,9.32516064 L14.695144,9.32516064 C12.7082326,9.0583469 8.57438986,8.51137874 6.69415818,10.8993617 C5.36066053,12.5402662 5.7740448,14.7281389 6.04074433,16.2356365 C6.80083799,21.4785265 7.57426662,26.8281419 8.30769033,31.9509657 C8.86775934,35.8731277 9.4544983,39.9553779 10.0945772,43.957584 C10.209874,45.227583 10.8119971,46.4036602 11.7747842,47.239393 C12.751902,47.913374 13.9469366,48.1943988 15.1218633,48.0264935 C19.7891051,47.6262729 24.5496916,47.4661847 29.1635935,47.3060964 C31.8305888,47.2127116 34.4309092,47.1193268 37.0712345,46.9859199 C49.832807,46.345567 56.2202607,46.0120498 59.3673152,46.1988194 C60.4589552,46.3408025 61.5631068,46.053887 62.4476947,45.3983782 C64.2879215,43.8508585 63.6478426,40.9826108 62.7543992,37.0204268 C62.4343597,35.5529512 62.0609804,33.898706 61.7542759,32.0843726 C61.2225275,28.8032831 60.9726947,25.4826544 61.0075173,22.1589015 C61.0075173,18.7570263 61.0075173,16.5024502 58.913926,14.7948423 C57.2737238,13.4607736 55.6201868,13.4607736 51.6596988,13.4607736 L50.5795657,13.4607736 C29.5369728,13.527477 17.9488783,13.5674991 16.4686959,13.3407074 L16.2820062,13.3407074 C14.6818091,13.100575 12.7082326,12.8070799 11.1213704,14.0210825 C8.97443915,15.6886683 9.33448351,18.7303449 10.4279516,27.7753307 L10.734656,30.3500833 C12.0014788,40.6357529 12.4148631,44.4912115 14.4417795,44.7980473 L14.4417795,44.7980473 L14.4417795,43.3705938 C13.5216661,42.5167898 12.8415823,36.7802944 12.0548187,30.189995 L11.7481143,27.6152425 C10.761326,19.3706979 10.4146166,16.2889992 11.9348039,15.0883374 C13.0682769,14.2211928 14.6684741,14.4613251 16.0819816,14.6747761 L16.2686713,14.6747761 C17.8421985,14.9149085 28.1101304,14.8748864 50.5929006,14.808183 L51.6730337,14.808183 C55.4068271,14.808183 56.7936647,14.808183 58.0604875,15.8354159 C59.6473497,17.1694846 59.6606846,18.8370704 59.6740196,22.1855829 C59.6419436,25.5766926 59.9007018,28.964305 60.4474482,32.3111643 C60.7541527,34.1655198 61.127532,35.8464463 61.4609065,37.3272626 C62.2343351,40.8358632 62.7944041,43.3705938 61.5942562,44.384486 C60.9644076,44.8093303 60.199376,44.9852203 59.447325,44.8780914 C56.2335957,44.6913218 49.806137,45.0114983 37.0045596,45.6651919 C34.3375644,45.7985988 31.7505789,45.8919836 29.1235886,45.9853684 C24.4963517,46.1454567 19.7090952,46.3055449 15.0018485,46.7191062 C14.1611123,46.8368725 13.3058738,46.6525157 12.5882178,46.1988194 C11.9007614,45.5570747 11.4775292,44.6817031 11.4014049,43.744133 C10.774661,39.7419269 10.187922,35.7397208 9.627853,31.7375147 C8.89442929,26.6146909 8.12100066,21.2784162 7.20088728,15.9421414 C6.97419268,14.6080727 6.66748822,12.8737834 7.60093658,11.7131436 C9.04111403,9.91215087 12.6682276,10.3790749 14.4151095,10.6192073 L14.5884642,10.6192073 C16.2953412,10.8726803 26.6699529,10.6058666 49.6061124,10.1256019 C50.93961,10.1256019 52.0330781,10.1256019 52.9931964,10.032217 C57.6070983,9.89881018 58.327187,9.89881018 59.5139999,10.7659548 C61.727606,12.5002441 61.9276306,15.2884477 62.3543499,21.4385044 C62.6077144,25.1605561 62.9677588,30.2566985 63.981217,36.9537233 C64.2948392,40.1916542 65.1655397,43.3509877 66.5548675,46.2922042 C63.724479,46.074527 60.879642,46.1326098 58.0604875,46.4656331 L52.1664279,46.8658537 C25.496475,48.5200989 21.6159968,48.6935279 21.5759919,48.6935279 L19.6424203,48.6935279 C14.8684987,48.8269347 12.3615232,48.9736823 12.0548187,50.4678392 C11.881464,51.3216432 12.2148384,52.1754472 18.1755729,55.2571458 C24.1363074,58.3388445 27.0299973,59.8463422 30.1770517,60.5934206 C32.3101854,61.0383349 34.5160549,60.9972991 36.6311803,60.4733544 C38.6314268,60.1398373 41.3784319,59.6995946 45.9656638,59.299374 L50.5128908,58.9124941 C54.7534133,58.5522955 57.9138027,58.2988225 60.1274088,57.8852612 C62.3410149,57.4716999 64.6479658,57.4983813 66.794897,57.338293 L73.3423705,56.8446876 C74.4874185,56.6935231 75.6411548,56.6177628 76.7961294,56.6178959 C77.9542082,56.627256 79.1118536,56.569349 80.2632232,56.444467 L81.5967209,56.3510822 C84.4237359,56.1376312 87.3440957,55.9108395 87.6508002,56.5912145 C87.6975101,56.7067339 87.6975101,56.8358937 87.6508002,56.9514131 C87.5574554,57.1648641 87.1440711,57.5384033 85.3571843,57.6051068 C76.996154,57.9252832 68.528444,58.6723617 60.3407684,59.3927588 C54.1800093,59.939727 47.8058906,60.5000358 41.5251167,60.8735751 C38.2313775,61.0736854 35.9110916,61.2871364 34.2175496,61.4472246 C30.6837808,61.7674011 29.7369975,61.8607859 27.6434062,61.1670702 C20.9024672,58.6861733 14.6507381,55.0373933 9.1744638,50.3877951 C7.93914125,49.0732218 6.21737848,48.3253576 4.4138772,48.3199886 C2.56724165,48.617349 0.94915942,49.7226154 0,51.3349839 L1.09346807,52.1087437 C1.82401197,50.822031 3.08133188,49.9200783 4.53389199,49.6407166 C5.98916994,49.7022589 7.35864349,50.3464275 8.33436028,51.4283687 C13.902391,56.1868791 20.2740114,59.913908 27.1500121,62.4344354 C28.249703,62.8274536 29.4093555,63.0260783 30.577101,63.0215055 C31.5505543,63.0215055 32.6706923,62.9147002 34.2575545,62.7679526 C35.8444167,62.621205 38.2580474,62.4077541 41.5251167,62.2076438 C47.8192255,61.8341045 54.2066793,61.2737957 60.3807734,60.7268275 C68.5551139,59.9664083 76.996154,59.2593519 85.3438493,58.9391754 C86.1172779,58.9391754 88.1841993,58.83245 88.7576032,57.4850406 C88.9656035,57.0245335 88.975247,56.4987365 88.7842732,56.0309057 Z M82.2101298,52.695734 C80.1339859,52.3708555 78.0871893,51.8801277 76.0893756,51.2282584 C74.0759328,50.6658702 72.1538007,49.8167147 70.3820057,48.7068685 C70.1419761,48.5200989 69.9019465,48.3333293 69.6885869,48.133219 C74.078034,48.9795448 78.3047918,50.5196622 82.2101298,52.695734 L82.2101298,52.695734 Z M62.9410888,55.2571458 C62.8210741,55.8441361 61.700936,56.2576974 59.9140492,56.5912145 C58.7139013,56.69794 57.5137534,56.8180062 56.3269405,56.9514131 L56.046906,56.9514131 C53.1132112,57.2849303 50.7129154,57.551744 49.5661075,56.2176753 C49.0193734,55.6306851 48.6059892,54.6434742 48.8860237,54.0965061 C49.1660582,53.5495379 50.0728366,53.6029007 52.8865166,53.5095159 L55.2334725,53.416131 L56.8470046,53.3360869 C58.0204825,53.3360869 58.913926,53.2427021 59.6340147,53.2427021 C61.1141971,53.2427021 61.7809459,53.416131 62.30101,53.9764399 C62.8210741,54.5367488 62.9810938,55.0436949 62.9410888,55.2571458 Z" id="Shape" fill="#0777A9"></path>
            <polygon id="Path" stroke="#0B77AA" stroke-width="0.1" fill="#0777A9" stroke-linecap="round" stroke-linejoin="round" points="29.5380166 32.1889937 22.7704895 29.465977 30.6235012 26.7563085 31.0791367 24.4604317 20.6129214 28.2246018 20.1438849 30.4937823 29.1225843 34.2446043"></polygon>
            <polygon id="Path" stroke="#0B77AA" stroke-width="0.1" fill="#0777A9" stroke-linecap="round" stroke-linejoin="round" points="39.5373681 18.9928058 28.7769784 38.8489209 31.2406815 38.8489209 42.0143885 18.9928058"></polygon>
            <polygon id="Path" stroke="#0B77AA" stroke-width="0.1" fill="#0777A9" stroke-linecap="round" stroke-linejoin="round" points="41.3834135 24.4604317 40.9808889 26.5160423 47.7030498 29.239059 39.880655 31.9620756 39.4244604 34.2446043 49.8901002 30.4937823 50.3597122 28.2246018"></polygon>
        </g>
    </g>
</svg>