<?xml version="1.0" encoding="UTF-8"?>
<svg width="82px" height="82px" viewBox="0 0 82 82" version="1.1" xmlns="http://www.w3.org/2000/svg" xmlns:xlink="http://www.w3.org/1999/xlink">
    <title>Group 10</title>
    <defs>
        <polygon id="path-1" points="0 0 81.1556 0 81.1556 81.1558 0 81.1558"></polygon>
    </defs>
    <g id="Page-1" stroke="none" stroke-width="1" fill="none" fill-rule="evenodd">
        <g id="Group-10">
            <g id="Group-3">
                <mask id="mask-2" fill="white">
                    <use xlink:href="#path-1"></use>
                </mask>
                <g id="Clip-2"></g>
                <path d="M81.1556,40.5780141 C81.1556,62.9884193 62.9879849,81.1560281 40.5775719,81.1560281 C18.1671589,81.1560281 -0.000456214831,62.9884193 -0.000456214831,40.5780141 C-0.000456214831,18.1676088 18.1671589,0 40.5775719,0 C62.9879849,0 81.1556,18.1676088 81.1556,40.5780141" id="Fill-1" fill="#F2F6F7" mask="url(#mask-2)"></path>
            </g>
            <path d="M40.5020683,53.067461 C38.0008705,54.9995301 36.6276639,56.9087885 36.3117351,58.8944629 C36.1030168,60.1958152 36.5751992,61.6864967 37.5127207,62.6913095 C38.1936213,63.4189719 39.014808,63.7759599 39.877054,63.7029655 C41.5114437,63.5535552 42.7261156,61.8701231 42.9576447,60.3281175 C43.1857521,58.8020794 42.7740182,57.0684637 41.6996323,55.0314651 C41.3403631,54.3505648 40.9400346,53.6958967 40.5020683,53.067461 M39.6443845,65.4650947 C38.3909342,65.4650947 37.1910892,64.9142155 36.2330381,63.8877325 C34.9385285,62.503121 34.2907034,60.4341874 34.5792593,58.6173125 C34.9716041,56.1697208 36.5615127,53.8977717 39.4356662,51.6782873 C34.646551,45.9847282 26.6297159,42.9953816 19.3086084,44.5544952 C10.6678995,46.3941809 3.7129044,54.4315429 3.13351156,63.2490319 C3.10043599,63.7303384 2.70581016,64.0964507 2.20055224,64.0656562 C1.71810505,64.0325806 1.35313319,63.6174253 1.38392769,63.1326972 C2.01350415,53.5624539 9.5638596,44.8384888 18.942496,42.839128 C26.9114285,41.1477121 35.6456615,44.4119281 40.8408078,50.6312746 C47.9623214,45.3756816 52.6430855,42.3429946 62.3045751,44.7540891 C68.7406258,46.366808 76.5590075,55.2185132 76.9844278,61.3717086 C77.0175034,61.8541556 76.6525315,62.271592 76.1700843,62.3058081 C75.6956209,62.3354621 75.2702006,61.9739119 75.2359845,61.4914649 C74.867591,56.1548938 67.5031431,47.8620516 61.8802953,46.4557698 C52.9932304,44.2362855 49.0253019,46.7682769 41.90721,52.0215888 C42.399922,52.7218784 42.8481531,53.4541029 43.2507627,54.2137003 C44.5042129,56.5928599 44.9763953,58.6789015 44.6889799,60.5881599 C44.3080406,63.1498052 42.3075385,65.240409 40.0367292,65.4479867 C39.9044269,65.459392 39.7744057,65.4650947 39.6443845,65.4650947" id="Fill-4" fill="#066B9F"></path>
            <path d="M22.0725859,22.9676715 C16.6960942,22.9676715 12.3221345,27.3416297 12.3221345,32.7181196 C12.3221345,38.0946095 16.6960942,42.4685677 22.0725859,42.4685677 C27.4490777,42.4685677 31.8230374,38.0946095 31.8230374,32.7181196 C31.8230374,27.3416297 27.4490777,22.9676715 22.0725859,22.9676715 M22.0725859,44.220432 C15.7289187,44.220432 10.5702695,39.0617846 10.5702695,32.7181196 C10.5702695,26.3744545 15.7289187,21.2158071 22.0725859,21.2158071 C28.4162532,21.2158071 33.5749024,26.3744545 33.5749024,32.7181196 C33.5749024,39.0617846 28.4162532,44.220432 22.0725859,44.220432" id="Fill-6" fill="#066B9F"></path>
            <path d="M56.1577646,22.9676715 C50.7812728,22.9676715 46.4073131,27.3416297 46.4073131,32.7181196 C46.4073131,38.0946095 50.7812728,42.4685677 56.1577646,42.4685677 C61.5342564,42.4685677 65.908216,38.0946095 65.908216,32.7181196 C65.908216,27.3416297 61.5342564,22.9676715 56.1577646,22.9676715 M56.1577646,44.220432 C49.8140974,44.220432 44.6554482,39.0617846 44.6554482,32.7181196 C44.6554482,26.3744545 49.8140974,21.2158071 56.1577646,21.2158071 C62.5014318,21.2158071 67.660081,26.3744545 67.660081,32.7181196 C67.660081,39.0617846 62.5014318,44.220432 56.1577646,44.220432" id="Fill-8" fill="#066B9F"></path>
        </g>
    </g>
</svg>