<?xml version="1.0" encoding="UTF-8"?>
<svg width="80px" height="80px" viewBox="0 0 80 80" version="1.1" xmlns="http://www.w3.org/2000/svg" xmlns:xlink="http://www.w3.org/1999/xlink">
    <title>Group 6</title>
    <defs>
        <polygon id="path-1" points="0 0 80 0 80 80.0002218 0 80.0002218"></polygon>
    </defs>
    <g id="Page-1" stroke="none" stroke-width="1" fill="none" fill-rule="evenodd">
        <g id="Group-6">
            <g id="Group-3">
                <mask id="mask-2" fill="white">
                    <use xlink:href="#path-1"></use>
                </mask>
                <g id="Clip-2"></g>
                <path d="M80.0002218,40 C80.0002218,62.0917403 62.0912967,80.0006653 39.9995564,80.0006653 C17.9089251,80.0006653 0,62.0917403 0,40 C0,17.9082597 17.9089251,-0.000665347062 39.9995564,-0.000665347062 C62.0912967,-0.000665347062 80.0002218,17.9082597 80.0002218,40" id="Fill-1" fill="#F2F6F7" mask="url(#mask-2)"></path>
            </g>
            <path d="M38.4148106,69.6712631 C29.4803085,69.6712631 20.248618,65.8743492 15.3183963,59.6522453 C8.86896544,51.5128329 6.90175596,39.4378926 10.3094418,28.8899239 C11.3573635,25.6474659 13.6151078,21.7219182 16.6679419,17.840727 C18.5342404,15.4698736 24.5789185,11.5154943 28.5022483,11.1229395 C29.7264869,10.9976325 30.7034382,11.229395 31.3854189,11.8115737 C31.7447063,12.1154155 31.7879539,12.6532377 31.4841121,13.0114162 C31.1813792,13.3718126 30.6435569,13.4150601 30.2842695,13.1090005 C29.888388,12.7741091 29.1842291,12.7685646 28.6719118,12.8162478 C25.2708794,13.1577926 19.619865,16.8460331 18.0052895,18.8953021 C15.0755446,22.6223546 12.9176023,26.3571694 11.9295619,29.4122213 C8.69375738,39.4345659 10.5467489,50.8874066 16.6535261,58.5943434 C22.5795506,66.0706266 35.1756793,69.8076593 45.3344201,67.0941522 C57.8739944,63.7452386 66.8295658,49.3038806 64.4986333,36.1921079 C63.3631076,29.7925781 59.474154,23.9020387 53.8331199,20.0286099 C48.4970364,16.3636565 42.0886353,14.9076554 36.2601951,16.0453988 C33.7085891,16.5399735 29.1110409,17.9704697 26.9830392,21.9869481 C24.9836713,25.7639016 24.7774137,29.7881424 25.0834733,34.669572 C25.4106023,39.8969821 25.490444,43.1483114 25.5558697,45.7597986 C25.6301668,48.8226129 25.6856124,51.1069712 26.0715137,54.930499 C36.5451854,50.7676442 40.6836441,48.7061772 52.3571583,42.6226872 C47.3005206,39.3292193 43.8473694,37.3775346 39.8940989,35.1441863 C36.6594033,33.3155907 32.9922321,31.2441436 27.8967825,28.1059233 C27.4975743,27.8597448 27.3722672,27.3341207 27.6184456,26.9326946 C27.8668419,26.5301596 28.3924661,26.4070704 28.7916743,26.6554667 C33.8582922,29.7759444 37.5099386,31.8396292 40.7324362,33.6615712 C45.0217069,36.0834345 48.7254723,38.1770599 54.5062293,41.9950432 L55.7149431,42.7923507 L54.4319322,43.4610245 C41.300199,50.3118814 37.3801959,52.2968335 25.653454,56.928758 L24.6155126,57.3401642 L24.4946412,56.2279257 C23.9956309,51.6392488 23.9324229,49.0643557 23.8525813,45.8030462 C23.7893733,43.2048659 23.7095317,39.9701703 23.3824027,34.7760275 C23.0586004,29.6084987 23.2914719,25.319228 25.4793548,21.1885316 C27.9367033,16.546627 33.0842717,14.925398 35.934175,14.372051 C42.2050711,13.1611193 49.0847597,14.7013978 54.7978731,18.6247276 C60.8137195,22.7543151 64.9599406,29.0473893 66.1764168,35.8927017 C68.6537257,49.8261781 59.1181934,65.1757348 45.7735491,68.7408861 C43.412676,69.3718569 40.9253869,69.6712631 38.4148106,69.6712631" id="Fill-4" fill="#066B9F"></path>
        </g>
    </g>
</svg>