<?xml version="1.0" encoding="UTF-8"?>
<svg width="82px" height="70px" viewBox="0 0 82 70" version="1.1" xmlns="http://www.w3.org/2000/svg" xmlns:xlink="http://www.w3.org/1999/xlink">
    <title>project</title>
    <defs>
        <polygon id="path-1" points="0 0 69.4289074 0 69.4289074 69.5010783 0 69.5010783"></polygon>
    </defs>
    <g id="Page-1" stroke="none" stroke-width="1" fill="none" fill-rule="evenodd">
        <g id="project" transform="translate(1.000000, 0.000000)">
            <g id="Group-3" transform="translate(3.180739, 0.000000)">
                <mask id="mask-2" fill="white">
                    <use xlink:href="#path-1"></use>
                </mask>
                <g id="Clip-2"></g>
                <path d="M7.88515056,14.8238355 C-0.892646276,26.4041489 -3.7848841,45.0916411 6.7642223,58.0502927 C18.3668681,72.2764042 40.4622016,72.6239272 54.4301196,62.5343975 C65.7636015,54.3176525 72.512287,38.7911701 68.0281822,23.9938201 C64.6270014,12.7018685 55.6082501,3.98362467 44.2062038,0.967971115 C29.2968001,-2.80972559 15.306158,5.02619374 7.88515056,14.8238355" id="Fill-1" fill="#EDF4F8" mask="url(#mask-2)"></path>
            </g>
            <path d="M64.4560435,66.8505102 L64.4560435,67.8505102 L26.0486767,67.8505102 L26.0486767,66.8505102 L52.107,66.85 L51.9354599,66.8171049 C48.3136609,66.09768 45.7721857,65.0060512 44.6336977,63.4186373 L44.5171002,63.2466545 L45.3595712,62.7079128 C46.3750441,64.2958846 49.3674291,65.4320641 53.7159569,66.116096 L54.5470466,66.2390533 C56.521738,66.5134658 58.6366358,66.6867773 60.7828526,66.7785618 L61.242141,66.7970343 L62.1054092,66.8250404 L62.9012772,66.8423806 L63.637,66.85 L64.4560435,66.8505102 Z" id="Stroke-4" fill="#066B9F" fill-rule="nonzero"></path>
            <path d="M72.8274776,30.0308246 L73.8271682,30.005952 L73.8428201,30.8891872 L73.8466501,31.8129038 L73.8387078,32.7900945 L73.8190426,33.8337521 L73.7746722,35.3511449 L73.6902042,37.4934531 L73.3466955,44.6298821 L73.2453252,47.1351767 L73.2017253,48.6675912 L73.1866399,49.7586341 L73.1868655,50.3452738 L73.197994,51.0613076 L73.2215023,51.7155297 L73.2379007,52.0241628 L73.2799893,52.6138765 L73.319689,53.0394581 C73.6518448,56.2781915 72.7110184,58.2546521 70.6138858,59.1638425 C69.4754256,59.6574102 68.2059248,59.8239055 66.2862306,59.7736992 L65.6577928,59.7507699 C65.5492492,59.7457907 65.4387531,59.7402433 65.3262288,59.734144 L64.6261397,59.6910528 L61.8072892,59.4737472 L61.1636259,59.439717 L60.379563,59.4127419 L59.1691418,59.3887003 L57.323115,59.3736305 L54.6720554,59.3739325 L50.5524485,59.3969314 L30.5275746,59.5800016 L26.7088916,59.5964255 L24.5351785,59.5941957 L22.8314489,59.5810419 L21.1851394,59.550524 L20.504954,59.5290422 L19.9087007,59.5033 L19.5536122,59.4837303 C17.2907051,59.3464622 16.0561741,56.7975246 15.5605766,52.3796469 L15.4947725,51.7358662 L15.4388344,51.0670094 L15.3925747,50.3734281 L15.3558059,49.6554739 C15.3504583,49.5338034 15.3454983,49.4111319 15.3409221,49.2874669 L15.3180382,48.5336127 C15.2202624,44.4520169 15.5182506,39.8871967 15.9906914,35.6602831 L16.1027122,34.6912135 L17.0956576,34.8097864 C16.5645558,39.2573049 16.2138328,44.1716433 16.3177514,48.5096642 L16.3407303,49.255833 C16.3453594,49.378053 16.3503881,49.4991967 16.355816,49.6192557 L16.3931721,50.3265261 C16.4001959,50.4422127 16.4076184,50.5567979 16.4154394,50.6702732 L16.4671448,51.3377396 C16.4765586,51.4467419 16.4863703,51.5546176 16.4965798,51.6613583 L16.5626066,52.2881153 C17.0109748,56.1704653 18.0328614,58.3896433 19.6141153,58.4855623 L20.3750091,58.5232809 L21.0469848,58.5463004 L22.0954624,58.5701363 L23.6817345,58.5892084 L25.1977861,58.596145 L29.8504293,58.5840621 L35.9549424,58.5360748 L51.5629919,58.3896607 L55.6490448,58.3717386 L58.3489306,58.3795891 L59.7361131,58.3977821 L60.4329544,58.4138353 L61.0396442,58.4338283 L61.7245195,58.4667365 L62.8173848,58.5468686 L64.3163356,58.6664339 L65.0054877,58.7135071 L65.6457395,58.7485971 L66.2402715,58.7711187 C68.0539235,58.8219194 69.2277128,58.6748693 70.2161189,58.2463559 C71.8207332,57.5506919 72.5636723,56.0821974 72.351321,53.4301951 L72.2838568,52.7026228 L72.2499538,52.2515438 L72.2158558,51.6198238 L72.1944309,50.9392806 L72.1856583,50.194406 L72.1895167,49.3696921 L72.205985,48.4496306 L72.254285,46.8568375 L72.3308387,44.9622791 L72.670269,37.918919 L72.7451316,36.1425654 L72.7995426,34.5536895 L72.8190474,33.8200712 L72.8386435,32.7849981 L72.8452486,32.1329863 L72.8454365,31.2025393 L72.8390636,30.6084225 L72.8274776,30.0308246 Z" id="Stroke-6" fill="#066B9F" fill-rule="nonzero"></path>
            <path d="M46.8616179,5.72136893 L46.8098076,6.43696852 L46.7299439,7.73407018 L46.6247944,9.6204292 L46.5910147,10.2793172 C46.5204122,11.6883204 46.4616812,13.0709326 46.4183958,14.3950308 L46.377739,15.8024715 L46.3518095,17.0281189 L46.3409658,17.8013824 L46.3347427,18.8943129 L46.3375097,19.5775825 L46.3459858,20.2240055 L46.3697358,21.1234914 L46.3931471,21.6756756 L46.4227973,22.1893152 L46.4588378,22.6639251 L46.5014201,23.0990202 L46.5506953,23.4941154 C46.6384824,24.1190046 46.7547878,24.575206 46.9027652,24.8526127 C46.9611591,24.9621013 47.0193026,25.0651109 47.0775794,25.1622041 C47.8165122,26.3933177 48.4704033,26.7261488 50.2774195,26.8775635 L50.9172446,26.9221494 L51.7022289,26.9718353 L51.8901891,26.9850255 C52.2087204,27.0080029 52.5133089,27.0333518 52.8183609,27.0629647 L54.4938003,27.2404073 C54.7047283,27.262006 54.9195372,27.2835718 55.1378169,27.3050551 L56.4858615,27.4325667 L57.8975098,27.5557126 L59.353068,27.672108 C59.8433842,27.7095164 60.3377363,27.7454023 60.8328422,27.7793682 L62.3171386,27.8751085 L63.7862632,27.9569442 C64.2712546,27.9816404 64.7504351,28.0036216 65.2205223,28.0224906 L66.481963,28.0667746 L67.284765,28.0875369 L68.0566477,28.1010801 L68.7972746,28.1072236 L69.8488743,28.102169 L70.5098896,28.0890227 L71.1384713,28.0678444 C71.2405134,28.0636353 71.3411901,28.059084 71.4404944,28.0541867 L72.0197949,28.0206215 L72.5658206,27.9785726 C72.6540333,27.9708475 72.7408455,27.9627613 72.8262503,27.9543103 L73.3217329,27.8991971 C74.757175,27.7205447 75.7320508,27.4212649 76.2054761,26.9794071 L76.5350516,26.663439 C78.0537737,25.1630873 78.5107167,24.0088608 78.5367634,21.3357882 L78.536211,20.760455 L78.5246035,20.1381073 L78.4954927,19.1363106 L78.4992575,18.7975942 L78.5172893,18.4095277 L78.5418677,18.0623916 L78.6245916,17.1518729 L78.9521554,14.023486 L79.0544243,12.9396308 L79.1026193,12.3466979 L79.1473669,11.6905645 L79.1803138,11.0604584 L79.2010259,10.4564936 L79.209162,9.87878425 C79.2197542,6.02106926 78.3126629,4.01031599 75.8643193,4.01031599 L64.4217593,4.11912132 L61.2812436,4.13614811 L59.0002567,4.13400061 L57.0937432,4.11517829 L56.2794916,4.09915267 L55.126373,4.06214437 L54.555955,4.03352446 L53.864793,3.9840066 L51.718054,3.80968065 L50.965779,3.75880172 L50.5094476,3.736795 L50.2456733,3.72965558 L50.0074601,3.72844201 L49.6853247,3.73754606 L49.4855287,3.75077396 L49.2909055,3.76962918 L48.9959265,3.80827662 C47.740442,3.99429929 46.9981445,4.6038678 46.8616179,5.72136893 Z M51.6942575,4.81089406 L53.9715489,4.99534586 L54.4889243,5.0312916 L55.2816728,5.06919206 L56.2347085,5.09835632 L57.6543443,5.12308907 L60.0748199,5.1371256 L62.558621,5.13138875 L64.9218998,5.11503152 L74.9850964,5.01182598 L75.8643193,5.01031599 C77.5886831,5.01031599 78.2749452,6.78628378 78.2010249,10.3724615 L78.1824183,10.9698766 C78.1782213,11.0720922 78.1734799,11.1756314 78.1681998,11.2804949 L78.1300968,11.9255732 L78.0793255,12.6024676 L77.9852701,13.6410538 L77.6074781,17.2768121 L77.5409016,18.0294624 L77.5052331,18.5968432 L77.4947846,19.0605279 L77.5038679,19.5020902 L77.5322371,20.4527752 C77.5342934,20.5517131 77.5359584,20.6485037 77.5372062,20.7432309 L77.5394774,21.2875044 C77.5379014,21.5479322 77.5321019,21.7913 77.5213769,22.0198738 L77.4931517,22.4579676 C77.364054,23.9969091 76.9449079,24.8215044 75.9588669,25.8253978 L75.6756834,26.1043037 C75.6260743,26.1517527 75.5752419,26.19974 75.5231602,26.2483496 C75.267111,26.4873257 74.7388891,26.6727166 73.9897709,26.8103761 L73.5970412,26.8752554 L73.1689197,26.9323419 C73.094696,26.941216 73.0190569,26.9497722 72.9420322,26.9580138 L72.4634939,27.0037163 L71.9531246,27.0420327 L71.4123489,27.0731256 L70.842591,27.0971575 L70.2452754,27.1142912 L69.6218262,27.1246891 L68.6407679,27.1280123 L67.6089213,27.1170947 L66.8951817,27.1021758 L66.1624303,27.0813343 L65.030772,27.0393226 L64.2567227,27.0043858 L63.4686469,26.9640953 L61.856113,26.8681041 L60.6204865,26.783267 L59.3677217,26.6880306 L58.5253979,26.6190334 L56.8300061,26.4685556 L55.5409589,26.3440449 C54.8211615,26.2721127 54.1023879,26.1962616 53.38853,26.116936 C52.9111568,26.0638891 52.4520985,26.0229607 51.9621377,25.9876171 L50.3762734,25.8830887 C50.3076654,25.8776252 50.2413698,25.8719704 50.1772671,25.8660681 L49.8180118,25.8272357 C48.8692731,25.7062547 48.4853289,25.4813443 48.0799217,24.8770534 L47.934991,24.6475729 C47.885651,24.565369 47.835778,24.4770117 47.7851002,24.3819909 C47.7521997,24.3203137 47.7211535,24.2415777 47.691948,24.1463631 L47.6359873,23.9341343 C47.6181492,23.8561821 47.6011252,23.771078 47.5849112,23.678994 L47.5386954,23.3819738 L47.4973159,23.0441051 L47.4607485,22.6664197 L47.4289692,22.2499489 L47.4019538,21.7957242 L47.3796782,21.3047773 L47.3550992,20.5017592 L47.3445676,19.9235196 L47.3374916,18.9943977 L47.3408089,17.9942554 L47.354438,16.9265741 L47.3885102,15.4039557 C47.4324585,13.7961747 47.5018634,12.0835342 47.5897617,10.3293625 L47.6578426,9.0300799 L47.7637577,7.202273 L47.8429681,5.96735228 C47.8873,5.25135375 48.2516877,4.92946632 49.1424944,4.79747722 L49.4032279,4.76381951 L49.5785503,4.74761678 L49.8570762,4.73293039 L50.0608755,4.72970532 L50.4070395,4.73498055 L50.8177123,4.75270809 L51.6942575,4.81089406 Z" id="Stroke-8" fill="#066B9F" fill-rule="nonzero"></path>
            <polygon id="Stroke-10" fill="#066B9F" fill-rule="nonzero" points="79.990567 9.28676044 80.009433 10.2865825 62.9104555 10.6287589 51.1443006 10.9054625 49.1169444 10.9754646 48.8406542 10.9947149 48.6992328 10.0047654 48.9946172 9.98252278 50.6889394 9.91899578 55.3005297 9.79797082 65.6548802 9.57098121"></polygon>
            <path d="M50.8420289,14.5602655 L50.9759566,13.5692744 L51.6130727,13.6450886 L52.1377804,13.6991405 C52.2290743,13.7079732 52.3221924,13.7166922 52.416989,13.7252589 C53.4759667,13.8209576 54.533139,13.8792349 55.5166524,13.8816151 C56.6920439,13.8844596 57.6787857,13.8061529 58.4073643,13.6366223 L58.6181235,13.5830163 L58.8858053,14.5465237 C58.0356814,14.7827052 56.8906724,14.8849432 55.5142324,14.8816121 C54.4980539,14.8791529 53.4128948,14.8193328 52.3269868,14.7212005 L51.7666519,14.6670354 L50.8420289,14.5602655 Z" id="Stroke-12" fill="#066B9F" fill-rule="nonzero"></path>
            <path d="M50.9089928,16.8446507 L51.03243,16.8466412 L51.365911,16.8619297 L51.800739,16.8908841 L52.3199602,16.9318107 L53.2199429,17.0119445 L54.5570606,17.1448878 L55.5885816,17.2567602 L56.581111,17.3727096 L57.7449327,17.5237726 L58.2203186,17.5939784 L58.6020828,17.6583759 C58.6569664,17.6685307 58.7072428,17.6783729 58.7525587,17.6878673 L58.8732714,17.7152717 L58.6306574,18.6853946 C58.5663244,18.6693058 58.4807076,18.6516255 58.3766335,18.6326375 L58.0118663,18.5720339 L57.5533157,18.5052859 L56.7267455,18.3973667 L55.454702,18.2478563 L54.4474064,18.1389571 L53.1421541,18.0089921 L52.0044839,17.9089203 L51.3428264,17.8616756 L51.0247569,17.8466133 L50.9089928,17.8446507 L50.9089928,16.8446507 Z" id="Stroke-14" fill="#066B9F" fill-rule="nonzero"></path>
            <path d="M62.0145298,14.564466 L62.0493956,13.565074 L64.6494679,13.6441779 L66.8914602,13.6991177 L68.4673592,13.7290032 L70.4761481,13.7502627 L71.9762911,13.7500803 L73.0162788,13.7391426 L73.8217459,13.7201712 L74.2698647,13.7003258 L74.4213297,13.6891393 L74.5209191,13.6772519 C74.5330493,13.6752182 74.5429094,13.6731597 74.5504449,13.6710786 L74.5660232,13.66477 L75.1660232,14.46477 C75.0772021,14.5313858 74.9048511,14.5848878 74.6426159,14.6270231 L74.3956822,14.660396 C74.3508085,14.6655078 74.3040633,14.6703978 74.2554282,14.6750711 L73.9407898,14.7005514 L73.5799034,14.7210755 L72.9499136,14.7431035 L72.2108639,14.7553553 L71.6560931,14.7584994 L70.4179439,14.7540337 L68.4511639,14.7288721 L67.6710222,14.7151227 L66.0520612,14.6803546 L64.0393074,14.6275158 L62.0145298,14.564466 Z" id="Stroke-16" fill="#066B9F" fill-rule="nonzero"></path>
            <polygon id="Stroke-18" fill="#066B9F" fill-rule="nonzero" points="62.0319627 17.8446507 62.0319627 16.8446507 69.1441809 17.1411392 72.5730406 17.2610051 74.4144744 17.3041494 74.6638414 17.3023578 74.7079093 17.2981503 75.0241371 18.2468336 74.9586104 18.2615693 74.8587769 18.2734058 74.7239771 18.2823803 74.4547721 18.2905575 73.8219191 18.2904039 72.5318338 18.2622242 68.7958677 18.1283773"></polygon>
            <path d="M9.73253832,12.4980673 C5.51734418,13.9197952 3.04946884,16.1308229 3.30931819,19.8533076 C3.70997029,25.592869 7.14592974,29.9977187 12.5615547,28.8623238 C15.3241791,28.2829898 17.3733015,26.7201673 18.6398446,24.6049541 C19.6276574,22.9552392 20.0295995,21.0492057 19.4912696,20.4302742 C18.814325,19.6515089 17.0871234,19.2558793 14.9221494,19.3089232 L14.3370136,19.3283514 C13.3095452,19.3515425 12.5651556,19.2528164 12.0786711,19.112274 L12.022,19.094 L12.0214989,19.17171 C12.0443796,18.2208523 12.0277058,17.1545127 11.9413841,16.1408992 C11.8517728,15.0886588 11.695967,14.2262269 11.4525638,13.6033697 C11.1028263,12.7084084 10.5176343,12.2333256 9.73253832,12.4980673 Z M10.5211569,13.9673495 C10.7218977,14.4810356 10.8628522,15.2612613 10.9449908,16.2257545 C11.0111733,17.0028879 11.034746,17.8193452 11.0302224,18.5846653 L11.0136073,19.4154364 L10.9995992,19.7478394 L11.3191071,19.897738 C11.9019546,20.1616371 12.8962956,20.3594696 14.3486333,20.3282832 L14.6668756,20.3180356 C16.6885722,20.231821 18.2904877,20.5731662 18.7366447,21.0864306 C18.811571,21.1725752 18.7686515,21.5968268 18.6091158,22.1630163 L18.5105384,22.4847444 C18.3453467,22.9849139 18.1022392,23.5562235 17.7818894,24.0912295 C16.653005,25.9765434 14.833691,27.3640958 12.3563394,27.8836069 C7.6836408,28.8632461 4.67110325,25.0012171 4.30689067,19.7836717 C4.08797508,16.6475856 6.21875778,14.7385672 10.0520697,13.445643 C10.2037242,13.3945037 10.3407786,13.50577 10.5211569,13.9673495 Z" id="Stroke-20" fill="#066B9F" fill-rule="nonzero"></path>
            <path d="M13.829945,9.05245953 C13.3505708,9.10572334 13.0668113,10.2080552 12.9608821,11.5553603 L12.9308503,12.0397423 C12.8967916,12.7776452 12.9119877,13.5576945 12.9737975,14.2605774 L13.0218808,14.7164245 C13.1042774,15.3791192 13.232701,15.9381334 13.4045103,16.2741544 L13.4633834,16.3777388 C13.5508738,16.5151796 13.5785326,16.5936621 13.5820235,16.7079802 L13.5806674,16.8019192 C13.5641127,17.1613094 13.6246817,17.3798608 13.9565769,17.5564484 C14.1411303,17.6546416 14.3883338,17.7039538 14.8554548,17.7481518 L15.5366574,17.8010181 L16.4988539,17.8611484 L17.0394813,17.9040733 L17.6235073,17.9608392 L19.1222485,18.1222223 L19.6326937,18.1712005 L19.992128,18.1956907 L20.1981581,18.2000929 L20.3774261,18.1941648 L20.6844587,18.1653374 C21.572127,18.0647954 22.1120686,17.6111923 22.2334464,16.7494305 C22.3924054,15.6208489 21.7149701,13.5272797 20.5436844,11.9595973 C18.9740885,9.85880492 16.6961786,8.7339058 13.829945,9.05245953 Z M19.7425878,12.5581324 C20.7669067,13.9291103 21.3618466,15.7677327 21.2432204,16.6099587 C21.1948577,16.9533253 21.0608158,17.0934551 20.6903096,17.1553458 L20.4629332,17.1832532 L20.2556844,17.1965752 L20.080852,17.1961274 L19.7750004,17.178577 L19.1935855,17.1240724 L17.7248658,16.9659848 L17.124971,16.9077197 C17.0296081,16.8992458 16.9359934,16.8913559 16.8432841,16.8839982 L16.2911527,16.8458259 L15.3449016,16.7852183 L14.8627456,16.7437033 L14.582,16.708 L14.5737632,16.5543341 C14.5500491,16.3200321 14.4740526,16.1032197 14.3069667,15.8407406 C14.1841951,15.6478757 14.0801615,15.1592511 14.0108887,14.5099566 L13.9736244,14.1021802 L13.9454718,13.6623273 L13.9272,13.1968822 L13.919578,12.7123292 L13.920001,12.4649136 C13.9256123,11.7234874 13.9697564,11.0297641 14.0437563,10.5270856 L14.0660255,10.3869957 C14.0812791,10.2981767 14.0972867,10.2186924 14.1136828,10.1496588 L14.147,10.026 L13.9404051,10.0463401 C16.4339368,9.76920851 18.3750584,10.7277916 19.7425878,12.5581324 Z" id="Stroke-22" fill="#066B9F" fill-rule="nonzero"></path>
            <path d="M37.3118687,11.7143578 L37.4222803,12.7082438 C36.8500961,12.7718081 36.1868256,12.8225677 35.4698135,12.8617889 L34.5859931,12.9033968 C34.435187,12.9094354 34.2828288,12.9150328 34.1292172,12.920199 L33.194897,12.9461034 L32.2448355,12.9621467 L31.5305859,12.9680004 L30.2776738,12.9660241 L29.0753836,12.9491825 L28.2273348,12.9274894 L27.4412217,12.8985692 L26.9586365,12.8755142 L26.3076167,12.8356295 L25.9283719,12.8057152 L25.5978989,12.7733092 L25.3204467,12.7385558 C25.2788592,12.7325759 25.2396578,12.7265042 25.2029313,12.7203438 L25.1002644,12.7015989 L25.2963028,11.7210027 L25.5034139,11.7553834 L25.7684132,11.7877623 C25.8171644,11.7929836 25.868148,11.7981153 25.9212743,11.8031542 L26.265026,11.832249 L26.8676475,11.8713874 L27.8109082,11.9143769 L28.6043247,11.9390661 L30.0473471,11.9643272 L30.9618567,11.9691258 L31.8951127,11.9655369 L32.5954852,11.9570852 L33.5433752,11.9371881 L34.4690128,11.9071436 C35.378407,11.8718472 36.2313953,11.8205277 36.9588957,11.750779 L37.3118687,11.7143578 Z" id="Stroke-24" fill="#066B9F" fill-rule="nonzero"></path>
            <path d="M36.028,16.188 L36.228,15.291 L36.1814476,15.3147889 L35.9301609,15.4673201 L35.8796563,15.6938208 C35.8267684,15.9449828 35.8334758,16.0101734 35.9212422,16.0980027 L36.0026009,16.171379 L36.028,16.188 Z M36.228,15.29 L36.2396549,15.2407593 L36.3853975,15.275992 C36.4054502,15.2815015 36.4237302,15.2869601 36.4407567,15.2925636 L36.510695,15.3189588 L36.5796944,15.3588105 C36.5919667,15.3668511 36.6068695,15.3767285 36.625498,15.3890752 L36.7092081,15.464862 C36.7882439,15.5440846 36.8035309,15.6046274 36.7702102,15.7882821 L36.7300988,15.9791574 C36.7215473,16.0170973 36.7120921,16.0583765 36.7017773,16.1034083 L36.464718,16.2462436 L36.3878289,16.2864665 C36.3694719,16.2942496 36.3569688,16.2970918 36.3460627,16.2970506 L36.3138787,16.29028 L36.1467015,16.2883118 L33.3112841,16.0422746 L32.1653861,15.9527627 C31.7959499,15.926081 31.4382027,15.9025782 31.0896218,15.8823239 L30.2452757,15.8389787 L29.6148371,15.8153216 L29.019911,15.8012792 C28.8276997,15.7982098 28.641675,15.7967564 28.4621048,15.7969326 L27.9430256,15.8023632 C27.7766323,15.805812 27.6169613,15.8109038 27.4642806,15.8176523 L27.0274772,15.8428812 C26.3353156,15.8932576 25.8246071,15.9853883 25.5288355,16.1209669 L25.4465857,16.1629456 L24.9503733,15.2947444 C25.4456759,15.0116588 26.3085711,14.8602148 27.5161817,14.8118613 L28.0547675,14.7973667 C28.2412866,14.7945836 28.4347741,14.7938212 28.6351631,14.7949961 L29.2569685,14.8042499 L29.9197833,14.8246286 L30.6232075,14.855633 C31.1407063,14.8814871 31.6753493,14.9147729 32.2359541,14.9552527 L33.3943924,15.0457341 L36.0927167,15.2831502 L36.228,15.29 Z" id="Stroke-26" fill="#066B9F" fill-rule="nonzero"></path>
            <polygon id="Stroke-28" fill="#066B9F" fill-rule="nonzero" points="34.2670231 19.1934054 35.945376 19.1947545 37.3011879 19.210648 37.9691441 19.2275467 38.5239423 19.2502397 38.8293223 19.2686977 39.0819799 19.2898962 39.280943 19.3139014 39.3599854 19.326977 39.1769352 20.3100806 39.1115675 20.2994186 38.9412354 20.2796713 38.5893615 20.2539479 38.1260215 20.2328313 37.3429809 20.2117048 35.836973 20.1946961 34.2206388 20.1938201 32.3131338 20.2058987 30.0732283 20.2318856 25.2095674 20.3184015 25.1869998 19.3186562 28.4998159 19.2556478 30.8226654 19.2219565 32.8205882 19.2015644"></polygon>
            <path d="M25.497,24.696 L25.5398963,24.6899758 C25.5609345,24.6862193 25.5685567,24.6827007 25.5709896,24.6760007 L25.5709468,24.642937 C25.5712277,24.6264548 25.5745458,24.6033718 25.5891278,24.5702687 L25.6204771,24.5126714 L24.7760901,23.9769377 C24.8083629,23.9260716 24.9670768,23.8746634 25.2287908,23.8237274 L25.5239698,23.7729863 L25.8826063,23.7227852 L26.5281488,23.6489893 L27.2871691,23.5776762 L27.8475438,23.531889 L29.0753189,23.4455407 L30.4110673,23.3676628 L31.4586668,23.3158975 L32.525979,23.2706715 L33.9493393,23.221857 L35.3348161,23.1878227 L36.0003252,23.1769117 L36.9499016,23.1688114 L37.8254256,23.1713069 L38.3592862,23.1792326 L38.8472116,23.1924309 L39.2839929,23.2111272 C39.3522383,23.2147139 39.4181357,23.2185391 39.4815766,23.2226075 L39.8318743,23.2499732 C39.9914154,23.2651526 40.1268939,23.2826051 40.2353795,23.3024573 L40.334759,23.3231141 L40.1031557,24.2959244 C40.0287917,24.2782201 39.9352652,24.2622433 39.8235709,24.2479592 L39.5762531,24.2216373 L39.2822563,24.1997667 L38.9433488,24.1822853 L38.3546482,24.1641566 L37.6748458,24.1555536 L36.6370442,24.1585376 L35.4620413,24.177585 L34.8275103,24.192977 L32.7570203,24.2618795 L31.4654715,24.3165468 L29.8255912,24.3972195 L28.7775195,24.4554407 L27.3384435,24.5455147 L26.1826382,24.6309996 L25.5993444,24.6849433 L25.497,24.696 Z" id="Stroke-30" fill="#066B9F" fill-rule="nonzero"></path>
            <path d="M31.0216632,27.21414 L31.7467438,27.2013585 C31.8642247,27.1998729 31.9800083,27.1987137 32.0940729,27.1978871 L32.757659,27.1969683 L33.3789499,27.2043287 L33.9569064,27.2202648 C34.0495635,27.2236519 34.1403718,27.2274087 34.2293095,27.2315414 L34.7403159,27.260897 L35.20539,27.2995696 C35.6471515,27.3429996 36.0184559,27.4008499 36.3146268,27.4744549 L36.4564294,27.5125765 L36.1769096,28.4727164 C35.8676882,28.3826946 35.4113927,28.3156285 34.8269554,28.270167 L34.3648966,28.2401006 L33.8565594,28.2180092 C33.7680786,28.2149848 33.6777435,28.2122875 33.585591,28.2099145 L33.0111642,28.1995481 L32.3948962,28.19684 L31.738562,28.2016635 L31.0439363,28.213892 C30.6266962,28.2231875 30.1985863,28.2359807 29.7605769,28.2519406 L28.4178207,28.3089895 L25.1982836,28.4926464 L25.1982836,27.4926464 L27.6729716,27.3454249 C28.8462807,27.2831321 29.967185,27.2376324 31.0216632,27.21414 Z" id="Stroke-32" fill="#066B9F" fill-rule="nonzero"></path>
            <path d="M0.412950584,5.50011874 L0.361857551,5.68133786 L0.22711212,7.36761986 L0.126416217,8.72250197 L0.0272179901,10.1408499 L-0.0689895876,11.6114561 C-0.19014671,13.5314085 -0.2911223,15.411902 -0.365192247,17.2026281 L-0.427309642,18.871491 L-0.464286265,20.1196996 L-0.490007588,21.2997332 L-0.503979939,22.4110088 L-0.506523844,23.1133724 L-0.5034803,23.7847451 L-0.488118546,24.7333182 L-0.470466434,25.3264579 L-0.446714918,25.8880021 L-0.416717723,26.4177781 L-0.380328575,26.9156132 L-0.337401203,27.3813347 C-0.329693662,27.4562692 -0.321707601,27.5298584 -0.313439972,27.6020988 L-0.260430999,28.0193259 C-0.241618816,28.152987 -0.221655981,28.2812238 -0.200518117,28.4040076 L-0.133555053,28.7559711 C0.0310310764,29.5389137 0.254388258,30.0532473 0.54487845,30.2890978 C1.37122256,30.9600109 2.61609964,31.33901 4.68179285,31.5271892 L5.26581678,31.5738557 L5.89235579,31.6115158 C6.00042263,31.6170673 6.11033648,31.6222625 6.22213515,31.6271109 L6.91584697,31.6521158 L7.6566075,31.6692537 C7.78408905,31.6714797 7.91360654,31.6733969 8.04519772,31.6750148 L8.8599315,31.6812065 L10.4208751,31.676508 L12.4493374,31.6500975 L18.6739919,31.5229243 C19.5997535,31.5037456 20.5560298,31.4987008 21.5474552,31.5068696 L22.7754874,31.5233484 L24.0029806,31.5515601 L25.6546747,31.6052742 L27.8321971,31.699812 L29.7766246,31.8008762 L34.5369274,32.0663662 L36.8053089,32.1775834 L37.9518909,32.2211645 L38.5492403,32.2372439 L39.2483361,32.2465025 L39.7048365,32.24404 L40.1076665,32.2332828 L40.4608422,32.2140219 L40.7683796,32.1860485 L41.034295,32.1491537 L41.1904317,32.1194975 L41.3310445,32.0857216 L41.4573235,32.0477638 C41.4772416,32.0410856 41.4966121,32.0342306 41.5154596,32.0271975 L41.6224689,31.982851 L41.7181191,31.9341681 L41.8036003,31.8810868 L41.8801024,31.8235452 L41.9488152,31.7614813 L42.0109289,31.6948334 L42.0943288,31.5861309 L42.169574,31.4667659 C42.1776303,31.4529031 42.1856099,31.4388389 42.1935377,31.4245721 C42.2422899,31.3367935 42.2919562,31.1950054 42.3421665,31.005209 L42.4178435,30.6852582 L42.4940584,30.2977958 L42.5705337,29.8473228 L42.6851268,29.063314 L42.7610373,28.4750059 L42.8362359,27.8394403 L42.9470911,26.8073299 L43.0192943,26.0733122 L43.1243545,24.9146219 L43.2246877,23.7002376 L43.3193563,22.4453501 L43.4351493,20.7354171 L43.56,18.5895742 L43.6412599,16.9100425 L43.7035605,15.3025345 L43.7365071,14.1658298 L43.7513894,13.4492878 L43.7602818,12.771006 L43.761782,11.8351666 L43.7544846,11.2722265 L43.7402252,10.7632997 L43.7187259,10.3128871 C43.714524,10.2429445 43.7100088,10.1756276 43.7051745,10.1110301 L43.6722947,9.75682806 C43.6158758,9.26618888 43.6524509,8.82473258 43.7678051,8.26307015 L43.9084909,7.61128681 L43.9496997,7.37670944 L43.9722127,7.18656586 C44.0479266,6.32153665 43.7025549,5.76527312 42.5063122,5.36914207 L42.2367943,5.28665369 L41.9402896,5.20874232 L41.6158583,5.13508296 C41.559407,5.12314268 41.5017529,5.11136603 41.4428765,5.09974623 L41.0747932,5.03185553 L40.6764339,4.96740434 L40.0200717,4.87646571 L39.2903024,4.79143787 L38.7614414,4.73749475 L37.9022785,4.65988073 L36.6288341,4.56085035 L34.8209125,4.44056592 L33.7960619,4.37849948 L31.6851496,4.25976978 L29.5137599,4.14954799 L27.3072583,4.04939855 C26.5687241,4.01786795 25.8285655,3.98827681 25.09101,3.96088588 L23.773184,3.914206 L21.390913,3.841552 L19.3432017,3.79099439 L16.9154777,3.74781053 L15.0811497,3.7298675 L13.7695656,3.72641551 L12.5138695,3.73176774 L10.9279323,3.75295462 L9.8057633,3.77964901 L8.7421581,3.81583246 L7.73791951,3.8617104 L7.101805,3.89778299 L6.49267029,3.93831642 L5.91075325,3.98337157 L5.08943112,4.05956569 L4.57659886,4.11619147 L4.09181677,4.17755203 L3.63532271,4.24370824 L3.20735453,4.31472097 L2.80815009,4.3906511 L2.43794725,4.4715595 C2.20086542,4.52717138 1.98327656,4.5861427 1.78549781,4.64855461 L1.50372692,4.74476306 C0.92558655,4.95884963 0.558365449,5.20970612 0.412950584,5.50011874 Z M42.9266101,7.42187941 L42.7888932,8.05881143 C42.6533788,8.71858573 42.6085439,9.25973499 42.6788405,9.8710594 L42.6952808,10.0310674 L42.7224899,10.4012401 L42.7423802,10.8345265 L42.7552432,11.3264119 L42.7613703,11.8723816 L42.7610532,12.4679209 L42.7450825,13.654866 L42.7301049,14.2951569 L42.6872393,15.652742 L42.6285918,17.0908203 L42.5752831,18.206193 L42.4931526,19.7210958 L42.4242052,20.8635231 L42.2974421,22.7462068 L42.1872992,24.2031881 L42.0712558,25.5876354 L41.9510306,26.8729352 L41.859151,27.7558348 L41.7666108,28.5567664 L41.674135,29.2645024 L41.5824484,29.8678153 L41.5221206,30.2064665 C41.512134,30.2584402 41.5021843,30.3081336 41.4922762,30.3554775 L41.4333607,30.6107907 C41.3944631,30.7614635 41.3563723,30.872325 41.3193746,30.9389396 C41.2526275,31.0590574 41.0198055,31.1417089 40.5155978,31.1865956 L40.2130281,31.2073322 L39.852832,31.2205674 L39.4312117,31.2262906 L38.7827374,31.2224493 L37.5370895,31.1910984 L36.2567773,31.1413272 L34.0575968,31.0354307 L28.3449882,30.7239651 L26.5420086,30.6399642 L25.2719324,30.5907152 L24.028904,30.5518972 L23.2094792,30.531825 L22.3832316,30.5166236 L21.5574474,30.506921 C20.8055488,30.5007235 20.0742638,30.5020404 19.3608452,30.5112644 L12.0651395,30.6561766 L9.82589573,30.6803654 L8.8616924,30.6812092 L8.06671685,30.6751104 L7.3222819,30.6620058 L6.62671735,30.6416172 L5.97835302,30.6136664 L5.37551871,30.5778751 C3.14978562,30.4252921 1.89079642,30.0937601 1.17519291,29.5127579 C1.07559925,29.4318973 0.986796333,29.2449942 0.908971258,28.9605257 L0.85266372,28.7290133 L0.800490414,28.4617085 C0.792140357,28.4142191 0.78396329,28.3652716 0.775959579,28.3148823 L0.730020509,27.9953792 L0.688259521,27.6420705 L0.650694157,27.255751 L0.617341957,26.8372154 L0.588220462,26.3872584 L0.552509162,25.6551463 L0.526415613,24.8568065 L0.509999015,23.994921 L0.503318568,23.072172 L0.506433472,22.0912419 L0.51398117,21.40629 L0.533553213,20.3343514 L0.575142283,18.8261854 L0.602616146,18.04007 L0.633993669,17.242958 C0.6929604,15.8173889 0.76913472,14.3332922 0.85905847,12.8171431 L0.929025267,11.6744351 C0.960331337,11.1783341 0.992383254,10.6890403 1.02493214,10.2084272 L1.12382084,8.79450372 L1.29881565,6.49022628 L1.348,5.887 L1.36797587,5.86372133 C1.50305699,5.72194696 1.79534206,5.59304193 2.23204833,5.47732405 L2.51130038,5.40947831 L2.82459994,5.34481275 L3.17133344,5.28334261 C3.23187443,5.27336472 3.29378293,5.2635206 3.35704617,5.25381059 L3.75278014,5.19716218 L4.18041412,5.14374734 L4.63933453,5.09358131 L5.12892782,5.04667934 L5.91948717,4.9824799 L6.48307824,4.94380485 L7.6952229,4.87642238 L8.67625765,4.83466727 L10.0762686,4.79080067 L11.1925658,4.76682262 L12.7654105,4.74684562 L14.0056959,4.74092493 L15.2956677,4.7428289 L17.0893409,4.75762824 L18.4871945,4.77799001 L20.9110029,4.82972124 L22.4183447,4.87152085 L24.1786343,4.92868734 L25.0544656,4.96021775 C25.7900413,4.98753523 26.5282515,5.0170489 27.2648625,5.04849785 L29.465664,5.14838961 L31.6314684,5.25832759 C32.3447479,5.29647401 33.0479608,5.3360339 33.7368736,5.37674633 L35.8364349,5.5078521 L37.1266318,5.59892295 L38.2582554,5.69004494 L39.2408389,5.78277357 L39.8857039,5.85431013 L40.4561183,5.92828162 L40.7970192,5.97927275 L41.1078102,6.03183216 L41.3896827,6.0861543 L41.6438287,6.14243359 L41.8714396,6.20086448 L42.0737072,6.26164141 C42.1053727,6.27197721 42.1360319,6.28241885 42.1657096,6.2929704 L42.3321966,6.35763095 L42.4763195,6.42512363 C42.7874414,6.58606194 42.9256548,6.7717172 42.9590831,6.99320478 L42.9671928,7.09035424 L42.9636633,7.19208578 L42.9496863,7.29859382 L42.9266101,7.42187941 Z" id="Stroke-34" fill="#066B9F" fill-rule="nonzero"></path>
            <path d="M25.8379732,34.2551493 L25.2187454,34.2738879 L24.8627358,34.2946801 C23.9167379,34.3653778 23.4979169,34.5443519 23.4599552,35.037945 L23.4575463,35.1692099 L23.4816483,36.9541391 L23.5026579,38.0856736 L23.5401684,39.6899204 L23.5868095,41.2439708 L23.6536182,42.9730858 L23.6829553,43.5939523 L23.7469701,44.7127229 L23.7819606,45.2100357 L23.838615,45.8775829 L23.900741,46.4501366 L23.9454587,46.7785722 L23.9929993,47.0640494 C24.0011666,47.1080327 24.0094581,47.1502137 24.017877,47.1905862 L24.0699449,47.4110715 C24.1057107,47.5435287 24.1436191,47.6468542 24.1838785,47.7206538 C24.9061708,49.045601 26.3587128,49.5828189 29.7034837,49.5325894 L30.374799,49.5155858 L30.9098128,49.4945716 L31.2671662,49.4853087 L31.633367,49.4824981 L32.026626,49.4859453 L32.9671616,49.5108366 L33.8068202,49.539243 L34.5329298,49.555191 L34.950241,49.5565558 C35.0157385,49.5561025 35.0792881,49.5552962 35.1410086,49.5541179 L35.4903352,49.5424342 L35.8014735,49.5209174 C36.3893674,49.4674458 36.78238,49.3495315 37.1859982,49.1345117 C38.2534351,48.5658554 38.5998396,47.4140285 38.2784633,45.5418959 L38.1122418,44.6580418 L38.0418147,44.258507 L37.9489929,43.6777259 L37.8944557,43.2925354 L37.8448323,42.9006621 L37.7778075,42.2847961 L37.7368626,41.8451643 L37.6789923,41.1243913 L37.622906,40.3087356 L37.5049589,38.2969603 L37.4441407,37.224188 L37.418012,36.8433986 L37.3902001,36.5143192 L37.3592542,36.2325308 C37.3537548,36.1892615 37.3480644,36.1477785 37.3421528,36.1079898 L37.3037863,35.8888524 C37.213859,35.4549144 37.0763278,35.2761922 36.8247986,35.1504276 C36.8001719,35.1381143 36.7643972,35.1251871 36.7182098,35.1117214 L36.5491453,35.0697849 L36.1880603,35.0018143 L35.8821138,34.9537843 L35.3363919,34.8787977 L34.4699008,34.7757037 L33.9870724,34.7238425 L32.9443152,34.6217578 L31.828178,34.5248774 L30.6739653,34.4368265 L29.6741967,34.370744 L28.8651929,34.3252685 L28.1000394,34.2901761 L27.3836297,34.2658846 L26.7208573,34.2528113 C26.403696,34.2491489 26.1084838,34.2498499 25.8379732,34.2551493 Z M29.6154023,35.3690184 L30.5658903,35.4319281 L31.6933742,35.5187405 L33.0682088,35.639885 L34.0822778,35.7398715 L35.3484946,35.8814458 L35.9530949,35.9618104 L36.1656295,35.9956234 L36.288,36.019 L36.2993385,36.0576041 L36.3401046,36.2530148 L36.3734913,36.4826521 L36.3995928,36.7186612 L36.4240564,36.998247 L36.472201,37.7298749 L36.6199983,40.2962604 L36.6925625,41.3451614 L36.7299393,41.8112732 L36.7894242,42.455054 L36.8789495,43.2427732 L36.9597366,43.8265922 C36.9910979,44.0365164 37.0249923,44.2468678 37.0619963,44.4625739 L37.1829132,45.1306836 L37.2514487,45.4860253 C37.5721369,47.1218523 37.3617858,47.9078144 36.7158241,48.251938 C36.464438,48.3858591 36.1877322,48.4688789 35.7792167,48.5135831 L35.5174382,48.5359084 L35.2189139,48.549642 L34.8785321,48.5553881 L34.2782954,48.5503521 L32.2509378,48.4899467 L31.6267059,48.4824231 L31.2470157,48.4854523 L30.6853082,48.5026279 L30.0317031,48.5259941 L29.4290516,48.5368442 C26.6358425,48.55892 25.5513254,48.1398172 25.061818,47.2418823 C25.0500825,47.2203699 25.0383518,47.1904296 25.0266439,47.1523416 L24.9916064,47.0139146 L24.9568129,46.8282818 L24.9223706,46.5971236 L24.8716004,46.1687019 L24.8222242,45.6473004 L24.7746041,45.0385904 L24.7144683,44.1009663 L24.6589568,43.0316529 L24.6089282,41.8440937 L24.5862382,41.2101729 C24.5691919,40.7061031 24.5537418,40.1887265 24.5398039,39.6628985 L24.5024427,38.0649164 L24.459,35.371 L24.5620986,35.3500197 C24.768224,35.3130312 25.0513695,35.286053 25.4031008,35.2696058 L25.8575598,35.2549575 L26.4145943,35.2506213 C26.5127478,35.2508768 26.6134872,35.2516159 26.7167061,35.2528303 L27.3649193,35.2657549 L28.0675191,35.2896917 L28.8193866,35.3242448 L29.6154023,35.3690184 Z" id="Stroke-36" fill="#066B9F" fill-rule="nonzero"></path>
            <path d="M53.5801395,31.581691 L53.6569327,32.5787381 L53.2323612,32.6038811 L52.4419939,32.6331522 L50.8967735,32.6665381 L49.0985301,32.6852209 L46.9488121,32.685315 L45.5465858,32.6691242 L44.814371,32.6522571 L44.1946904,32.6296682 L43.8564904,32.6112859 L43.5869077,32.5901441 L43.3933831,32.5661562 C43.3678806,32.5619162 43.3458572,32.5575541 43.3274679,32.5530679 L43.2833576,32.5392356 L43.6798406,31.6211935 L43.7018916,31.6272938 L43.7899069,31.638589 L44.0240803,31.6533133 L44.8097904,31.6750703 L46.354157,31.6890712 L48.4717174,31.6860663 L50.7863698,31.6631064 L52.2801266,31.6340521 L52.8804648,31.6161229 L53.4744831,31.5890079 L53.5801395,31.581691 Z" id="Stroke-38" fill="#066B9F" fill-rule="nonzero"></path>
            <path d="M65.5522201,31.6920044 L65.6417651,32.6879872 L65.1641163,32.7270922 L64.2481683,32.7918279 C64.1394742,32.7988368 64.0286422,32.8057543 63.9158416,32.8125501 C62.6725658,32.887453 61.4314388,32.9335816 60.2707509,32.9367441 L59.8754816,32.9361041 L59.1209984,32.9242111 C58.1478395,32.898728 57.3080077,32.8342313 56.6261257,32.7245865 L56.3778719,32.6813414 L56.5631227,31.6986502 C57.0068489,31.7822986 57.546414,31.8428766 58.1683779,31.8820156 L58.8173103,31.9140688 L59.5181886,31.932192 C59.7601406,31.9359517 60.0102524,31.9374502 60.2680263,31.9367478 C61.4073475,31.9336436 62.6301169,31.8881973 63.8557042,31.81436 L64.8004145,31.7515791 L65.5522201,31.6920044 Z" id="Stroke-40" fill="#066B9F" fill-rule="nonzero"></path>
            <path d="M52.8893588,35.673916 L55.0333528,35.5909077 L56.6274684,35.5406745 L57.732547,35.5138755 L58.76074,35.496947 L59.7126707,35.4903825 L60.5889629,35.4946752 L61.131444,35.5038126 L61.8830572,35.5272975 L62.3429964,35.5496865 L62.770242,35.577632 L63.1649789,35.6112802 L63.5273918,35.6507773 C63.5851105,35.6578556 63.6414901,35.6651838 63.6965344,35.6727648 L64.0108076,35.7213094 C64.0605262,35.729914 64.1089171,35.7387775 64.1559844,35.747903 L64.4225336,35.805824 L64.6574977,35.8701788 C64.9132697,35.9490692 65.1049327,36.0413936 65.2338067,36.1481968 L65.2851981,36.1948591 L64.5780913,36.9019659 C64.5103391,36.8342137 64.3486198,36.7750155 64.0992206,36.724381 L63.8641239,36.6830773 C63.8214112,36.676543 63.7769458,36.6701835 63.730746,36.6639989 L63.432881,36.6289894 L63.0942703,36.5981777 L62.7157937,36.5715651 L62.0752549,36.5395224 L61.349967,36.5169353 L60.5428992,36.5038083 L59.9608872,36.5003148 L59.3883001,36.5008447 L58.4754735,36.5084809 L57.5000423,36.52433 L56.4644028,36.5483955 L55.3709514,36.5806812 L53.3693117,36.65483 L45.6228712,37.0156948 L44.7308477,37.0493352 L44.0722948,37.0643614 L43.718052,37.0630037 L43.4729744,37.0505017 L43.4138992,37.043808 L43.549299,36.053017 L43.6489223,36.0610226 L43.8015734,36.0650409 L44.1448662,36.0633654 L44.86002,36.0442333 L48.2720418,35.8900583 L51.0122328,35.7576697 L52.8893588,35.673916 Z" id="Stroke-42" fill="#066B9F" fill-rule="nonzero"></path>
            <path d="M46.0592912,39.8821032 L49.2697799,39.798497 L49.8648019,39.7929855 L50.1220228,39.796863 L50.3776033,39.8107971 L50.4772801,39.8216429 L50.6033227,39.8429138 L50.7136456,39.870351 L50.4391487,40.831939 L50.4006003,40.822886 L50.2910277,40.8085464 L50.1278014,40.7992287 L49.898498,40.7949332 L49.336711,40.7989197 L47.7856093,40.8358162 L45.5855571,40.8921929 L44.7193228,40.9039252 L43.9775659,40.9055198 L43.2932989,40.8974844 L42.6632137,40.8792312 C42.5625309,40.8753049 42.4639678,40.8709283 42.3674555,40.8660893 L42.0840023,40.8501725 L42.1463406,39.8521174 L42.7067181,39.8801603 C42.804402,39.883952 42.9042696,39.8873098 43.0063802,39.8902449 L43.6464393,39.9028698 C43.757761,39.9041577 43.8714452,39.9050448 43.9875513,39.905542 L44.7137284,39.9039355 L45.5678516,39.8923482 L46.0592912,39.8821032 Z" id="Stroke-44" fill="#066B9F" fill-rule="nonzero"></path>
            <path d="M59.1381488,39.3989888 L59.6971811,40.2281346 C59.6659679,40.2491794 59.5949894,40.2716358 59.4904041,40.2950391 L59.2382496,40.3429706 L58.9074261,40.3926012 L58.5088824,40.4431048 L57.8080417,40.5186899 L57.0164173,40.5915926 L56.1709613,40.6590247 L55.3086256,40.7181984 L54.4663623,40.7663255 L53.6811236,40.800618 L53.2075594,40.814417 L52.7867113,40.8200022 L52.4295281,40.8165474 C52.3222943,40.8137973 52.2274962,40.8094029 52.1469585,40.8032265 L52.0370753,40.7926081 L52.1576229,39.7999006 C52.2109119,39.8063716 52.2794772,39.8111206 52.3614762,39.814306 L52.6459317,39.8193293 L53.1995612,39.8113511 L53.6371562,39.7970758 L54.6270191,39.7513044 L55.9653535,39.6715992 L57.0090381,39.5991053 L58.1348169,39.5100454 L58.7845909,39.4493065 L58.99546,39.4250527 L59.115577,39.4061429 L59.1381488,39.3989888 Z" id="Stroke-46" fill="#066B9F" fill-rule="nonzero"></path>
            <polygon id="Stroke-48" fill="#066B9F" fill-rule="nonzero" points="60.9623922 40.7911369 61.1050977 39.8013718 61.3308924 39.8162783 62.2818702 39.8463137 63.8232485 39.8782635 65.6035488 39.9060002 65.5904364 40.9059142 63.8053762 40.8781039 61.8521498 40.835319 61.2198192 40.8113095 61.0055955 40.7962947"></polygon>
            <path d="M58.7082447,43.5438751 L59.7284214,43.5526353 L60.3584611,43.5645643 L61.2277626,43.5919628 L61.7564175,43.6167818 L62.2440698,43.6470168 L62.690463,43.6828164 C62.7614093,43.689255 62.8306259,43.6959316 62.8981073,43.7028494 L63.282131,43.7472745 C63.9478442,43.8341168 64.4023107,43.9508871 64.6384198,44.1017062 L64.697394,44.1436859 L64.0727846,44.9246232 C64.0360067,44.8952076 63.9717678,44.8674551 63.8813571,44.8413899 L63.7262735,44.8035604 L63.5328991,44.7682798 L63.3022009,44.735566 L63.0351459,44.705437 L62.732701,44.6779108 L62.214793,44.6415413 L61.8281038,44.620601 L60.9596759,44.5867359 L59.9709614,44.5636782 L58.8696959,44.551572 L57.663615,44.5505611 L56.3604543,44.5607897 L54.6067697,44.5896004 L53.3293953,44.6198668 L51.6380088,44.6699547 L49.0446255,44.7628412 L45.2116837,44.9318438 L43.952231,45.001728 L43.52451,45.0323098 L43.4386882,44.0359993 L44.0206815,43.9956797 L46.1193146,43.8867135 L49.9782939,43.7267607 L52.1787791,43.6524193 L53.8454713,43.6064589 L55.5345664,43.5708831 L57.0884933,43.5495455 L58.0485241,43.5437096 L58.7082447,43.5438751 Z" id="Stroke-50" fill="#066B9F" fill-rule="nonzero"></path>
            <path d="M43.4333734,48.6444173 L43.5298247,47.6490796 L44.029989,47.6903916 L44.658467,47.7305178 L45.4019889,47.7692087 L46.5493727,47.8181331 L48.1901171,47.8741766 L50.7625615,47.9410267 L52.3191205,47.9720612 L54.6884854,48.0072717 L57.004917,48.0270995 L59.6635598,48.0272176 L61.4543535,48.0055181 L62.5020762,47.9770599 L63.0201987,47.9544643 L63.3145829,47.9370067 L63.6736312,47.907117 L63.8544889,47.884656 L63.9857489,47.8601151 C64.0209701,47.8515832 64.0475262,47.8426971 64.0650185,47.8334493 L64.0844093,47.8193055 L64.8401369,48.4741915 C64.7825218,48.5406784 64.6199276,48.6001559 64.3675809,48.6531049 L64.1296586,48.6969022 L63.8499066,48.7375693 L63.5304559,48.7751734 L63.1734372,48.8097819 L62.5721303,48.856225 L61.8982813,48.8963066 L61.1590817,48.9302539 L60.0842555,48.9663674 L58.315442,49.0020252 L57.0567096,49.0142408 L56.409879,49.0170837 L55.2482662,49.0170517 L53.6770499,49.0075391 L52.1056788,48.9880075 L50.1138787,48.9492113 L48.5944657,48.9083973 L46.5112812,48.8331732 L45.2982607,48.7751148 L44.5027828,48.7281141 L43.8197769,48.6786087 L43.4333734,48.6444173 Z" id="Stroke-52" fill="#066B9F" fill-rule="nonzero"></path>
            <path d="M48.8770164,6.67779776 C48.9122157,6.24301599 49.2571667,5.92797342 49.718796,5.97899093 L49.8271529,5.99733892 C50.2936453,6.10325749 50.4961162,6.51102841 50.3881878,6.90843558 L50.3547122,7.00739078 C50.2175753,7.34470632 49.8806243,7.60613441 49.4985234,7.55154855 C49.0673743,7.49004929 48.8449969,7.0733028 48.8770164,6.67779776 Z" id="Stroke-54" fill="#066B9F" fill-rule="nonzero"></path>
            <path d="M50.5959874,6.1498752 C50.500169,6.19861519 50.4477522,6.22770246 50.3659905,6.28490114 C49.9794508,6.55531577 49.7682247,6.97356633 50.160608,7.39776451 C50.3489158,7.60134045 50.6683926,7.74199136 50.9586682,7.77025196 C51.4497041,7.81805816 51.900115,7.50833729 51.7486316,6.93128816 C51.6017025,6.3692053 51.1891098,5.93309713 50.6950181,6.10719416 L50.5959874,6.1498752 Z" id="Stroke-56" fill="#066B9F" fill-rule="nonzero"></path>
            <path d="M51.6491274,6.47813601 C51.5838971,6.57079276 51.5059106,6.70849421 51.4556788,6.84570423 C51.3168753,7.22485089 51.3707598,7.632703 51.8584188,7.75958067 C52.0697195,7.81427946 52.3814703,7.80555626 52.6314033,7.73645161 C53.0724737,7.61449885 53.3901919,7.29198351 53.2603583,6.8001562 C53.0769069,6.10147795 52.141189,5.95815332 51.71904,6.39381738 L51.6491274,6.47813601 Z" id="Stroke-58" fill="#066B9F" fill-rule="nonzero"></path>
        </g>
    </g>
</svg>