<?xml version="1.0" encoding="UTF-8"?>
<svg width="143px" height="133px" viewBox="0 0 143 133" version="1.1" xmlns="http://www.w3.org/2000/svg" xmlns:xlink="http://www.w3.org/1999/xlink">
    <title>3Fichier 5</title>
    <g id="Landing" stroke="none" stroke-width="1" fill="none" fill-rule="evenodd">
        <g id="3Fichier-5" fill-rule="nonzero">
            <path d="M38.0044252,125.224055 C20.6702698,116.665111 8.71088024,100.124798 6.06037586,81.0441599 C4.60007646,55.1268022 29.9955957,39.1811535 42.5678608,31.2310438 C55.140126,23.280934 76.7708108,9.78846205 100.249687,17.102563 C128.61144,26.1884027 147.481246,62.0774696 140.567641,89.7892807 C130.619351,128.290526 73.2341482,143.66831 38.0044252,125.224055 Z" id="Path" fill="#F4F7F8"></path>
            <path d="M59.7988516,130 C51.1403899,129.980087 42.6069854,127.921391 34.8826634,123.988935 L0,126.015392 L11.9597703,102.244362 C4.10170953,88.5171357 2.44812865,72.0703916 7.41488023,57.040257 C12.3816318,42.0101224 23.4961216,29.8267384 37.9632103,23.5540562 C44.8504922,20.5356085 52.2854518,18.9850428 59.7988516,19.0001087 C90.2786571,19.0378794 114.974573,43.8727501 114.999769,74.5114941 C115.033245,86.0646743 111.434011,97.3330729 104.715944,106.707123 C94.3692072,121.313138 77.636539,129.99028 59.7988516,130 Z M35.2677318,121.666478 L35.5395448,121.825862 C58.9318553,133.929318 87.6169647,126.926749 102.881206,105.38651 C109.312667,96.3918745 112.76039,85.58845 112.734571,74.5114941 C112.696988,45.1391481 89.0188408,21.3375396 59.7988516,21.2998255 C52.594361,21.2871138 45.4662872,22.7837496 38.8692535,25.6943597 C24.9119415,31.7514496 14.2155815,43.543608 9.5005423,58.0717755 C4.78550308,72.599943 6.50615056,88.4641091 14.2248783,101.629594 L14.5419935,102.153286 L3.80538147,123.601859 L35.2677318,121.666478 Z" id="Shape" fill="#0777A9"></path>
            <path d="M100.992386,109 L103.27665,105.762663 C109.762501,96.756588 113.239382,85.9394232 113.213198,74.8483791 C113.17551,45.4564409 89.3248935,21.6318939 59.8756345,21.5691147 C52.6102158,21.5563053 45.4218601,23.0548446 38.7690355,25.9691566 L35,27.610623 L37.284264,24.2592957 C54.2670461,-0.592210591 87.9825029,-7.44016971 113.346149,8.81033772 C138.709794,25.0608452 146.508101,58.5067049 130.939086,84.2640129 L143,108.042478 L107.913706,105.990645 C106.703046,106.606195 105.629442,107.062158 104.692893,107.472524 L100.992386,109 Z M107.456853,103.665234 L139.162437,105.511884 L128.335025,84.127224 L128.654822,83.6028667 C142.882825,59.704102 136.309221,28.9041564 113.557767,12.8671661 C90.8063121,-3.16982424 59.5246451,0.946789194 41.715736,22.3214534 C58.7143933,16.4775235 77.4941944,19.1835087 92.1425437,29.587462 C106.790893,39.9914152 115.505676,56.8133891 115.543147,74.7571865 C115.590493,84.9557909 112.790407,94.9659423 107.456853,103.665234 L107.456853,103.665234 Z" id="Shape" fill="#0777A9"></path>
        </g>
    </g>
</svg>